<?xml version="1.0" encoding="UTF-8"?>
<!DOCTYPE svg PUBLIC "-//W3C//DTD SVG 1.1//EN" "http://www.w3.org/Graphics/SVG/1.1/DTD/svg11.dtd">
<svg xmlns="http://www.w3.org/2000/svg" version="1.1" width="800px" height="800px" style="shape-rendering:geometricPrecision; text-rendering:geometricPrecision; image-rendering:optimizeQuality; fill-rule:evenodd; clip-rule:evenodd" xmlns:xlink="http://www.w3.org/1999/xlink">
<g><path style="opacity:0.964" fill="#fceac0" d="M 261.5,121.5 C 273.886,121.106 286.22,121.606 298.5,123C 303.399,124.449 308.065,126.449 312.5,129C 318.431,133.215 324.598,137.049 331,140.5C 344.558,135.105 358.058,135.272 371.5,141C 394.995,151.825 413.495,168.325 427,190.5C 430.2,196.353 433.367,202.187 436.5,208C 531.998,268.916 627.664,329.583 723.5,390C 729.947,394.113 736.114,398.613 742,403.5C 745.111,407.387 747.444,411.72 749,416.5C 748.236,489.514 746.57,562.514 744,635.5C 740.247,657.918 727.414,672.085 705.5,678C 499.833,678.667 294.167,678.667 88.5,678C 68.4854,671.985 55.9854,658.818 51,638.5C 50.3333,549.167 50.3333,459.833 51,370.5C 60.7171,306.297 85.7171,248.964 126,198.5C 162.838,158.165 208.005,132.498 261.5,121.5 Z M 268.5,154.5 C 274.842,154.334 281.175,154.5 287.5,155C 291.544,155.856 295.211,157.522 298.5,160C 270.523,186.794 255.023,219.628 252,258.5C 246.055,330.053 278.889,368.053 350.5,372.5C 423.704,366.796 456.204,327.463 448,254.5C 536.913,311.708 626.079,368.541 715.5,425C 504.834,425.5 294.167,425.667 83.5,425.5C 80.3869,382.179 87.2202,340.512 104,300.5C 114.021,276.783 126.354,254.45 141,233.5C 173.603,191.277 216.103,164.944 268.5,154.5 Z M 386.5,194.5 C 392.231,194.721 395.731,197.721 397,203.5C 399.34,210.262 398.84,216.762 395.5,223C 393.833,223.667 392.167,223.667 390.5,223C 383.143,214.308 381.81,204.808 386.5,194.5 Z M 312.5,195.5 C 314.17,195.751 315.67,196.418 317,197.5C 321.062,207.392 319.896,216.559 313.5,225C 310.682,225.84 308.516,225.006 307,222.5C 305.049,215.848 305.049,209.181 307,202.5C 307.967,199.379 309.8,197.046 312.5,195.5 Z M 353.5,251.5 C 355.484,251.383 357.15,252.05 358.5,253.5C 362.32,261.062 362.486,268.729 359,276.5C 356.513,282.126 353.18,282.792 349,278.5C 345.887,268.612 347.387,259.612 353.5,251.5 Z M 412.5,251.5 C 414.484,251.383 416.15,252.05 417.5,253.5C 421.322,261.062 421.489,268.729 418,276.5C 415.513,282.126 412.18,282.792 408,278.5C 404.968,268.635 406.468,259.635 412.5,251.5 Z M 285.5,253.5 C 291.645,253.806 295.145,257.14 296,263.5C 298.317,269.932 297.817,276.099 294.5,282C 292.833,282.667 291.167,282.667 289.5,282C 282.018,273.337 280.685,263.837 285.5,253.5 Z M 385.5,311.5 C 387.903,311.393 389.736,312.393 391,314.5C 394.188,323.073 393.521,331.406 389,339.5C 386.925,341.648 384.592,341.982 382,340.5C 377.076,330.052 378.243,320.385 385.5,311.5 Z M 318.5,312.5 C 320.655,312.372 322.655,312.872 324.5,314C 329.618,321.491 331.118,329.658 329,338.5C 327.278,342.126 324.778,342.959 321.5,341C 314.987,332.032 313.987,322.532 318.5,312.5 Z M 83.5,448.5 C 294.5,448.333 505.5,448.5 716.5,449C 715.089,473.759 714.089,498.592 713.5,523.5C 503.5,523.5 293.5,523.5 83.5,523.5C 83.5,498.5 83.5,473.5 83.5,448.5 Z M 83.5,574.5 C 293,575.833 502.5,575.833 712,574.5C 712.09,589.538 711.59,604.538 710.5,619.5C 713.513,630.967 709.846,639.467 699.5,645C 498.167,645.667 296.833,645.667 95.5,645C 89.2602,643.092 85.4269,638.925 84,632.5C 83.5,613.17 83.3334,593.836 83.5,574.5 Z"/></g>
</svg>
