<?xml version="1.0" encoding="UTF-8"?>
<!DOCTYPE svg PUBLIC "-//W3C//DTD SVG 1.1//EN" "http://www.w3.org/Graphics/SVG/1.1/DTD/svg11.dtd">
<svg xmlns="http://www.w3.org/2000/svg" version="1.1" width="512px" height="512px" style="shape-rendering:geometricPrecision; text-rendering:geometricPrecision; image-rendering:optimizeQuality; fill-rule:evenodd; clip-rule:evenodd" xmlns:xlink="http://www.w3.org/1999/xlink">
<g><path style="opacity:1" fill="#fceac9" d="M 370.5,14.5 C 373.85,14.335 377.183,14.5017 380.5,15C 383.882,19.265 386.048,24.0984 387,29.5C 387.17,35.1958 387.67,40.8624 388.5,46.5C 395.809,50.6422 401.642,56.3089 406,63.5C 406.706,65.9712 406.373,68.3046 405,70.5C 401.833,73.6667 398.667,76.8333 395.5,80C 430.859,94.2485 459.693,116.748 482,147.5C 482.667,149.833 482.667,152.167 482,154.5C 452,195.833 422,237.167 392,278.5C 391.333,279.167 391.333,279.833 392,280.5C 404.056,289.441 406.056,300.107 398,312.5C 355.279,370.887 312.946,429.554 271,488.5C 265.597,495.947 258.43,498.447 249.5,496C 245.759,494.262 242.592,491.762 240,488.5C 197.245,428.657 154.245,368.99 111,309.5C 107.569,304.125 106.902,298.458 109,292.5C 111.58,287.916 114.913,283.916 119,280.5C 119.667,279.833 119.667,279.167 119,278.5C 89.3333,237.833 59.6667,197.167 30,156.5C 28.5432,153.634 28.2099,150.634 29,147.5C 45.5001,123.328 66.6668,104.495 92.5,91C 143.358,65.2592 197.358,52.4259 254.5,52.5C 271.191,53.3646 287.858,54.198 304.5,55C 307.995,51.7492 311.995,49.2492 316.5,47.5C 316.732,38.676 318.399,30.176 321.5,22C 331.568,19.6119 341.068,21.1119 350,26.5C 355.773,20.5355 362.607,16.5355 370.5,14.5 Z M 369.5,28.5 C 370.833,28.5 372.167,28.5 373.5,28.5C 374.329,33.453 374.663,38.453 374.5,43.5C 370.821,43.3626 367.321,44.0293 364,45.5C 362.901,42.1363 361.401,38.9696 359.5,36C 362.365,32.7489 365.699,30.2489 369.5,28.5 Z M 348.5,43.5 C 342.474,42.4937 336.474,42.4937 330.5,43.5C 330.336,40.8127 330.503,38.146 331,35.5C 331.308,34.6919 331.808,34.0253 332.5,33.5C 339.168,34.8273 344.502,38.1606 348.5,43.5 Z M 334.5,55.5 C 359.218,56.7204 373.218,69.5538 376.5,94C 376.033,102.737 373.2,110.57 368,117.5C 352.584,133.792 333.75,142.959 311.5,145C 308.193,142.222 306.026,138.722 305,134.5C 299.162,117.088 298.162,99.4215 302,81.5C 308.018,66.6335 318.851,57.9668 334.5,55.5 Z M 373.5,57.5 C 380.748,56.7792 386.748,59.4459 391.5,65.5C 389.169,67.6596 386.669,69.6596 384,71.5C 381.406,66.0834 377.906,61.4168 373.5,57.5 Z M 244.5,65.5 C 260.923,65.3466 277.256,66.3466 293.5,68.5C 287.282,82.5227 285.116,97.1894 287,112.5C 287.872,125.992 291.539,138.658 298,150.5C 304.307,157.602 312.14,160.102 321.5,158C 347.679,152.442 368.512,138.942 384,117.5C 387.762,109.593 389.596,101.259 389.5,92.5C 417.421,103.247 441.421,119.747 461.5,142C 438.5,142.333 415.5,142.667 392.5,143C 333.616,150.604 289.116,179.771 259,230.5C 256.936,231.591 254.769,231.758 252.5,231C 222.223,180.106 177.556,150.772 118.5,143C 95.5,142.667 72.5,142.333 49.5,142C 71.8701,117.339 98.8701,99.3389 130.5,88C 167.423,74.3818 205.423,66.8818 244.5,65.5 Z M 46.5,156.5 C 69.9964,155.337 93.6631,155.17 117.5,156C 169.584,162.685 209.584,188.018 237.5,232C 197.866,234.685 162.032,247.518 130,270.5C 101.917,232.598 74.0838,194.598 46.5,156.5 Z M 393.5,155.5 C 417.169,155.333 440.836,155.5 464.5,156C 437.053,194.447 409.22,232.614 381,270.5C 349.007,247.388 313.174,234.555 273.5,232C 301.619,188.079 341.619,162.579 393.5,155.5 Z M 244.5,244.5 C 286.291,242.865 325.291,252.365 361.5,273C 372.708,279.871 382.375,288.538 390.5,299C 346.694,360.306 302.694,421.473 258.5,482.5C 254.817,483.994 251.984,482.994 250,479.5C 206.466,419.598 163.299,359.431 120.5,299C 134.563,281.958 151.897,269.291 172.5,261C 195.765,251.717 219.765,246.217 244.5,244.5 Z"/></g>
<g><path style="opacity:1" fill="#fceac9" d="M 317.5,65.5 C 322.713,64.7617 325.713,66.9284 326.5,72C 325.755,74.9922 324.588,77.8256 323,80.5C 320.159,82.5037 316.993,83.0037 313.5,82C 310.101,75.3797 311.434,69.8797 317.5,65.5 Z"/></g>
<g><path style="opacity:1" fill="#fceac9" d="M 341.5,77.5 C 346.632,77.0607 349.299,79.394 349.5,84.5C 349.036,90.2928 346.036,93.9594 340.5,95.5C 336.553,95.0553 334.553,92.8886 334.5,89C 334.946,83.9273 337.28,80.094 341.5,77.5 Z"/></g>
<g><path style="opacity:1" fill="#fceac9" d="M 255.5,82.5 C 261.364,80.9547 264.698,83.1213 265.5,89C 265.357,91.151 264.357,92.8176 262.5,94C 254.273,97.1313 245.939,99.9647 237.5,102.5C 229.959,100.287 228.626,96.1198 233.5,90C 240.979,87.5633 248.313,85.0633 255.5,82.5 Z"/></g>
<g><path style="opacity:1" fill="#fceac9" d="M 362.5,90.5 C 365.187,90.3359 367.854,90.5026 370.5,91C 373.136,95.4866 372.969,99.9866 370,104.5C 366.888,107.723 363.388,108.223 359.5,106C 358.282,104.562 357.615,102.895 357.5,101C 358.508,97.1517 360.175,93.6517 362.5,90.5 Z"/></g>
<g><path style="opacity:1" fill="#fceac9" d="M 198.5,94.5 C 204.705,92.9048 208.705,95.0715 210.5,101C 209.917,103.499 208.584,105.499 206.5,107C 198.34,108.208 190.173,109.374 182,110.5C 174.685,109.369 172.852,105.536 176.5,99C 183.898,97.2594 191.231,95.7594 198.5,94.5 Z"/></g>
<g><path style="opacity:1" fill="#fceac9" d="M 137.5,99.5 C 140.505,99.253 143.005,100.253 145,102.5C 145.665,112.529 145.332,122.529 144,132.5C 140.685,136.105 137.018,136.439 133,133.5C 131.978,131.298 131.478,128.965 131.5,126.5C 132.124,119.509 132.624,112.509 133,105.5C 133.599,102.746 135.099,100.746 137.5,99.5 Z"/></g>
<g><path style="opacity:1" fill="#fceac9" d="M 313.5,100.5 C 318.938,99.4508 321.938,101.618 322.5,107C 322.023,114.825 318.023,118.158 310.5,117C 306.765,113.116 306.598,108.949 310,104.5C 311.032,102.973 312.199,101.64 313.5,100.5 Z"/></g>
<g><path style="opacity:1" fill="#fceac9" d="M 337.5,112.5 C 342.284,112.108 345.284,114.275 346.5,119C 345.77,125.016 342.603,128.849 337,130.5C 333.275,129.609 331.109,127.276 330.5,123.5C 331.61,118.922 333.943,115.255 337.5,112.5 Z"/></g>
<g><path style="opacity:1" fill="#fceac9" d="M 241.5,123.5 C 248.282,122.125 251.448,124.791 251,131.5C 245.887,139.907 239.721,147.407 232.5,154C 225.625,154.448 223.125,151.282 225,144.5C 230.026,137.107 235.526,130.107 241.5,123.5 Z"/></g>
<g><path style="opacity:1" fill="#fceac9" d="M 171.5,125.5 C 181.562,128.782 190.728,133.782 199,140.5C 201.039,146.332 199.039,149.665 193,150.5C 185.103,146.468 177.27,142.301 169.5,138C 165.214,133.029 165.88,128.862 171.5,125.5 Z"/></g>
<g><path style="opacity:1" fill="#fceac9" d="M 271.5,144.5 C 272.873,144.343 274.207,144.51 275.5,145C 282.996,148.914 290.329,153.08 297.5,157.5C 301.515,165.954 298.848,169.454 289.5,168C 282.663,163.747 275.663,159.747 268.5,156C 265.519,151.129 266.519,147.296 271.5,144.5 Z"/></g>
<g><path style="opacity:1" fill="#fceac9" d="M 234.5,174.5 C 236.199,174.34 237.866,174.506 239.5,175C 246.337,179.253 253.337,183.253 260.5,187C 264.5,190.667 264.5,194.333 260.5,198C 257.833,198.667 255.167,198.667 252.5,198C 245.081,193.875 237.914,189.375 231,184.5C 229.581,180.082 230.748,176.749 234.5,174.5 Z"/></g>
</svg>
