<?xml version="1.0" encoding="UTF-8"?>
<!DOCTYPE svg PUBLIC "-//W3C//DTD SVG 1.1//EN" "http://www.w3.org/Graphics/SVG/1.1/DTD/svg11.dtd">
<svg xmlns="http://www.w3.org/2000/svg" version="1.1" width="512px" height="512px" style="shape-rendering:geometricPrecision; text-rendering:geometricPrecision; image-rendering:optimizeQuality; fill-rule:evenodd; clip-rule:evenodd" xmlns:xlink="http://www.w3.org/1999/xlink">
<g><path style="opacity:1" fill="#fceac9" d="M 511.5,341.5 C 511.5,349.167 511.5,356.833 511.5,364.5C 502.843,404.992 478.343,430.326 438,440.5C 437.5,451.828 437.333,463.162 437.5,474.5C 316.167,474.5 194.833,474.5 73.5,474.5C 73.6665,463.162 73.4999,451.828 73,440.5C 32.6567,430.326 8.1567,404.992 -0.5,364.5C -0.5,356.833 -0.5,349.167 -0.5,341.5C 13.504,341.667 27.504,341.5 41.5,341C 33.5597,332.002 30.5597,321.502 32.5,309.5C 15.7011,308.621 4.70106,300.287 -0.5,284.5C -0.5,278.833 -0.5,273.167 -0.5,267.5C 4.40904,253.762 14.0757,245.595 28.5,243C 12.7895,226.08 3.12284,206.246 -0.5,183.5C -0.5,175.833 -0.5,168.167 -0.5,160.5C 16.1667,160.5 32.8333,160.5 49.5,160.5C 48.8293,182.638 51.6627,204.304 58,225.5C 59.9023,210.794 64.4023,196.96 71.5,184C 60.041,160.873 55.041,136.373 56.5,110.5C 62.5,110.5 68.5,110.5 74.5,110.5C 73.1263,129.051 75.6263,147.051 82,164.5C 82.414,164.957 82.914,165.291 83.5,165.5C 93.1834,159.452 103.183,158.952 113.5,164C 122.857,171.739 126.023,181.573 123,193.5C 116.69,207.904 105.856,213.07 90.5,209C 87.421,207.752 84.7543,205.919 82.5,203.5C 79.1639,210.675 76.8305,218.175 75.5,226C 85.6874,225.004 94.8541,227.504 103,233.5C 115.056,217.659 130.056,213.992 148,222.5C 168.521,179.975 202.354,156.309 249.5,151.5C 250.885,146.576 251.885,141.576 252.5,136.5C 216.724,136.698 188.891,122.031 169,92.5C 159.161,75.1425 154.661,56.4758 155.5,36.5C 181.237,32.9727 205.571,37.1394 228.5,49C 246.892,60.3857 259.725,76.219 267,96.5C 275.028,78.9335 285.195,62.7668 297.5,48C 298.5,47.3333 299.5,47.3333 300.5,48C 303.717,51.5174 307.217,54.6841 311,57.5C 311.315,58.9078 310.982,60.2411 310,61.5C 287.784,87.9397 273.617,118.273 267.5,152.5C 299.411,156.286 325.745,170.286 346.5,194.5C 356.588,175.991 366.421,157.325 376,138.5C 382.326,128.942 391.159,125.442 402.5,128C 410.641,130.807 416.141,136.307 419,144.5C 447.451,199.903 476.284,255.07 505.5,310C 495.607,323.225 483.274,333.558 468.5,341C 482.829,341.5 497.163,341.667 511.5,341.5 Z M 174.5,53.5 C 218.551,53.893 245.218,75.5596 254.5,118.5C 216.835,119.314 191.001,102.314 177,67.5C 175.525,62.9367 174.692,58.2701 174.5,53.5 Z M 394.5,144.5 C 397.522,144.428 399.688,145.762 401,148.5C 423.5,191.5 446,234.5 468.5,277.5C 436.478,308.139 399.478,315.973 357.5,301C 344.629,295.279 333.295,287.446 323.5,277.5C 346.333,233.833 369.167,190.167 392,146.5C 392.995,145.934 393.828,145.267 394.5,144.5 Z M 244.5,169.5 C 245.5,169.5 246.5,169.5 247.5,169.5C 246.934,178.825 246.434,188.158 246,197.5C 242.951,195.073 240.117,192.407 237.5,189.5C 232.5,192 227.5,194.5 222.5,197C 233.643,217.048 249.976,223.048 271.5,215C 278.884,210.616 284.551,204.616 288.5,197C 283.5,194.5 278.5,192 273.5,189.5C 270.883,192.407 268.049,195.073 265,197.5C 264.5,188.506 264.334,179.506 264.5,170.5C 295.365,173.548 319.698,187.714 337.5,213C 320.483,245.343 303.483,277.677 286.5,310C 296.382,323.211 308.715,333.545 323.5,341C 294.167,341.667 264.833,341.667 235.5,341C 243.892,319.844 237.892,304.177 217.5,294C 211.322,292.33 205.155,292.164 199,293.5C 196.829,272.494 185.329,261.161 164.5,259.5C 164.572,256.807 164.905,254.14 165.5,251.5C 164.438,245.8 163.604,240.133 163,234.5C 178.199,197.799 205.366,176.132 244.5,169.5 Z M 39.5,228.5 C 26.4803,214.11 19.147,197.11 17.5,177.5C 22.5,177.5 27.5,177.5 32.5,177.5C 33.0594,194.749 35.3927,211.749 39.5,228.5 Z M 97.5,177.5 C 105.658,178.477 108.158,182.811 105,190.5C 101.194,194.155 97.5271,193.822 94,189.5C 90.7263,184.346 91.893,180.346 97.5,177.5 Z M 127.5,235.5 C 143.145,235.639 149.312,243.305 146,258.5C 138.968,268.366 130.468,269.866 120.5,263C 112.715,251.197 115.048,242.03 127.5,235.5 Z M 78.5,243.5 C 89.8008,243.295 96.4674,248.795 98.5,260C 94.9578,273.604 86.6244,277.938 73.5,273C 66.0855,266.705 64.5855,259.205 69,250.5C 71.529,247.115 74.6956,244.782 78.5,243.5 Z M 27.5,260.5 C 39.5031,259.014 46.5031,264.18 48.5,276C 47.7394,285.927 42.406,291.427 32.5,292.5C 19.6274,289.81 14.7941,282.143 18,269.5C 20.4057,265.592 23.5724,262.592 27.5,260.5 Z M 161.5,276.5 C 174.849,276.678 181.016,283.345 180,296.5C 175.882,307.1 168.382,310.6 157.5,307C 147.39,299.672 146.056,291.005 153.5,281C 156.099,279.205 158.766,277.705 161.5,276.5 Z M 113.5,284.5 C 123.798,285.298 129.798,290.798 131.5,301C 128.633,314.434 120.633,319.101 107.5,315C 99.7101,309.625 97.5434,302.458 101,293.5C 103.917,288.637 108.083,285.637 113.5,284.5 Z M 314.5,294.5 C 351.571,326.013 393.237,333.846 439.5,318C 453.23,312.056 465.73,304.223 477,294.5C 479.557,298.446 481.723,302.613 483.5,307C 481.888,309.616 479.888,311.95 477.5,314C 437.601,342.74 394.268,349.074 347.5,333C 332.3,327.244 318.966,318.744 307.5,307.5C 310.1,303.299 312.434,298.966 314.5,294.5 Z M 61.5,301.5 C 77.1453,301.639 83.312,309.305 80,324.5C 73.5196,333.77 65.353,335.603 55.5,330C 46.4174,318.096 48.4174,308.596 61.5,301.5 Z M 202.5,309.5 C 218.16,310.327 223.993,318.327 220,333.5C 213.215,342.256 205.048,343.756 195.5,338C 186.739,325.876 189.072,316.376 202.5,309.5 Z M 151.5,326.5 C 167.137,325.962 173.637,333.295 171,348.5C 163.436,359.81 154.436,361.144 144,352.5C 137.903,341.294 140.403,332.628 151.5,326.5 Z M 103.5,334.5 C 120.045,335.597 125.545,343.93 120,359.5C 110.695,369.032 101.695,368.699 93,358.5C 88.6045,346.963 92.1045,338.963 103.5,334.5 Z M 17.5,359.5 C 36.5029,359.333 55.5029,359.5 74.5,360C 81.6813,378.151 95.0147,385.818 114.5,383C 123.199,380.649 130.199,375.815 135.5,368.5C 154.234,380.001 170.567,377.334 184.5,360.5C 287.498,359.5 390.498,359.167 493.5,359.5C 487.862,393.64 468.196,414.806 434.5,423C 418.872,424.382 403.206,424.882 387.5,424.5C 387.5,430.167 387.5,435.833 387.5,441.5C 398.5,441.5 409.5,441.5 420.5,441.5C 420.5,446.833 420.5,452.167 420.5,457.5C 310.5,457.5 200.5,457.5 90.5,457.5C 90.5,452.167 90.5,446.833 90.5,441.5C 184.167,441.5 277.833,441.5 371.5,441.5C 371.5,435.833 371.5,430.167 371.5,424.5C 273.14,424.984 174.807,424.484 76.5,423C 42.8044,414.806 23.1378,393.64 17.5,359.5 Z"/></g>
<g><path style="opacity:1" fill="#fceac9" d="M 387.5,201.5 C 393.167,201.5 398.833,201.5 404.5,201.5C 404.5,207.167 404.5,212.833 404.5,218.5C 398.833,218.5 393.167,218.5 387.5,218.5C 387.5,212.833 387.5,207.167 387.5,201.5 Z"/></g>
<g><path style="opacity:1" fill="#fceac9" d="M 345.5,259.5 C 351.5,259.5 357.5,259.5 363.5,259.5C 363.5,265.167 363.5,270.833 363.5,276.5C 357.5,276.5 351.5,276.5 345.5,276.5C 345.5,270.833 345.5,265.167 345.5,259.5 Z"/></g>
<g><path style="opacity:1" fill="#fceac9" d="M 428.5,259.5 C 434.167,259.5 439.833,259.5 445.5,259.5C 445.5,265.167 445.5,270.833 445.5,276.5C 439.833,276.5 434.167,276.5 428.5,276.5C 428.5,270.833 428.5,265.167 428.5,259.5 Z"/></g>
</svg>
