<?xml version="1.0" encoding="UTF-8"?>
<!DOCTYPE svg PUBLIC "-//W3C//DTD SVG 1.1//EN" "http://www.w3.org/Graphics/SVG/1.1/DTD/svg11.dtd">
<svg xmlns="http://www.w3.org/2000/svg" version="1.1" width="512px" height="512px" style="shape-rendering:geometricPrecision; text-rendering:geometricPrecision; image-rendering:optimizeQuality; fill-rule:evenodd; clip-rule:evenodd" xmlns:xlink="http://www.w3.org/1999/xlink">
<g><path style="opacity:1" fill="#fceac9" d="M 232.5,-0.5 C 247.833,-0.5 263.167,-0.5 278.5,-0.5C 379.371,12.3469 450.871,65.0136 493,157.5C 502.497,181.819 508.663,206.819 511.5,232.5C 511.5,247.833 511.5,263.167 511.5,278.5C 501.026,367.433 457.36,434.6 380.5,480C 348.466,497.292 314.466,507.792 278.5,511.5C 263.167,511.5 247.833,511.5 232.5,511.5C 143.853,500.61 76.6868,456.943 31,380.5C 13.7076,348.465 3.20759,314.465 -0.5,278.5C -0.5,263.167 -0.5,247.833 -0.5,232.5C 6.16581,168.67 32.4991,114.504 78.5,70C 89.4097,68.9779 92.5763,73.4779 88,83.5C 27.3394,145.167 4.67269,218.834 20,304.5C 38.093,381.25 82.2596,437.417 152.5,473C 221.169,504.331 289.836,504.331 358.5,473C 438.473,431.656 483.973,366.156 495,276.5C 500.139,184.291 465.639,111.124 391.5,57C 322.576,12.4154 249.243,3.4154 171.5,30C 149.325,38.751 128.658,50.0843 109.5,64C 103.074,65.4586 99.4077,62.9586 98.5,56.5C 98.5559,53.8887 99.5559,51.722 101.5,50C 140.629,21.4373 184.295,4.60398 232.5,-0.5 Z M 251.5,140.5 C 259.66,143.108 267.66,146.108 275.5,149.5C 269.823,155.176 263.823,160.509 257.5,165.5C 256.914,165.291 256.414,164.957 256,164.5C 254.479,157.081 252.645,149.748 250.5,142.5C 250.863,141.817 251.196,141.15 251.5,140.5 Z M 248.5,241.5 C 252.884,241.174 257.217,241.508 261.5,242.5C 258.698,250.102 255.365,257.435 251.5,264.5C 246.025,258.229 241.025,251.563 236.5,244.5C 236.709,243.914 237.043,243.414 237.5,243C 241.356,242.823 245.023,242.323 248.5,241.5 Z M 145.5,262.5 C 153.219,264.628 160.886,266.962 168.5,269.5C 162.833,275.833 156.833,281.833 150.5,287.5C 147.142,279.377 145.475,271.044 145.5,262.5 Z M 324.5,283.5 C 326.017,283.511 327.184,284.177 328,285.5C 332.011,291.852 335.178,298.519 337.5,305.5C 329.457,305.565 321.623,305.565 314,305.5C 313.333,304.5 313.333,303.5 314,302.5C 317.512,296.14 321.012,289.806 324.5,283.5 Z"/></g>
<g><path style="opacity:1" fill="#fceac9" d="M 234.5,29.5 C 332.001,24.9878 405.501,64.3211 455,147.5C 483.255,202.463 489.255,259.796 473,319.5C 444.658,405.176 386.491,458.009 298.5,478C 245.514,487.479 195.181,479.812 147.5,455C 143.5,450.667 143.5,446.333 147.5,442C 150.03,440.578 152.697,440.245 155.5,441C 218.111,472.406 281.444,474.073 345.5,446C 415.018,410.179 454.852,353.346 465,275.5C 470.026,192.062 438.526,126.562 370.5,79C 311.136,42.4128 248.47,35.4128 182.5,58C 102.983,90.8112 57.4827,149.978 46,235.5C 41.4252,314.998 70.4252,378.998 133,427.5C 133.947,438.442 129.447,441.608 119.5,437C 54.741,385.286 24.9077,317.786 30,234.5C 39.5369,155.202 78.7036,95.7016 147.5,56C 174.927,41.5767 203.927,32.7433 234.5,29.5 Z M 251.5,140.5 C 251.196,141.15 250.863,141.817 250.5,142.5C 252.645,149.748 254.479,157.081 256,164.5C 256.414,164.957 256.914,165.291 257.5,165.5C 263.823,160.509 269.823,155.176 275.5,149.5C 267.66,146.108 259.66,143.108 251.5,140.5 Z M 248.5,241.5 C 245.023,242.323 241.356,242.823 237.5,243C 237.043,243.414 236.709,243.914 236.5,244.5C 241.025,251.563 246.025,258.229 251.5,264.5C 255.365,257.435 258.698,250.102 261.5,242.5C 257.217,241.508 252.884,241.174 248.5,241.5 Z M 145.5,262.5 C 145.475,271.044 147.142,279.377 150.5,287.5C 156.833,281.833 162.833,275.833 168.5,269.5C 160.886,266.962 153.219,264.628 145.5,262.5 Z M 324.5,283.5 C 321.012,289.806 317.512,296.14 314,302.5C 313.333,303.5 313.333,304.5 314,305.5C 321.623,305.565 329.457,305.565 337.5,305.5C 335.178,298.519 332.011,291.852 328,285.5C 327.184,284.177 326.017,283.511 324.5,283.5 Z"/></g>
<g><path style="opacity:1" fill="#fceac9" d="M 268.5,50.5 C 282.453,49.3145 293.453,54.3145 301.5,65.5C 315.339,60.4347 327.505,63.1014 338,73.5C 340.361,76.8878 342.194,80.5544 343.5,84.5C 358.447,84.7133 369.28,91.3799 376,104.5C 393.947,102.638 405.613,110.305 411,127.5C 411.543,132.243 411.543,136.91 411,141.5C 429.054,151.61 436.387,166.943 433,187.5C 445.271,193.45 451.438,203.283 451.5,217C 452.03,226.775 448.363,234.442 440.5,240C 434.251,241.032 430.585,238.365 429.5,232C 430.943,228.279 432.777,224.779 435,221.5C 436.572,214.551 434.739,208.718 429.5,204C 424.884,202.413 420.384,200.58 416,198.5C 414.596,196.361 413.763,194.028 413.5,191.5C 415.128,186.578 416.461,181.578 417.5,176.5C 417.187,168.709 413.854,162.542 407.5,158C 402.603,156.593 398.103,154.427 394,151.5C 391.79,146.643 392.123,141.976 395,137.5C 395.717,127.704 391.217,121.704 381.5,119.5C 376.999,121.507 372.332,122.34 367.5,122C 362.654,119.832 360.154,115.999 360,110.5C 358.5,106.333 355.667,103.5 351.5,102C 347.151,101.464 342.818,101.631 338.5,102.5C 333.967,102.651 330.8,100.651 329,96.5C 329.14,86.4283 324.307,80.4283 314.5,78.5C 310.116,79.5257 306.116,81.3591 302.5,84C 297.563,85.3694 293.396,84.2027 290,80.5C 285.937,67.885 277.771,64.0517 265.5,69C 262.593,72.1508 259.926,75.4841 257.5,79C 251.726,81.6557 246.726,80.6557 242.5,76C 240.232,74.4481 237.732,73.6148 235,73.5C 229.967,76.0083 224.8,78.3416 219.5,80.5C 214.509,79.0024 209.842,76.8358 205.5,74C 199.427,73.2844 194.594,75.451 191,80.5C 189.839,85.1063 188.839,89.773 188,94.5C 184.204,99.3366 179.371,100.67 173.5,98.5C 169.539,99.2308 166.039,100.897 163,103.5C 160.633,109.591 158.467,115.758 156.5,122C 154.361,123.404 152.028,124.237 149.5,124.5C 144.924,122.959 140.424,121.292 136,119.5C 122.79,122.416 118.624,130.249 123.5,143C 123.332,146.844 121.665,149.844 118.5,152C 114.584,153.102 110.584,153.769 106.5,154C 102.452,156.083 100.119,159.417 99.5,164C 104.021,173.112 101.687,179.445 92.5,183C 86.9969,188.189 85.9969,194.189 89.5,201C 89.5,204.333 88.1667,207 85.5,209C 80.4821,210.227 75.8155,212.227 71.5,215C 63.5875,227.27 66.2541,236.603 79.5,243C 82.6392,247.231 83.3058,251.898 81.5,257C 83.883,262.027 86.2163,267.027 88.5,272C 88.204,273.888 87.704,275.722 87,277.5C 83.4779,280.266 80.1446,283.266 77,286.5C 73.355,301.364 79.1883,309.531 94.5,311C 96.6667,311.833 98.1667,313.333 99,315.5C 99.6667,318.5 99.6667,321.5 99,324.5C 91.8225,334.013 92.3225,343.179 100.5,352C 105.609,354.698 110.776,357.198 116,359.5C 117.257,361.513 118.091,363.679 118.5,366C 112.485,378.795 116.152,387.295 129.5,391.5C 133.115,390.295 136.782,389.295 140.5,388.5C 147.442,389.337 150.942,393.337 151,400.5C 152.5,404.667 155.333,407.5 159.5,409C 163.849,409.536 168.182,409.369 172.5,408.5C 177.033,408.349 180.2,410.349 182,414.5C 181.86,424.572 186.693,430.572 196.5,432.5C 200.72,431.724 204.386,429.89 207.5,427C 212.757,425.574 217.257,426.741 221,430.5C 225.063,443.115 233.229,446.948 245.5,442C 248.407,438.849 251.074,435.516 253.5,432C 259.274,429.344 264.274,430.344 268.5,435C 270.768,436.552 273.268,437.385 276,437.5C 281.033,434.992 286.2,432.658 291.5,430.5C 295.703,431.268 299.37,433.102 302.5,436C 309.598,438.413 315.431,436.58 320,430.5C 320.78,424.786 322.28,419.286 324.5,414C 328.606,411.445 332.939,410.945 337.5,412.5C 341.461,411.769 344.961,410.103 348,407.5C 350.367,401.409 352.533,395.242 354.5,389C 356.639,387.596 358.972,386.763 361.5,386.5C 366.076,388.041 370.576,389.708 375,391.5C 388.21,388.584 392.376,380.751 387.5,368C 389.574,359.114 395.24,355.447 404.5,357C 408.548,354.917 410.881,351.583 411.5,347C 406.979,337.888 409.313,331.555 418.5,328C 424.003,322.811 425.003,316.811 421.5,310C 421.5,305.667 423.5,302.667 427.5,301C 440.723,298.449 445.889,290.616 443,277.5C 440.173,273.251 436.506,269.918 432,267.5C 429.474,260.669 431.807,256.336 439,254.5C 457.757,262.691 464.091,276.691 458,296.5C 454.667,305.167 448.667,311.167 440,314.5C 440.549,326.393 436.049,335.726 426.5,342.5C 427.981,358.03 421.315,368.364 406.5,373.5C 404.393,398.055 391.06,409.222 366.5,407C 361.606,419.793 352.273,426.793 338.5,428C 332.524,447.485 319.524,455.485 299.5,452C 296.804,451.235 294.304,450.068 292,448.5C 281.865,454.767 271.532,455.1 261,449.5C 248.273,461.871 234.106,463.705 218.5,455C 214.94,452.395 211.94,449.229 209.5,445.5C 195.661,450.565 183.495,447.899 173,437.5C 170.639,434.112 168.806,430.446 167.5,426.5C 157.085,426.539 148.251,422.873 141,415.5C 138.94,412.714 137.44,409.714 136.5,406.5C 118.013,408.841 105.846,401.174 100,383.5C 99.2039,379.245 99.3705,375.079 100.5,371C 81.0145,361.203 74.3479,345.87 80.5,325C 60.8877,314.843 55.0544,299.343 63,278.5C 64.9773,275.688 67.144,273.022 69.5,270.5C 67.0525,265.101 65.5525,259.434 65,253.5C 51.5999,243.498 47.5999,230.498 53,214.5C 56.3591,205.808 62.3591,199.808 71,196.5C 70.451,184.607 74.951,175.274 84.5,168.5C 83.0028,152.981 89.6695,142.648 104.5,137.5C 106.607,112.945 119.94,101.778 144.5,104C 149.522,91.3122 158.855,84.1455 172.5,82.5C 181.196,59.7308 196.696,53.0641 219,62.5C 229.148,56.232 239.481,55.8987 250,61.5C 255.101,55.8729 261.267,52.2062 268.5,50.5 Z M 251.5,140.5 C 251.196,141.15 250.863,141.817 250.5,142.5C 252.645,149.748 254.479,157.081 256,164.5C 256.414,164.957 256.914,165.291 257.5,165.5C 263.823,160.509 269.823,155.176 275.5,149.5C 267.66,146.108 259.66,143.108 251.5,140.5 Z M 145.5,262.5 C 145.475,271.044 147.142,279.377 150.5,287.5C 156.833,281.833 162.833,275.833 168.5,269.5C 160.886,266.962 153.219,264.628 145.5,262.5 Z M 324.5,283.5 C 321.012,289.806 317.512,296.14 314,302.5C 313.333,303.5 313.333,304.5 314,305.5C 321.623,305.565 329.457,305.565 337.5,305.5C 335.178,298.519 332.011,291.852 328,285.5C 327.184,284.177 326.017,283.511 324.5,283.5 Z"/></g>
<g><path style="opacity:1" fill="#fceac9" d="M 249.5,124.5 C 260.001,126.61 270.335,129.443 280.5,133C 291.535,139.107 294.368,147.94 289,159.5C 281.036,167.803 272.203,174.97 262.5,181C 254.622,182.818 248.122,180.652 243,174.5C 239.235,164.11 236.402,153.443 234.5,142.5C 235.236,132.777 240.236,126.777 249.5,124.5 Z M 251.5,140.5 C 251.196,141.15 250.863,141.817 250.5,142.5C 252.645,149.748 254.479,157.081 256,164.5C 256.414,164.957 256.914,165.291 257.5,165.5C 263.823,160.509 269.823,155.176 275.5,149.5C 267.66,146.108 259.66,143.108 251.5,140.5 Z"/></g>
<g><path style="opacity:1" fill="#fceac9" d="M 247.5,225.5 C 253.842,225.334 260.175,225.5 266.5,226C 274.899,230.298 278.399,237.131 277,246.5C 273.862,254.913 270.529,263.246 267,271.5C 259.838,281.202 251.005,283.036 240.5,277C 233.129,268.414 226.629,259.247 221,249.5C 218.658,237.347 223.491,229.847 235.5,227C 239.688,226.824 243.688,226.324 247.5,225.5 Z M 248.5,241.5 C 245.023,242.323 241.356,242.823 237.5,243C 237.043,243.414 236.709,243.914 236.5,244.5C 241.025,251.563 246.025,258.229 251.5,264.5C 255.365,257.435 258.698,250.102 261.5,242.5C 257.217,241.508 252.884,241.174 248.5,241.5 Z"/></g>
<g><path style="opacity:1" fill="#fceac9" d="M 142.5,246.5 C 154.922,248.105 166.922,251.272 178.5,256C 185.868,264.394 186.368,273.228 180,282.5C 173.531,287.968 167.364,293.801 161.5,300C 152.753,305.177 144.587,304.343 137,297.5C 133.26,288.883 130.593,279.883 129,270.5C 126.583,258.311 131.083,250.311 142.5,246.5 Z M 145.5,262.5 C 145.475,271.044 147.142,279.377 150.5,287.5C 156.833,281.833 162.833,275.833 168.5,269.5C 160.886,266.962 153.219,264.628 145.5,262.5 Z"/></g>
<g><path style="opacity:1" fill="#fceac9" d="M 322.5,266.5 C 328.903,266.138 334.403,268.138 339,272.5C 345.386,282.438 350.553,292.938 354.5,304C 353.56,311.263 349.893,316.596 343.5,320C 333.835,321.05 324.168,321.883 314.5,322.5C 299.001,319.49 293.834,310.49 299,295.5C 303.587,287.996 307.92,280.329 312,272.5C 315.069,269.554 318.569,267.554 322.5,266.5 Z M 324.5,283.5 C 321.012,289.806 317.512,296.14 314,302.5C 313.333,303.5 313.333,304.5 314,305.5C 321.623,305.565 329.457,305.565 337.5,305.5C 335.178,298.519 332.011,291.852 328,285.5C 327.184,284.177 326.017,283.511 324.5,283.5 Z"/></g>
</svg>
