<?xml version="1.0" encoding="UTF-8"?>
<!DOCTYPE svg PUBLIC "-//W3C//DTD SVG 1.1//EN" "http://www.w3.org/Graphics/SVG/1.1/DTD/svg11.dtd">
<svg xmlns="http://www.w3.org/2000/svg" version="1.1" width="512px" height="512px" style="shape-rendering:geometricPrecision; text-rendering:geometricPrecision; image-rendering:optimizeQuality; fill-rule:evenodd; clip-rule:evenodd" xmlns:xlink="http://www.w3.org/1999/xlink">
<g><path style="opacity:1" fill="#fceac9" d="M 188.5,33.5 C 200.838,32.4905 212.838,33.9905 224.5,38C 302.353,76.7597 380.02,115.76 457.5,155C 476.53,169.089 483.03,187.589 477,210.5C 468.097,232.65 455.431,252.317 439,269.5C 353.505,353.334 251.005,388.167 131.5,374C 111.868,371.839 92.5346,368.173 73.5,363C 46.8267,351.004 32.8267,330.338 31.5,301C 31.4219,293.302 32.5886,285.802 35,278.5C 70.7287,206.709 106.729,135.043 143,63.5C 154.16,47.3422 169.326,37.3422 188.5,33.5 Z M 189.5,69.5 C 211.817,78.1558 233.817,87.6558 255.5,98C 258.097,100.317 258.93,103.15 258,106.5C 248,125.833 238,145.167 228,164.5C 226.053,168.557 222.886,170.057 218.5,169C 198.675,158.922 179.009,148.588 159.5,138C 155.874,135.749 154.707,132.582 156,128.5C 165.667,109.833 175.333,91.1667 185,72.5C 186.409,71.2189 187.909,70.2189 189.5,69.5 Z M 275.5,113.5 C 277.927,113.523 280.26,114.023 282.5,115C 301.833,124 321.167,133 340.5,142C 343.809,145.077 344.309,148.577 342,152.5C 332.5,171.5 323,190.5 313.5,209.5C 311.408,212.152 308.742,212.986 305.5,212C 286.167,202 266.833,192 247.5,182C 239.579,178.07 238.413,172.57 244,165.5C 253,149.5 262,133.5 271,117.5C 272.397,115.93 273.897,114.596 275.5,113.5 Z M 147.5,154.5 C 167.922,165.07 188.255,175.903 208.5,187C 212.126,189.251 213.293,192.418 212,196.5C 203,213.167 194,229.833 185,246.5C 181.762,252.691 176.928,254.191 170.5,251C 150.315,241.659 130.815,231.159 112,219.5C 111.598,218.128 111.098,216.795 110.5,215.5C 120.398,196.705 130.565,178.038 141,159.5C 142.805,157.174 144.972,155.508 147.5,154.5 Z M 360.5,156.5 C 362.927,156.523 365.26,157.023 367.5,158C 392.167,170 416.833,182 441.5,194C 445.24,197.694 445.407,201.527 442,205.5C 426.833,221.333 411.667,237.167 396.5,253C 390.307,253.419 384.641,251.753 379.5,248C 365.326,240.079 350.992,232.412 336.5,225C 330.822,223.143 328.655,219.309 330,213.5C 339,195.5 348,177.5 357,159.5C 358.145,158.364 359.312,157.364 360.5,156.5 Z M 232.5,195.5 C 234.927,195.523 237.26,196.023 239.5,197C 258.34,207.587 277.34,217.921 296.5,228C 298.562,229.532 299.896,231.532 300.5,234C 290.729,253.041 280.563,271.874 270,290.5C 267.347,293.194 264.18,294.027 260.5,293C 241.167,283.333 221.833,273.667 202.5,264C 200.259,262.261 198.592,260.094 197.5,257.5C 206.73,239.373 216.23,221.373 226,203.5C 227.479,200.172 229.645,197.506 232.5,195.5 Z M 101.5,238.5 C 103.199,238.34 104.866,238.506 106.5,239C 125.833,248.667 145.167,258.333 164.5,268C 169.297,272.269 169.797,277.103 166,282.5C 157.333,298.5 148.667,314.5 140,330.5C 137.045,334.277 133.212,335.443 128.5,334C 108.833,329 89.1667,324 69.5,319C 66.2012,315.434 64.7012,311.267 65,306.5C 76.2556,284.989 87.2556,263.323 98,241.5C 99.1451,240.364 100.312,239.364 101.5,238.5 Z M 312.5,243.5 C 315.607,243.351 318.607,243.851 321.5,245C 335.713,251.94 350.047,258.607 364.5,265C 370.219,268.592 370.886,272.926 366.5,278C 343.622,289.273 320.622,300.273 297.5,311C 290.333,311.833 287.167,308.667 288,301.5C 295,283.5 302,265.5 309,247.5C 310.376,246.295 311.542,244.962 312.5,243.5 Z M 187.5,283.5 C 189.989,283.298 192.323,283.798 194.5,285C 213.833,296.667 233.167,308.333 252.5,320C 258.492,326.694 257.159,331.361 248.5,334C 223.296,336.604 198.129,339.437 173,342.5C 166.871,341.241 164.538,337.574 166,331.5C 171.333,318.167 176.667,304.833 182,291.5C 183.129,288.206 184.962,285.54 187.5,283.5 Z"/></g>
<g><path style="opacity:1" fill="#fceac9" d="M 193.5,86.5 C 209.472,93.1552 225.139,100.322 240.5,108C 233.086,123.073 225.253,137.907 217,152.5C 202.247,144.206 187.414,136.04 172.5,128C 179.654,114.191 186.654,100.358 193.5,86.5 Z"/></g>
<g><path style="opacity:1" fill="#fceac9" d="M 280.5,130.5 C 295.963,136.814 310.963,143.981 325.5,152C 319.304,166.895 311.971,181.062 303.5,194.5C 288.468,187.234 273.635,179.567 259,171.5C 258.48,169.711 258.813,168.044 260,166.5C 266.661,154.354 273.494,142.354 280.5,130.5 Z"/></g>
<g><path style="opacity:1" fill="#fceac9" d="M 150.5,172.5 C 165.766,180.134 180.766,188.3 195.5,197C 188.126,210.248 180.626,223.415 173,236.5C 158.087,228.627 143.254,220.627 128.5,212.5C 135.846,199.14 143.179,185.806 150.5,172.5 Z"/></g>
<g><path style="opacity:1" fill="#fceac9" d="M 365.5,173.5 C 385.61,182.389 405.276,192.055 424.5,202.5C 413.88,214.621 402.714,226.288 391,237.5C 375.898,229.701 361.064,221.535 346.5,213C 352.981,199.872 359.314,186.706 365.5,173.5 Z"/></g>
<g><path style="opacity:1" fill="#fceac9" d="M 236.5,213.5 C 238.655,213.372 240.655,213.872 242.5,215C 255.995,222.247 269.329,229.747 282.5,237.5C 275.404,250.697 268.071,263.697 260.5,276.5C 245.344,269.089 230.344,261.422 215.5,253.5C 223.035,240.429 230.035,227.095 236.5,213.5 Z"/></g>
<g><path style="opacity:1" fill="#fceac9" d="M 474.5,246.5 C 475.661,259.994 475.827,273.66 475,287.5C 471.018,304.152 461.185,315.986 445.5,323C 438.917,329.491 436.417,337.324 438,346.5C 445.939,364.362 442.105,379.195 426.5,391C 410.105,398.178 395.772,395.178 383.5,382C 366.708,376.396 356.375,382.229 352.5,399.5C 354.175,407.867 356.008,416.201 358,424.5C 360.34,452.668 347.84,470.168 320.5,477C 296.061,479.205 279.228,469.039 270,446.5C 268.343,438.892 267.01,431.226 266,423.5C 264.235,414.736 258.901,409.736 250,408.5C 237.195,411.274 232.028,419.107 234.5,432C 230.859,458.831 215.526,470.831 188.5,468C 172.331,463.499 162.831,452.999 160,436.5C 157.723,421.172 155.556,405.839 153.5,390.5C 234.48,397.005 309.48,378.838 378.5,336C 416.732,312.937 448.732,283.104 474.5,246.5 Z"/></g>
<g><path style="opacity:1" fill="#fceac9" d="M 106.5,255.5 C 121.95,262.391 136.95,270.058 151.5,278.5C 144,292.167 136.5,305.833 129,319.5C 113.206,315.093 97.3723,310.759 81.5,306.5C 90.1165,289.601 98.4498,272.601 106.5,255.5 Z"/></g>
<g><path style="opacity:1" fill="#fceac9" d="M 319.5,260.5 C 328.02,263.844 336.354,267.677 344.5,272C 332.744,277.961 320.91,283.795 309,289.5C 311.979,279.736 315.479,270.07 319.5,260.5 Z"/></g>
<g><path style="opacity:1" fill="#fceac9" d="M 193.5,301.5 C 204.305,307.738 214.972,314.238 225.5,321C 211.999,323.055 198.499,324.888 185,326.5C 187.215,318.044 190.049,309.711 193.5,301.5 Z"/></g>
</svg>
