<?xml version="1.0" encoding="UTF-8"?>
<!DOCTYPE svg PUBLIC "-//W3C//DTD SVG 1.1//EN" "http://www.w3.org/Graphics/SVG/1.1/DTD/svg11.dtd">
<svg xmlns="http://www.w3.org/2000/svg" version="1.1" width="800px" height="800px" style="shape-rendering:geometricPrecision; text-rendering:geometricPrecision; image-rendering:optimizeQuality; fill-rule:evenodd; clip-rule:evenodd" xmlns:xlink="http://www.w3.org/1999/xlink">
<g><path style="opacity:0.932" fill="#fbe9c0" d="M 465.5,312.5 C 464.549,313.919 464.216,315.585 464.5,317.5C 463.596,318.209 463.263,319.209 463.5,320.5C 464.873,320.343 466.207,320.51 467.5,321C 466.366,322.016 466.699,322.683 468.5,323C 476.098,323.709 483.431,325.209 490.5,327.5C 502.848,330.722 514.681,336.722 526,345.5C 527.586,348.919 529.752,351.919 532.5,354.5C 531.515,356.098 531.349,357.765 532,359.5C 537.678,369.851 542.512,380.518 546.5,391.5C 547.078,394.28 547.745,396.947 548.5,399.5C 551.403,401.104 554.737,402.104 558.5,402.5C 559.63,403.622 560.297,404.956 560.5,406.5C 560.5,407.833 560.5,409.167 560.5,410.5C 560.52,412.143 559.853,413.476 558.5,414.5C 555.893,415.318 553.226,415.818 550.5,416C 551.066,416.995 551.733,417.828 552.5,418.5C 552.186,431.217 552.519,443.883 553.5,456.5C 551.938,462.884 550.271,469.218 548.5,475.5C 546.486,476.842 546.153,478.508 547.5,480.5C 545.368,485.259 543.868,490.259 543,495.5C 542.667,495.167 542.333,494.833 542,494.5C 541.486,497.028 540.32,499.195 538.5,501C 543.256,503.777 547.256,506.61 550.5,509.5C 551.72,512.858 551.053,515.858 548.5,518.5C 545.5,519.833 542.5,519.833 539.5,518.5C 537.344,516.839 535.01,515.506 532.5,514.5C 522.711,533.123 509.877,549.123 494,562.5C 494.239,564.609 494.739,566.776 495.5,569C 492.701,577.366 488.035,578.533 481.5,572.5C 472.007,579.761 462.341,584.927 452.5,588C 446.344,590.432 440.344,592.932 434.5,595.5C 433.167,595.833 433.167,596.167 434.5,596.5C 433.454,598.785 433.454,601.118 434.5,603.5C 432.058,603.354 431.391,604.187 432.5,606C 428.375,606.854 424.375,606.52 420.5,605C 421.167,604.667 421.833,604.333 422.5,604C 420.901,602.214 420.067,600.047 420,597.5C 419.25,598.126 418.416,598.626 417.5,599C 411.5,599.333 405.5,599.667 399.5,600C 400.308,600.308 400.975,600.808 401.5,601.5C 396.167,602.833 390.833,602.833 385.5,601.5C 386.025,600.808 386.692,600.308 387.5,600C 378.892,599.979 370.392,599.146 362,597.5C 359.47,599.219 357.637,598.719 356.5,596C 354.19,595.503 351.857,595.337 349.5,595.5C 345.234,594.995 341.234,593.662 337.5,591.5C 336.558,591.608 335.725,591.941 335,592.5C 334.505,594.473 334.338,596.473 334.5,598.5C 330.267,600.119 326.267,599.786 322.5,597.5C 322.5,597.167 322.5,596.833 322.5,596.5C 319.853,593.19 320.186,590.024 323.5,587C 315.833,584.168 308.499,580.668 301.5,576.5C 299.865,575.954 298.199,575.62 296.5,575.5C 296.5,574.5 296.5,573.5 296.5,572.5C 292.963,572.53 290.296,571.03 288.5,568C 287.207,567.51 285.873,567.343 284.5,567.5C 284.191,564.654 282.525,563.154 279.5,563C 279.833,562.667 280.167,562.333 280.5,562C 278.939,561.682 277.772,560.849 277,559.5C 275.887,560.76 275.72,561.927 276.5,563C 272.595,563.751 268.929,563.251 265.5,561.5C 264.971,557.649 265.638,554.149 267.5,551C 260.516,543.625 254.516,536.125 249.5,528.5C 247.604,525.025 245.604,521.525 243.5,518C 243.645,517.228 243.978,516.561 244.5,516C 243.259,514.302 241.926,512.802 240.5,511.5C 240.167,509.5 239.833,507.5 239.5,505.5C 237.202,506.31 234.868,507.144 232.5,508C 233.167,508.333 233.833,508.667 234.5,509C 233.333,509.167 232.167,509.333 231,509.5C 229.186,508.514 227.02,507.847 224.5,507.5C 224.335,504.15 224.502,500.817 225,497.5C 226.011,496.663 227.178,496.33 228.5,496.5C 228.5,495.5 228.5,494.5 228.5,493.5C 231.216,493.322 233.883,492.822 236.5,492C 234.124,486.108 232.124,480.108 230.5,474C 230.623,470.666 230.956,467.166 231.5,463.5C 231.404,457.363 230.404,451.53 228.5,446C 229.167,445.667 229.833,445.333 230.5,445C 227.772,443.914 225.106,443.58 222.5,444C 220.532,442.539 219.198,440.705 218.5,438.5C 218.5,437.833 218.5,437.167 218.5,436.5C 218.5,435.833 218.5,435.167 218.5,434.5C 222.005,431.05 226.339,429.716 231.5,430.5C 231.259,425.482 230.925,420.649 230.5,416C 232.986,406.621 235.319,397.121 237.5,387.5C 238.873,384.032 239.873,380.366 240.5,376.5C 242.074,374.898 242.741,372.898 242.5,370.5C 244.765,370.559 245.098,369.726 243.5,368C 245.595,364.468 247.761,360.968 250,357.5C 250.49,356.207 250.657,354.873 250.5,353.5C 254.724,345.943 260.724,339.943 268.5,335.5C 276.229,332.236 282.729,329.236 288,326.5C 289,326.833 290,327.167 291,327.5C 295.43,325.524 299.93,324.19 304.5,323.5C 306.857,323.663 309.19,323.497 311.5,323C 312.428,322.612 313.095,321.945 313.5,321C 311.823,318.453 311.156,315.62 311.5,312.5C 310.325,312.719 309.325,312.386 308.5,311.5C 309.485,309.902 309.651,308.235 309,306.5C 308.346,303.992 307.179,301.826 305.5,300C 306.167,299.667 306.833,299.333 307.5,299C 306.047,297.351 305.047,295.518 304.5,293.5C 303.909,292.849 303.243,292.182 302.5,291.5C 303.022,290.393 303.355,289.226 303.5,288C 302.076,283.136 300.576,278.302 299,273.5C 295.782,268.261 291.949,263.428 287.5,259C 284.654,258.229 281.82,257.395 279,256.5C 274.338,257.495 269.838,258.828 265.5,260.5C 262.784,258.914 260.45,259.247 258.5,261.5C 255.694,262.168 253.028,262.834 250.5,263.5C 248.167,263.5 245.833,263.5 243.5,263.5C 243.719,264.675 243.386,265.675 242.5,266.5C 241.393,265.978 240.226,265.645 239,265.5C 235.191,266.863 231.357,267.863 227.5,268.5C 227.5,268.833 227.5,269.167 227.5,269.5C 225.05,269.298 222.717,269.631 220.5,270.5C 219.833,269.167 219.167,269.167 218.5,270.5C 216.958,269.699 215.292,269.366 213.5,269.5C 213.214,267.723 212.547,266.056 211.5,264.5C 213.062,262.637 212.729,261.304 210.5,260.5C 208.627,253.948 208.127,247.281 209,240.5C 213.687,237.36 218.853,235.193 224.5,234C 224.167,233.667 223.833,233.333 223.5,233C 226.437,232.9 229.104,232.067 231.5,230.5C 233.224,231.661 234.89,231.495 236.5,230C 236.167,229.667 235.833,229.333 235.5,229C 238.11,228.853 240.444,228.019 242.5,226.5C 243.446,226.987 244.446,227.32 245.5,227.5C 251.775,224.574 258.442,223.074 265.5,223C 264.289,222.107 264.289,221.274 265.5,220.5C 268.606,221.328 271.606,221.661 274.5,221.5C 275.308,221.192 275.975,220.692 276.5,220C 282.451,219.687 288.284,219.521 294,219.5C 296.565,221.179 299.398,221.846 302.5,221.5C 302.611,222.117 302.944,222.617 303.5,223C 306.529,223.539 309.529,224.206 312.5,225C 312.167,225.333 311.833,225.667 311.5,226C 317.293,228.962 321.96,233.129 325.5,238.5C 331.586,249.057 336.253,260.057 339.5,271.5C 340.768,273.67 340.768,275.837 339.5,278C 340.066,278.995 340.733,279.828 341.5,280.5C 341.5,281.833 341.5,283.167 341.5,284.5C 342.5,284.5 343.5,284.5 344.5,284.5C 344.185,288.371 344.518,292.038 345.5,295.5C 345.5,297.167 345.5,298.833 345.5,300.5C 346.5,300.5 347.5,300.5 348.5,300.5C 348.569,305.854 348.902,311.187 349.5,316.5C 371.245,315.062 393.245,314.395 415.5,314.5C 424.339,315.011 433.173,316.011 442,317.5C 443.894,317.42 445.727,317.087 447.5,316.5C 448.192,317.025 448.692,317.692 449,318.5C 449.199,316.598 450.033,315.098 451.5,314C 450.594,312.301 450.261,310.467 450.5,308.5C 451.5,308.5 452.5,308.5 453.5,308.5C 452.808,304.478 453.975,300.812 457,297.5C 457.761,294.947 458.594,292.447 459.5,290C 455.332,287.011 450.832,285.511 446,285.5C 445.517,284.552 445.351,283.552 445.5,282.5C 443.073,282.477 440.74,281.977 438.5,281C 434.469,278.863 430.469,276.53 426.5,274C 424.5,273.667 422.5,273.333 420.5,273C 421.167,272.667 421.833,272.333 422.5,272C 417.38,269.223 412.047,266.89 406.5,265C 406.833,264.667 407.167,264.333 407.5,264C 404.832,263.433 402.166,262.933 399.5,262.5C 399.5,261.5 399.5,260.5 399.5,259.5C 397.599,259.567 395.766,259.233 394,258.5C 382.421,251.871 371.921,245.871 362.5,240.5C 361.104,239.148 360.437,237.481 360.5,235.5C 361.366,232.624 362.699,229.958 364.5,227.5C 379.068,224.723 393.735,221.89 408.5,219C 416.611,216.37 424.944,214.37 433.5,213C 434,212.5 434.5,212 435,211.5C 436.726,212.576 438.559,212.743 440.5,212C 446.163,208.588 452.163,207.421 458.5,208.5C 458.354,206.058 459.187,205.391 461,206.5C 463.277,205.883 465.444,205.216 467.5,204.5C 469.833,204.5 472.167,204.5 474.5,204.5C 474.281,203.325 474.614,202.325 475.5,201.5C 476.607,202.022 477.774,202.355 479,202.5C 483.022,201.058 487.189,200.225 491.5,200C 489.729,199.465 489.396,198.631 490.5,197.5C 491.772,198.046 493.106,198.379 494.5,198.5C 502.561,197.13 509.228,195.463 514.5,193.5C 517.415,193.891 519.749,195.224 521.5,197.5C 530.939,214.795 540.939,231.295 551.5,247C 553.494,252.19 556.161,257.023 559.5,261.5C 563.552,268.899 567.552,276.232 571.5,283.5C 572.376,284.251 573.376,284.751 574.5,285C 573.833,285.333 573.167,285.667 572.5,286C 577.512,295.342 583.178,304.842 589.5,314.5C 591.131,319.357 590.797,324.023 588.5,328.5C 583.878,329.312 579.378,329.645 575,329.5C 574.5,329.333 574,329.167 573.5,329C 574.833,328.333 574.833,327.667 573.5,327C 567.181,327.582 561.181,326.249 555.5,323C 553.765,322.349 552.098,322.515 550.5,323.5C 537.106,318.303 523.439,313.97 509.5,310.5C 497.875,305.62 486.041,300.953 474,296.5C 473.167,296.833 472.333,297.167 471.5,297.5C 469.345,302.466 467.345,307.466 465.5,312.5 Z M 485.5,285.5 C 481.873,284.679 478.54,283.346 475.5,281.5C 470.445,280.431 466.112,278.098 462.5,274.5C 461.264,275.246 459.93,275.579 458.5,275.5C 458.5,274.5 458.5,273.5 458.5,272.5C 455.729,272.579 453.063,272.079 450.5,271C 445.651,268.41 440.651,266.076 435.5,264C 437.436,263.187 439.436,262.687 441.5,262.5C 441.281,261.325 441.614,260.325 442.5,259.5C 453.674,250.835 465.674,242.501 478.5,234.5C 487.677,226.604 497.677,219.938 508.5,214.5C 509.068,221.053 508.401,227.387 506.5,233.5C 507.716,235.962 508.382,238.629 508.5,241.5C 506.872,259.121 506.038,276.788 506,294.5C 499.304,291.066 492.47,288.066 485.5,285.5 Z M 472.5,217.5 C 474.103,217.312 475.437,217.812 476.5,219C 460.045,230.469 443.878,242.303 428,254.5C 427.586,254.043 427.086,253.709 426.5,253.5C 425.52,254.981 424.353,256.315 423,257.5C 409.518,250.956 396.352,244.123 383.5,237C 387.188,236.55 390.854,236.717 394.5,237.5C 394.5,236.5 394.5,235.5 394.5,234.5C 396.92,234.292 399.253,234.626 401.5,235.5C 404.918,233.848 408.585,233.015 412.5,233C 411.167,232.333 411.167,231.667 412.5,231C 414.899,230.289 417.232,230.456 419.5,231.5C 424.263,229.764 429.096,228.097 434,226.5C 437.745,226.003 441.578,226.003 445.5,226.5C 446.711,225.726 446.711,224.893 445.5,224C 449.811,223.775 453.978,222.942 458,221.5C 459.226,221.645 460.393,221.978 461.5,222.5C 462.386,221.675 462.719,220.675 462.5,219.5C 466.16,219.841 469.493,219.175 472.5,217.5 Z M 552.5,277.5 C 553.471,279.483 554.471,281.483 555.5,283.5C 558.772,289.045 561.772,294.712 564.5,300.5C 565.239,300.369 565.906,300.536 566.5,301C 565.663,302.011 565.33,303.178 565.5,304.5C 566.5,304.5 567.5,304.5 568.5,304.5C 568.36,306.124 569.027,307.29 570.5,308C 569.185,309.395 569.519,310.395 571.5,311C 568.167,311.667 564.833,311.667 561.5,311C 562.711,310.107 562.711,309.274 561.5,308.5C 559.028,309.766 556.694,309.766 554.5,308.5C 551.729,308.579 549.063,308.079 546.5,307C 546.833,306.667 547.167,306.333 547.5,306C 544.563,305.9 541.896,305.067 539.5,303.5C 537.902,304.485 536.235,304.651 534.5,304C 532.113,302.108 529.447,300.942 526.5,300.5C 522.542,301.109 520.376,299.442 520,295.5C 519.748,270.735 520.415,246.068 522,221.5C 523.377,223.754 524.877,225.92 526.5,228C 526.167,228.333 525.833,228.667 525.5,229C 526.736,231.354 528.403,233.354 530.5,235C 530.631,237.95 531.964,240.617 534.5,243C 534.043,243.414 533.709,243.914 533.5,244.5C 535.297,247.26 536.963,250.094 538.5,253C 538.167,253.333 537.833,253.667 537.5,254C 540.865,256.282 542.698,259.116 543,262.5C 547.201,266.914 550.367,271.914 552.5,277.5 Z M 317.5,254.5 C 319.758,254.775 320.092,255.775 318.5,257.5C 319.884,260.819 321.55,263.985 323.5,267C 323.335,268.117 323.002,269.284 322.5,270.5C 323.975,273.921 325.641,277.254 327.5,280.5C 327.167,281.167 326.833,281.833 326.5,282.5C 329.562,289.549 331.562,296.882 332.5,304.5C 331.224,305.386 331.224,306.386 332.5,307.5C 333.107,307.376 333.44,307.043 333.5,306.5C 334.385,310.064 335.385,313.731 336.5,317.5C 336.32,318.554 335.987,319.554 335.5,320.5C 336.243,321.182 336.909,321.849 337.5,322.5C 338.574,327.349 339.574,332.349 340.5,337.5C 342.753,339.45 343.086,341.784 341.5,344.5C 343.164,348.65 344.83,352.817 346.5,357C 346.368,360.502 346.368,364.002 346.5,367.5C 347.274,368.711 348.107,368.711 349,367.5C 350.724,374.556 351.89,379.556 352.5,382.5C 350.167,382.5 347.833,382.5 345.5,382.5C 345.421,381.07 345.754,379.736 346.5,378.5C 346.043,377.702 345.376,377.369 344.5,377.5C 343.505,373.836 342.505,370.169 341.5,366.5C 340.234,364.306 340.234,361.972 341.5,359.5C 340.726,358.289 339.893,358.289 339,359.5C 335.904,348.085 332.404,336.752 328.5,325.5C 328.621,324.106 328.954,322.772 329.5,321.5C 328.675,320.614 327.675,320.281 326.5,320.5C 326.357,318.738 326.691,317.071 327.5,315.5C 326.675,314.614 325.675,314.281 324.5,314.5C 324.575,310.019 323.908,305.686 322.5,301.5C 323.573,300.749 323.74,299.749 323,298.5C 322.722,299.416 322.222,300.082 321.5,300.5C 320.936,293.536 319.269,286.87 316.5,280.5C 316.68,279.446 317.013,278.446 317.5,277.5C 316.025,274.079 314.359,270.746 312.5,267.5C 312.833,266.833 313.167,266.167 313.5,265.5C 313.154,264.304 312.654,264.304 312,265.5C 311.667,263.5 311.333,261.5 311,259.5C 310.086,260.654 309.253,260.487 308.5,259C 306.986,253.095 303.32,248.428 297.5,245C 287.485,240.29 277.152,239.457 266.5,242.5C 264.44,242.428 262.44,242.095 260.5,241.5C 259.289,242.274 259.289,243.107 260.5,244C 255.795,244.114 251.462,245.281 247.5,247.5C 239.903,249.707 232.403,252.373 225,255.5C 223.648,253.406 223.148,251.073 223.5,248.5C 227.724,247.285 232.057,246.451 236.5,246C 236.167,245.667 235.833,245.333 235.5,245C 237.713,244.374 239.88,244.541 242,245.5C 243.826,244.99 243.993,244.156 242.5,243C 246.273,242.64 249.939,241.807 253.5,240.5C 254.894,240.621 256.228,240.954 257.5,241.5C 258.386,240.675 258.719,239.675 258.5,238.5C 262.657,238.669 266.657,238.002 270.5,236.5C 271.894,236.621 273.228,236.954 274.5,237.5C 275.354,236.478 276.354,235.645 277.5,235C 283.5,234.333 289.5,234.333 295.5,235C 296.646,235.645 297.646,236.478 298.5,237.5C 299.451,236.674 300.451,236.508 301.5,237C 304.861,239.074 308.195,241.24 311.5,243.5C 313.958,246.948 315.958,250.614 317.5,254.5 Z M 355.5,333.5 C 352.713,331.795 353.046,330.628 356.5,330C 364.745,329.817 372.912,329.317 381,328.5C 394.932,328.854 408.765,329.854 422.5,331.5C 423.216,330.689 424.05,330.022 425,329.5C 429.446,330.412 433.946,330.745 438.5,330.5C 438.5,331.5 438.5,332.5 438.5,333.5C 440.144,333.714 441.644,333.38 443,332.5C 442.747,335.503 442.081,338.503 441,341.5C 435.522,342.733 430.022,342.566 424.5,341C 402.833,340.333 381.167,340.333 359.5,341C 358.675,342.688 357.675,342.855 356.5,341.5C 355.52,338.914 355.187,336.247 355.5,333.5 Z M 515.5,362.5 C 514.624,362.369 513.957,362.702 513.5,363.5C 514.057,365.235 514.39,366.902 514.5,368.5C 511.3,371.884 508.466,375.551 506,379.5C 495.034,388.82 482.867,395.986 469.5,401C 467.167,401.333 464.833,401.667 462.5,402C 462.833,402.333 463.167,402.667 463.5,403C 460.654,403.771 457.82,404.605 455,405.5C 453.564,405.441 452.231,405.108 451,404.5C 448.904,405.715 449.071,406.549 451.5,407C 447.094,407.442 442.761,408.275 438.5,409.5C 436.9,409.449 435.4,409.116 434,408.5C 433.517,409.448 433.351,410.448 433.5,411.5C 428.678,410.935 424.178,411.601 420,413.5C 419.667,412.833 419.333,412.167 419,411.5C 410.064,412.819 400.897,413.486 391.5,413.5C 381.877,413.461 372.377,412.794 363,411.5C 361.848,413.512 360.682,413.678 359.5,412C 355.167,411.667 350.833,411.333 346.5,411C 347.902,409.658 347.569,408.824 345.5,408.5C 343.032,409.043 340.532,409.376 338,409.5C 333.194,408.488 328.361,407.654 323.5,407C 324.711,406.107 324.711,405.274 323.5,404.5C 320.34,406.156 317.506,405.823 315,403.5C 314.667,404.167 314.333,404.833 314,405.5C 312.214,403.901 310.047,403.067 307.5,403C 308.167,402.667 308.833,402.333 309.5,402C 306.563,401.9 303.896,401.067 301.5,399.5C 300.833,399.833 300.167,400.167 299.5,400.5C 292.654,397.781 286.321,394.948 280.5,392C 280.833,391.667 281.167,391.333 281.5,391C 278.362,389.597 275.362,387.93 272.5,386C 272.833,385.667 273.167,385.333 273.5,385C 267.438,382.439 263.771,377.939 262.5,371.5C 261.167,368.833 261.167,366.167 262.5,363.5C 262.56,364.043 262.893,364.376 263.5,364.5C 264.773,363.743 264.773,363.077 263.5,362.5C 263.343,361.127 263.51,359.793 264,358.5C 265.666,359.34 265.833,358.84 264.5,357C 269.862,350.585 277.029,345.752 286,342.5C 287.107,342.585 288.107,342.919 289,343.5C 289.374,342.584 289.874,341.75 290.5,341C 292.473,340.505 294.473,340.338 296.5,340.5C 297.152,339.275 298.319,338.608 300,338.5C 302.187,338.788 304.354,339.122 306.5,339.5C 306.5,338.5 306.5,337.5 306.5,336.5C 310.68,336.189 314.68,336.855 318.5,338.5C 318.363,342.539 319.029,345.872 320.5,348.5C 316.426,348.701 312.426,349.368 308.5,350.5C 305.808,352.274 302.808,353.608 299.5,354.5C 297.166,356.504 295.166,358.837 293.5,361.5C 292.914,361.291 292.414,360.957 292,360.5C 290.967,366.127 291.467,371.46 293.5,376.5C 299.152,382.67 306.152,386.837 314.5,389C 313.549,389.718 313.383,390.551 314,391.5C 314.893,390.919 315.893,390.585 317,390.5C 319.918,391.637 322.752,392.637 325.5,393.5C 330.61,395.489 335.943,396.656 341.5,397C 340.833,397.333 340.167,397.667 339.5,398C 343.5,398.333 347.5,398.667 351.5,399C 351.167,399.333 350.833,399.667 350.5,400C 353.981,400.14 357.481,399.973 361,399.5C 379.387,402.479 397.887,403.146 416.5,401.5C 420.936,399.192 425.603,398.859 430.5,400.5C 432.373,400.518 432.706,400.018 431.5,399C 434.833,398.667 438.167,398.333 441.5,398C 440.833,397.667 440.167,397.333 439.5,397C 443.071,396.48 446.571,395.647 450,394.5C 451.436,394.559 452.769,394.892 454,395.5C 454.617,394.551 454.451,393.718 453.5,393C 459.009,391.609 464.175,389.443 469,386.5C 469.772,386.645 470.439,386.978 471,387.5C 475.458,383.379 479.958,379.212 484.5,375C 483.288,373.893 483.621,373.393 485.5,373.5C 485.249,370.091 485.583,366.758 486.5,363.5C 483.172,360.193 479.839,356.859 476.5,353.5C 473.305,351.992 470.305,350.325 467.5,348.5C 464.99,348.946 462.99,348.28 461.5,346.5C 458.769,346.769 456.103,345.935 453.5,344C 455.558,341.258 456.558,338.091 456.5,334.5C 457.873,334.343 459.207,334.51 460.5,335C 458.355,335.743 458.189,336.576 460,337.5C 462.77,336.652 465.603,336.319 468.5,336.5C 468.351,337.552 468.517,338.552 469,339.5C 471.064,338.409 473.231,338.242 475.5,339C 482.341,341.372 489.341,343.372 496.5,345C 495.549,345.718 495.383,346.551 496,347.5C 498.064,346.409 500.231,346.242 502.5,347C 505.217,349.025 508.217,350.525 511.5,351.5C 512.354,352.948 513.354,354.281 514.5,355.5C 514.069,356.293 513.735,357.127 513.5,358C 514.707,359.3 515.374,360.8 515.5,362.5 Z M 423.5,383.5 C 423.196,384.15 422.863,384.817 422.5,385.5C 417.88,386.493 413.214,386.827 408.5,386.5C 403.684,385.35 398.684,385.184 393.5,386C 394.056,386.383 394.389,386.883 394.5,387.5C 393.833,387.5 393.167,387.5 392.5,387.5C 392.631,386.761 392.464,386.094 392,385.5C 384.558,386.813 377.058,386.813 369.5,385.5C 368.047,382.702 367.047,379.702 366.5,376.5C 365.914,376.709 365.414,377.043 365,377.5C 364.506,375.866 364.34,374.199 364.5,372.5C 366.031,371.075 365.698,370.409 363.5,370.5C 363.808,368.076 363.474,365.743 362.5,363.5C 360.209,362.104 359.875,360.271 361.5,358C 361.095,357.055 360.428,356.388 359.5,356C 360.167,355.667 360.833,355.333 361.5,355C 386.193,354.093 410.86,354.426 435.5,356C 432.329,365.499 428.329,374.666 423.5,383.5 Z M 448.5,357.5 C 454.754,358.701 460.754,360.701 466.5,363.5C 466.786,365.277 467.453,366.944 468.5,368.5C 467.453,370.056 466.786,371.723 466.5,373.5C 460.736,376.291 454.736,378.791 448.5,381C 445.515,381.868 442.515,382.201 439.5,382C 441.977,373.905 444.977,365.738 448.5,357.5 Z M 320.5,361.5 C 322.262,361.357 323.929,361.691 325.5,362.5C 326.873,367.637 328.54,372.97 330.5,378.5C 328.143,378.663 325.81,378.497 323.5,378C 324.696,377.346 324.696,376.846 323.5,376.5C 319.054,378.036 315.22,377.036 312,373.5C 311.801,371.598 310.967,370.098 309.5,369C 312.946,366.092 316.613,363.592 320.5,361.5 Z M 536.5,466.5 C 536.19,465.262 535.69,465.262 535,466.5C 534.308,467.437 534.475,468.103 535.5,468.5C 535.84,471.144 535.173,473.477 533.5,475.5C 534.002,476.716 534.335,477.883 534.5,479C 532.497,481.089 531.33,483.589 531,486.5C 530.346,485.304 529.846,485.304 529.5,486.5C 529.833,487.167 530.167,487.833 530.5,488.5C 528.804,490.56 527.637,492.893 527,495.5C 526.346,494.304 525.846,494.304 525.5,495.5C 526.002,496.716 526.335,497.883 526.5,499C 524.17,501.196 522.837,503.53 522.5,506C 519.853,506.315 519.187,507.482 520.5,509.5C 519.5,510.167 518.5,510.833 517.5,511.5C 517.709,512.086 518.043,512.586 518.5,513C 513.835,518.79 509.502,524.957 505.5,531.5C 503.047,533.612 500.714,535.779 498.5,538C 498.833,538.333 499.167,538.667 499.5,539C 497.833,540 496.167,541 494.5,542C 494.833,542.333 495.167,542.667 495.5,543C 487.813,550.198 478.813,557.531 468.5,565C 466.655,566.128 464.655,566.628 462.5,566.5C 462.5,567.5 462.5,568.5 462.5,569.5C 460.801,569.62 459.135,569.954 457.5,570.5C 449.239,575.2 440.572,578.533 431.5,580.5C 429.49,582.58 427.157,582.913 424.5,581.5C 421.938,584.609 418.771,585.276 415,583.5C 405.179,585.158 395.179,586.158 385,586.5C 380.399,585.858 375.899,585.191 371.5,584.5C 368.5,584.5 365.5,584.5 362.5,584.5C 362.5,583.5 362.5,582.5 362.5,581.5C 360.304,581.59 358.137,581.923 356,582.5C 354.301,582.613 353.134,581.947 352.5,580.5C 350.167,580.5 347.833,580.5 345.5,580.5C 345.649,579.448 345.483,578.448 345,577.5C 343.274,578.576 341.441,578.743 339.5,578C 318.617,571.994 298.95,560.994 280.5,545C 278.081,542.856 276.414,540.356 275.5,537.5C 274.448,537.649 273.448,537.483 272.5,537C 272.833,536.667 273.167,536.333 273.5,536C 271.833,534.667 270.167,533.333 268.5,532C 268.833,531.667 269.167,531.333 269.5,531C 266.054,527.66 263.054,523.993 260.5,520C 260.833,519.667 261.167,519.333 261.5,519C 258.518,515.248 256.185,511.081 254.5,506.5C 253.566,505.432 253.232,504.099 253.5,502.5C 252.752,500.067 251.585,497.734 250,495.5C 249.313,493.432 249.48,491.432 250.5,489.5C 250.154,488.304 249.654,488.304 249,489.5C 248.363,483.882 247.196,478.382 245.5,473C 244.203,453.673 244.203,434.339 245.5,415C 247.431,409.677 248.598,404.177 249,398.5C 249.889,399.888 250.389,399.722 250.5,398C 250.089,396.856 249.756,395.689 249.5,394.5C 251.485,391.139 252.652,387.472 253,383.5C 255.988,387.985 259.488,391.985 263.5,395.5C 264.641,396.425 264.641,397.259 263.5,398C 267.255,400.309 271.255,402.142 275.5,403.5C 275.354,405.942 276.187,406.609 278,405.5C 287.35,411.174 297.184,415.84 307.5,419.5C 309.071,418.691 310.738,418.357 312.5,418.5C 312.5,419.5 312.5,420.5 312.5,421.5C 316.042,421.187 319.375,421.521 322.5,422.5C 326.97,421.885 330.97,422.885 334.5,425.5C 338.8,424.313 343.3,424.647 348,426.5C 369.337,426.82 390.837,426.487 412.5,425.5C 413.5,426.167 414.5,426.833 415.5,427.5C 417.575,425.936 419.908,424.936 422.5,424.5C 424.648,424.701 426.814,425.034 429,425.5C 437.385,423.453 445.718,421.119 454,418.5C 454.873,418.735 455.707,419.069 456.5,419.5C 458.556,417.981 460.89,417.147 463.5,417C 463.167,416.667 462.833,416.333 462.5,416C 465.89,415.256 469.223,414.423 472.5,413.5C 472.56,414.043 472.893,414.376 473.5,414.5C 474.773,413.743 474.773,413.077 473.5,412.5C 478.475,410.453 483.309,408.12 488,405.5C 489.011,406.337 490.178,406.67 491.5,406.5C 491.5,405.5 491.5,404.5 491.5,403.5C 493.401,403.567 495.234,403.233 497,402.5C 501.689,399.485 506.523,396.652 511.5,394C 511.167,393.667 510.833,393.333 510.5,393C 511.5,392.667 512.5,392.333 513.5,392C 518.012,387.988 522.345,383.821 526.5,379.5C 527.039,382.166 528.372,384.333 530.5,386C 529.446,387.388 529.28,388.888 530,390.5C 530.333,390.167 530.667,389.833 531,389.5C 531.333,391.833 531.667,394.167 532,396.5C 532.805,394.099 533.638,394.266 534.5,397C 535.181,400.702 535.181,404.535 534.5,408.5C 535.274,409.711 536.107,409.711 537,408.5C 540.488,427.988 540.322,447.321 536.5,466.5 Z"/></g>
<g><path style="opacity:0.004" fill="#1c1c21" d="M 467.5,204.5 C 466.761,204.631 466.094,204.464 465.5,204C 466.437,203.308 467.103,203.475 467.5,204.5 Z"/></g>
<g><path style="opacity:0.008" fill="#0e1318" d="M 423.5,213.5 C 424.833,214.167 424.833,214.167 423.5,213.5 Z"/></g>
<g><path style="opacity:0.004" fill="#1e2124" d="M 406.5,217.5 C 407.833,218.167 407.833,218.167 406.5,217.5 Z"/></g>
<g><path style="opacity:0.004" fill="#00020f" d="M 302.5,220.5 C 303.833,221.167 303.833,221.167 302.5,220.5 Z"/></g>
<g><path style="opacity:0.004" fill="#1b1e21" d="M 389.5,220.5 C 390.833,221.167 390.833,221.167 389.5,220.5 Z"/></g>
<g><path style="opacity:0.004" fill="#1f2225" d="M 254.5,222.5 C 255.833,223.167 255.833,223.167 254.5,222.5 Z"/></g>
<g><path style="opacity:0.004" fill="#1a1c21" d="M 378.5,223.5 C 378.897,222.475 379.563,222.308 380.5,223C 379.906,223.464 379.239,223.631 378.5,223.5 Z"/></g>
<g><path style="opacity:0.004" fill="#0e1319" d="M 364.5,227.5 C 363.833,226.167 363.833,226.167 364.5,227.5 Z"/></g>
<g><path style="opacity:0.004" fill="#232527" d="M 358.5,234.5 C 359.833,235.167 359.833,235.167 358.5,234.5 Z"/></g>
<g><path style="opacity:0.008" fill="#0e1319" d="M 544.5,234.5 C 545.833,235.167 545.833,235.167 544.5,234.5 Z"/></g>
<g><path style="opacity:0.004" fill="#252526" d="M 293.5,241.5 C 294.289,241.783 294.956,242.283 295.5,243C 294.184,243.528 293.517,243.028 293.5,241.5 Z"/></g>
<g><path style="opacity:0.008" fill="#282729" d="M 247.5,247.5 C 245.663,247.361 245.33,246.694 246.5,245.5C 247.298,245.957 247.631,246.624 247.5,247.5 Z"/></g>
<g><path style="opacity:0.004" fill="#333332" d="M 276.5,258.5 C 277.251,257.427 278.251,257.26 279.5,258C 278.552,258.483 277.552,258.649 276.5,258.5 Z"/></g>
<g><path style="opacity:0.004" fill="#0a0e16" d="M 280.5,257.5 C 281.833,258.167 281.833,258.167 280.5,257.5 Z"/></g>
<g><path style="opacity:0.004" fill="#1a1d22" d="M 335.5,257.5 C 336.833,258.167 336.833,258.167 335.5,257.5 Z"/></g>
<g><path style="opacity:0.004" fill="#16181e" d="M 250.5,263.5 C 251.239,263.369 251.906,263.536 252.5,264C 251.563,264.692 250.897,264.525 250.5,263.5 Z"/></g>
<g><path style="opacity:0.004" fill="#0c0f17" d="M 227.5,268.5 C 230.001,268.511 230.168,269.178 228,270.5C 227.601,270.272 227.435,269.938 227.5,269.5C 227.5,269.167 227.5,268.833 227.5,268.5 Z"/></g>
<g><path style="opacity:0.004" fill="#313131" d="M 220.5,270.5 C 219.604,271.506 218.938,271.506 218.5,270.5C 219.167,269.167 219.833,269.167 220.5,270.5 Z"/></g>
<g><path style="opacity:0.004" fill="#0f1319" d="M 339.5,270.5 C 340.833,271.167 340.833,271.167 339.5,270.5 Z"/></g>
<g><path style="opacity:0.004" fill="#161a1e" d="M 565.5,270.5 C 566.833,271.167 566.833,271.167 565.5,270.5 Z"/></g>
<g><path style="opacity:0.008" fill="#2b2b2d" d="M 341.5,280.5 C 341.351,279.448 341.517,278.448 342,277.5C 342.74,278.749 342.573,279.749 341.5,280.5 Z"/></g>
<g><path style="opacity:0.004" fill="#191c21" d="M 299.5,278.5 C 300.833,279.167 300.833,279.167 299.5,278.5 Z"/></g>
<g><path style="opacity:0.006" fill="#2a2a2d" d="M 345.5,295.5 C 345.351,294.448 345.517,293.448 346,292.5C 346.74,293.749 346.573,294.749 345.5,295.5 Z"/></g>
<g><path style="opacity:0.008" fill="#0e121a" d="M 304.5,293.5 C 303.833,294.167 303.833,294.167 304.5,293.5 Z"/></g>
<g><path style="opacity:0.004" fill="#393937" d="M 322.5,301.5 C 321.833,301.5 321.5,301.167 321.5,300.5C 322.222,300.082 322.722,299.416 323,298.5C 323.74,299.749 323.573,300.749 322.5,301.5 Z"/></g>
<g><path style="opacity:0.008" fill="#040812" d="M 582.5,301.5 C 583.833,302.167 583.833,302.167 582.5,301.5 Z"/></g>
<g><path style="opacity:0.008" fill="#202023" d="M 332.5,304.5 C 332.5,305.167 332.833,305.5 333.5,305.5C 333.5,305.833 333.5,306.167 333.5,306.5C 333.44,307.043 333.107,307.376 332.5,307.5C 331.224,306.386 331.224,305.386 332.5,304.5 Z"/></g>
<g><path style="opacity:0.004" fill="#27282a" d="M 349.5,307.5 C 350.525,307.897 350.692,308.563 350,309.5C 349.536,308.906 349.369,308.239 349.5,307.5 Z"/></g>
<g><path style="opacity:0.004" fill="#242628" d="M 415.5,313.5 C 403.495,313.667 391.495,313.5 379.5,313C 391.674,312.174 403.674,312.34 415.5,313.5 Z"/></g>
<g><path style="opacity:0.004" fill="#272829" d="M 465.5,312.5 C 466.239,312.369 466.906,312.536 467.5,313C 466.563,313.692 465.897,313.525 465.5,312.5 Z"/></g>
<g><path style="opacity:0.008" fill="#27292a" d="M 415.5,313.5 C 416.833,314.167 416.833,314.167 415.5,313.5 Z"/></g>
<g><path style="opacity:0.004" fill="#0c1018" d="M 464.5,317.5 C 465.833,318.167 465.833,318.167 464.5,317.5 Z"/></g>
<g><path style="opacity:0.004" fill="#252729" d="M 529.5,317.5 C 530.833,318.167 530.833,318.167 529.5,317.5 Z"/></g>
<g><path style="opacity:0.008" fill="#131419" d="M 304.5,323.5 C 303.761,323.631 303.094,323.464 302.5,323C 303.437,322.308 304.103,322.475 304.5,323.5 Z"/></g>
<g><path style="opacity:0.008" fill="#060a14" d="M 475.5,322.5 C 476.833,323.167 476.833,323.167 475.5,322.5 Z"/></g>
<g><path style="opacity:0.016" fill="#00000c" d="M 490.5,326.5 C 491.833,327.167 491.833,327.167 490.5,326.5 Z"/></g>
<g><path style="opacity:0.004" fill="#3b3b39" d="M 261.5,338.5 C 262.833,339.167 262.833,339.167 261.5,338.5 Z"/></g>
<g><path style="opacity:0.004" fill="#282a2c" d="M 250.5,353.5 C 249.475,353.103 249.308,352.437 250,351.5C 250.464,352.094 250.631,352.761 250.5,353.5 Z"/></g>
<g><path style="opacity:0.004" fill="#28282b" d="M 263.5,362.5 C 264.773,363.077 264.773,363.743 263.5,364.5C 262.893,364.376 262.56,364.043 262.5,363.5C 263.167,363.5 263.5,363.167 263.5,362.5 Z"/></g>
<g><path style="opacity:0.004" fill="#13171c" d="M 242.5,370.5 C 241.833,369.167 241.833,369.167 242.5,370.5 Z"/></g>
<g><path style="opacity:0.008" fill="#191b1f" d="M 262.5,371.5 C 262.639,369.663 263.306,369.33 264.5,370.5C 264.043,371.298 263.376,371.631 262.5,371.5 Z"/></g>
<g><path style="opacity:0.004" fill="#403d3b" d="M 363.5,370.5 C 365.698,370.409 366.031,371.075 364.5,372.5C 363.662,372.158 363.328,371.492 363.5,370.5 Z"/></g>
<g><path style="opacity:0.004" fill="#14181d" d="M 540.5,374.5 C 541.833,375.167 541.833,375.167 540.5,374.5 Z"/></g>
<g><path style="opacity:0.004" fill="#070913" d="M 240.5,376.5 C 239.833,375.167 239.833,375.167 240.5,376.5 Z"/></g>
<g><path style="opacity:0.004" fill="#262729" d="M 408.5,386.5 C 406.901,386.232 405.568,386.566 404.5,387.5C 401.167,387.5 397.833,387.5 394.5,387.5C 394.389,386.883 394.056,386.383 393.5,386C 398.684,385.184 403.684,385.35 408.5,386.5 Z"/></g>
<g><path style="opacity:0.004" fill="#070b14" d="M 237.5,387.5 C 236.833,386.167 236.833,386.167 237.5,387.5 Z"/></g>
<g><path style="opacity:0.004" fill="#0c1018" d="M 546.5,390.5 C 547.833,391.167 547.833,391.167 546.5,390.5 Z"/></g>
<g><path style="opacity:0.012" fill="#1a1b20" d="M 548.5,399.5 C 548.369,398.761 548.536,398.094 549,397.5C 549.692,398.437 549.525,399.103 548.5,399.5 Z"/></g>
<g><path style="opacity:0.004" fill="#3e3d3b" d="M 560.5,406.5 C 561.5,406.5 562.5,406.5 563.5,406.5C 563.657,407.873 563.49,409.207 563,410.5C 562.23,411.598 561.397,411.598 560.5,410.5C 560.5,409.167 560.5,407.833 560.5,406.5 Z"/></g>
<g><path style="opacity:0.004" fill="#1b1c20" d="M 473.5,412.5 C 474.773,413.077 474.773,413.743 473.5,414.5C 472.893,414.376 472.56,414.043 472.5,413.5C 473.167,413.5 473.5,413.167 473.5,412.5 Z"/></g>
<g><path style="opacity:0.012" fill="#14171d" d="M 552.5,418.5 C 552.369,417.761 552.536,417.094 553,416.5C 553.692,417.437 553.525,418.103 552.5,418.5 Z"/></g>
<g><path style="opacity:0.874" fill="#fceac1" d="M 514.5,421.5 C 523.687,419.69 527.687,423.357 526.5,432.5C 524.408,432.561 522.908,433.561 522,435.5C 520.035,434.115 518.202,434.282 516.5,436C 508.331,437.641 504.331,434.474 504.5,426.5C 504.824,424.431 505.658,424.098 507,425.5C 509.098,423.309 511.598,421.976 514.5,421.5 Z"/></g>
<g><path style="opacity:0.008" fill="#2f2f30" d="M 218.5,434.5 C 218.5,435.167 218.5,435.833 218.5,436.5C 217.167,437.167 217.167,437.833 218.5,438.5C 217.528,439.751 216.861,439.418 216.5,437.5C 216.453,435.962 217.12,434.962 218.5,434.5 Z"/></g>
<g><path style="opacity:0.878" fill="#fceac1" d="M 476.5,440.5 C 478.273,443.488 478.94,446.821 478.5,450.5C 475.689,451.119 473.189,452.452 471,454.5C 469.333,452.993 468.166,453.327 467.5,455.5C 458.566,457.731 455.066,454.398 457,445.5C 457.75,444.874 458.584,444.374 459.5,444C 459.167,443.667 458.833,443.333 458.5,443C 461.775,441.772 465.442,440.939 469.5,440.5C 469.5,439.5 469.5,438.5 469.5,437.5C 471.167,437.5 472.833,437.5 474.5,437.5C 474.285,439.179 474.952,440.179 476.5,440.5 Z"/></g>
<g><path style="opacity:0.917" fill="#f8e8bf" d="M 300.5,444.5 C 301.58,447.743 301.747,451.076 301,454.5C 299.378,455.099 297.878,455.766 296.5,456.5C 291.333,456.91 286.333,456.243 281.5,454.5C 280.345,451.554 280.179,448.554 281,445.5C 282.364,446.258 283.531,445.758 284.5,444C 289.917,443.219 295.25,443.385 300.5,444.5 Z"/></g>
<g><path style="opacity:0.865" fill="#fbe9c0" d="M 431.5,463.5 C 428.218,466.998 424.051,468.332 419,467.5C 413.039,467.881 407.872,466.214 403.5,462.5C 404.657,459.727 405.324,456.727 405.5,453.5C 407.57,453.551 409.403,452.885 411,451.5C 416.996,453.197 423.163,454.03 429.5,454C 432.578,456.616 433.245,459.782 431.5,463.5 Z"/></g>
<g><path style="opacity:0.871" fill="#fceac1" d="M 360.5,458.5 C 360.726,461.249 360.393,463.916 359.5,466.5C 357.838,467.327 356.505,468.493 355.5,470C 355.833,470.333 356.167,470.667 356.5,471C 354.082,471.915 352.082,473.415 350.5,475.5C 341.528,478.512 337.861,475.512 339.5,466.5C 342.817,463.183 346.15,459.85 349.5,456.5C 352.446,455.345 355.446,455.179 358.5,456C 359.066,456.995 359.733,457.828 360.5,458.5 Z"/></g>
<g><path style="opacity:0.008" fill="#2f2f30" d="M 296.5,456.5 C 297.043,456.56 297.376,456.893 297.5,457.5C 293.541,458.66 289.541,458.827 285.5,458C 289.356,457.823 293.023,457.323 296.5,456.5 Z"/></g>
<g><path style="opacity:0.008" fill="#323433" d="M 552.5,458.5 C 553.833,459.167 553.833,459.167 552.5,458.5 Z"/></g>
<g><path style="opacity:0.004" fill="#1b1d21" d="M 503.5,458.5 C 505.337,458.639 505.67,459.306 504.5,460.5C 503.702,460.043 503.369,459.376 503.5,458.5 Z"/></g>
<g><path style="opacity:0.905" fill="#fbe9c0" d="M 506.5,459.5 C 510.079,459.316 513.413,459.983 516.5,461.5C 517.687,467.692 515.687,472.358 510.5,475.5C 509.784,474.689 508.95,474.022 508,473.5C 503.366,475.315 498.533,475.982 493.5,475.5C 492.849,473.174 492.182,470.841 491.5,468.5C 491.833,467.5 492.167,466.5 492.5,465.5C 494.386,464.15 495.886,462.483 497,460.5C 498.569,461.122 500.236,461.456 502,461.5C 503.986,461.431 505.486,460.765 506.5,459.5 Z"/></g>
<g><path style="opacity:0.004" fill="#1e1f22" d="M 536.5,466.5 C 536.5,466.833 536.5,467.167 536.5,467.5C 535.833,467.5 535.5,467.833 535.5,468.5C 534.475,468.103 534.308,467.437 535,466.5C 535.69,465.262 536.19,465.262 536.5,466.5 Z"/></g>
<g><path style="opacity:0.008" fill="#29292a" d="M 548.5,475.5 C 549.525,475.897 549.692,476.563 549,477.5C 548.536,476.906 548.369,476.239 548.5,475.5 Z"/></g>
<g><path style="opacity:0.903" fill="#f6e5bd" d="M 443.5,479.5 C 446.976,478.357 450.642,478.19 454.5,479C 453.5,479.333 452.5,479.667 451.5,480C 454.095,480.226 456.595,480.726 459,481.5C 461.795,480.217 464.628,480.217 467.5,481.5C 469.106,484.378 470.439,487.378 471.5,490.5C 470.726,491.711 469.893,491.711 469,490.5C 468.5,491.5 468,492.5 467.5,493.5C 458.783,495.65 450.783,494.316 443.5,489.5C 440.821,485.205 441.488,482.038 445.5,480C 444.906,479.536 444.239,479.369 443.5,479.5 Z"/></g>
<g><path style="opacity:0.004" fill="#0b0f18" d="M 232.5,485.5 C 233.525,485.897 233.692,486.563 233,487.5C 232.536,486.906 232.369,486.239 232.5,485.5 Z"/></g>
<g><path style="opacity:0.004" fill="#383937" d="M 544.5,489.5 C 545.833,490.167 545.833,490.167 544.5,489.5 Z"/></g>
<g><path style="opacity:0.845" fill="#fceac0" d="M 301.5,491.5 C 306.894,493.908 308.561,497.908 306.5,503.5C 302.142,507.196 297.808,510.863 293.5,514.5C 291.155,516.919 288.489,517.585 285.5,516.5C 281.301,514.107 279.635,510.44 280.5,505.5C 287.256,500.401 294.256,495.734 301.5,491.5 Z"/></g>
<g><path style="opacity:0.905" fill="#f8e7be" d="M 396.5,509.5 C 396.5,508.833 396.167,508.5 395.5,508.5C 395.797,505.276 395.13,502.276 393.5,499.5C 395.086,497.827 395.753,495.827 395.5,493.5C 397.124,493.64 398.29,492.973 399,491.5C 401.687,492.713 404.52,493.38 407.5,493.5C 407.328,495.492 407.995,497.158 409.5,498.5C 408.456,500.768 408.289,503.101 409,505.5C 411.584,508.406 412.084,511.739 410.5,515.5C 409.107,516.863 407.441,517.696 405.5,518C 405.833,518.333 406.167,518.667 406.5,519C 404.833,519.667 403.167,519.667 401.5,519C 401.833,518.667 402.167,518.333 402.5,518C 400.924,517.56 399.59,516.727 398.5,515.5C 397.831,513.369 397.165,511.369 396.5,509.5 Z"/></g>
<g><path style="opacity:0.881" fill="#fae7bf" d="M 471.5,520.5 C 469.403,515.358 470.736,511.524 475.5,509C 474.289,508.107 474.289,507.274 475.5,506.5C 476.5,507.833 477.5,507.833 478.5,506.5C 479.711,507.274 479.711,508.107 478.5,509C 482.876,510.423 487.043,512.256 491,514.5C 492.174,523.311 488.341,526.477 479.5,524C 476.733,522.839 474.067,521.673 471.5,520.5 Z"/></g>
<g><path style="opacity:0.004" fill="#12161b" d="M 240.5,511.5 C 240.5,511.833 240.5,512.167 240.5,512.5C 239.83,512.019 239.83,511.685 240.5,511.5 Z"/></g>
<g><path style="opacity:0.004" fill="#070c15" d="M 240.5,512.5 C 241.833,513.167 241.833,513.167 240.5,512.5 Z"/></g>
<g><path style="opacity:0.898" fill="#fbe9c0" d="M 323.5,521.5 C 324.242,526.569 324.242,531.569 323.5,536.5C 321.742,538.651 320.076,540.817 318.5,543C 313.787,544.256 309.787,543.089 306.5,539.5C 307.833,537.833 307.833,536.167 306.5,534.5C 307.274,533.289 308.107,533.289 309,534.5C 309.497,532.19 309.663,529.857 309.5,527.5C 311.13,525.974 311.963,523.974 312,521.5C 315.823,517.605 319.656,517.605 323.5,521.5 Z"/></g>
<g><path style="opacity:0.004" fill="#1a1b1f" d="M 249.5,528.5 C 249.103,529.525 248.437,529.692 247.5,529C 248.094,528.536 248.761,528.369 249.5,528.5 Z"/></g>
<g><path style="opacity:0.918" fill="#fbe9c0" d="M 447.5,549.5 C 447.205,551.735 447.539,553.735 448.5,555.5C 447.766,556.708 447.433,558.041 447.5,559.5C 444.91,559.396 442.577,560.063 440.5,561.5C 438.944,560.453 437.277,559.786 435.5,559.5C 435.06,554.051 433.56,549.051 431,544.5C 428.305,534.868 431.639,531.202 441,533.5C 442.808,538.687 444.975,544.02 447.5,549.5 Z"/></g>
<g><path style="opacity:0.004" fill="#0e1319" d="M 521.5,533.5 C 522.833,534.167 522.833,534.167 521.5,533.5 Z"/></g>
<g><path style="opacity:0.884" fill="#f8e6be" d="M 351.5,561.5 C 352.043,561.44 352.376,561.107 352.5,560.5C 351.833,554.833 351.167,549.167 350.5,543.5C 352.277,542.099 353.944,540.599 355.5,539C 355.167,538.667 354.833,538.333 354.5,538C 357.482,537.502 360.482,537.335 363.5,537.5C 364.151,539.826 364.818,542.159 365.5,544.5C 364.749,550.82 364.582,557.153 365,563.5C 362.681,567.115 359.515,568.115 355.5,566.5C 354.388,564.581 353.054,562.914 351.5,561.5 Z"/></g>
<g><path style="opacity:0.007" fill="#353434" d="M 447.5,549.5 C 448.239,549.369 448.906,549.536 449.5,550C 449.613,551.747 449.279,553.58 448.5,555.5C 447.539,553.735 447.205,551.735 447.5,549.5 Z"/></g>
<g><path style="opacity:0.012" fill="#2e302f" d="M 446.5,591.5 C 447.833,592.167 447.833,592.167 446.5,591.5 Z"/></g>
<g><path style="opacity:0.004" fill="#171a1e" d="M 349.5,595.5 C 349.103,596.525 348.437,596.692 347.5,596C 348.094,595.536 348.761,595.369 349.5,595.5 Z"/></g>
<g><path style="opacity:0.004" fill="#28292b" d="M 434.5,596.5 C 434.5,596.167 434.5,595.833 434.5,595.5C 437.167,595.833 437.167,596.167 434.5,596.5 Z"/></g>
<g><path style="opacity:0.004" fill="#272729" d="M 322.5,596.5 C 322.5,596.833 322.5,597.167 322.5,597.5C 321.923,598.773 321.257,598.773 320.5,597.5C 320.957,596.702 321.624,596.369 322.5,596.5 Z"/></g>
</svg>
