<?xml version="1.0" encoding="UTF-8"?>
<!DOCTYPE svg PUBLIC "-//W3C//DTD SVG 1.1//EN" "http://www.w3.org/Graphics/SVG/1.1/DTD/svg11.dtd">
<svg xmlns="http://www.w3.org/2000/svg" version="1.1" width="800px" height="800px" style="shape-rendering:geometricPrecision; text-rendering:geometricPrecision; image-rendering:optimizeQuality; fill-rule:evenodd; clip-rule:evenodd" xmlns:xlink="http://www.w3.org/1999/xlink">
<g><path style="opacity:1" fill="#fceac0" d="M 427.5,77.5 C 435.196,77.1692 442.862,77.5025 450.5,78.5C 448.918,97.072 446.252,115.572 442.5,134C 527.819,156.985 578.986,211.818 596,298.5C 596.867,308.163 597.7,317.83 598.5,327.5C 609.648,330.819 614.481,338.152 613,349.5C 611.385,351.011 611.385,352.344 613,353.5C 614.877,360.58 612.711,366.08 606.5,370C 602.66,372.421 598.66,374.588 594.5,376.5C 589.979,425.689 583.812,474.689 576,523.5C 569.646,561.915 560.313,599.581 548,636.5C 542.378,652.386 535.044,667.386 526,681.5C 516.276,695.884 503.109,705.718 486.5,711C 466.339,717.565 445.673,721.565 424.5,723C 400.81,723.877 377.144,723.544 353.5,722C 329.547,720.014 306.88,713.68 285.5,703C 274.52,695.688 266.02,686.188 260,674.5C 245.277,644.998 234.944,613.998 229,581.5C 215.956,513.767 207.956,445.434 205,376.5C 198.501,373.666 192.835,369.666 188,364.5C 186.994,362.466 186.494,360.3 186.5,358C 186.971,352.204 187.138,346.37 187,340.5C 190.485,333.752 195.818,329.086 203,326.5C 205.712,251.536 238.879,194.703 302.5,156C 338.519,135.868 377.019,127.702 418,131.5C 421.276,113.51 424.443,95.5096 427.5,77.5 Z M 433.5,83.5 C 436.833,83.5 440.167,83.5 443.5,83.5C 435.609,135.182 427.609,186.849 419.5,238.5C 415.401,238.633 411.734,237.467 408.5,235C 416.888,184.507 425.221,134.007 433.5,83.5 Z M 382.5,137.5 C 394.167,137.5 405.833,137.5 417.5,137.5C 415.336,151.154 413.169,164.82 411,178.5C 410.058,181.993 408.725,185.326 407,188.5C 384.764,189.033 370.098,200.033 363,221.5C 361.347,227.979 361.18,234.479 362.5,241C 360.697,243.804 358.53,246.304 356,248.5C 342.899,244.845 330.399,246.178 318.5,252.5C 302.41,239.439 284.743,236.939 265.5,245C 245.493,257.345 238.159,275.012 243.5,298C 227.355,302.803 216.188,312.97 210,328.5C 211.741,255.495 243.574,199.995 305.5,162C 329.658,148.668 355.325,140.501 382.5,137.5 Z M 590.5,319.5 C 581.93,298.432 566.263,287.932 543.5,288C 537.795,279.626 530.295,273.46 521,269.5C 519.971,265.111 518.138,261.111 515.5,257.5C 528.881,229.147 522.048,207.147 495,191.5C 488.496,169.58 473.829,157.914 451,156.5C 447.132,156.619 443.299,156.953 439.5,157.5C 439.76,152.012 440.76,146.678 442.5,141.5C 507.948,157.783 553.448,197.116 579,259.5C 586.238,278.856 590.071,298.856 590.5,319.5 Z M 442.5,163.5 C 467.25,160.944 482.75,171.611 489,195.5C 512.05,206.934 519.716,224.934 512,249.5C 510.877,252.249 509.377,254.749 507.5,257C 510.843,262.52 513.51,268.353 515.5,274.5C 520.317,276.741 524.983,279.241 529.5,282C 533.642,285.962 537.308,290.296 540.5,295C 564.745,293.745 579.745,304.912 585.5,328.5C 587.045,329.452 588.712,329.785 590.5,329.5C 589.961,336.416 586.961,341.916 581.5,346C 570.35,351.272 558.684,354.939 546.5,357C 499.906,365.614 452.906,369.781 405.5,369.5C 411.952,328.503 418.452,287.503 425,246.5C 428.782,245.261 432.615,244.095 436.5,243C 438.932,240.319 438.432,238.152 435,236.5C 432.209,237.406 429.376,238.073 426.5,238.5C 430.099,214.139 433.933,189.806 438,165.5C 439.622,164.901 441.122,164.234 442.5,163.5 Z M 402.5,194.5 C 404.5,194.5 406.5,194.5 408.5,194.5C 406.659,206.889 404.492,219.222 402,231.5C 399.966,228.091 397.466,225.091 394.5,222.5C 392.728,223.27 391.728,224.603 391.5,226.5C 393.475,231.98 396.809,236.48 401.5,240C 394.552,282.852 387.552,325.685 380.5,368.5C 329.39,369.506 279.056,363.673 229.5,351C 217.999,348.335 211.665,341.169 210.5,329.5C 212.924,329.808 215.257,329.474 217.5,328.5C 223.77,314.277 234.603,305.944 250,303.5C 250.374,302.584 250.874,301.75 251.5,301C 243.725,277.222 251.058,259.889 273.5,249C 284.072,245.593 294.405,246.26 304.5,251C 308.999,254.007 313.332,257.174 317.5,260.5C 321.13,258.685 324.797,256.851 328.5,255C 332.832,254.084 337.165,253.251 341.5,252.5C 347.626,253.385 353.626,254.551 359.5,256C 362.547,252.075 365.714,248.241 369,244.5C 365.541,217.693 376.708,201.026 402.5,194.5 Z M 407.5,242.5 C 410.979,244.122 414.645,245.289 418.5,246C 411.511,287.083 404.845,328.25 398.5,369.5C 394.774,369.823 391.107,369.489 387.5,368.5C 394.599,326.575 401.265,284.575 407.5,242.5 Z M 203.5,333.5 C 207.85,347.664 217.516,356.164 232.5,359C 278.19,369.781 324.523,375.447 371.5,376C 430.273,378.181 488.606,374.181 546.5,364C 560.552,361.822 573.886,357.488 586.5,351C 591.913,346.345 595.413,340.512 597,333.5C 602.057,335.723 605.557,339.389 607.5,344.5C 606.456,348.379 604.123,351.212 600.5,353C 589.154,359.116 577.154,363.449 564.5,366C 524.916,374.176 484.916,378.843 444.5,380C 390.005,382.111 335.672,380.111 281.5,374C 259.819,371.331 238.486,366.997 217.5,361C 209.359,358.347 201.859,354.513 195,349.5C 194.167,347.833 193.333,346.167 192.5,344.5C 194.674,339.264 198.341,335.597 203.5,333.5 Z M 192.5,356.5 C 201.186,362.008 210.519,366.174 220.5,369C 258.9,378.675 297.9,384.342 337.5,386C 400.354,389.504 463.021,387.504 525.5,380C 548.003,377.166 570.003,372.166 591.5,365C 596.907,362.548 602.074,359.714 607,356.5C 607.359,359.62 606.192,362.12 603.5,364C 585.03,373.871 565.363,380.204 544.5,383C 496.646,390.701 448.479,394.201 400,393.5C 351.522,394.201 303.355,390.701 255.5,383C 239.837,380.251 224.504,376.251 209.5,371C 204.508,368.839 199.841,366.172 195.5,363C 194.086,361.007 193.086,358.84 192.5,356.5 Z M 212.5,379.5 C 217.387,381.24 222.387,382.573 227.5,383.5C 230.698,441.15 236.865,498.483 246,555.5C 251.492,592.471 261.492,628.137 276,662.5C 283.62,678.786 295.786,690.286 312.5,697C 339.287,705.732 366.787,709.898 395,709.5C 424.311,709.932 452.811,705.432 480.5,696C 495.886,689.28 507.386,678.447 515,663.5C 529.336,632.832 539.67,600.832 546,567.5C 558.189,506.676 566.689,445.342 571.5,383.5C 576.579,383.022 581.412,381.689 586,379.5C 581.397,458.051 569.064,535.385 549,611.5C 541.987,636.898 531.32,660.565 517,682.5C 509.318,691.918 499.818,698.752 488.5,703C 457.838,713.104 426.338,717.938 394,717.5C 361.998,717.855 330.831,713.021 300.5,703C 288.262,698.086 278.429,690.253 271,679.5C 260.153,661.305 251.819,641.971 246,621.5C 232.793,571.257 223.793,520.257 219,468.5C 215.894,438.898 213.728,409.231 212.5,379.5 Z M 234.5,385.5 C 289.056,396.533 344.223,401.533 400,400.5C 446.425,401.049 492.592,397.883 538.5,391C 547.198,389.928 555.698,388.094 564,385.5C 559.43,451.156 550.097,516.156 536,580.5C 529.77,610.192 519.77,638.525 506,665.5C 499.995,676.504 491.162,684.337 479.5,689C 452.2,698.71 424.033,703.21 395,702.5C 367.052,703.175 339.886,699.008 313.5,690C 301.24,685.736 292.073,677.903 286,666.5C 272.514,639.565 263.181,611.232 258,581.5C 255.007,567.542 252.674,553.542 251,539.5C 271.668,543.644 292.502,547.144 313.5,550C 316.227,550.818 318.894,550.652 321.5,549.5C 325.272,527.199 328.939,504.865 332.5,482.5C 331.491,479.164 329.158,477.664 325.5,478C 304.179,474.556 282.846,471.556 261.5,469C 257.022,491.334 253.189,513.834 250,536.5C 242.641,486.389 237.475,436.056 234.5,385.5 Z M 358.5,450.5 C 381.167,450.5 403.833,450.5 426.5,450.5C 426.5,473.167 426.5,495.833 426.5,518.5C 403.833,518.5 381.167,518.5 358.5,518.5C 358.5,495.833 358.5,473.167 358.5,450.5 Z M 266.5,475.5 C 285.73,478.927 305.063,481.927 324.5,484.5C 322.09,504.123 319.09,523.623 315.5,543C 296.169,540.501 276.836,537.668 257.5,534.5C 260.392,514.814 263.392,495.147 266.5,475.5 Z M 475.5,516.5 C 494.782,531.715 505.782,551.715 508.5,576.5C 480.432,578.807 452.432,581.307 424.5,584C 441.716,561.623 458.716,539.123 475.5,516.5 Z M 307.5,557.5 C 329.813,561.045 352.146,564.545 374.5,568C 370.79,589.798 367.123,611.632 363.5,633.5C 362.667,633.833 361.833,634.167 361,634.5C 339.364,631.434 317.864,627.767 296.5,623.5C 300.17,601.47 303.837,579.47 307.5,557.5 Z M 507.5,582.5 C 510.408,603.524 505.408,622.858 492.5,640.5C 470.359,624.192 448.359,607.692 426.5,591C 453.677,588.416 480.677,585.583 507.5,582.5 Z M 414.5,596.5 C 420.089,623.853 425.422,651.353 430.5,679C 406.427,683.154 384.427,678.32 364.5,664.5C 365,663.5 365.5,662.5 366,661.5C 382.672,640.131 398.839,618.464 414.5,596.5 Z M 422.5,596.5 C 444.47,613.158 466.47,629.824 488.5,646.5C 475.143,662.835 458.143,673.502 437.5,678.5C 431.985,651.259 426.985,623.926 422.5,596.5 Z"/></g>
<g><path style="opacity:0.839" fill="#fbe9c8" d="M 495.5,174.5 C 516.796,182.612 534.629,195.612 549,213.5C 563.026,231.715 573.526,251.881 580.5,274C 579.309,277.309 577.143,278.143 574,276.5C 560.899,232.1 534.065,199.266 493.5,178C 493.978,176.697 494.645,175.531 495.5,174.5 Z"/></g>
<g><path style="opacity:0.824" fill="#fbe9c8" d="M 544.5,436.5 C 548.495,435.884 550.495,437.55 550.5,441.5C 548.06,471.356 544.226,501.022 539,530.5C 536.678,536.31 534.178,536.643 531.5,531.5C 534.088,521.642 535.921,511.642 537,501.5C 539.37,479.792 541.87,458.126 544.5,436.5 Z"/></g>
<g><path style="opacity:0.815" fill="#fbe9c8" d="M 353.5,443.5 C 379.741,443.172 405.908,443.505 432,444.5C 433.15,457.742 433.65,471.076 433.5,484.5C 445.075,523.759 431.241,537.425 392,525.5C 379.167,525.333 366.333,525.167 353.5,525C 353,524.5 352.5,524 352,523.5C 351.333,497.5 351.333,471.5 352,445.5C 352.717,444.956 353.217,444.289 353.5,443.5 Z M 358.5,450.5 C 358.5,473.167 358.5,495.833 358.5,518.5C 381.167,518.5 403.833,518.5 426.5,518.5C 426.5,495.833 426.5,473.167 426.5,450.5C 403.833,450.5 381.167,450.5 358.5,450.5 Z"/></g>
<g><path style="opacity:0.854" fill="#fbe9c8" d="M 474.5,507.5 C 496.782,523.018 510.282,544.352 515,571.5C 519.963,624.43 498.13,661.264 449.5,682C 415.981,692.665 384.981,687.832 356.5,667.5C 355.572,666.232 355.405,664.899 356,663.5C 395.332,611.339 434.832,559.339 474.5,507.5 Z M 475.5,516.5 C 458.716,539.123 441.716,561.623 424.5,584C 452.432,581.307 480.432,578.807 508.5,576.5C 505.782,551.715 494.782,531.715 475.5,516.5 Z M 507.5,582.5 C 480.677,585.583 453.677,588.416 426.5,591C 448.359,607.692 470.359,624.192 492.5,640.5C 505.408,622.858 510.408,603.524 507.5,582.5 Z M 414.5,596.5 C 398.839,618.464 382.672,640.131 366,661.5C 365.5,662.5 365,663.5 364.5,664.5C 384.427,678.32 406.427,683.154 430.5,679C 425.422,651.353 420.089,623.853 414.5,596.5 Z M 422.5,596.5 C 426.985,623.926 431.985,651.259 437.5,678.5C 458.143,673.502 475.143,662.835 488.5,646.5C 466.47,629.824 444.47,613.158 422.5,596.5 Z"/></g>
<g><path style="opacity:0.837" fill="#fbe9c8" d="M 301.5,550.5 C 325.891,553.484 350.225,556.984 374.5,561C 377.007,561.093 379.174,561.926 381,563.5C 377.777,588.847 374.11,614.18 370,639.5C 369.3,641.032 368.134,642.032 366.5,642.5C 340.905,638.487 315.405,634.154 290,629.5C 292.943,603.063 296.777,576.729 301.5,550.5 Z M 307.5,557.5 C 303.837,579.47 300.17,601.47 296.5,623.5C 317.864,627.767 339.364,631.434 361,634.5C 361.833,634.167 362.667,633.833 363.5,633.5C 367.123,611.632 370.79,589.798 374.5,568C 352.146,564.545 329.813,561.045 307.5,557.5 Z"/></g>
</svg>
