<?xml version="1.0" encoding="UTF-8"?>
<!DOCTYPE svg PUBLIC "-//W3C//DTD SVG 1.1//EN" "http://www.w3.org/Graphics/SVG/1.1/DTD/svg11.dtd">
<svg xmlns="http://www.w3.org/2000/svg" version="1.1" width="800px" height="800px" style="shape-rendering:geometricPrecision; text-rendering:geometricPrecision; image-rendering:optimizeQuality; fill-rule:evenodd; clip-rule:evenodd" xmlns:xlink="http://www.w3.org/1999/xlink">
<g><path style="opacity:0.939" fill="#fce9c0" d="M 704.5,26.5 C 704.285,28.1788 704.952,29.1788 706.5,29.5C 710.578,34.1837 712.245,39.6837 711.5,46C 711.912,58.2449 706.579,66.9116 695.5,72C 663.579,83.9643 631.913,96.4643 600.5,109.5C 576.8,150.037 553.3,190.704 530,231.5C 530.972,236.745 531.972,242.078 533,247.5C 533.784,255.037 533.617,262.537 532.5,270C 536.32,274.489 540.153,278.989 544,283.5C 554.19,297.568 558.356,313.235 556.5,330.5C 559.889,334.923 563.056,339.589 566,344.5C 567.517,350.08 567.851,355.747 567,361.5C 562.823,379.209 558.49,396.875 554,414.5C 549.011,423.314 541.677,428.981 532,431.5C 526.083,466.007 519.416,500.341 512,534.5C 502.512,542.174 495.679,540.174 491.5,528.5C 493.961,516.193 496.295,503.86 498.5,491.5C 426.833,491.5 355.167,491.5 283.5,491.5C 295.348,552.894 307.515,614.227 320,675.5C 321.731,677.617 323.898,679.117 326.5,680C 369.833,680.667 413.167,680.667 456.5,680C 460.896,679.27 463.73,676.77 465,672.5C 467.319,656.901 470.652,641.567 475,626.5C 485.129,620.486 491.629,623.153 494.5,634.5C 491.524,650.215 488.357,665.882 485,681.5C 480.679,691.087 473.513,697.587 463.5,701C 415.833,701.667 368.167,701.667 320.5,701C 306.042,695.93 297.875,685.764 296,670.5C 280.462,590.478 264.796,510.478 249,430.5C 240.024,428.842 233.024,424.176 228,416.5C 221.992,396.305 217.492,375.805 214.5,355C 213.719,346.063 216.886,338.897 224,333.5C 221.795,308.767 229.795,288.101 248,271.5C 245.653,237.853 258.82,212.52 287.5,195.5C 285.9,183.645 287.733,172.312 293,161.5C 299,154.833 305,154.833 311,161.5C 312.03,163.588 312.863,165.755 313.5,168C 310.646,175.249 308.979,182.749 308.5,190.5C 312.846,190.334 317.179,190.501 321.5,191C 329.767,198.12 329.434,204.787 320.5,211C 289.928,212.067 272.928,227.9 269.5,258.5C 273.629,257.426 277.796,256.426 282,255.5C 290.541,257.04 293.875,262.04 292,270.5C 291.226,272.939 289.726,274.773 287.5,276C 260.67,282.756 246.67,299.756 245.5,327C 342.166,327.5 438.833,327.667 535.5,327.5C 535.827,308.65 528.161,294.15 512.5,284C 506.282,281.058 499.949,278.391 493.5,276C 485.519,269.619 485.519,263.286 493.5,257C 495.199,256.042 497.033,255.542 499,255.5C 503.202,256.402 507.368,257.402 511.5,258.5C 509.712,233.043 496.379,217.376 471.5,211.5C 464.558,213.529 458.391,212.196 453,207.5C 449.301,201.653 450.135,196.486 455.5,192C 460.372,190.612 465.372,190.112 470.5,190.5C 473.933,167.188 473.766,143.855 470,120.5C 469.574,115.572 468.407,110.906 466.5,106.5C 453.072,118.05 437.739,126.216 420.5,131C 397.883,136.869 374.883,139.869 351.5,140C 346.854,140.326 342.521,141.66 338.5,144C 327,145.833 322.167,141 324,129.5C 324.785,127.714 325.951,126.214 327.5,125C 332.87,122.148 338.537,120.148 344.5,119C 359.508,117.841 374.508,116.508 389.5,115C 405.96,112.957 421.626,108.291 436.5,101C 444.5,95.6667 452.5,90.3333 460.5,85C 470.029,82.065 477.863,84.565 484,92.5C 486.973,97.0788 488.973,102.079 490,107.5C 494.708,132.393 496.041,157.393 494,182.5C 516,144.5 538,106.5 560,68.5C 563.21,64.8128 567.044,61.9794 571.5,60C 605.753,47.2026 639.753,33.8692 673.5,20C 680.5,19.3333 687.5,19.3333 694.5,20C 698.374,21.4305 701.707,23.5972 704.5,26.5 Z M 681.5,40.5 C 689.744,40.2276 692.078,43.7276 688.5,51C 654.5,64.3333 620.5,77.6667 586.5,91C 562.621,131.254 539.121,171.754 516,212.5C 513.131,209.296 509.965,206.463 506.5,204C 530.5,163 554.5,122 578.5,81C 612.972,67.5705 647.306,54.0705 681.5,40.5 Z M 238.5,349.5 C 340.167,349.333 441.834,349.5 543.5,350C 544.98,351.299 545.646,352.966 545.5,355C 541.746,371.848 537.913,388.681 534,405.5C 533.167,406.333 532.333,407.167 531.5,408C 437.833,408.667 344.167,408.667 250.5,408C 249.069,407.535 247.903,406.701 247,405.5C 243.491,389.797 239.824,374.13 236,358.5C 234.779,354.718 235.613,351.718 238.5,349.5 Z M 271.5,430.5 C 351.167,430.333 430.834,430.5 510.5,431C 507.382,443.73 505.049,456.396 503.5,469C 428.501,469.5 353.501,469.667 278.5,469.5C 276.706,456.403 274.373,443.403 271.5,430.5 Z"/></g>
<g><path style="opacity:0.449" fill="#fef0c6" d="M 704.5,26.5 C 705.401,27.2905 706.068,28.2905 706.5,29.5C 704.952,29.1788 704.285,28.1788 704.5,26.5 Z"/></g>
<g><path style="opacity:0.878" fill="#fceac0" d="M 377.5,172.5 C 390.176,172.991 394.009,178.991 389,190.5C 380.003,196.39 373.503,194.224 369.5,184C 370.323,178.845 372.99,175.011 377.5,172.5 Z"/></g>
<g><path style="opacity:0.882" fill="#fceac0" d="M 432.5,238.5 C 443.989,237.155 448.823,242.155 447,253.5C 439.831,261.758 433.164,261.425 427,252.5C 425.814,246.553 427.647,241.887 432.5,238.5 Z"/></g>
<g><path style="opacity:0.875" fill="#fceac0" d="M 369.5,283.5 C 379.607,285.043 383.107,290.71 380,300.5C 373.311,307.355 366.977,307.022 361,299.5C 358.896,291.369 361.729,286.035 369.5,283.5 Z"/></g>
<g><path style="opacity:0.915" fill="#fceac0" d="M 492.5,553.5 C 501.186,552.19 506.186,555.857 507.5,564.5C 505,577.497 502.5,590.497 500,603.5C 493.832,612.395 487.165,612.728 480,604.5C 479.077,602.966 478.577,601.299 478.5,599.5C 480.954,586.488 483.454,573.488 486,560.5C 487.694,557.642 489.861,555.309 492.5,553.5 Z"/></g>
</svg>
