<?xml version="1.0" encoding="UTF-8"?>
<!DOCTYPE svg PUBLIC "-//W3C//DTD SVG 1.1//EN" "http://www.w3.org/Graphics/SVG/1.1/DTD/svg11.dtd">
<svg xmlns="http://www.w3.org/2000/svg" version="1.1" width="800px" height="800px" style="shape-rendering:geometricPrecision; text-rendering:geometricPrecision; image-rendering:optimizeQuality; fill-rule:evenodd; clip-rule:evenodd" xmlns:xlink="http://www.w3.org/1999/xlink">
<g><path style="opacity:0.922" fill="#fceac0" d="M 337.5,120.5 C 292.985,114.892 253.985,127.225 220.5,157.5C 216.332,158.925 212.332,158.592 208.5,156.5C 207.287,153.905 205.953,151.405 204.5,149C 206.61,142.886 210.276,137.886 215.5,134C 221.393,130.459 227.06,126.459 232.5,122C 269.587,100.128 309.921,93.4612 353.5,102C 378.152,107.527 399.985,118.36 419,134.5C 427.31,146.621 427.643,158.954 420,171.5C 413.607,178.531 405.607,182.531 396,183.5C 392.278,183.455 388.778,182.955 385.5,182C 378.833,188.667 372.167,195.333 365.5,202C 388.174,202.833 410.841,202.666 433.5,201.5C 442.244,177.149 451.411,152.482 461,127.5C 471.053,111.668 484.887,102.168 502.5,99C 541.833,98.3333 581.167,98.3333 620.5,99C 623.376,99.4379 626.043,100.438 628.5,102C 641.459,112.407 645.792,125.407 641.5,141C 636.755,151.408 628.755,157.741 617.5,160C 583.262,160.17 549.095,160.67 515,161.5C 510.822,175.331 505.989,188.831 500.5,202C 502.727,202.121 504.56,202.954 506,204.5C 513.934,203.828 520.934,206.161 527,211.5C 527.333,211.167 527.667,210.833 528,210.5C 535.784,217.475 540.784,226.142 543,236.5C 543.667,304.833 543.667,373.167 543,441.5C 540.929,445.953 537.429,447.953 532.5,447.5C 528.331,447.849 525.164,446.182 523,442.5C 522.5,404.501 522.333,366.501 522.5,328.5C 509.953,333.356 497.453,338.356 485,343.5C 479.524,344.106 474.024,344.44 468.5,344.5C 461.852,344.075 455.518,343.575 449.5,343C 438.218,338.333 427.052,333.5 416,328.5C 407.46,327.055 398.96,327.222 390.5,329C 379.273,334.054 367.94,338.887 356.5,343.5C 355.558,343.392 354.725,343.059 354,342.5C 338.931,345.951 324.098,344.784 309.5,339C 301.984,334.223 293.984,330.723 285.5,328.5C 285.5,426.5 285.5,524.5 285.5,622.5C 302.18,622.167 318.847,622.501 335.5,623.5C 337.709,624.063 339.209,625.396 340,627.5C 340.767,631.594 340.434,635.594 339,639.5C 337.391,640.147 335.891,640.98 334.5,642C 318.259,642.824 302.093,642.658 286,641.5C 285.105,651.561 285.438,661.561 287,671.5C 290.993,678.749 297.16,682.249 305.5,682C 371.5,682.667 437.5,682.667 503.5,682C 513.758,681.632 519.924,676.465 522,666.5C 522.667,658.167 522.667,649.833 522,641.5C 469.904,642.664 417.737,642.831 365.5,642C 360.934,640.381 358.934,637.048 359.5,632C 359.098,627.8 360.765,624.8 364.5,623C 417.166,622.5 469.832,622.333 522.5,622.5C 522.167,572.496 522.5,522.496 523.5,472.5C 526.584,467.076 531.25,465.242 537.5,467C 539.658,468.457 541.491,470.29 543,472.5C 543.667,538.167 543.667,603.833 543,669.5C 539.38,685.962 529.547,696.462 513.5,701C 440.5,701.667 367.5,701.667 294.5,701C 279.679,696.846 270.179,687.346 266,672.5C 265.667,549.167 265.333,425.833 265,302.5C 257,310.5 249,318.5 241,326.5C 242.499,335.838 241.333,344.838 237.5,353.5C 234.151,357.016 230.651,360.349 227,363.5C 212.198,369.733 199.198,366.733 188,354.5C 158.304,312.169 149.971,265.169 163,213.5C 167.161,199.276 173.161,185.942 181,173.5C 186.365,166.381 192.365,165.714 199,171.5C 200.504,175.039 200.837,178.705 200,182.5C 167.819,237.406 169.486,290.739 205,342.5C 211.385,348.053 216.718,347.053 221,339.5C 221.667,337.833 221.667,336.167 221,334.5C 191.163,291.368 187.663,246.368 210.5,199.5C 240.105,152.987 281.772,132.487 335.5,138C 342.453,139.771 349.453,141.438 356.5,143C 361.538,145.39 366.705,147.556 372,149.5C 379.255,153.543 386.422,157.71 393.5,162C 395.167,162.667 396.833,162.667 398.5,162C 400.5,160.667 402.5,159.333 404.5,158C 405.626,155.101 405.626,152.268 404.5,149.5C 388.646,136.134 370.812,127.467 351,123.5C 346.843,121.17 342.343,120.17 337.5,120.5 Z M 514.5,117.5 C 546.502,117.333 578.502,117.5 610.5,118C 617.029,118.689 621.363,122.189 623.5,128.5C 621.855,130.925 620.689,133.592 620,136.5C 618.2,138.317 616.034,139.484 613.5,140C 579.167,140.333 544.833,140.667 510.5,141C 506.579,141.753 503.245,143.586 500.5,146.5C 499.023,149.591 497.356,152.591 495.5,155.5C 489.87,171.088 484.536,186.755 479.5,202.5C 471.16,202.666 462.827,202.5 454.5,202C 456.481,201.395 456.815,200.395 455.5,199C 458.224,193.614 460.724,188.114 463,182.5C 468.06,166.914 473.727,151.58 480,136.5C 488.669,124.939 500.169,118.606 514.5,117.5 Z M 315.5,157.5 C 334.566,157.186 351.899,161.686 367.5,171C 357.167,181.333 346.833,191.667 336.5,202C 329.508,202.5 322.508,202.666 315.5,202.5C 315.5,187.5 315.5,172.5 315.5,157.5 Z M 291.5,160.5 C 292.833,160.5 294.167,160.5 295.5,160.5C 295.667,175.17 295.5,189.837 295,204.5C 290.98,205.147 286.98,206.813 283,209.5C 273.319,199.986 263.819,190.319 254.5,180.5C 257.329,177.841 260.329,175.341 263.5,173C 273.094,168.24 282.427,164.074 291.5,160.5 Z M 238.5,194.5 C 248.492,203.992 258.325,213.658 268,223.5C 267.659,227.876 266.826,232.209 265.5,236.5C 250.167,236.5 234.833,236.5 219.5,236.5C 220.024,232.07 221.024,227.736 222.5,223.5C 224.782,219.394 226.615,215.061 228,210.5C 231.744,205.351 235.244,200.018 238.5,194.5 Z M 447.5,222.5 C 455.137,223.831 462.803,223.831 470.5,222.5C 470.833,223 471.167,223.5 471.5,224C 459.954,254.346 448.787,284.846 438,315.5C 431.334,312.029 424.5,309.362 417.5,307.5C 427.544,279.935 437.544,251.601 447.5,222.5 Z M 493.5,222.5 C 497.001,223.797 500.501,223.797 504,222.5C 508.734,223.949 513.234,226.115 517.5,229C 518.289,231.365 519.456,233.532 521,235.5C 522.127,248.113 522.627,260.78 522.5,273.5C 522.167,284.833 521.833,296.167 521.5,307.5C 518.891,308.23 516.224,308.73 513.5,309C 511.671,309.273 510.171,310.107 509,311.5C 508.667,311.167 508.333,310.833 508,310.5C 498.762,316.076 489.095,320.743 479,324.5C 472.333,323.167 465.667,323.167 459,324.5C 458.308,323.975 457.808,323.308 457.5,322.5C 459.316,316.821 461.316,311.654 463.5,307C 473.485,278.401 483.485,250.234 493.5,222.5 Z M 425.5,223.5 C 415.679,251.227 405.679,279.227 395.5,307.5C 389.969,307.721 384.802,309.054 380,311.5C 379.667,311.167 379.333,310.833 379,310.5C 374.8,312.596 370.8,314.929 367,317.5C 366.667,317.167 366.333,316.833 366,316.5C 360.76,320.061 355.094,322.728 349,324.5C 340.529,323.849 332.029,323.016 323.5,322C 315.702,318.455 308.035,314.621 300.5,310.5C 299.914,310.709 299.414,311.043 299,311.5C 295.149,309.377 290.982,308.044 286.5,307.5C 286.167,296 285.833,284.5 285.5,273C 285.372,260.114 285.872,247.28 287,234.5C 290.275,228.227 295.442,224.727 302.5,224C 343.499,223.5 384.499,223.333 425.5,223.5 Z M 215.5,257.5 C 232.167,257.5 248.833,257.5 265.5,257.5C 265.666,262.844 265.499,268.177 265,273.5C 253.319,285.348 241.486,297.014 229.5,308.5C 226.403,302.638 223.569,296.638 221,290.5C 218.641,279.565 216.808,268.565 215.5,257.5 Z M 341.5,409.5 C 348.526,412.918 349.859,417.918 345.5,424.5C 341.966,427.478 338.799,427.145 336,423.5C 335.667,423.833 335.333,424.167 335,424.5C 330.64,416.56 332.806,411.56 341.5,409.5 Z M 425.5,427.5 C 436.198,431.925 437.032,437.591 428,444.5C 416.533,440.903 415.7,435.236 425.5,427.5 Z M 373.5,505.5 C 380.972,504.825 384.639,507.992 384.5,515C 379.595,522.065 374.428,522.231 369,515.5C 368.333,513.833 368.333,512.167 369,510.5C 370.707,508.963 372.207,507.296 373.5,505.5 Z"/></g>
<g><path style="opacity:0.004" fill="#fceac0" d="M 337.5,120.5 C 336.833,121.167 336.833,121.167 337.5,120.5 Z"/></g>
<g><path style="opacity:0.922" fill="#fceac0" d="M 333.5,389.5 C 356.472,388.858 368.472,399.692 369.5,422C 367.622,425.674 366.122,429.507 365,433.5C 355.886,445.247 344.052,448.914 329.5,444.5C 328.353,444.182 327.519,443.516 327,442.5C 326.667,442.833 326.333,443.167 326,443.5C 324.635,441.14 322.635,439.473 320,438.5C 319.106,435.608 317.44,433.274 315,431.5C 308.703,411.145 314.869,397.145 333.5,389.5 Z M 341.5,409.5 C 332.806,411.56 330.64,416.56 335,424.5C 335.333,424.167 335.667,423.833 336,423.5C 338.799,427.145 341.966,427.478 345.5,424.5C 349.859,417.918 348.526,412.918 341.5,409.5 Z"/></g>
<g><path style="opacity:0.925" fill="#fceac0" d="M 423.5,407.5 C 437.388,407.686 447.222,414.019 453,426.5C 457.329,443.33 451.829,455.497 436.5,463C 430.458,465.076 424.625,464.91 419,462.5C 418.586,462.957 418.086,463.291 417.5,463.5C 414.779,461.473 411.779,459.973 408.5,459C 406.851,456.352 404.851,454.019 402.5,452C 400.709,447.972 399.042,443.972 397.5,440C 398.795,437.199 398.795,434.366 397.5,431.5C 399.619,425.753 402.286,420.42 405.5,415.5C 406.552,415.649 407.552,415.483 408.5,415C 412.447,410.36 417.447,407.86 423.5,407.5 Z M 425.5,427.5 C 415.7,435.236 416.533,440.903 428,444.5C 437.032,437.591 436.198,431.925 425.5,427.5 Z"/></g>
<g><path style="opacity:0.926" fill="#fceac0" d="M 367.5,485.5 C 389.481,482.155 402.148,491.322 405.5,513C 404.218,527.156 397.218,536.156 384.5,540C 376.58,541.194 368.913,540.361 361.5,537.5C 357.988,533.489 354.321,529.655 350.5,526C 350.833,525.667 351.167,525.333 351.5,525C 349.05,521.443 348.05,517.443 348.5,513C 348.375,508.856 349.042,504.856 350.5,501C 352.6,498.574 354.267,495.908 355.5,493C 359.139,489.848 363.139,487.348 367.5,485.5 Z M 373.5,505.5 C 372.207,507.296 370.707,508.963 369,510.5C 368.333,512.167 368.333,513.833 369,515.5C 374.428,522.231 379.595,522.065 384.5,515C 384.639,507.992 380.972,504.825 373.5,505.5 Z"/></g>
</svg>
