<?xml version="1.0" encoding="UTF-8"?>
<!DOCTYPE svg PUBLIC "-//W3C//DTD SVG 1.1//EN" "http://www.w3.org/Graphics/SVG/1.1/DTD/svg11.dtd">
<svg xmlns="http://www.w3.org/2000/svg" version="1.1" width="800px" height="800px" style="shape-rendering:geometricPrecision; text-rendering:geometricPrecision; image-rendering:optimizeQuality; fill-rule:evenodd; clip-rule:evenodd" xmlns:xlink="http://www.w3.org/1999/xlink">
<g><path style="opacity:0.938" fill="#fce9c0" d="M 259.5,144.5 C 267.903,144.13 276.236,144.63 284.5,146C 284.167,146.333 283.833,146.667 283.5,147C 286.355,148.222 288.188,150.389 289,153.5C 290.011,154.337 291.178,154.67 292.5,154.5C 292.714,156.144 292.38,157.644 291.5,159C 292.793,159.49 294.127,159.657 295.5,159.5C 295.739,161.467 295.406,163.301 294.5,165C 295.416,165.374 296.25,165.874 297,166.5C 297.348,169.465 298.515,171.965 300.5,174C 299.199,175.939 299.865,177.106 302.5,177.5C 303.452,179.045 303.785,180.712 303.5,182.5C 304.5,182.5 305.5,182.5 306.5,182.5C 306.5,185.167 306.5,187.833 306.5,190.5C 308.942,190.354 309.609,191.187 308.5,193C 309.191,194.067 309.691,195.234 310,196.5C 310.893,195.289 311.726,195.289 312.5,196.5C 312.069,197.293 311.735,198.127 311.5,199C 313.434,201.502 314.434,204.336 314.5,207.5C 315.5,207.5 316.5,207.5 317.5,207.5C 318.24,211.641 319.24,215.641 320.5,219.5C 321.5,219.5 322.5,219.5 323.5,219.5C 324.644,225.477 326.311,231.144 328.5,236.5C 329.5,236.5 330.5,236.5 331.5,236.5C 331.5,238.5 331.5,240.5 331.5,242.5C 332.822,242.33 333.989,242.663 335,243.5C 335.333,245.833 335.667,248.167 336,250.5C 337.122,248.58 337.956,246.58 338.5,244.5C 340.5,243.833 342.5,243.167 344.5,242.5C 344.5,241.5 344.5,240.5 344.5,239.5C 345.5,239.5 346.5,239.5 347.5,239.5C 347.281,238.325 347.614,237.325 348.5,236.5C 351.215,234.503 353.882,232.503 356.5,230.5C 357.167,230.833 357.833,231.167 358.5,231.5C 361.831,228.729 365.497,226.562 369.5,225C 379.5,224.333 389.5,224.333 399.5,225C 401.337,226.952 403.671,227.952 406.5,228C 407.536,231.288 409.536,232.121 412.5,230.5C 413.386,231.325 413.719,232.325 413.5,233.5C 416.168,233.666 418.502,234.666 420.5,236.5C 421.386,237.325 421.719,238.325 421.5,239.5C 425.402,241.72 429.069,244.387 432.5,247.5C 433.768,249.304 434.435,251.304 434.5,253.5C 436.167,253.5 437.833,253.5 439.5,253.5C 439.5,254.5 439.5,255.5 439.5,256.5C 445.537,256.171 451.537,256.504 457.5,257.5C 462.794,260.061 468.794,262.394 475.5,264.5C 475.5,265.5 475.5,266.5 475.5,267.5C 477.103,267.312 478.437,267.812 479.5,269C 479.167,269.333 478.833,269.667 478.5,270C 480.758,271.118 482.758,272.618 484.5,274.5C 487.966,280.264 490.133,286.597 491,293.5C 491.741,294.641 492.575,294.641 493.5,293.5C 494.33,299.472 494.83,305.472 495,311.5C 495.561,310.978 496.228,310.645 497,310.5C 500.659,312.156 504.159,313.822 507.5,315.5C 507.5,316.833 507.5,318.167 507.5,319.5C 508.5,319.5 509.5,319.5 510.5,319.5C 510.5,320.5 510.5,321.5 510.5,322.5C 511.5,322.5 512.5,322.5 513.5,322.5C 513.966,324.201 513.966,325.701 513.5,327C 514.448,327.483 515.448,327.649 516.5,327.5C 516.335,331.182 516.501,334.848 517,338.5C 517.414,338.043 517.914,337.709 518.5,337.5C 519.655,340.446 519.821,343.446 519,346.5C 517.068,351.752 515.235,357.086 513.5,362.5C 510.072,364.906 506.406,368.406 502.5,373C 503.448,373.483 504.448,373.649 505.5,373.5C 506.822,376.024 507.988,378.69 509,381.5C 511.391,380.398 511.891,381.064 510.5,383.5C 511.325,384.386 512.325,384.719 513.5,384.5C 513.854,386.541 513.854,388.374 513.5,390C 515.993,391.325 517.16,393.491 517,396.5C 517.667,395.167 518.333,395.167 519,396.5C 519.497,399.146 519.664,401.813 519.5,404.5C 520.5,404.5 521.5,404.5 522.5,404.5C 522.334,408.514 522.501,412.514 523,416.5C 523.308,415.692 523.808,415.025 524.5,414.5C 525.186,422.191 526.019,429.858 527,437.5C 527.167,455.842 527.667,474.176 528.5,492.5C 530.111,493.32 530.778,494.654 530.5,496.5C 533.01,497.157 535.177,498.491 537,500.5C 539.971,498.514 543.138,497.014 546.5,496C 547.337,494.989 547.67,493.822 547.5,492.5C 550.928,490.592 555.428,489.592 561,489.5C 563.833,489.667 566.667,489.833 569.5,490C 570.423,492.041 570.756,494.208 570.5,496.5C 571.822,496.33 572.989,496.663 574,497.5C 574.814,505.413 574.647,513.246 573.5,521C 573.998,522.158 574.831,522.991 576,523.5C 582.911,524.839 589.411,527.006 595.5,530C 598.329,532.659 601.329,535.159 604.5,537.5C 605.443,542.1 605.777,546.767 605.5,551.5C 604.5,551.5 603.5,551.5 602.5,551.5C 602.5,552.5 602.5,553.5 602.5,554.5C 601.167,554.5 599.833,554.5 598.5,554.5C 598.5,555.5 598.5,556.5 598.5,557.5C 597.5,557.5 596.5,557.5 595.5,557.5C 595.5,558.5 595.5,559.5 595.5,560.5C 591.667,560.755 588.334,562.088 585.5,564.5C 583.257,565.474 580.924,565.808 578.5,565.5C 578.5,566.5 578.5,567.5 578.5,568.5C 574.944,568.275 574.61,569.108 577.5,571C 578.399,577.268 580.066,583.268 582.5,589C 582.649,592.217 581.482,594.717 579,596.5C 578.69,602.289 577.857,607.956 576.5,613.5C 573.795,613.38 573.128,614.38 574.5,616.5C 573.311,617.429 571.978,617.762 570.5,617.5C 570.034,619.201 570.034,620.701 570.5,622C 569.552,622.483 568.552,622.649 567.5,622.5C 565.973,626.533 563.139,629.533 559,631.5C 558.517,632.448 558.351,633.448 558.5,634.5C 557.5,634.5 556.5,634.5 555.5,634.5C 555.5,635.5 555.5,636.5 555.5,637.5C 549.245,640.709 543.245,644.209 537.5,648C 535.833,648.333 534.167,648.667 532.5,649C 533.833,649.667 533.833,650.333 532.5,651C 530.167,651.333 527.833,651.667 525.5,652C 525.957,652.414 526.291,652.914 526.5,653.5C 522.5,654.5 518.5,655.5 514.5,656.5C 500.771,657.473 487.105,657.806 473.5,657.5C 472.289,656.726 472.289,655.893 473.5,655C 471.866,654.506 470.199,654.34 468.5,654.5C 468.5,653.5 468.5,652.5 468.5,651.5C 406.832,651.667 345.166,651.5 283.5,651C 280.517,648.921 277.183,648.087 273.5,648.5C 273.5,647.5 273.5,646.5 273.5,645.5C 271.5,645.5 269.5,645.5 267.5,645.5C 267.5,644.5 267.5,643.5 267.5,642.5C 261.53,641.801 257.03,638.134 254,631.5C 252.933,630.809 251.766,630.309 250.5,630C 251.361,627.679 250.361,626.513 247.5,626.5C 247.33,625.178 247.663,624.011 248.5,623C 246.699,622.683 246.366,622.016 247.5,621C 245.862,618.867 245.029,616.367 245,613.5C 244.333,614.833 243.667,614.833 243,613.5C 242.508,549.46 242.341,485.627 242.5,422C 243.448,421.517 244.448,421.351 245.5,421.5C 246.015,414.481 246.682,407.815 247.5,401.5C 248.5,401.5 249.5,401.5 250.5,401.5C 250.737,398.788 250.737,396.288 250.5,394C 251.448,393.517 252.448,393.351 253.5,393.5C 253.5,391.833 253.5,390.167 253.5,388.5C 254.5,388.5 255.5,388.5 256.5,388.5C 256.318,386.409 256.652,384.409 257.5,382.5C 259.949,380.322 261.949,377.822 263.5,375C 263.167,374.667 262.833,374.333 262.5,374C 266.272,373.389 266.272,372.389 262.5,371C 262.833,370.667 263.167,370.333 263.5,370C 262.207,369.51 260.873,369.343 259.5,369.5C 259.762,368.022 259.429,366.689 258.5,365.5C 257.092,363.493 255.592,361.493 254,359.5C 253.506,357.866 253.34,356.199 253.5,354.5C 252.5,354.5 251.5,354.5 250.5,354.5C 250.334,346.826 250.5,339.159 251,331.5C 253.903,326.919 257.236,322.585 261,318.5C 261.483,317.552 261.649,316.552 261.5,315.5C 263.592,315.439 265.092,314.439 266,312.5C 266.414,312.957 266.914,313.291 267.5,313.5C 269.721,312.047 272.054,310.881 274.5,310C 273.903,308.938 273.57,307.772 273.5,306.5C 274.836,298.345 276.503,290.345 278.5,282.5C 276.869,277.887 275.202,273.22 273.5,268.5C 274.491,266.877 273.824,265.877 271.5,265.5C 270.935,263.49 269.935,261.824 268.5,260.5C 265.722,255.106 263.389,249.44 261.5,243.5C 258.896,239.262 256.396,234.929 254,230.5C 253.667,228.5 253.333,226.5 253,224.5C 252.586,224.957 252.086,225.291 251.5,225.5C 250.686,223.234 250.186,220.9 250,218.5C 248.844,219.993 248.01,219.826 247.5,218C 247.645,217.228 247.978,216.561 248.5,216C 246.227,213.708 245.06,210.875 245,207.5C 243.312,204.111 241.145,201.111 238.5,198.5C 238.608,197.558 238.941,196.725 239.5,196C 238.069,195.535 236.903,194.701 236,193.5C 235.355,190.441 234.522,187.441 233.5,184.5C 232.833,184.167 232.167,183.833 231.5,183.5C 230.336,176.858 230.169,170.192 231,163.5C 232.569,162.062 234.069,160.562 235.5,159C 234.391,157.187 235.058,156.354 237.5,156.5C 237.5,155.5 237.5,154.5 237.5,153.5C 239.527,153.662 241.527,153.495 243.5,153C 243.167,152.667 242.833,152.333 242.5,152C 245.557,152.107 247.891,150.94 249.5,148.5C 252.934,147.126 256.268,145.793 259.5,144.5 Z M 273.5,164.5 C 274.389,169.79 276.389,175.123 279.5,180.5C 280.325,181.386 281.325,181.719 282.5,181.5C 282.34,183.199 282.506,184.866 283,186.5C 284.657,188.561 286.157,190.727 287.5,193C 286.027,193.71 285.36,194.876 285.5,196.5C 284.5,196.5 283.5,196.5 282.5,196.5C 282.5,198.5 282.5,200.5 282.5,202.5C 281.5,202.5 280.5,202.5 279.5,202.5C 277.063,205.32 275.397,208.653 274.5,212.5C 272.851,213.648 271.351,214.981 270,216.5C 267.835,212.805 266.335,208.805 265.5,204.5C 264.914,204.709 264.414,205.043 264,205.5C 263.505,203.527 263.338,201.527 263.5,199.5C 262.5,199.5 261.5,199.5 260.5,199.5C 260.332,196.243 259.332,193.243 257.5,190.5C 258.872,188.38 258.205,187.38 255.5,187.5C 255.799,185.396 255.466,183.396 254.5,181.5C 253.035,182.609 252.035,182.109 251.5,180C 252.864,177.425 252.198,175.425 249.5,174C 250.148,172.56 250.481,171.06 250.5,169.5C 252.527,169.662 254.527,169.495 256.5,169C 255.167,168.333 255.167,167.667 256.5,167C 259.003,166.871 261.003,165.871 262.5,164C 264.235,163.349 265.902,163.515 267.5,164.5C 268.711,163.726 268.711,162.893 267.5,162C 268.167,161.833 268.833,161.667 269.5,161.5C 269.939,163.03 271.272,164.03 273.5,164.5 Z M 315.5,252.5 C 315.36,254.124 316.027,255.29 317.5,256C 310.675,258.541 304.341,260.374 298.5,261.5C 298.5,262.5 298.5,263.5 298.5,264.5C 295.774,264.736 293.441,263.903 291.5,262C 292.022,261.439 292.355,260.772 292.5,260C 291.465,258.726 290.298,257.56 289,256.5C 287.738,252.536 286.404,248.536 285,244.5C 284.667,244.833 284.333,245.167 284,245.5C 283.505,243.527 283.338,241.527 283.5,239.5C 279.5,238.833 279.5,238.167 283.5,237.5C 283.966,235.799 283.966,234.299 283.5,233C 286.803,229.565 289.803,225.899 292.5,222C 291.254,219.418 291.921,218.585 294.5,219.5C 295.333,217.5 296.167,215.5 297,213.5C 298.317,217.258 300.15,220.758 302.5,224C 301.549,224.718 301.383,225.551 302,226.5C 302.667,227.833 303.333,227.833 304,226.5C 304.497,228.81 304.663,231.143 304.5,233.5C 305.5,233.5 306.5,233.5 307.5,233.5C 307.5,236.167 307.5,238.833 307.5,241.5C 308.5,241.5 309.5,241.5 310.5,241.5C 311.957,244.509 313.291,247.676 314.5,251C 313.288,252.107 313.621,252.607 315.5,252.5 Z M 377.5,243.5 C 382.511,243.334 387.511,243.501 392.5,244C 394.669,246.203 397.335,247.036 400.5,246.5C 400.5,247.5 400.5,248.5 400.5,249.5C 402.167,249.5 403.833,249.5 405.5,249.5C 405.5,250.5 405.5,251.5 405.5,252.5C 407.199,252.34 408.866,252.506 410.5,253C 410.043,253.414 409.709,253.914 409.5,254.5C 412.295,256.284 414.295,258.618 415.5,261.5C 416.552,261.351 417.552,261.517 418.5,262C 418.167,262.333 417.833,262.667 417.5,263C 418.973,263.71 419.64,264.876 419.5,266.5C 420.5,266.5 421.5,266.5 422.5,266.5C 422.5,267.5 422.5,268.5 422.5,269.5C 426.395,271.274 430.395,273.107 434.5,275C 442.537,275.639 450.537,276.472 458.5,277.5C 458.5,278.833 458.5,280.167 458.5,281.5C 460.167,281.5 461.833,281.5 463.5,281.5C 466.299,285.138 469.299,289.471 472.5,294.5C 473.021,297.778 473.187,301.111 473,304.5C 473.333,304.167 473.667,303.833 474,303.5C 474.309,304.766 474.809,305.933 475.5,307C 415.167,307.667 354.833,307.667 294.5,307C 295.482,301.832 296.649,296.665 298,291.5C 299.914,286.037 304.081,282.371 310.5,280.5C 309.359,279.575 309.359,278.741 310.5,278C 318.432,276.476 326.432,275.476 334.5,275C 343.423,270.926 350.756,264.759 356.5,256.5C 357.325,255.614 358.325,255.281 359.5,255.5C 359.5,254.5 359.5,253.5 359.5,252.5C 360.833,252.5 362.167,252.5 363.5,252.5C 363.5,251.5 363.5,250.5 363.5,249.5C 365.167,249.5 366.833,249.5 368.5,249.5C 368.5,248.5 368.5,247.5 368.5,246.5C 372.104,246.951 375.104,245.951 377.5,243.5 Z M 283.5,325.5 C 350.837,325.167 418.17,325.5 485.5,326.5C 485.833,327.167 486.167,327.833 486.5,328.5C 488.5,329.167 490.5,329.833 492.5,330.5C 494.297,331.695 495.297,333.362 495.5,335.5C 496.552,335.351 497.552,335.517 498.5,336C 498.714,340.665 498.381,345.498 497.5,350.5C 496.201,351.09 495.368,352.09 495,353.5C 492.609,352.398 492.109,353.064 493.5,355.5C 491.445,356.187 489.779,357.354 488.5,359C 419.167,359.667 349.833,359.667 280.5,359C 280.273,357.865 279.94,356.698 279.5,355.5C 278.264,356.246 276.93,356.579 275.5,356.5C 275.5,355.167 275.5,353.833 275.5,352.5C 273.897,352.688 272.563,352.188 271.5,351C 272.38,349.644 272.714,348.144 272.5,346.5C 271.5,346.5 270.5,346.5 269.5,346.5C 268.924,342.878 269.924,339.878 272.5,337.5C 272.392,336.558 272.059,335.725 271.5,335C 273.131,333.908 274.798,333.075 276.5,332.5C 276.5,331.5 276.5,330.5 276.5,329.5C 279.89,329.885 282.223,328.552 283.5,325.5 Z M 286.5,377.5 C 351.834,377.333 417.168,377.5 482.5,378C 485.662,382.866 488.996,386.7 492.5,389.5C 492.343,390.873 492.51,392.207 493,393.5C 499.553,402.474 503.386,412.64 504.5,424C 502.1,424.186 499.766,424.686 497.5,425.5C 497.709,426.086 498.043,426.586 498.5,427C 496.866,427.494 495.199,427.66 493.5,427.5C 493.5,428.5 493.5,429.5 493.5,430.5C 490.53,430.746 489.197,432.412 489.5,435.5C 487.058,435.354 486.391,436.187 487.5,438C 484.855,439.287 483.855,441.453 484.5,444.5C 483.5,444.5 482.5,444.5 481.5,444.5C 481.5,445.5 481.5,446.5 481.5,447.5C 478.622,448.482 475.622,449.149 472.5,449.5C 468.835,449.767 466.168,449.1 464.5,447.5C 463.833,445.5 463.167,443.5 462.5,441.5C 461.5,441.5 460.5,441.5 459.5,441.5C 459.649,440.448 459.483,439.448 459,438.5C 456.792,435.769 454.959,432.769 453.5,429.5C 452.914,429.709 452.414,430.043 452,430.5C 450.878,428.58 450.044,426.58 449.5,424.5C 448.5,424.5 447.5,424.5 446.5,424.5C 446.5,423.5 446.5,422.5 446.5,421.5C 445.167,421.5 443.833,421.5 442.5,421.5C 442.5,420.5 442.5,419.5 442.5,418.5C 440.94,418.519 439.44,418.852 438,419.5C 436.5,419 435,418.5 433.5,418C 433.833,417.667 434.167,417.333 434.5,417C 430.5,416.333 426.5,416.333 422.5,417C 422.833,417.333 423.167,417.667 423.5,418C 420.891,419.6 418.224,419.766 415.5,418.5C 413.431,418.824 413.098,419.658 414.5,421C 413.207,421.49 411.873,421.657 410.5,421.5C 410.5,422.5 410.5,423.5 410.5,424.5C 409.5,424.5 408.5,424.5 407.5,424.5C 407.719,425.675 407.386,426.675 406.5,427.5C 405.305,429.297 403.638,430.297 401.5,430.5C 401.785,432.288 401.452,433.955 400.5,435.5C 397.136,438.893 394.803,442.893 393.5,447.5C 391.455,449.03 388.455,449.696 384.5,449.5C 381.298,449.302 378.298,448.469 375.5,447C 374.249,443.712 372.082,440.545 369,437.5C 368.667,435.833 368.333,434.167 368,432.5C 367.667,432.833 367.333,433.167 367,433.5C 366.781,432.062 366.281,430.729 365.5,429.5C 363.786,430.609 363.119,429.942 363.5,427.5C 362.5,427.5 361.5,427.5 360.5,427.5C 360.5,426.5 360.5,425.5 360.5,424.5C 359.5,424.5 358.5,424.5 357.5,424.5C 357.5,423.5 357.5,422.5 357.5,421.5C 356.167,421.5 354.833,421.5 353.5,421.5C 353.529,418.227 352.196,417.56 349.5,419.5C 343.049,415.544 336.549,415.544 330,419.5C 327.589,417.847 326.422,418.513 326.5,421.5C 325.167,421.5 323.833,421.5 322.5,421.5C 322.5,422.5 322.5,423.5 322.5,424.5C 319.752,425.032 317.752,426.032 316.5,427.5C 314.789,430.556 312.789,433.556 310.5,436.5C 310.709,437.086 311.043,437.586 311.5,438C 310.234,438.309 309.067,438.809 308,439.5C 306.988,442.31 305.822,444.976 304.5,447.5C 299.642,449.473 294.642,449.807 289.5,448.5C 287.262,447.147 285.929,445.147 285.5,442.5C 284.624,441.749 283.624,441.249 282.5,441C 284.992,439.751 284.825,438.584 282,437.5C 281.667,437.833 281.333,438.167 281,438.5C 279.981,436.731 279.814,435.064 280.5,433.5C 279.726,432.289 278.893,432.289 278,433.5C 277.517,432.552 277.351,431.552 277.5,430.5C 276.5,430.5 275.5,430.5 274.5,430.5C 274.5,429.5 274.5,428.5 274.5,427.5C 273.167,427.5 271.833,427.5 270.5,427.5C 270.5,426.5 270.5,425.5 270.5,424.5C 268.167,424.5 265.833,424.5 263.5,424.5C 263.5,422.833 263.5,421.167 263.5,419.5C 264.5,419.5 265.5,419.5 266.5,419.5C 266.335,416.15 266.502,412.817 267,409.5C 267.414,409.957 267.914,410.291 268.5,410.5C 269.48,407.914 269.813,405.247 269.5,402.5C 270.5,402.5 271.5,402.5 272.5,402.5C 273.715,397.18 276.048,392.346 279.5,388C 280.148,386.56 280.481,385.06 280.5,383.5C 281.5,383.5 282.5,383.5 283.5,383.5C 284.044,381.284 285.044,379.284 286.5,377.5 Z M 399.5,466.5 C 402.548,464.541 405.381,462.208 408,459.5C 412.391,453.925 416.225,447.925 419.5,441.5C 420.689,440.571 422.022,440.238 423.5,440.5C 423.5,439.5 423.5,438.5 423.5,437.5C 426.833,437.5 430.167,437.5 433.5,437.5C 433.5,438.5 433.5,439.5 433.5,440.5C 436.833,440.5 438.5,442.167 438.5,445.5C 439.5,445.5 440.5,445.5 441.5,445.5C 441.5,447.5 441.5,449.5 441.5,451.5C 443.76,452.139 445.76,453.306 447.5,455C 446.549,455.718 446.383,456.551 447,457.5C 450.167,460 453,462.833 455.5,466C 456.448,466.483 457.448,466.649 458.5,466.5C 458.281,467.675 458.614,468.675 459.5,469.5C 461.101,468.835 462.601,468.501 464,468.5C 470.074,472.362 476.241,472.362 482.5,468.5C 484.343,469.939 486.01,469.772 487.5,468C 486.833,467.667 486.167,467.333 485.5,467C 487.134,466.506 488.801,466.34 490.5,466.5C 492.341,462.643 495.008,459.309 498.5,456.5C 499.485,452.912 501.651,450.245 505,448.5C 505.333,446.5 505.667,444.5 506,442.5C 506.5,443 507,443.5 507.5,444C 506.843,456.105 506.176,468.271 505.5,480.5C 503.253,481.374 500.92,481.708 498.5,481.5C 498.271,483.433 497.438,485.1 496,486.5C 495.5,497.161 495.333,507.828 495.5,518.5C 490.231,520.685 484.565,522.019 478.5,522.5C 474.633,525.602 470.3,527.935 465.5,529.5C 465.5,530.5 465.5,531.5 465.5,532.5C 464.022,532.238 462.689,532.571 461.5,533.5C 461.709,534.086 462.043,534.586 462.5,535C 459.785,535.875 458.452,537.708 458.5,540.5C 457.5,540.5 456.5,540.5 455.5,540.5C 453.614,543.455 452.614,546.789 452.5,550.5C 451.5,550.5 450.5,550.5 449.5,550.5C 449.664,553.187 449.497,555.854 449,558.5C 447.513,557.259 446.68,557.759 446.5,560C 448.274,563.361 447.774,566.194 445,568.5C 444.167,582.512 444.334,596.512 445.5,610.5C 447.604,614.185 447.938,618.019 446.5,622C 446.935,625.063 447.768,625.23 449,622.5C 449.333,625.167 449.667,627.833 450,630.5C 450.75,631.126 451.584,631.626 452.5,632C 398.497,632.833 344.497,632.667 290.5,631.5C 290.291,630.914 289.957,630.414 289.5,630C 286.5,629.667 283.5,629.333 280.5,629C 279.167,628.333 279.167,627.667 280.5,627C 277.42,626.234 274.42,625.234 271.5,624C 272.84,621.851 272.173,620.684 269.5,620.5C 269.646,618.058 268.813,617.391 267,618.5C 266.871,615.997 265.871,613.997 264,612.5C 264.057,609.028 263.057,606.028 261,603.5C 260.167,549.83 260.333,496.164 261.5,442.5C 263.481,443.105 263.815,444.105 262.5,445.5C 264.45,448.405 266.116,451.405 267.5,454.5C 268.873,454.343 270.207,454.51 271.5,455C 270.465,456.507 270.632,458.007 272,459.5C 274.472,461.456 276.305,463.789 277.5,466.5C 278.833,466.5 280.167,466.5 281.5,466.5C 281.5,467.5 281.5,468.5 281.5,469.5C 284.864,467.787 287.864,468.287 290.5,471C 292.333,471.167 294.167,471.333 296,471.5C 300.314,470.145 304.814,469.479 309.5,469.5C 309.5,468.5 309.5,467.5 309.5,466.5C 311.288,466.785 312.955,466.452 314.5,465.5C 314.291,464.914 313.957,464.414 313.5,464C 316.434,461.539 319.434,459.373 322.5,457.5C 324.411,452.68 326.578,448.013 329,443.5C 329.741,442.359 330.575,442.359 331.5,443.5C 332.711,442.726 332.711,441.893 331.5,441C 332.448,440.517 333.448,440.351 334.5,440.5C 334.5,439.5 334.5,438.5 334.5,437.5C 338.167,437.5 341.833,437.5 345.5,437.5C 345.5,438.5 345.5,439.5 345.5,440.5C 347.942,440.119 348.609,440.786 347.5,442.5C 349.289,444.033 351.289,445.033 353.5,445.5C 352.855,448.547 353.855,450.713 356.5,452C 355.391,453.813 356.058,454.646 358.5,454.5C 359.856,458.696 362.523,461.863 366.5,464C 365.167,464.667 365.167,465.333 366.5,466C 368.167,466.333 369.833,466.667 371.5,467C 369.355,467.743 369.189,468.576 371,469.5C 372.144,469.089 373.311,468.756 374.5,468.5C 381.001,472.445 387.501,472.445 394,468.5C 395.699,469.406 397.533,469.739 399.5,469.5C 399.5,468.5 399.5,467.5 399.5,466.5 Z M 513.5,507.5 C 513.56,506.957 513.893,506.624 514.5,506.5C 515.333,507.5 516.167,508.5 517,509.5C 517.333,509.167 517.667,508.833 518,508.5C 520.091,511.219 522.258,513.885 524.5,516.5C 522.285,518.626 521.118,521.292 521,524.5C 520.092,522.561 518.592,521.561 516.5,521.5C 515.546,516.713 514.546,512.046 513.5,507.5 Z M 553.5,514.5 C 552.74,518.081 552.24,521.748 552,525.5C 551.586,525.043 551.086,524.709 550.5,524.5C 549.901,528.805 548.068,532.472 545,535.5C 544.517,534.552 544.351,533.552 544.5,532.5C 542.833,532.5 541.167,532.5 539.5,532.5C 538.392,530.305 538.559,528.305 540,526.5C 541.697,525.043 543.197,523.377 544.5,521.5C 545.325,520.614 546.325,520.281 547.5,520.5C 547.5,519.5 547.5,518.5 547.5,517.5C 548.5,517.5 549.5,517.5 550.5,517.5C 550.5,516.5 550.5,515.5 550.5,514.5C 551.5,514.5 552.5,514.5 553.5,514.5 Z M 486.5,539.5 C 495.192,539.169 503.859,539.502 512.5,540.5C 512.709,541.086 513.043,541.586 513.5,542C 516.146,542.497 518.813,542.664 521.5,542.5C 521.5,543.833 521.5,545.167 521.5,546.5C 523.5,546.5 525.5,546.5 527.5,546.5C 527.5,547.5 527.5,548.5 527.5,549.5C 529.144,549.714 530.644,549.38 532,548.5C 533.621,550.462 535.454,552.129 537.5,553.5C 538.729,554.281 540.062,554.781 541.5,555C 541.043,555.414 540.709,555.914 540.5,556.5C 541.689,557.429 543.022,557.762 544.5,557.5C 544.5,558.5 544.5,559.5 544.5,560.5C 547.5,560.833 549.167,562.5 549.5,565.5C 551.973,565.736 553.64,567.069 554.5,569.5C 553.443,569.906 552.109,569.906 550.5,569.5C 550.5,568.5 550.5,567.5 550.5,566.5C 547.428,566.183 544.428,566.516 541.5,567.5C 541.709,568.086 542.043,568.586 542.5,569C 541.207,569.49 539.873,569.657 538.5,569.5C 536.965,573.326 535.965,577.326 535.5,581.5C 535.572,587.494 538.739,590.494 545,590.5C 547.881,589.972 550.715,589.306 553.5,588.5C 553.5,586.5 553.5,584.5 553.5,582.5C 554.5,582.5 555.5,582.5 556.5,582.5C 556.336,579.813 556.503,577.146 557,574.5C 557.494,576.134 557.66,577.801 557.5,579.5C 558.873,579.343 560.207,579.51 561.5,580C 560.167,586 560.167,592 561.5,598C 560.234,598.309 559.067,598.809 558,599.5C 556.162,603.842 554.328,608.175 552.5,612.5C 551.5,612.5 550.5,612.5 549.5,612.5C 548.101,616.896 545.101,619.562 540.5,620.5C 540.567,623.766 538.901,625.266 535.5,625C 535.833,625.333 536.167,625.667 536.5,626C 530.237,628.465 524.237,631.465 518.5,635C 511.96,635.989 505.626,637.489 499.5,639.5C 495.5,640.833 491.5,640.833 487.5,639.5C 484.013,637.706 480.346,636.372 476.5,635.5C 475.767,632.263 473.767,630.096 470.5,629C 471.38,627.644 471.714,626.144 471.5,624.5C 470.5,624.5 469.5,624.5 468.5,624.5C 466.409,617.183 465.409,609.516 465.5,601.5C 464.448,601.649 463.448,601.483 462.5,601C 462.964,588.714 464.13,577.214 466,566.5C 466.667,565.167 467.333,565.167 468,566.5C 468.11,562.838 469.277,559.671 471.5,557C 471.355,556.228 471.022,555.561 470.5,555C 471.624,554.751 472.624,554.251 473.5,553.5C 475.957,549.547 478.623,545.88 481.5,542.5C 483.167,542.5 484.833,542.5 486.5,542.5C 486.5,541.5 486.5,540.5 486.5,539.5 Z M 565.5,541.5 C 570.28,541.914 574.947,543.08 579.5,545C 576.013,546.507 572.679,548.174 569.5,550C 567.19,550.497 564.857,550.663 562.5,550.5C 562.5,549.5 562.5,548.5 562.5,547.5C 561.448,547.649 560.448,547.483 559.5,547C 563.34,546.989 565.34,545.156 565.5,541.5 Z"/></g>
<g><path style="opacity:0.044" fill="#000000" d="M 481.5,233.5 C 483.5,233.5 485.5,233.5 487.5,233.5C 487.5,234.833 487.5,236.167 487.5,237.5C 484.112,238.031 482.112,236.697 481.5,233.5 Z"/></g>
<g><path style="opacity:0.004" fill="#000000" d="M 227.5,407.5 C 227.56,406.957 227.893,406.624 228.5,406.5C 229.583,407.365 229.749,408.365 229,409.5C 228.722,408.584 228.222,407.918 227.5,407.5 Z"/></g>
<g><path style="opacity:0.882" fill="#fceac0" d="M 492.5,544.5 C 496.833,544.5 501.167,544.5 505.5,544.5C 505.5,545.5 505.5,546.5 505.5,547.5C 506.5,547.5 507.5,547.5 508.5,547.5C 509.697,560.706 503.697,566.706 490.5,565.5C 490.5,564.5 490.5,563.5 490.5,562.5C 489.167,562.5 487.833,562.5 486.5,562.5C 486.5,558.5 486.5,554.5 486.5,550.5C 487.5,550.5 488.5,550.5 489.5,550.5C 490.032,547.752 491.032,545.752 492.5,544.5 Z"/></g>
<g><path style="opacity:0.875" fill="#fceac0" d="M 514.5,566.5 C 519.258,566.57 522.924,567.57 525.5,569.5C 528.221,575.605 527.887,581.605 524.5,587.5C 518.662,591.462 512.829,591.462 507,587.5C 506.173,583.459 506.34,579.459 507.5,575.5C 508.935,574.176 509.935,572.51 510.5,570.5C 512.115,569.846 513.782,569.346 515.5,569C 514.748,568.329 514.414,567.496 514.5,566.5 Z"/></g>
<g><path style="opacity:0.891" fill="#fceac0" d="M 525.5,595.5 C 528.572,595.183 531.572,595.516 534.5,596.5C 534.291,597.086 533.957,597.586 533.5,598C 537.886,598.81 539.553,601.477 538.5,606C 539.12,613.712 535.62,618.212 528,619.5C 525.576,618.429 523.076,617.429 520.5,616.5C 520.709,615.914 521.043,615.414 521.5,615C 520.207,614.51 518.873,614.343 517.5,614.5C 517.5,611.167 517.5,607.833 517.5,604.5C 521.068,604.241 522.401,602.241 521.5,598.5C 522.833,598.5 524.167,598.5 525.5,598.5C 525.5,597.5 525.5,596.5 525.5,595.5 Z"/></g>
<g><path style="opacity:0.883" fill="#fceac0" d="M 487.5,609.5 C 491.167,609.5 494.833,609.5 498.5,609.5C 498.5,610.5 498.5,611.5 498.5,612.5C 499.833,612.5 501.167,612.5 502.5,612.5C 502.5,616.833 502.5,621.167 502.5,625.5C 501.5,625.5 500.5,625.5 499.5,625.5C 499.714,627.144 499.38,628.644 498.5,630C 495.428,630.3 492.761,631.466 490.5,633.5C 488.062,631.465 485.395,629.799 482.5,628.5C 482.167,626.667 481.833,624.833 481.5,623C 481.973,619.208 482.973,615.708 484.5,612.5C 485.5,612.5 486.5,612.5 487.5,612.5C 487.5,611.5 487.5,610.5 487.5,609.5 Z"/></g>
</svg>
