<?xml version="1.0" encoding="UTF-8"?>
<!DOCTYPE svg PUBLIC "-//W3C//DTD SVG 1.1//EN" "http://www.w3.org/Graphics/SVG/1.1/DTD/svg11.dtd">
<svg xmlns="http://www.w3.org/2000/svg" version="1.1" width="800px" height="800px" style="shape-rendering:geometricPrecision; text-rendering:geometricPrecision; image-rendering:optimizeQuality; fill-rule:evenodd; clip-rule:evenodd" xmlns:xlink="http://www.w3.org/1999/xlink">
<g><path style="opacity:0.94" fill="#fbe9c8" d="M 544.5,72.5 C 551.253,70.7717 555.253,73.2717 556.5,80C 541.418,137.162 526.418,194.328 511.5,251.5C 534.298,253.782 555.965,259.949 576.5,270C 580.7,272.567 583.867,276.067 586,280.5C 586.667,405.833 586.667,531.167 586,656.5C 580.737,673.179 570.571,686.013 555.5,695C 535.463,706.347 514.13,714.347 491.5,719C 450.203,727.085 408.536,729.752 366.5,727C 335.756,725.21 305.756,719.543 276.5,710C 259.822,704.499 244.822,696.166 231.5,685C 222.726,676.958 216.892,667.124 214,655.5C 213.333,530.833 213.333,406.167 214,281.5C 218.898,272.957 226.064,267.123 235.5,264C 260.176,255.598 285.509,250.265 311.5,248C 371.688,241.875 431.854,242.041 492,248.5C 493.167,248.167 494.333,247.833 495.5,247.5C 510.332,191.506 525.165,135.506 540,79.5C 540.904,76.7666 542.404,74.4333 544.5,72.5 Z M 380.5,259.5 C 417.615,259.152 454.615,260.986 491.5,265C 486.799,279.969 482.799,295.136 479.5,310.5C 417.71,315.44 356.043,314.273 294.5,307C 272.855,304.756 252.189,299.09 232.5,290C 228.417,287.14 228.75,284.807 233.5,283C 244.954,277.404 256.954,273.404 269.5,271C 306.348,264.249 343.348,260.416 380.5,259.5 Z M 507.5,266.5 C 524.808,269.243 541.808,273.41 558.5,279C 563.041,280.763 567.041,283.263 570.5,286.5C 569.687,287.814 568.687,288.981 567.5,290C 560.569,293.977 553.236,296.977 545.5,299C 529.449,302.98 513.282,306.146 497,308.5C 499.862,294.387 503.362,280.387 507.5,266.5 Z M 570.5,307.5 C 570.667,422.834 570.5,538.167 570,653.5C 565.453,666.051 557.287,675.551 545.5,682C 520.747,695.139 494.414,703.472 466.5,707C 414.605,714.063 362.939,712.729 311.5,703C 287.103,698.292 264.769,688.959 244.5,675C 238.84,669.674 234.34,663.508 231,656.5C 229.341,539.876 229.008,423.21 230,306.5C 243.781,313.204 258.281,317.704 273.5,320C 315.37,326.948 357.537,330.448 400,330.5C 424.78,330.144 449.446,328.81 474,326.5C 470.184,342.435 466.35,358.435 462.5,374.5C 450.311,374.178 440.478,378.844 433,388.5C 431.007,390.818 429.841,393.484 429.5,396.5C 427.143,396.663 424.81,396.497 422.5,396C 398.691,360.29 366.358,349.29 325.5,363C 303.936,373.396 289.269,389.896 281.5,412.5C 268.309,416.66 257.809,424.327 250,435.5C 248.343,504.109 248.01,572.776 249,641.5C 251.262,647.772 255.095,652.939 260.5,657C 271.87,664.46 284.203,669.794 297.5,673C 340.266,683.074 383.6,686.74 427.5,684C 458.589,682.874 488.922,677.541 518.5,668C 530.348,664.341 540.181,657.841 548,648.5C 549,646.5 550,644.5 551,642.5C 551.667,574.5 551.667,506.5 551,438.5C 547.638,430.469 542.138,424.302 534.5,420C 522.772,413.813 510.438,409.313 497.5,406.5C 495.454,393.586 488.787,383.753 477.5,377C 482.577,359.858 487.577,342.691 492.5,325.5C 519.258,322.682 545.258,316.682 570.5,307.5 Z M 346.5,373.5 C 348.288,373.215 349.955,373.548 351.5,374.5C 350.5,387.165 349.333,399.832 348,412.5C 339.5,402.833 331,393.167 322.5,383.5C 329.876,378.473 337.876,375.14 346.5,373.5 Z M 365.5,413.5 C 365.776,400.476 366.443,387.476 367.5,374.5C 377.689,376.428 386.689,380.761 394.5,387.5C 385.408,396.868 375.741,405.534 365.5,413.5 Z M 456.5,390.5 C 471.175,389.019 479.508,395.519 481.5,410C 479.693,424.139 471.693,430.472 457.5,429C 443.617,423.365 439.451,413.532 445,399.5C 448.183,395.462 452.016,392.462 456.5,390.5 Z M 335.5,423.5 C 322.391,423.553 309.391,422.553 296.5,420.5C 298.639,410.554 303.139,401.887 310,394.5C 319.081,403.742 327.581,413.408 335.5,423.5 Z M 404.5,400.5 C 405.496,400.414 406.329,400.748 407,401.5C 411.749,409.913 414.583,418.913 415.5,428.5C 402.132,428.248 388.798,427.414 375.5,426C 385.36,417.635 395.027,409.135 404.5,400.5 Z M 432.5,430.5 C 435.828,434.825 439.828,438.492 444.5,441.5C 429.553,494.957 415.72,548.624 403,602.5C 407.63,610.084 412.63,610.418 418,603.5C 422.333,587.5 426.667,571.5 431,555.5C 436.465,573.561 442.131,591.561 448,609.5C 448.785,611.286 449.951,612.786 451.5,614C 455.572,614.658 459.572,614.325 463.5,613C 485.439,605.798 507.439,598.798 529.5,592C 533.035,589.293 534.202,585.793 533,581.5C 525.33,557.822 517.663,534.156 510,510.5C 508.355,508.338 506.188,507.005 503.5,506.5C 482.369,513.266 461.203,519.932 440,526.5C 439.5,526.167 439,525.833 438.5,525.5C 446.128,498.986 453.128,472.319 459.5,445.5C 476.723,445.596 489.056,437.929 496.5,422.5C 508.203,425.354 519.203,429.854 529.5,436C 531.333,437.833 533.167,439.667 535,441.5C 535.993,507.915 535.659,574.249 534,640.5C 529.594,644.288 524.761,647.455 519.5,650C 488.191,661.275 455.858,667.275 422.5,668C 381.279,670.283 340.613,666.616 300.5,657C 289.07,653.949 278.403,649.282 268.5,643C 266.951,641.786 265.785,640.286 265,638.5C 264.007,572.418 264.341,506.418 266,440.5C 269.748,436.919 273.915,433.919 278.5,431.5C 280.939,470.918 300.939,496.418 338.5,508C 378.589,514.207 407.755,499.374 426,463.5C 430.283,452.917 432.45,441.917 432.5,430.5 Z M 295.5,437.5 C 308.832,438.491 322.165,439.657 335.5,441C 325.647,449.688 315.647,458.188 305.5,466.5C 299.78,457.675 296.447,448.008 295.5,437.5 Z M 374.5,443.5 C 375.097,442.861 375.93,442.528 377,442.5C 389.509,443.521 402.009,444.521 414.5,445.5C 412.652,455.862 408.152,464.862 401,472.5C 392.616,462.381 383.783,452.714 374.5,443.5 Z M 345.5,452.5 C 346.139,453.097 346.472,453.93 346.5,455C 345.539,467.054 344.539,479.054 343.5,491C 344.888,491.889 344.722,492.389 343,492.5C 333.105,489.97 324.272,485.47 316.5,479C 326.24,470.15 335.907,461.317 345.5,452.5 Z M 362.5,453.5 C 371.488,463.16 380.155,473.16 388.5,483.5C 379.849,489.773 370.182,492.939 359.5,493C 360.933,479.918 361.933,466.751 362.5,453.5 Z M 495.5,525.5 C 496.5,525.5 497.5,525.5 498.5,525.5C 503.665,543.496 509.332,561.329 515.5,579C 497.598,585.134 479.598,590.967 461.5,596.5C 455.399,578.697 449.399,560.863 443.5,543C 460.968,537.233 478.301,531.4 495.5,525.5 Z M 355.5,550.5 C 356.497,550.47 357.164,550.97 357.5,552C 362.71,569.517 368.377,586.85 374.5,604C 356.784,610.016 338.95,615.85 321,621.5C 320.055,621.095 319.388,620.428 319,619.5C 313.894,602.183 308.394,585.016 302.5,568C 320.238,562.031 337.905,556.198 355.5,550.5 Z"/></g>
<g><path style="opacity:0.934" fill="#fbe9c8" d="M 358.5,532.5 C 362.516,531.9 366.016,532.9 369,535.5C 376.868,559.438 384.535,583.438 392,607.5C 392.959,611.421 391.792,614.588 388.5,617C 363.351,625.616 338.018,633.282 312.5,640C 310,638.833 308.167,637 307,634.5C 299.512,611.547 292.179,588.547 285,565.5C 283.655,559.691 285.822,555.857 291.5,554C 314.039,547.097 336.373,539.93 358.5,532.5 Z M 355.5,550.5 C 337.905,556.198 320.238,562.031 302.5,568C 308.394,585.016 313.894,602.183 319,619.5C 319.388,620.428 320.055,621.095 321,621.5C 338.95,615.85 356.784,610.016 374.5,604C 368.377,586.85 362.71,569.517 357.5,552C 357.164,550.97 356.497,550.47 355.5,550.5 Z"/></g>
</svg>
