<?xml version="1.0" encoding="UTF-8"?>
<!DOCTYPE svg PUBLIC "-//W3C//DTD SVG 1.1//EN" "http://www.w3.org/Graphics/SVG/1.1/DTD/svg11.dtd">
<svg xmlns="http://www.w3.org/2000/svg" version="1.1" width="800px" height="800px" style="shape-rendering:geometricPrecision; text-rendering:geometricPrecision; image-rendering:optimizeQuality; fill-rule:evenodd; clip-rule:evenodd" xmlns:xlink="http://www.w3.org/1999/xlink">
<g><path style="opacity:0.844" fill="#fceac0" d="M 265.5,102.5 C 274.063,100.693 279.23,104.026 281,112.5C 281.814,114.902 281.647,117.235 280.5,119.5C 278.902,120.485 277.235,120.651 275.5,120C 273.109,117.167 271.276,114 270,110.5C 267.723,115.387 265.723,120.387 264,125.5C 262.833,126.667 261.667,127.833 260.5,129C 255.167,131.333 249.833,133.667 244.5,136C 249.716,138.52 255.05,140.853 260.5,143C 261.333,143.833 262.167,144.667 263,145.5C 265.351,150.864 267.684,156.197 270,161.5C 272.52,156.284 274.853,150.95 277,145.5C 277.833,144.667 278.667,143.833 279.5,143C 285.098,141.199 290.431,138.866 295.5,136C 291.963,134.719 288.796,132.886 286,130.5C 285.336,125.504 287.502,123.67 292.5,125C 302.258,126.704 305.758,132.204 303,141.5C 302.167,142.333 301.333,143.167 300.5,144C 294.78,146.124 289.28,148.624 284,151.5C 282.196,156.58 280.196,161.58 278,166.5C 273.356,171.437 268.356,171.771 263,167.5C 260.548,161.476 257.715,155.643 254.5,150C 248.656,148.16 243.156,145.66 238,142.5C 235.351,136.955 236.185,132.121 240.5,128C 245.541,125.931 250.541,123.764 255.5,121.5C 257.711,114.502 261.044,108.169 265.5,102.5 Z"/></g>
<g><path style="opacity:0.906" fill="#fbe9c8" d="M 500.5,102.5 C 508.328,101.493 511.494,104.826 510,112.5C 498.396,156.75 486.563,200.917 474.5,245C 487.687,247.213 500.687,250.213 513.5,254C 522.025,256.538 528.858,261.371 534,268.5C 534.993,370.556 534.66,472.556 533,574.5C 525.386,589.447 513.886,600.28 498.5,607C 462.293,621.701 424.627,628.201 385.5,626.5C 346.373,628.201 308.707,621.701 272.5,607C 261.994,601.994 252.828,595.16 245,586.5C 241.279,581.725 238.612,576.391 237,570.5C 236.333,469.833 236.333,369.167 237,268.5C 242.142,261.371 248.975,256.538 257.5,254C 275.154,248.669 293.154,245.003 311.5,243C 361.216,236.88 410.883,237.046 460.5,243.5C 473.297,197.65 485.797,151.65 498,105.5C 499.045,104.627 499.878,103.627 500.5,102.5 Z M 360.5,252.5 C 393.289,251.642 425.956,253.142 458.5,257C 454.951,268.027 451.784,279.193 449,290.5C 448.161,291.624 446.994,292.291 445.5,292.5C 406.521,296.28 367.521,296.447 328.5,293C 305.709,291.479 283.376,287.479 261.5,281C 257.172,279.171 253.172,276.838 249.5,274C 252.228,271.608 255.228,269.608 258.5,268C 268.281,264.576 278.281,261.909 288.5,260C 312.531,256.317 336.531,253.817 360.5,252.5 Z M 471.5,258.5 C 485.488,260.247 499.155,263.414 512.5,268C 516.016,269.256 519.016,271.256 521.5,274C 514.963,278.933 507.63,282.266 499.5,284C 487.353,287.414 475.02,289.414 462.5,290C 465.814,279.598 468.814,269.098 471.5,258.5 Z M 249.5,290.5 C 272.688,299.128 296.688,304.295 321.5,306C 361.326,309.081 401.159,309.247 441,306.5C 442.167,306.833 443.333,307.167 444.5,307.5C 440.869,319.356 437.869,331.356 435.5,343.5C 423.127,343.884 414.127,349.551 408.5,360.5C 406.647,361.76 404.814,361.76 403,360.5C 386.434,335.139 363.267,325.639 333.5,332C 312.053,338.947 297.719,353.114 290.5,374.5C 282.285,377.187 275.118,381.52 269,387.5C 266.806,390.554 265.139,393.888 264,397.5C 263.333,450.167 263.333,502.833 264,555.5C 265.521,561.366 268.688,566.2 273.5,570C 287.67,578.615 303.004,584.281 319.5,587C 369.452,595.376 419.118,594.043 468.5,583C 482.342,579.999 494.176,573.499 504,563.5C 505.275,561.283 506.275,558.949 507,556.5C 507.667,503.5 507.667,450.5 507,397.5C 504.752,389.58 499.919,383.747 492.5,380C 483.36,375.009 473.693,371.509 463.5,369.5C 461.966,359.124 456.632,351.29 447.5,346C 452.083,332.415 455.75,318.582 458.5,304.5C 480.091,302.988 500.924,298.321 521,290.5C 521.667,382.833 521.667,475.167 521,567.5C 517.406,576.433 511.573,583.6 503.5,589C 485.028,599.047 465.361,605.713 444.5,609C 405.167,615 365.833,615 326.5,609C 303.816,605.664 282.816,597.997 263.5,586C 258.195,581.701 254.028,576.534 251,570.5C 249.507,477.224 249.007,383.89 249.5,290.5 Z M 341.5,343.5 C 343.167,343.5 344.833,343.5 346.5,343.5C 345.645,353.82 344.812,364.153 344,374.5C 337.049,366.76 330.215,358.927 323.5,351C 329.328,347.788 335.328,345.288 341.5,343.5 Z M 359.5,344.5 C 367.744,346.122 375.077,349.622 381.5,355C 373.371,361.46 365.537,368.294 358,375.5C 358.519,365.207 359.019,354.874 359.5,344.5 Z M 433.5,356.5 C 449.22,359.379 453.72,368.046 447,382.5C 440.454,388.08 433.287,388.913 425.5,385C 418.626,378.172 417.792,370.672 423,362.5C 426.069,359.554 429.569,357.554 433.5,356.5 Z M 312.5,360.5 C 314.371,360.859 315.871,361.859 317,363.5C 322.482,370.283 328.315,376.783 334.5,383C 324.174,382.792 313.84,382.292 303.5,381.5C 305.131,373.906 308.131,366.906 312.5,360.5 Z M 389.5,364.5 C 394.454,371.285 397.12,378.952 397.5,387.5C 387.165,386.791 376.831,385.958 366.5,385C 374.659,378.672 382.325,371.839 389.5,364.5 Z M 461.5,382.5 C 473.36,384.727 483.86,389.727 493,397.5C 493.667,450.167 493.667,502.833 493,555.5C 486.104,562.2 477.938,566.7 468.5,569C 432.346,577.858 395.679,580.858 358.5,578C 333.923,577.064 310.257,572.064 287.5,563C 283.759,561.262 280.592,558.762 278,555.5C 277.333,502.833 277.333,450.167 278,397.5C 280.722,394.556 283.889,392.223 287.5,390.5C 289.95,421.447 305.95,441.613 335.5,451C 368.283,456.192 392.117,444.026 407,414.5C 409.849,406.409 411.515,398.076 412,389.5C 414.495,392.828 417.329,395.828 420.5,398.5C 409.669,439.156 398.836,479.823 388,520.5C 386.124,526.422 388.124,530.088 394,531.5C 395.895,531.385 397.562,530.718 399,529.5C 403.131,516.645 406.797,503.645 410,490.5C 414.868,504.771 419.535,519.105 424,533.5C 426.653,536.194 429.82,537.027 433.5,536C 452.19,529.996 470.856,523.996 489.5,518C 492.968,514.609 493.468,510.776 491,506.5C 485.469,489.572 480.135,472.572 475,455.5C 473.589,452.422 471.256,450.422 468,449.5C 451.275,454.681 434.608,460.014 418,465.5C 417.5,465.167 417,464.833 416.5,464.5C 422.167,443.833 427.833,423.167 433.5,402.5C 441.295,401.516 448.295,398.682 454.5,394C 457.88,390.79 460.213,386.957 461.5,382.5 Z M 302.5,395.5 C 312.845,395.709 323.178,396.209 333.5,397C 325.963,404.206 318.129,411.04 310,417.5C 305.667,410.853 303.167,403.519 302.5,395.5 Z M 366.5,399.5 C 376.853,399.55 387.186,400.05 397.5,401C 395.728,406.312 393.561,411.479 391,416.5C 389.959,418.585 388.459,420.252 386.5,421.5C 379.47,414.472 372.804,407.138 366.5,399.5 Z M 341.5,407.5 C 342.139,408.097 342.472,408.93 342.5,410C 341.623,419.49 340.789,428.99 340,438.5C 332.202,436.52 325.369,432.853 319.5,427.5C 326.554,420.442 333.888,413.775 341.5,407.5 Z M 355.5,407.5 C 362.264,415.437 369.264,423.27 376.5,431C 369.645,436.344 361.979,438.511 353.5,437.5C 354.74,427.562 355.407,417.562 355.5,407.5 Z M 460.5,465.5 C 461.822,465.33 462.989,465.663 464,466.5C 468.304,480.412 472.804,494.245 477.5,508C 463.34,511.998 449.34,516.498 435.5,521.5C 434.914,521.291 434.414,520.957 434,520.5C 429.879,506.507 425.379,492.674 420.5,479C 433.968,474.567 447.301,470.067 460.5,465.5 Z M 348.5,485.5 C 349.5,485.5 350.5,485.5 351.5,485.5C 355.419,499.591 359.752,513.591 364.5,527.5C 350.713,532.262 336.88,536.929 323,541.5C 322.055,541.095 321.388,540.428 321,539.5C 316.934,526.469 312.768,513.469 308.5,500.5C 308.818,499.353 309.484,498.519 310.5,498C 323.374,494.097 336.041,489.93 348.5,485.5 Z"/></g>
<g><path style="opacity:0.858" fill="#fceac0" d="M 307.5,151.5 C 310.157,151.162 312.49,151.829 314.5,153.5C 317.032,157.23 319.032,161.23 320.5,165.5C 324.619,167.059 328.619,168.893 332.5,171C 333.787,174.125 333.787,177.291 332.5,180.5C 328.623,182.685 324.623,184.685 320.5,186.5C 318.817,191.068 316.484,195.235 313.5,199C 310.833,199.667 308.167,199.667 305.5,199C 303.099,195.477 301.266,191.644 300,187.5C 296.477,185.099 292.644,183.266 288.5,182C 284.5,178 284.5,174 288.5,170C 292.562,168.552 296.395,166.718 300,164.5C 301.124,159.21 303.624,154.877 307.5,151.5 Z M 309.5,163.5 C 311.293,170.124 315.627,174.291 322.5,176C 315.096,176.948 310.929,181.115 310,188.5C 308.5,181.667 304.333,177.5 297.5,176C 304.421,174.58 308.421,170.413 309.5,163.5 Z"/></g>
<g><path style="opacity:0.9" fill="#fbe9c8" d="M 354.5,469.5 C 358.02,470.183 360.52,472.183 362,475.5C 367.865,493.428 373.531,511.428 379,529.5C 380.538,534.12 379.038,537.287 374.5,539C 356.561,544.869 338.561,550.535 320.5,556C 316.328,557.291 313.161,556.124 311,552.5C 304.155,532.641 298.155,512.641 293,492.5C 293.833,490.333 295.333,488.833 297.5,488C 316.645,481.895 335.645,475.729 354.5,469.5 Z M 348.5,485.5 C 336.041,489.93 323.374,494.097 310.5,498C 309.484,498.519 308.818,499.353 308.5,500.5C 312.768,513.469 316.934,526.469 321,539.5C 321.388,540.428 322.055,541.095 323,541.5C 336.88,536.929 350.713,532.262 364.5,527.5C 359.752,513.591 355.419,499.591 351.5,485.5C 350.5,485.5 349.5,485.5 348.5,485.5 Z"/></g>
</svg>
