<?xml version="1.0" encoding="UTF-8"?>
<!DOCTYPE svg PUBLIC "-//W3C//DTD SVG 1.1//EN" "http://www.w3.org/Graphics/SVG/1.1/DTD/svg11.dtd">
<svg xmlns="http://www.w3.org/2000/svg" version="1.1" width="716px" height="716px" style="shape-rendering:geometricPrecision; text-rendering:geometricPrecision; image-rendering:optimizeQuality; fill-rule:evenodd; clip-rule:evenodd" xmlns:xlink="http://www.w3.org/1999/xlink">
<g><path style="opacity:0.643" fill="#252423" d="M 338.5,106.5 C 389.113,102.068 431.613,118.402 466,155.5C 484.041,176.925 495.041,201.591 499,229.5C 500.356,278.943 500.856,328.276 500.5,377.5C 501.333,386.037 497.666,391.204 489.5,393C 408.177,394.224 326.844,394.058 245.5,392.5C 238.119,393.873 230.785,393.706 223.5,392C 221.919,391.293 220.419,390.46 219,389.5C 217.2,386.037 216.034,382.37 215.5,378.5C 215.379,335.562 215.545,292.562 216,249.5C 216.902,204.873 234.069,168.04 267.5,139C 288.467,122.182 312.134,111.349 338.5,106.5 Z M 338.5,116.5 C 364.189,114.073 388.856,117.907 412.5,128C 413.667,129.167 414.833,130.333 416,131.5C 431.621,137.691 445.287,147.357 457,160.5C 461.333,166.167 465.667,171.833 470,177.5C 472.843,185.521 476.51,193.188 481,200.5C 483.867,210.037 486.201,219.703 488,229.5C 489.448,280.48 489.948,331.48 489.5,382.5C 402.329,382.808 315.162,382.475 228,381.5C 227.598,380.128 227.098,378.795 226.5,377.5C 226.454,332.991 226.62,288.324 227,243.5C 230.685,187.261 258.185,147.761 309.5,125C 319.064,121.364 328.73,118.531 338.5,116.5 Z M 318.5,331.5 C 320.822,339.296 323.489,347.129 326.5,355C 325.134,360.419 322.634,360.919 319,356.5C 315.837,348.224 315.67,339.89 318.5,331.5 Z M 331.5,327.5 C 333.144,327.286 334.644,327.62 336,328.5C 338.896,333.065 340.729,338.065 341.5,343.5C 340.683,348.452 339.183,353.118 337,357.5C 335.809,350.448 333.476,343.781 330,337.5C 329.037,333.851 329.537,330.518 331.5,327.5 Z M 404.5,316.5 C 406.653,323.168 409.153,329.835 412,336.5C 413.342,346.242 411.009,347.575 405,340.5C 400.598,332.548 400.431,324.548 404.5,316.5 Z M 416.5,311.5 C 421.261,312.082 424.428,314.748 426,319.5C 428.716,327.399 427.716,334.732 423,341.5C 421.667,334.502 419.334,327.835 416,321.5C 415.341,318.112 415.508,314.779 416.5,311.5 Z M 398.5,277.5 C 400.928,280.698 402.594,284.364 403.5,288.5C 402.863,290.303 401.697,291.636 400,292.5C 400.138,290.51 400.638,288.51 401.5,286.5C 399.956,283.644 398.956,280.644 398.5,277.5 Z M 427.5,270.5 C 428.239,270.369 428.906,270.536 429.5,271C 428.39,273.737 428.223,276.571 429,279.5C 430.658,282.309 431.825,285.309 432.5,288.5C 432.099,291.281 430.765,292.281 428.5,291.5C 429.383,290.452 430.05,289.285 430.5,288C 427.611,282.399 426.611,276.566 427.5,270.5 Z M 413.5,266.5 C 411.572,271.922 412.738,276.589 417,280.5C 419.543,285.287 418.71,289.287 414.5,292.5C 414.167,292.333 413.833,292.167 413.5,292C 414.627,290.247 415.627,288.413 416.5,286.5C 414.62,281.248 412.62,276.081 410.5,271C 410.899,269.019 411.899,267.519 413.5,266.5 Z M 398.5,277.5 C 397.068,274.733 397.401,272.066 399.5,269.5C 399.833,269.667 400.167,269.833 400.5,270C 399.133,272.301 398.466,274.801 398.5,277.5 Z M 413.5,266.5 C 413.461,265.244 413.961,264.244 415,263.5C 415.585,264.998 415.085,265.998 413.5,266.5 Z"/></g>
<g><path style="opacity:0.978" fill="#bfb1a6" d="M 372.5,109.5 C 359.817,109.374 347.15,109.707 334.5,110.5C 341.599,108.956 348.932,108.29 356.5,108.5C 362.011,108.501 367.344,108.834 372.5,109.5 Z"/></g>
<g><path style="opacity:0.658" fill="#262524" d="M 490.5,223.5 C 491.641,276.818 491.807,330.151 491,383.5C 490.25,384.126 489.416,384.626 488.5,385C 400.777,385.992 313.11,385.659 225.5,384C 224.503,333.238 224.169,282.405 224.5,231.5C 234.214,174.6 266.548,136.767 321.5,118C 375.763,106.202 421.93,120.368 460,160.5C 474.991,179.149 485.158,200.149 490.5,223.5 Z M 338.5,116.5 C 328.73,118.531 319.064,121.364 309.5,125C 258.185,147.761 230.685,187.261 227,243.5C 226.62,288.324 226.454,332.991 226.5,377.5C 227.098,378.795 227.598,380.128 228,381.5C 315.162,382.475 402.329,382.808 489.5,382.5C 489.948,331.48 489.448,280.48 488,229.5C 486.201,219.703 483.867,210.037 481,200.5C 476.51,193.188 472.843,185.521 470,177.5C 465.667,171.833 461.333,166.167 457,160.5C 445.287,147.357 431.621,137.691 416,131.5C 414.833,130.333 413.667,129.167 412.5,128C 388.856,117.907 364.189,114.073 338.5,116.5 Z M 318.5,331.5 C 315.67,339.89 315.837,348.224 319,356.5C 322.634,360.919 325.134,360.419 326.5,355C 323.489,347.129 320.822,339.296 318.5,331.5 Z M 331.5,327.5 C 329.537,330.518 329.037,333.851 330,337.5C 333.476,343.781 335.809,350.448 337,357.5C 339.183,353.118 340.683,348.452 341.5,343.5C 340.729,338.065 338.896,333.065 336,328.5C 334.644,327.62 333.144,327.286 331.5,327.5 Z M 404.5,316.5 C 400.431,324.548 400.598,332.548 405,340.5C 411.009,347.575 413.342,346.242 412,336.5C 409.153,329.835 406.653,323.168 404.5,316.5 Z M 416.5,311.5 C 415.508,314.779 415.341,318.112 416,321.5C 419.334,327.835 421.667,334.502 423,341.5C 427.716,334.732 428.716,327.399 426,319.5C 424.428,314.748 421.261,312.082 416.5,311.5 Z M 398.5,277.5 C 398.956,280.644 399.956,283.644 401.5,286.5C 400.638,288.51 400.138,290.51 400,292.5C 401.697,291.636 402.863,290.303 403.5,288.5C 402.594,284.364 400.928,280.698 398.5,277.5 Z M 427.5,270.5 C 426.611,276.566 427.611,282.399 430.5,288C 430.05,289.285 429.383,290.452 428.5,291.5C 430.765,292.281 432.099,291.281 432.5,288.5C 431.825,285.309 430.658,282.309 429,279.5C 428.223,276.571 428.39,273.737 429.5,271C 428.906,270.536 428.239,270.369 427.5,270.5 Z M 413.5,266.5 C 411.899,267.519 410.899,269.019 410.5,271C 412.62,276.081 414.62,281.248 416.5,286.5C 415.627,288.413 414.627,290.247 413.5,292C 413.833,292.167 414.167,292.333 414.5,292.5C 418.71,289.287 419.543,285.287 417,280.5C 412.738,276.589 411.572,271.922 413.5,266.5 Z M 398.5,277.5 C 398.466,274.801 399.133,272.301 400.5,270C 400.167,269.833 399.833,269.667 399.5,269.5C 397.401,272.066 397.068,274.733 398.5,277.5 Z M 413.5,266.5 C 415.085,265.998 415.585,264.998 415,263.5C 413.961,264.244 413.461,265.244 413.5,266.5 Z"/></g>
<g><path style="opacity:1" fill="#e9d8c3" d="M 372.5,109.5 C 408.334,113.833 438.5,129.166 463,155.5C 473.117,168.065 481.45,181.732 488,196.5C 491.443,205.606 493.943,214.94 495.5,224.5C 494.442,222.192 493.276,219.858 492,217.5C 490.681,219.25 490.181,221.25 490.5,223.5C 485.158,200.149 474.991,179.149 460,160.5C 421.93,120.368 375.763,106.202 321.5,118C 266.548,136.767 234.214,174.6 224.5,231.5C 223.849,230.909 223.182,230.243 222.5,229.5C 222.167,229.833 221.833,230.167 221.5,230.5C 220.896,234.303 220.23,237.969 219.5,241.5C 219.5,239.167 219.5,236.833 219.5,234.5C 227.212,178.233 257.212,139.067 309.5,117C 317.649,114.046 325.982,111.88 334.5,110.5C 347.15,109.707 359.817,109.374 372.5,109.5 Z"/></g>
<g><path style="opacity:0.618" fill="#21201f" d="M 349.5,118.5 C 352.675,118.84 354.841,120.507 356,123.5C 357.262,127.909 356.428,131.743 353.5,135C 349.363,135.934 345.363,137.268 341.5,139C 336.03,140.221 332.53,138.054 331,132.5C 328.163,127.032 329.663,123.198 335.5,121C 340.389,120.646 345.056,119.813 349.5,118.5 Z"/></g>
<g><path style="opacity:0.631" fill="#262524" d="M 362.5,119.5 C 369.679,119.089 376.679,119.923 383.5,122C 384.743,123.154 385.743,124.488 386.5,126C 385.717,130.073 384.217,133.906 382,137.5C 380.527,139.007 378.693,139.674 376.5,139.5C 373.68,139.422 371.013,138.755 368.5,137.5C 362.069,138.406 359.069,135.406 359.5,128.5C 359.14,124.99 360.14,121.99 362.5,119.5 Z"/></g>
<g><path style="opacity:0.651" fill="#20201f" d="M 319.5,124.5 C 321.936,124.317 324.103,124.984 326,126.5C 328.471,132.383 330.638,138.383 332.5,144.5C 331.014,148.832 328.847,152.832 326,156.5C 321.374,160.779 317.374,160.113 314,154.5C 310,149.833 306,145.167 302,140.5C 299.709,137.165 300.209,134.332 303.5,132C 309.149,129.961 314.482,127.461 319.5,124.5 Z"/></g>
<g><path style="opacity:1" fill="#fce9ca" d="M 353.5,123.5 C 353.5,126.167 353.5,128.833 353.5,131.5C 347.863,132.606 342.196,133.606 336.5,134.5C 336.042,131.606 336.709,129.106 338.5,127C 337.833,126.667 337.167,126.333 336.5,126C 342.203,123.916 347.87,123.083 353.5,123.5 Z"/></g>
<g><path style="opacity:1" fill="#fbe8c9" d="M 383.5,126.5 C 382.787,129.594 381.787,132.594 380.5,135.5C 374.889,134.379 369.223,133.379 363.5,132.5C 363.5,129.5 363.5,126.5 363.5,123.5C 370.334,123.467 377.001,124.467 383.5,126.5 Z"/></g>
<g><path style="opacity:0.658" fill="#222120" d="M 393.5,124.5 C 395.854,124.838 398.187,125.338 400.5,126C 404.458,127.83 408.458,129.664 412.5,131.5C 413.888,133.109 414.888,134.942 415.5,137C 414.047,140.072 412.213,142.905 410,145.5C 405.654,151.179 400.654,156.179 395,160.5C 393.527,160.097 392.194,159.43 391,158.5C 387.443,154.053 384.943,149.053 383.5,143.5C 385.211,137.656 387.377,131.989 390,126.5C 391.302,125.915 392.469,125.249 393.5,124.5 Z"/></g>
<g><path style="opacity:1" fill="#ddcebb" d="M 353.5,123.5 C 347.87,123.083 342.203,123.916 336.5,126C 337.167,126.333 337.833,126.667 338.5,127C 336.709,129.106 336.042,131.606 336.5,134.5C 342.196,133.606 347.863,132.606 353.5,131.5C 348.428,133.085 343.428,135.085 338.5,137.5C 335.161,135.352 333.161,132.185 332.5,128C 332.354,125.812 333.354,124.479 335.5,124C 339.977,123.038 344.477,122.205 349,121.5C 351.008,121.307 352.508,121.974 353.5,123.5 Z"/></g>
<g><path style="opacity:0.988" fill="#cfc2b5" d="M 383.5,126.5 C 377.001,124.467 370.334,123.467 363.5,123.5C 363.5,126.5 363.5,129.5 363.5,132.5C 369.223,133.379 374.889,134.379 380.5,135.5C 380.038,136.88 379.038,137.547 377.5,137.5C 372.959,135.82 368.293,134.653 363.5,134C 362.54,130.27 362.207,126.437 362.5,122.5C 368.949,122.15 375.282,122.816 381.5,124.5C 382.713,124.747 383.38,125.414 383.5,126.5 Z"/></g>
<g><path style="opacity:1" fill="#decfbd" d="M 319.5,156.5 C 326.212,152.665 328.212,146.998 325.5,139.5C 323.824,136.494 322.157,133.494 320.5,130.5C 319.402,131.615 318.235,131.615 317,130.5C 315.238,130.944 315.405,131.444 317.5,132C 312.943,131.918 308.776,133.085 305,135.5C 304.655,137.201 305.322,138.534 307,139.5C 307.893,138.289 308.726,138.289 309.5,139.5C 308.754,140.736 308.421,142.07 308.5,143.5C 307.236,141.73 305.736,140.063 304,138.5C 303.28,136.888 303.446,135.388 304.5,134C 309.167,132 313.833,130 318.5,128C 320.579,127.192 322.579,127.359 324.5,128.5C 326.166,133.828 327.832,139.161 329.5,144.5C 328.139,149.912 325.306,154.245 321,157.5C 320.235,157.43 319.735,157.097 319.5,156.5 Z"/></g>
<g><path style="opacity:1" fill="#fbe7c6" d="M 319.5,156.5 C 315.487,152.485 311.821,148.152 308.5,143.5C 308.421,142.07 308.754,140.736 309.5,139.5C 308.726,138.289 307.893,138.289 307,139.5C 305.322,138.534 304.655,137.201 305,135.5C 308.776,133.085 312.943,131.918 317.5,132C 315.405,131.444 315.238,130.944 317,130.5C 318.235,131.615 319.402,131.615 320.5,130.5C 322.157,133.494 323.824,136.494 325.5,139.5C 328.212,146.998 326.212,152.665 319.5,156.5 Z"/></g>
<g><path style="opacity:1" fill="#f4e2c8" d="M 391.5,127.5 C 397.445,127.798 403.112,129.298 408.5,132C 410.736,132.734 412.069,134.234 412.5,136.5C 407.944,144.557 402.11,151.557 395,157.5C 393.395,156.899 392.062,155.899 391,154.5C 389.174,150.883 387.674,147.216 386.5,143.5C 387.55,137.965 389.216,132.632 391.5,127.5 Z"/></g>
<g><path style="opacity:0.668" fill="#20201f" d="M 292.5,137.5 C 296.329,138.814 299.495,141.147 302,144.5C 306.957,151.126 312.291,157.46 318,163.5C 322.563,174.558 319.063,178.725 307.5,176C 301.176,173.685 294.843,171.352 288.5,169C 283.059,165.193 277.892,161.027 273,156.5C 271.411,154.089 271.911,151.922 274.5,150C 280.392,145.564 286.392,141.398 292.5,137.5 Z"/></g>
<g><path style="opacity:0.641" fill="#232321" d="M 348.5,137.5 C 350.296,138.793 351.963,140.293 353.5,142C 346.522,156.43 345.689,171.263 351,186.5C 356.301,195.239 360.135,204.572 362.5,214.5C 362.701,218.768 360.868,221.768 357,223.5C 353.513,217.866 350.013,212.199 346.5,206.5C 340.315,197.474 332.815,189.474 324,182.5C 323.042,180.801 322.542,178.967 322.5,177C 325.461,159.909 334.127,146.742 348.5,137.5 Z"/></g>
<g><path style="opacity:0.667" fill="#242322" d="M 439.5,162.5 C 438.883,162.389 438.383,162.056 438,161.5C 425.842,169.486 412.676,174.653 398.5,177C 395.098,173.281 394.598,169.114 397,164.5C 404.462,155.369 412.295,146.536 420.5,138C 421.833,137.333 423.167,137.333 424.5,138C 431.423,143.045 438.256,148.212 445,153.5C 445.667,154.167 445.667,154.833 445,155.5C 442.675,157.501 440.842,159.834 439.5,162.5 Z"/></g>
<g><path style="opacity:0.648" fill="#222120" d="M 364.5,139.5 C 372.729,141.227 379.229,145.56 384,152.5C 388.722,160.104 391.889,168.27 393.5,177C 393.333,178.5 393.167,180 393,181.5C 383.564,189.282 374.73,197.615 366.5,206.5C 362.439,203.382 359.606,199.382 358,194.5C 354.261,185.448 351.427,176.115 349.5,166.5C 349.843,157.299 352.843,149.132 358.5,142C 360.723,141.434 362.723,140.6 364.5,139.5 Z"/></g>
<g><path style="opacity:1" fill="#f0dfc4" d="M 311.5,160.5 C 313.101,163.796 314.768,167.129 316.5,170.5C 316.547,172 315.881,173 314.5,173.5C 307.709,170.719 300.709,168.719 293.5,167.5C 289.827,166 286.494,164 283.5,161.5C 280.462,159.888 277.629,157.888 275,155.5C 274.333,154.5 274.333,153.5 275,152.5C 280.95,148.112 287.117,144.112 293.5,140.5C 300.518,146.188 306.518,152.855 311.5,160.5 Z"/></g>
<g><path style="opacity:1" fill="#fde9c6" d="M 283.5,161.5 C 281.394,158.945 279.06,156.612 276.5,154.5C 279.918,151.039 283.751,148.039 288,145.5C 288.772,145.645 289.439,145.978 290,146.5C 290.117,154.117 293.117,155.451 299,150.5C 302.231,151.446 304.731,153.28 306.5,156C 305.788,158.027 304.788,159.027 303.5,159C 305.662,161.103 305.829,163.27 304,165.5C 303.667,164.167 303.333,162.833 303,161.5C 301.37,163.483 299.37,164.816 297,165.5C 294.162,164.834 291.662,163.501 289.5,161.5C 287.674,161.92 285.674,161.92 283.5,161.5 Z"/></g>
<g><path style="opacity:1" fill="#f4e2c7" d="M 354.5,175.5 C 354.302,167.466 354.635,159.466 355.5,151.5C 358.181,143.326 363.514,140.826 371.5,144C 382.089,152.331 388.756,163.164 391.5,176.5C 391.378,178.791 390.545,180.791 389,182.5C 380.64,188.529 373.307,195.529 367,203.5C 365.013,202.846 363.68,201.513 363,199.5C 359.666,191.665 356.833,183.665 354.5,175.5 Z"/></g>
<g><path style="opacity:1" fill="#fde9c6" d="M 365.5,144.5 C 366.5,144.5 367.5,144.5 368.5,144.5C 368.5,145.5 368.5,146.5 368.5,147.5C 370.433,147.729 372.1,148.562 373.5,150C 372.66,151.666 373.16,151.833 375,150.5C 376.441,151.87 378.108,152.87 380,153.5C 382.123,158.332 384.456,162.998 387,167.5C 387.88,170.356 388.713,173.189 389.5,176C 389.333,177.167 389.167,178.333 389,179.5C 383.935,183.26 378.601,186.593 373,189.5C 371.175,189.057 369.342,188.723 367.5,188.5C 368.622,182.994 366.956,178.66 362.5,175.5C 360.242,169.254 360.076,162.921 362,156.5C 365.064,152.892 366.23,148.892 365.5,144.5 Z"/></g>
<g><path style="opacity:0.697" fill="#222120" d="M 265.5,159.5 C 271.083,159.954 275.416,162.454 278.5,167C 278.241,168.261 277.574,169.261 276.5,170C 273.216,171.125 269.883,172.125 266.5,173C 265.667,173.833 264.833,174.667 264,175.5C 264.582,182.602 261.916,187.935 256,191.5C 253.238,190.019 250.571,188.353 248,186.5C 247.333,184.833 247.333,183.167 248,181.5C 251.451,178.044 254.118,174.044 256,169.5C 259.371,166.297 262.538,162.964 265.5,159.5 Z"/></g>
<g><path style="opacity:1" fill="#f5e3c6" d="M 420.5,140.5 C 421.873,140.343 423.207,140.51 424.5,141C 429.991,145.246 435.658,149.246 441.5,153C 442.451,153.718 442.617,154.551 442,155.5C 436.08,159.699 429.914,163.533 423.5,167C 415.935,169.701 408.435,172.534 401,175.5C 399.139,174.391 398.305,172.725 398.5,170.5C 398.692,168.423 399.192,166.423 400,164.5C 407.078,156.655 413.911,148.655 420.5,140.5 Z"/></g>
<g><path style="opacity:0.626" fill="#252422" d="M 439.5,162.5 C 442.279,161.05 445.279,160.05 448.5,159.5C 449.938,159.719 451.271,160.219 452.5,161C 459.69,168.27 465.19,176.437 469,185.5C 457.195,193.592 451.195,190.258 451,175.5C 448.772,173.032 445.938,171.865 442.5,172C 437.37,169.96 436.37,166.793 439.5,162.5 Z"/></g>
<g><path style="opacity:0.996" fill="#d1c3b5" d="M 355.5,151.5 C 354.635,159.466 354.302,167.466 354.5,175.5C 353.046,172.282 352.379,168.782 352.5,165C 352.347,160.124 353.347,155.624 355.5,151.5 Z"/></g>
<g><path style="opacity:1" fill="#ebdac4" d="M 443.5,162.5 C 446.249,162.274 448.916,162.607 451.5,163.5C 457.369,169.362 462.036,176.029 465.5,183.5C 465.167,184.167 464.833,184.833 464.5,185.5C 461.579,186.407 458.579,186.74 455.5,186.5C 455.073,182.074 454.239,177.74 453,173.5C 452.167,172.667 451.333,171.833 450.5,171C 447.266,170.289 444.099,169.455 441,168.5C 440.333,167.5 440.333,166.5 441,165.5C 442.045,164.627 442.878,163.627 443.5,162.5 Z"/></g>
<g><path style="opacity:0.641" fill="#21201f" d="M 280.5,173.5 C 290.131,172.463 295.131,176.796 295.5,186.5C 295.085,192.828 292.085,194.994 286.5,193C 282.311,188.312 278.311,183.479 274.5,178.5C 275.472,175.457 277.472,173.79 280.5,173.5 Z"/></g>
<g><path style="opacity:0.984" fill="#cbbfaf" d="M 311.5,160.5 C 317.17,164.293 318.504,169.126 315.5,175C 307.767,173.811 300.433,171.311 293.5,167.5C 300.709,168.719 307.709,170.719 314.5,173.5C 315.881,173 316.547,172 316.5,170.5C 314.768,167.129 313.101,163.796 311.5,160.5 Z"/></g>
<g><path style="opacity:0.629" fill="#232221" d="M 427.5,173.5 C 443.598,172.792 445.598,177.792 433.5,188.5C 426.402,196.062 422.402,194.729 421.5,184.5C 420.695,179.096 422.695,175.43 427.5,173.5 Z"/></g>
<g><path style="opacity:0.642" fill="#1f1f1e" d="M 300.5,176.5 C 305.428,177.128 310.095,178.628 314.5,181C 316.049,182.214 317.215,183.714 318,185.5C 318.196,193.882 318.696,202.215 319.5,210.5C 316.671,218.789 312.338,219.622 306.5,213C 303.281,209.448 300.448,205.615 298,201.5C 297.333,194.5 297.333,187.5 298,180.5C 298.662,179.016 299.496,177.683 300.5,176.5 Z"/></g>
<g><path style="opacity:0.637" fill="#262523" d="M 408.5,216.5 C 407.833,216.5 407.5,216.833 407.5,217.5C 406.833,217.5 406.5,217.833 406.5,218.5C 405.833,218.5 405.5,218.833 405.5,219.5C 402.162,218.577 399.662,216.577 398,213.5C 397.051,203.4 397.385,193.4 399,183.5C 404.175,177.864 410.175,176.197 417,178.5C 417.45,180.519 418.283,182.352 419.5,184C 419.235,190.727 418.401,197.561 417,204.5C 414.568,207.688 411.901,210.688 409,213.5C 408.517,214.448 408.351,215.448 408.5,216.5 Z"/></g>
<g><path style="opacity:1" fill="#ebdbc4" d="M 266.5,161.5 C 270.261,162.547 273.594,164.381 276.5,167C 271.968,168.678 267.468,170.512 263,172.5C 261.464,177.415 259.964,182.248 258.5,187C 255.842,187.073 253.176,186.74 250.5,186C 249.483,184.951 249.316,183.784 250,182.5C 254.952,175.051 260.452,168.051 266.5,161.5 Z"/></g>
<g><path style="opacity:1" fill="#d3c4b2" d="M 311.5,213.5 C 312.5,213.5 313.5,213.5 314.5,213.5C 313.817,204.182 313.483,194.849 313.5,185.5C 309.889,185.956 306.556,185.289 303.5,183.5C 300.871,190.921 300.871,198.254 303.5,205.5C 302.196,204.013 301.03,202.346 300,200.5C 299.205,193.782 299.372,187.116 300.5,180.5C 302.074,179.369 303.741,179.202 305.5,180C 308.417,181.528 311.417,182.861 314.5,184C 315.126,184.75 315.626,185.584 316,186.5C 316.667,195.5 316.667,204.5 316,213.5C 314.35,216.106 312.85,216.106 311.5,213.5 Z"/></g>
<g><path style="opacity:0.615" fill="#282725" d="M 443.5,182.5 C 446.148,182.738 447.982,184.072 449,186.5C 451.547,200.287 446.047,205.453 432.5,202C 429.913,200.475 429.08,198.308 430,195.5C 434.395,190.936 438.895,186.602 443.5,182.5 Z"/></g>
<g><path style="opacity:0.658" fill="#1d1d1d" d="M 268.5,183.5 C 270.527,183.338 272.527,183.505 274.5,184C 278.16,188.66 282.16,192.993 286.5,197C 285.833,198.333 285.167,199.667 284.5,201C 269.388,206.561 263.555,201.394 267,185.5C 267.717,184.956 268.217,184.289 268.5,183.5 Z"/></g>
<g><path style="opacity:0.988" fill="#d2c6b9" d="M 429.5,188.5 C 428.608,190.946 427.108,191.612 425,190.5C 424.333,186.167 424.333,181.833 425,177.5C 441.342,173.996 442.842,177.663 429.5,188.5 Z"/></g>
<g><path style="opacity:1" fill="#fce9ca" d="M 429.5,188.5 C 428.178,188.33 427.011,188.663 426,189.5C 425.333,186.167 425.333,182.833 426,179.5C 429.427,177.099 432.593,177.266 435.5,180C 432.124,181.938 430.124,184.771 429.5,188.5 Z"/></g>
<g><path style="opacity:1" fill="#f2e0c5" d="M 346.5,141.5 C 347.5,141.5 348.5,141.5 349.5,141.5C 348.109,146.843 346.609,152.176 345,157.5C 343.971,166.334 344.638,175.001 347,183.5C 351.547,191.927 355.547,200.594 359,209.5C 359.498,212.817 359.665,216.15 359.5,219.5C 358.178,219.67 357.011,219.337 356,218.5C 349.072,203.626 339.072,191.293 326,181.5C 325.321,170.184 328.655,160.184 336,151.5C 339.396,147.935 342.896,144.602 346.5,141.5 Z"/></g>
<g><path style="opacity:0.996" fill="#d5c8bc" d="M 279.5,181.5 C 277.787,180.365 277.12,178.698 277.5,176.5C 289.82,173.655 294.653,178.321 292,190.5C 291.439,191.022 290.772,191.355 290,191.5C 286.011,188.678 282.511,185.344 279.5,181.5 Z"/></g>
<g><path style="opacity:1" fill="#fae7cb" d="M 279.5,181.5 C 279.33,180.178 279.663,179.011 280.5,178C 283.475,177.956 286.475,178.123 289.5,178.5C 290.207,181.786 290.54,185.119 290.5,188.5C 287.03,187.712 284.363,185.712 282.5,182.5C 281.583,181.873 280.583,181.539 279.5,181.5 Z"/></g>
<g><path style="opacity:1" fill="#fbe8c9" d="M 311.5,213.5 C 308.5,211.167 305.833,208.5 303.5,205.5C 300.871,198.254 300.871,190.921 303.5,183.5C 306.556,185.289 309.889,185.956 313.5,185.5C 313.483,194.849 313.817,204.182 314.5,213.5C 313.5,213.5 312.5,213.5 311.5,213.5 Z"/></g>
<g><path style="opacity:0.631" fill="#212120" d="M 323.5,189.5 C 329.472,190.938 334.305,194.271 338,199.5C 338.973,201.392 339.64,203.392 340,205.5C 340.667,215.5 340.667,225.5 340,235.5C 338.04,239.376 335.207,240.209 331.5,238C 327.153,234.663 323.986,230.496 322,225.5C 320.369,214.238 320.369,202.904 322,191.5C 322.717,190.956 323.217,190.289 323.5,189.5 Z"/></g>
<g><path style="opacity:0.6" fill="#252422" d="M 387.5,189.5 C 391.73,188.563 394.23,190.229 395,194.5C 395.667,204.5 395.667,214.5 395,224.5C 391.272,230.726 386.438,235.726 380.5,239.5C 378.234,239.069 376.734,237.736 376,235.5C 375.333,224.5 375.333,213.5 376,202.5C 376.862,200.913 377.529,199.246 378,197.5C 381.358,194.969 384.524,192.302 387.5,189.5 Z"/></g>
<g><path style="opacity:1" fill="#f4e2ca" d="M 442.5,185.5 C 443.833,185.5 445.167,185.5 446.5,185.5C 446.826,189.884 446.492,194.217 445.5,198.5C 441.235,199.439 436.902,199.772 432.5,199.5C 432.351,198.448 432.517,197.448 433,196.5C 436.546,193.148 439.713,189.481 442.5,185.5 Z"/></g>
<g><path style="opacity:0.992" fill="#cdbfb2" d="M 269.5,185.5 C 271.582,185.472 273.416,186.139 275,187.5C 277.295,190.797 279.962,193.797 283,196.5C 283.749,197.635 283.583,198.635 282.5,199.5C 269.286,203.283 264.953,198.617 269.5,185.5 Z"/></g>
<g><path style="opacity:0.618" fill="#20201f" d="M 245.5,191.5 C 251.759,190.977 257.259,192.643 262,196.5C 263.867,203.933 266.034,211.267 268.5,218.5C 267.441,221.068 265.774,223.235 263.5,225C 254.497,226.583 245.497,228.083 236.5,229.5C 232.347,227.861 230.847,224.861 232,220.5C 234.071,212.619 236.738,204.952 240,197.5C 241.36,194.977 243.193,192.977 245.5,191.5 Z"/></g>
<g><path style="opacity:0.612" fill="#222220" d="M 464.5,191.5 C 470.843,190.755 475.01,193.422 477,199.5C 479.307,207.419 481.807,215.252 484.5,223C 484.297,225.406 483.297,227.406 481.5,229C 472.102,228.419 462.769,227.086 453.5,225C 447.34,222.229 445.84,217.729 449,211.5C 450.09,205.987 451.756,200.654 454,195.5C 454.903,194.299 456.069,193.465 457.5,193C 460.036,192.814 462.369,192.314 464.5,191.5 Z"/></g>
<g><path style="opacity:0.988" fill="#dccec0" d="M 410.5,207.5 C 410.284,205.319 411.117,203.653 413,202.5C 413.41,197.491 413.91,192.491 414.5,187.5C 414.594,184.499 413.261,182.499 410.5,181.5C 407.463,182.902 404.463,184.235 401.5,185.5C 401.826,194.017 401.493,202.35 400.5,210.5C 400.334,201.827 400.5,193.16 401,184.5C 405.197,181.043 409.863,179.71 415,180.5C 415.667,187.833 415.667,195.167 415,202.5C 414.004,204.66 412.504,206.327 410.5,207.5 Z"/></g>
<g><path style="opacity:1" fill="#fae7c7" d="M 270.5,187.5 C 274.25,190.405 277.916,193.572 281.5,197C 277.906,198.741 274.239,198.908 270.5,197.5C 270.177,194.295 270.177,190.962 270.5,187.5 Z"/></g>
<g><path style="opacity:1" fill="#f8e5c8" d="M 327.5,193.5 C 331.126,195.958 334.293,198.958 337,202.5C 337.5,213.828 337.667,225.162 337.5,236.5C 336.127,236.657 334.793,236.49 333.5,236C 328.708,233.053 325.708,228.887 324.5,223.5C 324.334,213.828 324.5,204.161 325,194.5C 325.671,193.748 326.504,193.414 327.5,193.5 Z"/></g>
<g><path style="opacity:1" fill="#f4e3c8" d="M 388.5,191.5 C 390.017,191.511 391.184,192.177 392,193.5C 392.667,203.5 392.667,213.5 392,223.5C 389.542,230.128 385.042,234.462 378.5,236.5C 378.333,224.829 378.5,213.162 379,201.5C 381.696,197.639 384.863,194.306 388.5,191.5 Z"/></g>
<g><path style="opacity:1" fill="#fae7c7" d="M 259.5,197.5 C 259.936,205.135 261.603,212.468 264.5,219.5C 256.116,221.614 247.782,223.614 239.5,225.5C 238.081,226.451 236.415,226.784 234.5,226.5C 235.127,215.121 238.46,204.621 244.5,195C 248.5,194.333 252.5,194.333 256.5,195C 257.942,195.377 258.942,196.21 259.5,197.5 Z"/></g>
<g><path style="opacity:1" fill="#fae7c8" d="M 410.5,207.5 C 408.216,210.427 405.716,213.094 403,215.5C 400.843,214.615 400.01,212.948 400.5,210.5C 401.493,202.35 401.826,194.017 401.5,185.5C 404.463,184.235 407.463,182.902 410.5,181.5C 413.261,182.499 414.594,184.499 414.5,187.5C 413.91,192.491 413.41,197.491 413,202.5C 411.117,203.653 410.284,205.319 410.5,207.5 Z"/></g>
<g><path style="opacity:0.644" fill="#232221" d="M 278.5,204.5 C 285.085,204.543 291.418,205.71 297.5,208C 301.333,211.167 305.167,214.333 309,217.5C 311.846,222.604 310.346,225.437 304.5,226C 297.813,226.285 291.147,226.785 284.5,227.5C 280.179,226.805 276.346,225.138 273,222.5C 271.019,218.853 269.519,215.02 268.5,211C 268.643,208.849 269.643,207.182 271.5,206C 274.036,205.814 276.369,205.314 278.5,204.5 Z"/></g>
<g><path style="opacity:0.656" fill="#242322" d="M 405.5,219.5 C 406.167,219.5 406.5,219.167 406.5,218.5C 407.167,218.5 407.5,218.167 407.5,217.5C 408.167,217.5 408.5,217.167 408.5,216.5C 412.332,212.836 416.332,209.336 420.5,206C 428.527,204.364 436.527,204.364 444.5,206C 446.504,208.841 447.004,212.007 446,215.5C 444.701,218.147 443.368,220.814 442,223.5C 439.171,225.13 436.171,226.464 433,227.5C 426.491,226.582 419.824,226.582 413,227.5C 407.885,227.22 405.385,224.553 405.5,219.5 Z"/></g>
<g><path style="opacity:1" fill="#f5e3c7" d="M 272.5,207.5 C 279.175,207.334 285.842,207.5 292.5,208C 298.298,211.966 303.631,216.466 308.5,221.5C 308.291,222.086 307.957,222.586 307.5,223C 297.167,223.667 286.833,223.667 276.5,223C 273.041,218.175 271.708,213.008 272.5,207.5 Z"/></g>
<g><path style="opacity:0.984" fill="#c8baae" d="M 443.5,213.5 C 442.962,211.883 442.629,210.216 442.5,208.5C 435.825,208.334 429.158,208.5 422.5,209C 420.789,211.519 418.455,213.019 415.5,213.5C 419.733,208.032 425.4,206.032 432.5,207.5C 436.167,207.667 439.833,207.833 443.5,208C 444.807,209.943 444.807,211.777 443.5,213.5 Z"/></g>
<g><path style="opacity:0.98" fill="#bab2a3" d="M 327.5,193.5 C 326.504,193.414 325.671,193.748 325,194.5C 324.5,204.161 324.334,213.828 324.5,223.5C 323.342,213.675 323.175,203.675 324,193.5C 325.14,190.982 326.306,190.982 327.5,193.5 Z"/></g>
<g><path style="opacity:1" fill="#f5e3c7" d="M 458.5,194.5 C 462.846,194.334 467.179,194.501 471.5,195C 472.333,195.833 473.167,196.667 474,197.5C 476.028,204.95 478.361,212.284 481,219.5C 481.758,221.769 481.591,223.936 480.5,226C 471.011,225.953 461.678,224.62 452.5,222C 452,221.5 451.5,221 451,220.5C 450.915,214.342 451.915,208.342 454,202.5C 454.738,199.352 456.238,196.685 458.5,194.5 Z"/></g>
<g><path style="opacity:0.632" fill="#272624" d="M 367.5,215.5 C 369.129,216.625 370.629,217.959 372,219.5C 372.238,226.529 372.738,233.529 373.5,240.5C 370.685,248.5 366.185,249.833 360,244.5C 359.853,237.675 360.853,231.008 363,224.5C 363.763,221.059 365.263,218.059 367.5,215.5 Z"/></g>
<g><path style="opacity:1" fill="#f9e7ca" d="M 443.5,213.5 C 442.498,217.003 440.831,220.17 438.5,223C 428.256,223.819 418.09,223.652 408,222.5C 409.455,218.857 411.955,215.857 415.5,213.5C 418.455,213.019 420.789,211.519 422.5,209C 429.158,208.5 435.825,208.334 442.5,208.5C 442.629,210.216 442.962,211.883 443.5,213.5 Z"/></g>
<g><path style="opacity:0.607" fill="#262524" d="M 345.5,216.5 C 347.903,216.393 349.736,217.393 351,219.5C 353.542,226.833 355.375,234.333 356.5,242C 353.105,249.966 348.938,250.466 344,243.5C 343.237,235.832 342.904,228.165 343,220.5C 343.662,219.016 344.496,217.683 345.5,216.5 Z"/></g>
<g><path style="opacity:0.996" fill="#d5c9ba" d="M 259.5,197.5 C 260.832,203.52 262.665,209.52 265,215.5C 265.896,218.025 265.396,220.192 263.5,222C 255.567,223.681 247.567,224.848 239.5,225.5C 247.782,223.614 256.116,221.614 264.5,219.5C 261.603,212.468 259.936,205.135 259.5,197.5 Z"/></g>
<g><path style="opacity:1" fill="#ecdcc9" d="M 345.5,219.5 C 346.822,219.33 347.989,219.663 349,220.5C 350.983,227.566 352.483,234.732 353.5,242C 351.952,245.764 349.786,246.264 347,243.5C 346.168,235.517 345.668,227.517 345.5,219.5 Z"/></g>
<g><path style="opacity:0.65" fill="#201f1e" d="M 261.5,226.5 C 264.941,226.301 268.274,226.801 271.5,228C 276.996,232.854 280.496,238.688 282,245.5C 280.5,247 279,248.5 277.5,250C 280.969,250.97 283.303,253.137 284.5,256.5C 284.469,265.442 284.303,274.442 284,283.5C 279.22,287.716 275.386,286.882 272.5,281C 273.319,271.911 273.819,262.744 274,253.5C 274.833,252.667 275.667,251.833 276.5,251C 274.067,248.867 271.233,247.7 268,247.5C 258.41,248.032 248.576,248.698 238.5,249.5C 235.358,248.342 232.525,246.675 230,244.5C 228.557,239.788 229.723,235.955 233.5,233C 243.135,231.569 252.468,229.402 261.5,226.5 Z"/></g>
<g><path style="opacity:0.653" fill="#1f1f1e" d="M 446.5,226.5 C 458.544,228.343 470.544,230.51 482.5,233C 487.191,237.423 487.524,242.09 483.5,247C 480.925,247.958 478.259,248.458 475.5,248.5C 461.845,247.76 448.179,247.26 434.5,247C 432.203,245.737 431.37,243.903 432,241.5C 436.407,235.956 441.24,230.956 446.5,226.5 Z"/></g>
<g><path style="opacity:0.671" fill="#1e1e1d" d="M 324.5,251.5 C 323.064,250.571 321.731,249.405 320.5,248C 313.296,247.219 306.129,247.386 299,248.5C 292.325,246.831 286.991,243.164 283,237.5C 281.141,232.305 283.141,229.305 289,228.5C 299.379,228.856 309.879,229.69 320.5,231C 324.533,235.368 328.866,239.368 333.5,243C 330.426,245.849 327.426,248.683 324.5,251.5 Z"/></g>
<g><path style="opacity:0.669" fill="#20201f" d="M 415.5,228.5 C 420.463,229.146 425.463,229.312 430.5,229C 434.658,230.794 435.824,233.627 434,237.5C 430.944,240.432 427.777,243.266 424.5,246C 413.545,247.142 402.545,247.975 391.5,248.5C 388.171,247.678 385.505,245.845 383.5,243C 387.909,237.92 392.909,233.586 398.5,230C 404.348,229.827 410.015,229.327 415.5,228.5 Z"/></g>
<g><path style="opacity:1" fill="#eedec8" d="M 367.5,219.5 C 368.825,223.276 369.491,227.443 369.5,232C 369.167,236.167 368.833,240.333 368.5,244.5C 363.306,246.479 361.306,244.646 362.5,239C 363.731,232.377 365.398,225.877 367.5,219.5 Z"/></g>
<g><path style="opacity:0.98" fill="#cdbfae" d="M 219.5,234.5 C 219.5,236.833 219.5,239.167 219.5,241.5C 219.333,287.835 219.5,334.168 220,380.5C 220.23,384.943 222.397,387.777 226.5,389C 236.342,389.17 246.009,389.67 255.5,390.5C 245.161,390.666 234.828,390.5 224.5,390C 222,388.833 220.167,387 219,384.5C 218.168,334.332 218.335,284.332 219.5,234.5 Z"/></g>
<g><path style="opacity:1" fill="#efdec7" d="M 495.5,224.5 C 495.804,227.522 496.304,230.522 497,233.5C 497.667,284.167 497.667,334.833 497,385.5C 495.891,387.815 494.057,389.315 491.5,390C 412.834,390.5 334.167,390.667 255.5,390.5C 246.009,389.67 236.342,389.17 226.5,389C 222.397,387.777 220.23,384.943 220,380.5C 219.5,334.168 219.333,287.835 219.5,241.5C 220.23,237.969 220.896,234.303 221.5,230.5C 221.833,230.167 222.167,229.833 222.5,229.5C 223.182,230.243 223.849,230.909 224.5,231.5C 224.169,282.405 224.503,333.238 225.5,384C 313.11,385.659 400.777,385.992 488.5,385C 489.416,384.626 490.25,384.126 491,383.5C 491.807,330.151 491.641,276.818 490.5,223.5C 490.181,221.25 490.681,219.25 492,217.5C 493.276,219.858 494.442,222.192 495.5,224.5 Z M 318.5,331.5 C 315.67,339.89 315.837,348.224 319,356.5C 322.634,360.919 325.134,360.419 326.5,355C 323.489,347.129 320.822,339.296 318.5,331.5 Z M 331.5,327.5 C 329.537,330.518 329.037,333.851 330,337.5C 333.476,343.781 335.809,350.448 337,357.5C 339.183,353.118 340.683,348.452 341.5,343.5C 340.729,338.065 338.896,333.065 336,328.5C 334.644,327.62 333.144,327.286 331.5,327.5 Z M 404.5,316.5 C 400.431,324.548 400.598,332.548 405,340.5C 411.009,347.575 413.342,346.242 412,336.5C 409.153,329.835 406.653,323.168 404.5,316.5 Z M 416.5,311.5 C 415.508,314.779 415.341,318.112 416,321.5C 419.334,327.835 421.667,334.502 423,341.5C 427.716,334.732 428.716,327.399 426,319.5C 424.428,314.748 421.261,312.082 416.5,311.5 Z M 398.5,277.5 C 398.956,280.644 399.956,283.644 401.5,286.5C 400.638,288.51 400.138,290.51 400,292.5C 401.697,291.636 402.863,290.303 403.5,288.5C 402.594,284.364 400.928,280.698 398.5,277.5 Z M 427.5,270.5 C 426.611,276.566 427.611,282.399 430.5,288C 430.05,289.285 429.383,290.452 428.5,291.5C 430.765,292.281 432.099,291.281 432.5,288.5C 431.825,285.309 430.658,282.309 429,279.5C 428.223,276.571 428.39,273.737 429.5,271C 428.906,270.536 428.239,270.369 427.5,270.5 Z M 413.5,266.5 C 411.899,267.519 410.899,269.019 410.5,271C 412.62,276.081 414.62,281.248 416.5,286.5C 415.627,288.413 414.627,290.247 413.5,292C 413.833,292.167 414.167,292.333 414.5,292.5C 418.71,289.287 419.543,285.287 417,280.5C 412.738,276.589 411.572,271.922 413.5,266.5 Z M 398.5,277.5 C 398.466,274.801 399.133,272.301 400.5,270C 400.167,269.833 399.833,269.667 399.5,269.5C 397.401,272.066 397.068,274.733 398.5,277.5 Z M 413.5,266.5 C 415.085,265.998 415.585,264.998 415,263.5C 413.961,264.244 413.461,265.244 413.5,266.5 Z"/></g>
<g><path style="opacity:0.565" fill="#262523" d="M 289.5,303.5 C 310.069,303.409 330.735,303.576 351.5,304C 352.931,304.465 354.097,305.299 355,306.5C 356.167,322.1 357,337.766 357.5,353.5C 356.955,360.614 356.789,367.614 357,374.5C 358.873,372.291 361.04,370.458 363.5,369C 402.833,368.333 442.167,368.333 481.5,369C 489.113,372.879 489.113,376.545 481.5,380C 442.5,380.667 403.5,380.667 364.5,380C 361.592,379.311 358.925,378.145 356.5,376.5C 355.618,377.76 354.618,378.926 353.5,380C 336.167,380.667 318.833,380.667 301.5,380C 299.19,378.363 297.69,376.196 297,373.5C 293.343,354.561 290.01,335.561 287,316.5C 286.55,314.481 285.717,312.648 284.5,311C 285.574,308.095 287.241,305.595 289.5,303.5 Z M 318.5,331.5 C 315.67,339.89 315.837,348.224 319,356.5C 322.634,360.919 325.134,360.419 326.5,355C 323.489,347.129 320.822,339.296 318.5,331.5 Z M 331.5,327.5 C 329.537,330.518 329.037,333.851 330,337.5C 333.476,343.781 335.809,350.448 337,357.5C 339.183,353.118 340.683,348.452 341.5,343.5C 340.729,338.065 338.896,333.065 336,328.5C 334.644,327.62 333.144,327.286 331.5,327.5 Z"/></g>
<g><path style="opacity:0.988" fill="#ddcdbb" d="M 483.5,375.5 C 483.389,376.117 483.056,376.617 482.5,377C 442.331,377.831 402.331,377.665 362.5,376.5C 402.864,376.816 443.197,376.483 483.5,375.5 Z"/></g>
<g><path style="opacity:1" fill="#efdecd" d="M 298.5,362.5 C 299.058,364.789 300.224,366.789 302,368.5C 302.595,369.899 302.428,371.232 301.5,372.5C 301.846,373.696 302.346,373.696 303,372.5C 303.483,373.448 303.649,374.448 303.5,375.5C 319.5,375.5 335.5,375.5 351.5,375.5C 352.786,353.281 352.786,331.114 351.5,309C 338.657,308.698 325.824,308.198 313,307.5C 306.938,308.303 300.938,309.303 295,310.5C 294,309.833 293,309.167 292,308.5C 290.625,310.937 290.125,313.603 290.5,316.5C 288.351,313.605 288.017,310.438 289.5,307C 310.543,306.178 331.543,306.345 352.5,307.5C 353.666,330.493 353.833,353.493 353,376.5C 335.907,377.658 318.741,377.825 301.5,377C 299.083,372.549 298.083,367.715 298.5,362.5 Z"/></g>
<g><path style="opacity:1" fill="#f7e4cd" d="M 483.5,375.5 C 443.197,376.483 402.864,376.816 362.5,376.5C 361.201,374.847 361.534,373.347 363.5,372C 403.167,371.333 442.833,371.333 482.5,372C 483.337,373.011 483.67,374.178 483.5,375.5 Z"/></g>
<g><path style="opacity:0.984" fill="#a89e91" d="M 294.5,345.5 C 297.09,349.693 298.09,354.36 297.5,359.5C 296.666,354.9 295.666,350.234 294.5,345.5 Z"/></g>
<g><path style="opacity:1" fill="#fbe8c7" d="M 298.5,362.5 C 297.596,361.791 297.263,360.791 297.5,359.5C 298.09,354.36 297.09,349.693 294.5,345.5C 292.134,335.996 290.801,326.33 290.5,316.5C 290.125,313.603 290.625,310.937 292,308.5C 293,309.167 294,309.833 295,310.5C 300.938,309.303 306.938,308.303 313,307.5C 325.824,308.198 338.657,308.698 351.5,309C 352.786,331.114 352.786,353.281 351.5,375.5C 335.5,375.5 319.5,375.5 303.5,375.5C 303.649,374.448 303.483,373.448 303,372.5C 302.346,373.696 301.846,373.696 301.5,372.5C 302.428,371.232 302.595,369.899 302,368.5C 300.224,366.789 299.058,364.789 298.5,362.5 Z M 318.5,331.5 C 315.67,339.89 315.837,348.224 319,356.5C 322.634,360.919 325.134,360.419 326.5,355C 323.489,347.129 320.822,339.296 318.5,331.5 Z M 331.5,327.5 C 329.537,330.518 329.037,333.851 330,337.5C 333.476,343.781 335.809,350.448 337,357.5C 339.183,353.118 340.683,348.452 341.5,343.5C 340.729,338.065 338.896,333.065 336,328.5C 334.644,327.62 333.144,327.286 331.5,327.5 Z"/></g>
<g><path style="opacity:1" fill="#f3e1c9" d="M 322.5,327.5 C 324.167,328.833 325.833,328.833 327.5,327.5C 326.532,330.445 326.366,333.445 327,336.5C 328.806,340.918 330.806,345.251 333,349.5C 333.499,353.486 333.666,357.486 333.5,361.5C 332.442,360.4 331.608,359.066 331,357.5C 330.457,360.17 330.957,362.67 332.5,365C 332.355,365.772 332.022,366.439 331.5,367C 329.768,366.352 327.935,365.518 326,364.5C 324.374,365.289 322.874,366.289 321.5,367.5C 320.186,366.687 319.019,365.687 318,364.5C 317.517,365.448 317.351,366.448 317.5,367.5C 314.628,367.196 311.961,367.029 309.5,367C 313.394,362.412 314.727,357.245 313.5,351.5C 315.297,355.56 317.963,359.06 321.5,362C 324.025,362.896 326.192,362.396 328,360.5C 328.667,357.5 328.667,354.5 328,351.5C 325.873,346.251 324.04,340.917 322.5,335.5C 322.5,332.833 322.5,330.167 322.5,327.5 Z"/></g>
<g><path style="opacity:0.645" fill="#232221" d="M 322.5,335.5 C 324.04,340.917 325.873,346.251 328,351.5C 328.667,354.5 328.667,357.5 328,360.5C 326.192,362.396 324.025,362.896 321.5,362C 317.963,359.06 315.297,355.56 313.5,351.5C 313.5,350.833 313.5,350.167 313.5,349.5C 312.41,341.608 314.077,334.441 318.5,328C 319.448,327.517 320.448,327.351 321.5,327.5C 321.194,330.385 321.527,333.052 322.5,335.5 Z M 318.5,331.5 C 315.67,339.89 315.837,348.224 319,356.5C 322.634,360.919 325.134,360.419 326.5,355C 323.489,347.129 320.822,339.296 318.5,331.5 Z"/></g>
<g><path style="opacity:0.654" fill="#242322" d="M 333.5,361.5 C 333.666,357.486 333.499,353.486 333,349.5C 330.806,345.251 328.806,340.918 327,336.5C 326.366,333.445 326.532,330.445 327.5,327.5C 333.384,323.942 337.884,325.275 341,331.5C 344.941,342.042 343.774,351.875 337.5,361C 336.207,361.49 334.873,361.657 333.5,361.5 Z M 331.5,327.5 C 329.537,330.518 329.037,333.851 330,337.5C 333.476,343.781 335.809,350.448 337,357.5C 339.183,353.118 340.683,348.452 341.5,343.5C 340.729,338.065 338.896,333.065 336,328.5C 334.644,327.62 333.144,327.286 331.5,327.5 Z"/></g>
<g><path style="opacity:0.992" fill="#c3b7a5" d="M 322.5,327.5 C 322.5,330.167 322.5,332.833 322.5,335.5C 321.527,333.052 321.194,330.385 321.5,327.5C 320.448,327.351 319.448,327.517 318.5,328C 314.077,334.441 312.41,341.608 313.5,349.5C 311.393,341.342 312.726,333.675 317.5,326.5C 319.421,325.359 321.421,325.192 323.5,326C 322.944,326.383 322.611,326.883 322.5,327.5 Z"/></g>
<g><path style="opacity:0.556" fill="#21201f" d="M 278.5,303.5 C 281.188,304.024 282.688,305.691 283,308.5C 284.03,319.973 284.53,331.473 284.5,343C 284.082,353.234 284.082,363.401 284.5,373.5C 283.116,380.612 279.616,381.946 274,377.5C 272.447,354.525 272.113,331.525 273,308.5C 274.107,305.887 275.94,304.22 278.5,303.5 Z"/></g>
<g><path style="opacity:1" fill="#f7e5cd" d="M 275.5,307.5 C 277.167,307.5 278.833,307.5 280.5,307.5C 281.602,330.15 281.768,352.816 281,375.5C 279.604,377.527 277.938,377.86 276,376.5C 275.5,353.502 275.333,330.502 275.5,307.5 Z"/></g>
<g><path style="opacity:0.564" fill="#252422" d="M 282.5,288.5 C 305.405,288.412 328.405,288.579 351.5,289C 356.038,290.713 357.538,293.88 356,298.5C 355.097,299.701 353.931,300.535 352.5,301C 328.5,301.667 304.5,301.667 280.5,301C 276.818,299.68 275.318,297.18 276,293.5C 277.965,291.45 280.132,289.783 282.5,288.5 Z"/></g>
<g><path style="opacity:0.992" fill="#e6d7ca" d="M 281.5,291.5 C 304.836,291.333 328.169,291.5 351.5,292C 353.698,293.67 354.032,295.67 352.5,298C 328.167,298.667 303.833,298.667 279.5,298C 277.933,295.094 278.6,292.928 281.5,291.5 Z"/></g>
<g><path style="opacity:1" fill="#fde9cb" d="M 282.5,293.5 C 303.503,293.333 324.503,293.5 345.5,294C 348.043,294.14 350.377,294.806 352.5,296C 328.981,297.655 305.314,297.988 281.5,297C 281.167,296.667 280.833,296.333 280.5,296C 281.381,295.292 282.047,294.458 282.5,293.5 Z"/></g>
<g><path style="opacity:1" fill="#f2e2cd" d="M 276.5,253.5 C 278.144,253.286 279.644,253.62 281,254.5C 281.667,263.833 281.667,273.167 281,282.5C 279.333,283.833 277.667,283.833 276,282.5C 275.218,272.786 275.385,263.12 276.5,253.5 Z"/></g>
<g><path style="opacity:0.611" fill="#2d2b29" d="M 292.5,274.5 C 312.476,275.285 332.476,275.785 352.5,276C 357.233,278.922 357.566,282.255 353.5,286C 333.472,286.281 313.638,286.781 294,287.5C 285.893,284.067 285.393,279.733 292.5,274.5 Z"/></g>
<g><path style="opacity:1" fill="#f5e5d1" d="M 291.5,278.5 C 311.836,278.333 332.169,278.5 352.5,279C 353.38,280.356 353.714,281.856 353.5,283.5C 332.5,283.5 311.5,283.5 290.5,283.5C 290.366,281.708 290.699,280.042 291.5,278.5 Z"/></g>
<g><path style="opacity:0.622" fill="#262524" d="M 324.5,251.5 C 325.122,252.627 325.955,253.627 327,254.5C 327.667,259.5 327.667,264.5 327,269.5C 324.177,274.395 320.843,274.729 317,270.5C 312.873,263.196 314.04,257.03 320.5,252C 321.793,251.51 323.127,251.343 324.5,251.5 Z"/></g>
<g><path style="opacity:1" fill="#e9d9c7" d="M 319.5,254.5 C 321.167,254.5 322.833,254.5 324.5,254.5C 324.666,259.511 324.499,264.511 324,269.5C 320.916,270.959 318.916,269.959 318,266.5C 317.081,262.269 317.581,258.269 319.5,254.5 Z"/></g>
<g><path style="opacity:0.599" fill="#21201f" d="M 304.5,251.5 C 308.886,250.769 311.72,252.436 313,256.5C 313.667,260.167 313.667,263.833 313,267.5C 310.3,273.396 306.633,274.396 302,270.5C 301.833,269.333 301.667,268.167 301.5,267C 302.13,262.871 302.297,258.704 302,254.5C 303.045,253.627 303.878,252.627 304.5,251.5 Z"/></g>
<g><path style="opacity:1" fill="#eadaca" d="M 305.5,253.5 C 307.39,253.297 308.89,253.963 310,255.5C 310.667,259.833 310.667,264.167 310,268.5C 308.333,271.167 306.667,271.167 305,268.5C 304.222,263.416 304.389,258.416 305.5,253.5 Z"/></g>
<g><path style="opacity:0.629" fill="#212120" d="M 364.5,250.5 C 401.839,251.791 439.506,251.791 477.5,250.5C 482.937,250.435 486.103,253.101 487,258.5C 487.167,265.667 487.333,272.833 487.5,280C 486.172,305.905 486.172,331.238 487.5,356C 487.281,360.443 485.281,363.776 481.5,366C 472.167,366.667 462.833,366.667 453.5,366C 447.279,361.719 444.113,355.886 444,348.5C 444.833,347.667 445.667,346.833 446.5,346C 467.753,346.418 476.253,336.251 472,315.5C 470.467,309.094 466.633,306.094 460.5,306.5C 474.43,316.74 475.097,327.907 462.5,340C 459.395,342.964 456.228,343.13 453,340.5C 452.833,339.167 452.667,337.833 452.5,336.5C 454.054,328.598 454.887,320.598 455,312.5C 455.955,310.051 457.455,308.051 459.5,306.5C 458.687,305.186 457.687,304.019 456.5,303C 440.548,301.848 424.548,301.015 408.5,300.5C 397.549,301.35 386.716,302.016 376,302.5C 374.003,313.553 374.336,324.553 377,335.5C 378.901,340.302 381.568,344.636 385,348.5C 385.667,350.5 385.667,352.5 385,354.5C 382.996,359.034 380.163,362.867 376.5,366C 371.382,366.888 366.382,366.555 361.5,365C 361,364.5 360.5,364 360,363.5C 358.741,333.083 358.241,303.249 358.5,274C 359.186,267.517 359.686,261.017 360,254.5C 361.397,252.93 362.897,251.596 364.5,250.5 Z M 404.5,316.5 C 400.431,324.548 400.598,332.548 405,340.5C 411.009,347.575 413.342,346.242 412,336.5C 409.153,329.835 406.653,323.168 404.5,316.5 Z M 416.5,311.5 C 415.508,314.779 415.341,318.112 416,321.5C 419.334,327.835 421.667,334.502 423,341.5C 427.716,334.732 428.716,327.399 426,319.5C 424.428,314.748 421.261,312.082 416.5,311.5 Z M 398.5,277.5 C 398.956,280.644 399.956,283.644 401.5,286.5C 400.638,288.51 400.138,290.51 400,292.5C 401.697,291.636 402.863,290.303 403.5,288.5C 402.594,284.364 400.928,280.698 398.5,277.5 Z M 427.5,270.5 C 426.611,276.566 427.611,282.399 430.5,288C 430.05,289.285 429.383,290.452 428.5,291.5C 430.765,292.281 432.099,291.281 432.5,288.5C 431.825,285.309 430.658,282.309 429,279.5C 428.223,276.571 428.39,273.737 429.5,271C 428.906,270.536 428.239,270.369 427.5,270.5 Z M 413.5,266.5 C 411.899,267.519 410.899,269.019 410.5,271C 412.62,276.081 414.62,281.248 416.5,286.5C 415.627,288.413 414.627,290.247 413.5,292C 413.833,292.167 414.167,292.333 414.5,292.5C 418.71,289.287 419.543,285.287 417,280.5C 412.738,276.589 411.572,271.922 413.5,266.5 Z M 398.5,277.5 C 398.466,274.801 399.133,272.301 400.5,270C 400.167,269.833 399.833,269.667 399.5,269.5C 397.401,272.066 397.068,274.733 398.5,277.5 Z M 413.5,266.5 C 415.085,265.998 415.585,264.998 415,263.5C 413.961,264.244 413.461,265.244 413.5,266.5 Z"/></g>
<g><path style="opacity:0.664" fill="#282725" d="M 389.5,356.5 C 406.503,356.333 423.503,356.5 440.5,357C 447.022,359.366 447.022,362.033 440.5,365C 423.167,365.667 405.833,365.667 388.5,365C 384.446,361.66 384.779,358.826 389.5,356.5 Z"/></g>
<g><path style="opacity:1" fill="#e3d4c5" d="M 388.5,359.5 C 406.167,359.5 423.833,359.5 441.5,359.5C 441.64,361.124 440.973,362.29 439.5,363C 422.833,363.667 406.167,363.667 389.5,363C 388.663,361.989 388.33,360.822 388.5,359.5 Z"/></g>
<g><path style="opacity:1" fill="#dccdbb" d="M 425.5,254.5 C 444.5,254.5 463.5,254.5 482.5,254.5C 483.82,272.115 484.487,289.948 484.5,308C 484.333,325.5 484.167,343 484,360.5C 483.626,361.416 483.126,362.25 482.5,363C 472.5,363.667 462.5,363.667 452.5,363C 441.075,350.718 443.742,345.384 460.5,347C 461.244,345.961 462.244,345.461 463.5,345.5C 461.447,348.591 458.447,350.091 454.5,350C 454.018,351.008 453.852,352.175 454,353.5C 449.267,355.71 449.6,358.377 455,361.5C 456.02,360.109 456.853,358.609 457.5,357C 458.448,356.517 459.448,356.351 460.5,356.5C 460.5,358.167 460.5,359.833 460.5,361.5C 467.175,361.666 473.842,361.5 480.5,361C 481,360.5 481.5,360 482,359.5C 482.667,327.5 482.667,295.5 482,263.5C 481.178,260.883 480.678,258.216 480.5,255.5C 466.496,255.333 452.496,255.5 438.5,256C 437.975,256.692 437.308,257.192 436.5,257.5C 433.494,254.943 430.494,254.943 427.5,257.5C 426.081,256.995 425.415,255.995 425.5,254.5 Z"/></g>
<g><path style="opacity:1" fill="#f5e3c9" d="M 458.5,310.5 C 465.551,311.218 468.884,315.218 468.5,322.5C 468.568,330.72 464.902,336.387 457.5,339.5C 455.734,339.566 454.734,338.732 454.5,337C 456.803,328.279 458.136,319.446 458.5,310.5 Z"/></g>
<g><path style="opacity:0.637" fill="#1f1f1e" d="M 406.5,302.5 C 419.594,302.882 433.261,303.382 447.5,304C 448.931,304.465 450.097,305.299 451,306.5C 456.009,342.843 440.342,358.177 404,352.5C 403.261,353.574 402.261,354.241 401,354.5C 384.394,347.748 376.227,334.915 376.5,316C 376.233,310.764 378.233,306.764 382.5,304C 390.677,303.829 398.677,303.329 406.5,302.5 Z M 404.5,316.5 C 400.431,324.548 400.598,332.548 405,340.5C 411.009,347.575 413.342,346.242 412,336.5C 409.153,329.835 406.653,323.168 404.5,316.5 Z M 416.5,311.5 C 415.508,314.779 415.341,318.112 416,321.5C 419.334,327.835 421.667,334.502 423,341.5C 427.716,334.732 428.716,327.399 426,319.5C 424.428,314.748 421.261,312.082 416.5,311.5 Z"/></g>
<g><path style="opacity:1" fill="#edddc4" d="M 446.5,306.5 C 447.167,306.5 447.5,306.833 447.5,307.5C 453.412,340.431 439.412,354.931 405.5,351C 403.292,350.809 401.292,350.309 399.5,349.5C 407.976,349.306 408.476,347.64 401,344.5C 399.711,341.649 399.211,338.649 399.5,335.5C 401.462,339.984 404.462,343.817 408.5,347C 411.804,348.042 413.971,346.875 415,343.5C 415.667,340.833 415.667,338.167 415,335.5C 409.871,328.283 407.704,320.283 408.5,311.5C 404.26,312.738 401.26,315.405 399.5,319.5C 400.138,317.54 400.138,315.707 399.5,314C 393.708,314.093 388.208,313.259 383,311.5C 382.272,314.23 382.438,316.897 383.5,319.5C 383.154,320.696 382.654,320.696 382,319.5C 381.364,324.94 381.864,330.273 383.5,335.5C 382.188,333.304 381.021,330.97 380,328.5C 379.333,321.833 379.333,315.167 380,308.5C 380.383,307.944 380.883,307.611 381.5,307.5C 403.121,306.522 424.788,306.189 446.5,306.5 Z M 404.5,316.5 C 400.431,324.548 400.598,332.548 405,340.5C 411.009,347.575 413.342,346.242 412,336.5C 409.153,329.835 406.653,323.168 404.5,316.5 Z M 416.5,311.5 C 415.508,314.779 415.341,318.112 416,321.5C 419.334,327.835 421.667,334.502 423,341.5C 427.716,334.732 428.716,327.399 426,319.5C 424.428,314.748 421.261,312.082 416.5,311.5 Z"/></g>
<g><path style="opacity:1" fill="#f8e5c7" d="M 399.5,319.5 C 399.5,324.833 399.5,330.167 399.5,335.5C 399.211,338.649 399.711,341.649 401,344.5C 408.476,347.64 407.976,349.306 399.5,349.5C 391.358,348.024 386.025,343.357 383.5,335.5C 381.864,330.273 381.364,324.94 382,319.5C 382.654,320.696 383.154,320.696 383.5,319.5C 382.438,316.897 382.272,314.23 383,311.5C 388.208,313.259 393.708,314.093 399.5,314C 400.138,315.707 400.138,317.54 399.5,319.5 Z"/></g>
<g><path style="opacity:0.664" fill="#292825" d="M 399.5,335.5 C 399.5,330.167 399.5,324.833 399.5,319.5C 401.26,315.405 404.26,312.738 408.5,311.5C 407.704,320.283 409.871,328.283 415,335.5C 415.667,338.167 415.667,340.833 415,343.5C 413.971,346.875 411.804,348.042 408.5,347C 404.462,343.817 401.462,339.984 399.5,335.5 Z M 404.5,316.5 C 400.431,324.548 400.598,332.548 405,340.5C 411.009,347.575 413.342,346.242 412,336.5C 409.153,329.835 406.653,323.168 404.5,316.5 Z"/></g>
<g><path style="opacity:0.654" fill="#252422" d="M 425.5,312.5 C 425.5,312.833 425.5,313.167 425.5,313.5C 432.325,323.577 432.159,333.577 425,343.5C 423.758,344.872 422.258,345.872 420.5,346.5C 420.354,338.248 418.187,330.582 414,323.5C 411.336,317.98 412.169,313.147 416.5,309C 420.132,308.481 423.132,309.647 425.5,312.5 Z M 416.5,311.5 C 415.508,314.779 415.341,318.112 416,321.5C 419.334,327.835 421.667,334.502 423,341.5C 427.716,334.732 428.716,327.399 426,319.5C 424.428,314.748 421.261,312.082 416.5,311.5 Z"/></g>
<g><path style="opacity:1" fill="#fce9c9" d="M 447.5,307.5 C 449.018,315.274 448.518,322.94 446,330.5C 445,330.833 444,331.167 443,331.5C 442.536,337.175 441.869,337.508 441,332.5C 440.517,333.448 440.351,334.448 440.5,335.5C 437.489,335.827 434.989,337.161 433,339.5C 432.075,338.953 431.242,338.287 430.5,337.5C 431.882,330.078 431.382,322.745 429,315.5C 428.184,314.177 427.017,313.511 425.5,313.5C 425.5,313.167 425.5,312.833 425.5,312.5C 425.714,310.856 425.38,309.356 424.5,308C 432.159,307.5 439.826,307.334 447.5,307.5 Z"/></g>
<g><path style="opacity:0.965" fill="#887f6b" d="M 446.5,306.5 C 424.788,306.189 403.121,306.522 381.5,307.5C 381.611,306.883 381.944,306.383 382.5,306C 404.004,305.171 425.337,305.337 446.5,306.5 Z"/></g>
<g><path style="opacity:0.988" fill="#d0c3b6" d="M 431.5,298.5 C 435.319,297.834 439.319,297.501 443.5,297.5C 449.006,297.28 454.34,297.947 459.5,299.5C 461.297,300.393 462.63,301.726 463.5,303.5C 460.07,302.286 456.736,300.786 453.5,299C 446.174,298.5 438.841,298.334 431.5,298.5 Z"/></g>
<g><path style="opacity:0.996" fill="#cfc1ae" d="M 482.5,254.5 C 463.5,254.5 444.5,254.5 425.5,254.5C 420.642,254.932 415.809,255.599 411,256.5C 395.191,255.538 379.358,255.204 363.5,255.5C 363.5,261.5 363.5,267.5 363.5,273.5C 363.5,302.833 363.5,332.167 363.5,361.5C 367.767,361.797 371.934,361.464 376,360.5C 378.207,357.468 379.707,354.134 380.5,350.5C 379.129,348.319 378.129,345.986 377.5,343.5C 380.465,345.423 382.465,348.09 383.5,351.5C 381.307,355.379 378.974,359.212 376.5,363C 371.581,363.802 366.748,363.635 362,362.5C 361.333,326.833 361.333,291.167 362,255.5C 362.5,255 363,254.5 363.5,254C 403.335,253.169 443.002,253.335 482.5,254.5 Z"/></g>
<g><path style="opacity:1" fill="#eddcc7" d="M 415.5,258.5 C 416.5,258.5 417.5,258.5 418.5,258.5C 418.92,263.355 420.087,268.022 422,272.5C 422.671,271.748 423.504,271.414 424.5,271.5C 424.014,276.98 425.014,282.147 427.5,287C 425.97,289.811 425.636,292.644 426.5,295.5C 424.179,295.342 422.346,294.342 421,292.5C 419.736,294.607 417.903,295.607 415.5,295.5C 421.977,288.828 422.144,281.828 416,274.5C 415.071,270.569 415.904,267.069 418.5,264C 418.275,262.379 417.442,261.212 416,260.5C 411.503,262.835 409.003,266.501 408.5,271.5C 409.617,276.393 411.284,281.06 413.5,285.5C 413.125,287.916 412.459,290.25 411.5,292.5C 411.516,294.516 412.516,295.516 414.5,295.5C 414.611,296.117 414.944,296.617 415.5,297C 418.365,297.183 421.031,297.683 423.5,298.5C 407.163,298.333 390.83,298.5 374.5,299C 373.107,300.171 372.273,301.671 372,303.5C 371.171,313.577 371.671,323.577 373.5,333.5C 370.782,328.634 369.115,323.301 368.5,317.5C 369.883,310.906 370.716,304.24 371,297.5C 371.333,297.833 371.667,298.167 372,298.5C 379.831,297.831 387.664,296.831 395.5,295.5C 396.495,290.683 396.495,285.683 395.5,280.5C 396.999,282.164 397.999,284.164 398.5,286.5C 397.058,289.028 396.558,291.695 397,294.5C 402.427,295.428 405.26,292.928 405.5,287C 403.907,283.134 402.574,279.134 401.5,275C 401.482,272.621 402.149,270.454 403.5,268.5C 402.307,266.616 400.641,266.116 398.5,267C 396.93,268.397 395.596,269.897 394.5,271.5C 395.102,264.735 398.435,262.902 404.5,266C 406.224,266.448 406.891,267.282 406.5,268.5C 408.147,263.819 411.147,260.486 415.5,258.5 Z M 413.5,266.5 C 411.899,267.519 410.899,269.019 410.5,271C 412.62,276.081 414.62,281.248 416.5,286.5C 415.627,288.413 414.627,290.247 413.5,292C 413.833,292.167 414.167,292.333 414.5,292.5C 418.71,289.287 419.543,285.287 417,280.5C 412.738,276.589 411.572,271.922 413.5,266.5 Z M 413.5,266.5 C 415.085,265.998 415.585,264.998 415,263.5C 413.961,264.244 413.461,265.244 413.5,266.5 Z"/></g>
<g><path style="opacity:0.649" fill="#272624" d="M 395.5,280.5 C 394.597,277.609 394.264,274.609 394.5,271.5C 395.596,269.897 396.93,268.397 398.5,267C 400.641,266.116 402.307,266.616 403.5,268.5C 402.149,270.454 401.482,272.621 401.5,275C 402.574,279.134 403.907,283.134 405.5,287C 405.26,292.928 402.427,295.428 397,294.5C 396.558,291.695 397.058,289.028 398.5,286.5C 397.999,284.164 396.999,282.164 395.5,280.5 Z M 398.5,277.5 C 398.956,280.644 399.956,283.644 401.5,286.5C 400.638,288.51 400.138,290.51 400,292.5C 401.697,291.636 402.863,290.303 403.5,288.5C 402.594,284.364 400.928,280.698 398.5,277.5 Z M 398.5,277.5 C 398.466,274.801 399.133,272.301 400.5,270C 400.167,269.833 399.833,269.667 399.5,269.5C 397.401,272.066 397.068,274.733 398.5,277.5 Z"/></g>
<g><path style="opacity:0.677" fill="#222220" d="M 426.5,295.5 C 425.636,292.644 425.97,289.811 427.5,287C 425.014,282.147 424.014,276.98 424.5,271.5C 425.581,267.217 428.081,265.884 432,267.5C 432.528,270.219 432.028,272.719 430.5,275C 432.271,279.039 433.605,283.206 434.5,287.5C 434.158,292.508 431.492,295.175 426.5,295.5 Z M 427.5,270.5 C 426.611,276.566 427.611,282.399 430.5,288C 430.05,289.285 429.383,290.452 428.5,291.5C 430.765,292.281 432.099,291.281 432.5,288.5C 431.825,285.309 430.658,282.309 429,279.5C 428.223,276.571 428.39,273.737 429.5,271C 428.906,270.536 428.239,270.369 427.5,270.5 Z"/></g>
<g><path style="opacity:0.683" fill="#252422" d="M 415.5,295.5 C 415.167,295.5 414.833,295.5 414.5,295.5C 412.516,295.516 411.516,294.516 411.5,292.5C 412.459,290.25 413.125,287.916 413.5,285.5C 411.284,281.06 409.617,276.393 408.5,271.5C 409.003,266.501 411.503,262.835 416,260.5C 417.442,261.212 418.275,262.379 418.5,264C 415.904,267.069 415.071,270.569 416,274.5C 422.144,281.828 421.977,288.828 415.5,295.5 Z M 413.5,266.5 C 411.899,267.519 410.899,269.019 410.5,271C 412.62,276.081 414.62,281.248 416.5,286.5C 415.627,288.413 414.627,290.247 413.5,292C 413.833,292.167 414.167,292.333 414.5,292.5C 418.71,289.287 419.543,285.287 417,280.5C 412.738,276.589 411.572,271.922 413.5,266.5 Z M 413.5,266.5 C 415.085,265.998 415.585,264.998 415,263.5C 413.961,264.244 413.461,265.244 413.5,266.5 Z"/></g>
<g><path style="opacity:1" fill="#fee9c6" d="M 465.5,303.5 C 464.833,303.5 464.167,303.5 463.5,303.5C 462.63,301.726 461.297,300.393 459.5,299.5C 460.287,297.896 461.62,297.229 463.5,297.5C 463.5,296.167 463.5,294.833 463.5,293.5C 460.08,293.074 457.247,294.074 455,296.5C 449.266,296.811 443.432,296.311 437.5,295C 438.126,294.25 438.626,293.416 439,292.5C 439.674,293.578 440.674,294.245 442,294.5C 445.151,293.907 448.318,293.407 451.5,293C 455.072,290.363 459.072,288.697 463.5,288C 457.776,287.412 452.276,288.245 447,290.5C 443.915,288.16 440.915,288.493 438,291.5C 435.224,286.845 435.057,282.179 437.5,277.5C 436.145,276.325 436.312,275.325 438,274.5C 438.333,275.167 438.667,275.833 439,276.5C 439.494,274.866 439.66,273.199 439.5,271.5C 441.144,271.714 442.644,271.38 444,270.5C 444.551,266.149 445.718,262.149 447.5,258.5C 458.167,258.167 468.833,257.833 479.5,257.5C 480.427,275.159 480.594,292.825 480,310.5C 478.286,309.075 476.953,309.408 476,311.5C 474.699,309.635 474.365,307.635 475,305.5C 475.317,307.301 475.984,307.634 477,306.5C 477.591,305.517 477.257,304.85 476,304.5C 472.535,304.604 469.035,304.271 465.5,303.5 Z"/></g>
<g><path style="opacity:1" fill="#fde9c7" d="M 415.5,258.5 C 411.147,260.486 408.147,263.819 406.5,268.5C 406.891,267.282 406.224,266.448 404.5,266C 398.435,262.902 395.102,264.735 394.5,271.5C 394.264,274.609 394.597,277.609 395.5,280.5C 396.495,285.683 396.495,290.683 395.5,295.5C 387.664,296.831 379.831,297.831 372,298.5C 371.667,298.167 371.333,297.833 371,297.5C 370.716,304.24 369.883,310.906 368.5,317.5C 369.115,323.301 370.782,328.634 373.5,333.5C 374.833,336.833 376.167,340.167 377.5,343.5C 378.129,345.986 379.129,348.319 380.5,350.5C 379.707,354.134 378.207,357.468 376,360.5C 371.934,361.464 367.767,361.797 363.5,361.5C 363.5,332.167 363.5,302.833 363.5,273.5C 364.194,270.579 365.027,267.579 366,264.5C 366.684,267.38 366.517,270.213 365.5,273C 366.032,275.02 367.365,275.853 369.5,275.5C 369.116,271.253 368.449,267.086 367.5,263C 370.022,261.314 369.689,259.981 366.5,259C 371.981,257.551 377.648,257.051 383.5,257.5C 383.5,258.5 383.5,259.5 383.5,260.5C 382.448,260.351 381.448,260.517 380.5,261C 387.275,262.181 388.608,265.347 384.5,270.5C 386.32,274.571 385.32,277.738 381.5,280C 383.004,281.491 383.837,283.324 384,285.5C 384.782,282.924 386.282,280.924 388.5,279.5C 389.755,274.345 390.755,269.178 391.5,264C 395.913,261.375 400.58,260.708 405.5,262C 408.292,258.65 411.626,257.484 415.5,258.5 Z"/></g>
<g><path style="opacity:1" fill="#fbe8c9" d="M 425.5,254.5 C 425.415,255.995 426.081,256.995 427.5,257.5C 430.494,254.943 433.494,254.943 436.5,257.5C 437.308,257.192 437.975,256.692 438.5,256C 452.496,255.5 466.496,255.333 480.5,255.5C 480.678,258.216 481.178,260.883 482,263.5C 482.667,295.5 482.667,327.5 482,359.5C 481.5,360 481,360.5 480.5,361C 473.842,361.5 467.175,361.666 460.5,361.5C 460.5,359.833 460.5,358.167 460.5,356.5C 459.448,356.351 458.448,356.517 457.5,357C 456.853,358.609 456.02,360.109 455,361.5C 449.6,358.377 449.267,355.71 454,353.5C 453.852,352.175 454.018,351.008 454.5,350C 458.447,350.091 461.447,348.591 463.5,345.5C 471.513,340.329 475.846,332.829 476.5,323C 475.706,314.699 472.04,308.199 465.5,303.5C 469.035,304.271 472.535,304.604 476,304.5C 477.257,304.85 477.591,305.517 477,306.5C 475.984,307.634 475.317,307.301 475,305.5C 474.365,307.635 474.699,309.635 476,311.5C 476.953,309.408 478.286,309.075 480,310.5C 480.594,292.825 480.427,275.159 479.5,257.5C 468.833,257.833 458.167,258.167 447.5,258.5C 445.718,262.149 444.551,266.149 444,270.5C 442.644,271.38 441.144,271.714 439.5,271.5C 439.66,273.199 439.494,274.866 439,276.5C 438.667,275.833 438.333,275.167 438,274.5C 436.312,275.325 436.145,276.325 437.5,277.5C 435.057,282.179 435.224,286.845 438,291.5C 440.915,288.493 443.915,288.16 447,290.5C 452.276,288.245 457.776,287.412 463.5,288C 459.072,288.697 455.072,290.363 451.5,293C 448.318,293.407 445.151,293.907 442,294.5C 440.674,294.245 439.674,293.578 439,292.5C 438.626,293.416 438.126,294.25 437.5,295C 443.432,296.311 449.266,296.811 455,296.5C 457.247,294.074 460.08,293.074 463.5,293.5C 463.5,294.833 463.5,296.167 463.5,297.5C 461.62,297.229 460.287,297.896 459.5,299.5C 454.34,297.947 449.006,297.28 443.5,297.5C 439.319,297.501 435.319,297.834 431.5,298.5C 428.833,298.5 426.167,298.5 423.5,298.5C 421.031,297.683 418.365,297.183 415.5,297C 414.944,296.617 414.611,296.117 414.5,295.5C 414.833,295.5 415.167,295.5 415.5,295.5C 417.903,295.607 419.736,294.607 421,292.5C 422.346,294.342 424.179,295.342 426.5,295.5C 431.492,295.175 434.158,292.508 434.5,287.5C 433.605,283.206 432.271,279.039 430.5,275C 432.028,272.719 432.528,270.219 432,267.5C 428.081,265.884 425.581,267.217 424.5,271.5C 423.504,271.414 422.671,271.748 422,272.5C 420.087,268.022 418.92,263.355 418.5,258.5C 417.5,258.5 416.5,258.5 415.5,258.5C 411.626,257.484 408.292,258.65 405.5,262C 400.58,260.708 395.913,261.375 391.5,264C 390.755,269.178 389.755,274.345 388.5,279.5C 386.282,280.924 384.782,282.924 384,285.5C 383.837,283.324 383.004,281.491 381.5,280C 385.32,277.738 386.32,274.571 384.5,270.5C 388.608,265.347 387.275,262.181 380.5,261C 381.448,260.517 382.448,260.351 383.5,260.5C 383.5,259.5 383.5,258.5 383.5,257.5C 377.648,257.051 371.981,257.551 366.5,259C 369.689,259.981 370.022,261.314 367.5,263C 368.449,267.086 369.116,271.253 369.5,275.5C 367.365,275.853 366.032,275.02 365.5,273C 366.517,270.213 366.684,267.38 366,264.5C 365.027,267.579 364.194,270.579 363.5,273.5C 363.5,267.5 363.5,261.5 363.5,255.5C 379.358,255.204 395.191,255.538 411,256.5C 415.809,255.599 420.642,254.932 425.5,254.5 Z M 398.5,277.5 C 398.466,274.801 399.133,272.301 400.5,270C 400.167,269.833 399.833,269.667 399.5,269.5C 397.401,272.066 397.068,274.733 398.5,277.5 Z M 413.5,266.5 C 415.085,265.998 415.585,264.998 415,263.5C 413.961,264.244 413.461,265.244 413.5,266.5 Z"/></g>
<g><path style="opacity:0.623" fill="#272624" d="M 349.5,250.5 C 355.23,252.108 357.563,255.941 356.5,262C 356.507,265.258 356.007,268.425 355,271.5C 350.583,275.949 347.25,275.283 345,269.5C 343.278,262.245 344.778,255.911 349.5,250.5 Z"/></g>
<g><path style="opacity:1" fill="#f0dfcd" d="M 349.5,253.5 C 350.822,253.33 351.989,253.663 353,254.5C 353.667,259.5 353.667,264.5 353,269.5C 351.333,270.833 349.667,270.833 348,269.5C 346.946,263.886 347.446,258.552 349.5,253.5 Z"/></g>
<g><path style="opacity:0.633" fill="#1d1d1c" d="M 335.5,250.5 C 341.034,252.175 343.368,256.009 342.5,262C 343.299,267.67 341.132,271.504 336,273.5C 331.086,271.267 329.252,267.434 330.5,262C 329.392,256.78 331.059,252.947 335.5,250.5 Z"/></g>
<g><path style="opacity:1" fill="#d3c6be" d="M 338.5,254.5 C 339.65,259.316 339.816,264.316 339,269.5C 336.733,270.935 334.733,270.602 333,268.5C 332.186,263.98 332.353,259.646 333.5,255.5C 333.335,258.85 333.502,262.183 334,265.5C 334.508,267.904 335.675,268.571 337.5,267.5C 338.492,263.217 338.826,258.884 338.5,254.5 Z"/></g>
<g><path style="opacity:1" fill="#f9e7cb" d="M 338.5,254.5 C 338.826,258.884 338.492,263.217 337.5,267.5C 335.675,268.571 334.508,267.904 334,265.5C 333.502,262.183 333.335,258.85 333.5,255.5C 334.879,253.403 336.545,253.07 338.5,254.5 Z"/></g>
<g><path style="opacity:0.631" fill="#272625" d="M 291.5,250.5 C 294.263,250.744 296.429,252.077 298,254.5C 300.053,260.386 299.719,266.052 297,271.5C 293.195,274.539 290.195,273.872 288,269.5C 287.333,264.5 287.333,259.5 288,254.5C 289.376,253.295 290.542,251.962 291.5,250.5 Z"/></g>
<g><path style="opacity:1" fill="#f4e2cb" d="M 291.5,253.5 C 293.39,253.297 294.89,253.963 296,255.5C 296.667,259.833 296.667,264.167 296,268.5C 294.604,270.527 292.938,270.86 291,269.5C 290.219,264.083 290.385,258.75 291.5,253.5 Z"/></g>
<g><path style="opacity:0.635" fill="#1d1d1c" d="M 262.5,250.5 C 265.099,250.549 267.266,251.549 269,253.5C 269.993,256.408 270.493,259.408 270.5,262.5C 270.355,297.154 270.355,331.487 270.5,365.5C 270.552,369.587 270.052,373.587 269,377.5C 265.381,380.343 262.048,380.01 259,376.5C 257.389,335.614 257.389,294.948 259,254.5C 259.69,252.65 260.856,251.316 262.5,250.5 Z"/></g>
<g><path style="opacity:1" fill="#eadac9" d="M 262.5,253.5 C 264.451,253.227 265.951,253.893 267,255.5C 267.667,295.5 267.667,335.5 267,375.5C 265,378.167 263,378.167 261,375.5C 260.333,335.5 260.333,295.5 261,255.5C 261.717,254.956 262.217,254.289 262.5,253.5 Z"/></g>
<g><path style="opacity:1" fill="#fde9ca" d="M 262.5,255.5 C 263.5,255.5 264.5,255.5 265.5,255.5C 265.5,295.167 265.5,334.833 265.5,374.5C 264.5,374.5 263.5,374.5 262.5,374.5C 262.5,334.833 262.5,295.167 262.5,255.5 Z"/></g>
<g><path style="opacity:0.664" fill="#272624" d="M 233.5,250.5 C 236.785,250.269 239.285,251.603 241,254.5C 241.667,295.5 241.667,336.5 241,377.5C 234.5,382.176 230.334,380.509 228.5,372.5C 228.794,333.986 229.294,294.653 230,254.5C 230.69,252.65 231.856,251.316 233.5,250.5 Z"/></g>
<g><path style="opacity:1" fill="#f1dfc8" d="M 233.5,253.5 C 235.144,253.286 236.644,253.62 238,254.5C 238.667,295.167 238.667,335.833 238,376.5C 235.679,379.033 233.679,378.699 232,375.5C 231.333,335.5 231.333,295.5 232,255.5C 232.717,254.956 233.217,254.289 233.5,253.5 Z"/></g>
<g><path style="opacity:0.649" fill="#222220" d="M 248.5,249.5 C 252.043,249.872 254.21,251.872 255,255.5C 255.179,266.41 255.679,277.243 256.5,288C 255.719,315.702 255.719,343.369 256.5,371C 256.321,375.515 254.154,378.682 250,380.5C 247.085,379.917 245.085,378.25 244,375.5C 242.763,335.711 242.763,295.711 244,255.5C 245.332,253.34 246.832,251.34 248.5,249.5 Z"/></g>
<g><path style="opacity:1" fill="#f3e1cb" d="M 248.5,253.5 C 250.592,253.561 252.092,254.561 253,256.5C 253.667,295.167 253.667,333.833 253,372.5C 252.709,377.553 250.709,378.553 247,375.5C 246.333,335.5 246.333,295.5 247,255.5C 247.717,254.956 248.217,254.289 248.5,253.5 Z"/></g>
<g><path style="opacity:0.99" fill="#e5d6c6" d="M 271.5,231.5 C 274.966,235.074 277.966,239.074 280.5,243.5C 280.291,244.086 279.957,244.586 279.5,245C 263.926,245.824 248.426,245.657 233,244.5C 231.996,241.007 232.496,237.841 234.5,235C 242.655,234.117 250.655,232.45 258.5,230C 262.5,229.333 266.5,229.333 270.5,230C 271.056,230.383 271.389,230.883 271.5,231.5 Z"/></g>
<g><path style="opacity:0.605" fill="#1b1b1b" d="M 335.5,243.5 C 337.681,243.284 339.347,244.117 340.5,246C 338.863,248.31 336.696,249.81 334,250.5C 333.167,249.667 332.333,248.833 331.5,248C 333.041,246.629 334.375,245.129 335.5,243.5 Z"/></g>
<g><path style="opacity:1" fill="#fde9c6" d="M 271.5,231.5 C 273.622,234.957 275.289,238.623 276.5,242.5C 269.583,243.621 262.583,244.288 255.5,244.5C 248.041,244.26 240.874,243.594 234,242.5C 233.333,241.167 233.333,239.833 234,238.5C 235.398,239.051 236.732,239.384 238,239.5C 238.309,238.234 238.809,237.067 239.5,236C 243.5,235.667 247.5,235.333 251.5,235C 254.177,234.751 256.51,233.751 258.5,232C 262.821,231.501 267.154,231.334 271.5,231.5 Z"/></g>
<g><path style="opacity:1" fill="#e6d5c0" d="M 399.5,231.5 C 409.839,231.334 420.172,231.5 430.5,232C 431.428,232.388 432.095,233.055 432.5,234C 429.485,236.682 426.819,239.682 424.5,243C 422.956,243.29 421.623,243.956 420.5,245C 409.833,245.667 399.167,245.667 388.5,245C 387.465,243.493 387.632,241.993 389,240.5C 392.103,236.886 395.603,233.886 399.5,231.5 Z"/></g>
<g><path style="opacity:1" fill="#fde9c6" d="M 423.5,233.5 C 426.07,235.177 426.07,237.01 423.5,239C 422.167,239.667 420.833,240.333 419.5,241C 411.548,242.164 403.548,242.998 395.5,243.5C 393.611,243.564 391.944,243.064 390.5,242C 392.916,241.339 394.582,239.839 395.5,237.5C 396.768,238.428 398.101,238.595 399.5,238C 398.167,237.333 398.167,236.667 399.5,236C 403.857,235.369 408.191,235.535 412.5,236.5C 416.656,236.389 420.322,235.389 423.5,233.5 Z"/></g>
<g><path style="opacity:1" fill="#efddc3" d="M 315.5,232.5 C 317.308,232.491 318.975,232.991 320.5,234C 323.333,236.833 326.167,239.667 329,242.5C 329.456,243.744 328.956,244.577 327.5,245C 316.833,245.667 306.167,245.667 295.5,245C 290.259,242.594 286.592,238.761 284.5,233.5C 294.782,232.548 305.115,232.214 315.5,232.5 Z"/></g>
<g><path style="opacity:1" fill="#f2e0c4" d="M 445.5,229.5 C 457.554,231.019 469.554,232.852 481.5,235C 484.167,238.333 484.167,241.667 481.5,245C 466.5,245.667 451.5,245.667 436.5,245C 435.572,244.612 434.905,243.945 434.5,243C 438.355,238.646 442.022,234.146 445.5,229.5 Z"/></g>
<g><path style="opacity:0.957" fill="#93887d" d="M 315.5,232.5 C 305.115,232.214 294.782,232.548 284.5,233.5C 284.611,232.883 284.944,232.383 285.5,232C 295.675,231.175 305.675,231.342 315.5,232.5 Z"/></g>
<g><path style="opacity:0.643" fill="#232321" d="M 219.5,411.5 C 230.172,411.333 240.839,411.5 251.5,412C 254.379,413.666 255.212,416.166 254,419.5C 252.89,421.037 251.39,421.703 249.5,421.5C 249.284,428.622 250.117,435.622 252,442.5C 254.645,451.079 256.978,459.746 259,468.5C 264.491,450.868 269.824,433.201 275,415.5C 279.958,411.442 285.458,410.608 291.5,413C 293.487,414.319 294.654,416.152 295,418.5C 297.746,435.483 301.746,452.149 307,468.5C 312.487,454.72 316.653,440.554 319.5,426C 319.333,424.833 319.167,423.667 319,422.5C 312.031,418.915 311.864,415.415 318.5,412C 325.833,411.333 333.167,411.333 340.5,412C 342.635,412.759 343.968,414.259 344.5,416.5C 340.823,420.02 337.657,424.02 335,428.5C 326.739,453.622 317.906,478.455 308.5,503C 303.5,503.667 298.5,503.667 293.5,503C 292.667,502.167 291.833,501.333 291,500.5C 286.749,484.584 282.749,468.584 279,452.5C 272.922,468.473 267.922,484.807 264,501.5C 263.5,502 263,502.5 262.5,503C 257.167,503.667 251.833,503.667 246.5,503C 244.667,502.5 243.5,501.333 243,499.5C 236.331,474.824 229.664,450.157 223,425.5C 221.374,422.872 219.374,420.539 217,418.5C 215.916,415.341 216.75,413.008 219.5,411.5 Z"/></g>
<g><path style="opacity:0.63" fill="#21201f" d="M 368.5,411.5 C 373.511,411.334 378.511,411.501 383.5,412C 384.308,412.308 384.975,412.808 385.5,413.5C 392.994,438.138 400.494,462.805 408,487.5C 408.966,490.965 411.132,493.298 414.5,494.5C 418.673,498.233 418.006,501.066 412.5,503C 401.167,503.667 389.833,503.667 378.5,503C 375.278,501.01 374.778,498.51 377,495.5C 379.071,494.636 380.738,493.303 382,491.5C 382.42,486.687 381.754,482.021 380,477.5C 371.919,476.518 363.752,476.184 355.5,476.5C 354.394,480.802 353.394,485.136 352.5,489.5C 353.165,492.583 354.998,494.583 358,495.5C 360.387,498.564 359.887,501.064 356.5,503C 348.003,503.098 339.836,503.264 332,503.5C 327.621,502.025 326.621,499.359 329,495.5C 333.452,493.045 336.452,489.379 338,484.5C 345.94,462.012 354.274,439.679 363,417.5C 364.36,414.977 366.193,412.977 368.5,411.5 Z M 369.5,439.5 C 371.666,447.357 373.666,455.357 375.5,463.5C 370.833,463.5 366.167,463.5 361.5,463.5C 362.772,455.018 365.438,447.018 369.5,439.5 Z"/></g>
<g><path style="opacity:0.675" fill="#20201f" d="M 420.5,411.5 C 429.94,411.055 439.274,411.555 448.5,413C 457.701,430.574 467.535,447.741 478,464.5C 478.928,450.444 478.595,436.444 477,422.5C 470.454,419.595 469.954,416.095 475.5,412C 482.5,411.333 489.5,411.333 496.5,412C 498.635,412.759 499.968,414.259 500.5,416.5C 499.195,419.638 497.029,421.971 494,423.5C 493.667,449.167 493.333,474.833 493,500.5C 492.5,501 492,501.5 491.5,502C 486.628,503.436 481.795,503.936 477,503.5C 475.018,503.01 473.351,502.01 472,500.5C 462.099,482.262 451.766,464.262 441,446.5C 440.691,447.766 440.191,448.933 439.5,450C 439.051,463.445 439.551,476.945 441,490.5C 442.193,492.605 443.86,494.272 446,495.5C 447.855,500.726 446.022,503.392 440.5,503.5C 434.653,503.448 429.153,503.448 424,503.5C 418.91,503.094 417.244,500.428 419,495.5C 420.307,494.228 421.807,493.228 423.5,492.5C 424.154,490.885 424.654,489.218 425,487.5C 425.667,467.167 425.667,446.833 425,426.5C 425.229,423.19 423.729,421.356 420.5,421C 416.701,417.75 416.701,414.583 420.5,411.5 Z"/></g>
<g><path style="opacity:1" fill="#f4e2c7" d="M 390.5,439.5 C 388.133,438.921 386.3,437.588 385,435.5C 383.908,438.044 383.241,440.711 383,443.5C 382.417,441.998 381.584,440.665 380.5,439.5C 378.771,441.851 378.104,444.518 378.5,447.5C 379.5,447.5 380.5,447.5 381.5,447.5C 381.519,449.06 381.852,450.56 382.5,452C 381.518,452.381 380.852,453.214 380.5,454.5C 380.899,456.197 381.399,457.863 382,459.5C 382.556,457.405 383.056,457.238 383.5,459C 382.495,462.029 381.495,465.029 380.5,468C 381.5,468.333 382.5,468.667 383.5,469C 382.319,471.476 382.319,474.309 383.5,477.5C 382.609,476.739 381.942,475.739 381.5,474.5C 372.518,473.335 363.518,473.168 354.5,474C 351.026,480.068 349.859,486.568 351,493.5C 354.195,494.851 356.028,497.185 356.5,500.5C 347.833,500.5 339.167,500.5 330.5,500.5C 330.238,499.022 330.571,497.689 331.5,496.5C 335.61,493.882 338.443,490.215 340,485.5C 348.077,462.267 356.744,439.267 366,416.5C 366.833,415.667 367.667,414.833 368.5,414C 373.167,413.333 377.833,413.333 382.5,414C 386.436,422.054 389.102,430.554 390.5,439.5 Z M 369.5,439.5 C 365.438,447.018 362.772,455.018 361.5,463.5C 366.167,463.5 370.833,463.5 375.5,463.5C 373.666,455.357 371.666,447.357 369.5,439.5 Z"/></g>
<g><path style="opacity:1" fill="#f3e1c4" d="M 264.5,486.5 C 264.249,483.091 264.583,479.758 265.5,476.5C 263.841,475.183 262.674,473.517 262,471.5C 261.768,472.737 261.268,473.737 260.5,474.5C 265.476,454.779 271.143,435.279 277.5,416C 282.507,413.837 287.34,414.004 292,416.5C 295.511,436.524 300.344,456.19 306.5,475.5C 312.187,461.124 317.02,446.457 321,431.5C 321.667,428.167 321.667,424.833 321,421.5C 319.333,420.167 317.667,418.833 316,417.5C 315.333,416.833 315.333,416.167 316,415.5C 324.415,414.517 332.915,414.183 341.5,414.5C 341.5,415.833 341.5,417.167 341.5,418.5C 339.097,418.393 337.264,419.393 336,421.5C 334.667,424.167 333.333,426.833 332,429.5C 323.637,453.087 315.804,476.754 308.5,500.5C 303.238,500.805 298.072,500.471 293,499.5C 288.331,480.819 283.665,462.153 279,443.5C 274.1,457.874 269.266,472.207 264.5,486.5 Z"/></g>
<g><path style="opacity:1" fill="#f5e3c5" d="M 490.5,423.5 C 489.502,448.661 489.169,473.995 489.5,499.5C 485.154,499.666 480.821,499.499 476.5,499C 472.347,494.935 472.514,491.102 477,487.5C 477.667,486.5 477.667,485.5 477,484.5C 475.33,484.344 473.663,485.01 472,486.5C 470.578,485.795 469.245,485.461 468,485.5C 467.405,484.101 467.572,482.768 468.5,481.5C 467.389,480.389 466.722,479.055 466.5,477.5C 467.982,474.536 469.482,471.536 471,468.5C 471.833,469.333 472.667,470.167 473.5,471C 472.289,471.893 472.289,472.726 473.5,473.5C 474.167,472.833 474.833,472.167 475.5,471.5C 476.524,472.853 477.857,473.52 479.5,473.5C 480.662,456.672 480.828,439.672 480,422.5C 478.738,420.697 477.071,419.364 475,418.5C 474.333,417.167 474.333,415.833 475,414.5C 481.752,413.355 488.586,413.189 495.5,414C 497.107,415.049 497.773,416.549 497.5,418.5C 496.448,418.351 495.448,418.517 494.5,419C 493.267,420.667 491.933,422.167 490.5,423.5 Z"/></g>
<g><path style="opacity:1" fill="#f7e4c6" d="M 260.5,474.5 C 261.268,473.737 261.768,472.737 262,471.5C 262.674,473.517 263.841,475.183 265.5,476.5C 264.583,479.758 264.249,483.091 264.5,486.5C 264.43,491.284 263.763,495.951 262.5,500.5C 256.833,500.5 251.167,500.5 245.5,500.5C 239.993,477.819 234.16,455.152 228,432.5C 226.757,426.331 223.757,421.331 219,417.5C 218.517,416.552 218.351,415.552 218.5,414.5C 229.833,414.5 241.167,414.5 252.5,414.5C 252.5,415.833 252.5,417.167 252.5,418.5C 250.007,418.329 248.174,419.329 247,421.5C 246.333,424.833 246.333,428.167 247,431.5C 250.85,446.567 254.85,461.567 259,476.5C 259.278,475.584 259.778,474.918 260.5,474.5 Z"/></g>
<g><path style="opacity:1" fill="#f5e2c5" d="M 459.5,438.5 C 459.92,440.674 459.92,442.674 459.5,444.5C 460.628,445.262 461.795,445.929 463,446.5C 463.346,448.218 463.846,449.885 464.5,451.5C 463.753,451.736 462.92,452.07 462,452.5C 461.064,455.352 461.73,457.685 464,459.5C 465.795,452.978 467.628,452.978 469.5,459.5C 468.675,460.386 467.675,460.719 466.5,460.5C 468.419,465.505 467.252,469.505 463,472.5C 462.683,470.699 462.016,470.366 461,471.5C 460.383,470.551 460.549,469.718 461.5,469C 458.208,468.244 457.208,466.411 458.5,463.5C 462.581,467.704 463.414,467.037 461,461.5C 460.29,460.027 459.124,459.36 457.5,459.5C 457.813,456.753 457.48,454.086 456.5,451.5C 455.148,452.518 454.148,453.851 453.5,455.5C 452.575,454.359 451.741,454.359 451,455.5C 447.26,451.555 445.427,447.055 445.5,442C 444.181,441.805 442.847,441.972 441.5,442.5C 440.597,440.364 439.431,438.364 438,436.5C 437.333,454.5 437.333,472.5 438,490.5C 439,493.5 441,495.5 444,496.5C 444.49,497.793 444.657,499.127 444.5,500.5C 436.5,500.5 428.5,500.5 420.5,500.5C 419.79,497.14 421.124,495.307 424.5,495C 425.893,493.829 426.727,492.329 427,490.5C 427.667,468.167 427.667,445.833 427,423.5C 426.119,420.115 423.952,418.448 420.5,418.5C 420.286,416.856 420.62,415.356 421.5,414C 429.5,413.333 437.5,413.333 445.5,414C 451.076,421.652 455.742,429.818 459.5,438.5 Z"/></g>
<g><path style="opacity:0.648" fill="#262523" d="M 373.5,466.5 C 368.251,466.141 363.251,465.141 358.5,463.5C 361.129,452.569 364.629,441.902 369,431.5C 373.877,442.672 377.044,454.339 378.5,466.5C 376.833,466.5 375.167,466.5 373.5,466.5 Z M 369.5,439.5 C 365.438,447.018 362.772,455.018 361.5,463.5C 366.167,463.5 370.833,463.5 375.5,463.5C 373.666,455.357 371.666,447.357 369.5,439.5 Z"/></g>
<g><path style="opacity:1" fill="#ebdac2" d="M 490.5,423.5 C 490.899,449.075 490.899,474.575 490.5,500C 485.136,500.829 479.802,500.663 474.5,499.5C 463.249,480.668 452.249,461.668 441.5,442.5C 442.847,441.972 444.181,441.805 445.5,442C 445.427,447.055 447.26,451.555 451,455.5C 451.741,454.359 452.575,454.359 453.5,455.5C 454.148,453.851 455.148,452.518 456.5,451.5C 457.48,454.086 457.813,456.753 457.5,459.5C 459.124,459.36 460.29,460.027 461,461.5C 463.414,467.037 462.581,467.704 458.5,463.5C 457.208,466.411 458.208,468.244 461.5,469C 460.549,469.718 460.383,470.551 461,471.5C 462.016,470.366 462.683,470.699 463,472.5C 467.252,469.505 468.419,465.505 466.5,460.5C 467.675,460.719 468.675,460.386 469.5,459.5C 467.628,452.978 465.795,452.978 464,459.5C 461.73,457.685 461.064,455.352 462,452.5C 462.92,452.07 463.753,451.736 464.5,451.5C 463.846,449.885 463.346,448.218 463,446.5C 461.795,445.929 460.628,445.262 459.5,444.5C 459.92,442.674 459.92,440.674 459.5,438.5C 467.277,449.457 473.944,461.124 479.5,473.5C 477.857,473.52 476.524,472.853 475.5,471.5C 474.833,472.167 474.167,472.833 473.5,473.5C 472.289,472.726 472.289,471.893 473.5,471C 472.667,470.167 471.833,469.333 471,468.5C 469.482,471.536 467.982,474.536 466.5,477.5C 466.722,479.055 467.389,480.389 468.5,481.5C 467.572,482.768 467.405,484.101 468,485.5C 469.245,485.461 470.578,485.795 472,486.5C 473.663,485.01 475.33,484.344 477,484.5C 477.667,485.5 477.667,486.5 477,487.5C 472.514,491.102 472.347,494.935 476.5,499C 480.821,499.499 485.154,499.666 489.5,499.5C 489.169,473.995 489.502,448.661 490.5,423.5 Z"/></g>
<g><path style="opacity:0.953" fill="#706959" d="M 358.5,463.5 C 363.251,465.141 368.251,466.141 373.5,466.5C 368.167,466.5 362.833,466.5 357.5,466.5C 357.263,465.209 357.596,464.209 358.5,463.5 Z"/></g>
<g><path style="opacity:1" fill="#fbe8c6" d="M 390.5,439.5 C 396.305,457.031 401.972,474.697 407.5,492.5C 408.15,494.435 408.483,496.435 408.5,498.5C 400.167,498.5 391.833,498.5 383.5,498.5C 384.983,495.209 385.983,491.709 386.5,488C 386.238,485.453 385.738,482.953 385,480.5C 384.617,479.944 384.117,479.611 383.5,479.5C 383.5,478.833 383.5,478.167 383.5,477.5C 382.319,474.309 382.319,471.476 383.5,469C 382.5,468.667 381.5,468.333 380.5,468C 381.495,465.029 382.495,462.029 383.5,459C 383.056,457.238 382.556,457.405 382,459.5C 381.399,457.863 380.899,456.197 380.5,454.5C 380.852,453.214 381.518,452.381 382.5,452C 381.852,450.56 381.519,449.06 381.5,447.5C 380.5,447.5 379.5,447.5 378.5,447.5C 378.104,444.518 378.771,441.851 380.5,439.5C 381.584,440.665 382.417,441.998 383,443.5C 383.241,440.711 383.908,438.044 385,435.5C 386.3,437.588 388.133,438.921 390.5,439.5 Z"/></g>
<g><path style="opacity:1" fill="#e7d7c6" d="M 383.5,479.5 C 384.117,479.611 384.617,479.944 385,480.5C 385.738,482.953 386.238,485.453 386.5,488C 385.983,491.709 384.983,495.209 383.5,498.5C 391.833,498.5 400.167,498.5 408.5,498.5C 408.483,496.435 408.15,494.435 407.5,492.5C 409.175,494.002 411.008,495.335 413,496.5C 413.49,497.793 413.657,499.127 413.5,500.5C 401.833,500.5 390.167,500.5 378.5,500.5C 378.238,499.022 378.571,497.689 379.5,496.5C 381.258,495.872 382.758,494.872 384,493.5C 384.648,488.796 384.481,484.129 383.5,479.5 Z"/></g>
<g><path style="opacity:0.645" fill="#242322" d="M 367.5,506.5 C 371.146,507.832 374.813,509.166 378.5,510.5C 383,518.167 387.5,525.833 392,533.5C 391.204,529.026 391.371,524.526 392.5,520C 390.975,517.034 390.475,513.867 391,510.5C 396.276,507.537 401.276,507.871 406,511.5C 406.722,513.661 406.055,515.328 404,516.5C 403.817,531.211 403.317,545.878 402.5,560.5C 398.65,562.977 394.65,563.144 390.5,561C 384.374,552.587 378.874,543.753 374,534.5C 372.77,541.419 373.604,548.253 376.5,555C 375.542,556.147 375.875,557.147 377.5,558C 376.743,559.512 375.743,560.846 374.5,562C 360.712,565.887 356.545,561.387 362,548.5C 362.667,538.167 362.667,527.833 362,517.5C 360.488,516.743 359.154,515.743 358,514.5C 357,515.5 356,516.5 355,517.5C 354.667,528.5 354.333,539.5 354,550.5C 350.234,559.063 343.568,563.396 334,563.5C 322.131,563.615 315.131,557.949 313,546.5C 312.196,537.785 312.363,529.118 313.5,520.5C 312.804,517.643 311.471,515.143 309.5,513C 310.126,512.25 310.626,511.416 311,510.5C 317.337,508.544 323.837,508.044 330.5,509C 332.435,510.895 334.102,510.562 335.5,508C 343.293,507.025 350.959,507.525 358.5,509.5C 361.662,508.635 364.662,507.635 367.5,506.5 Z M 332.5,512.5 C 335.505,513.913 338.005,515.913 340,518.5C 341.644,529.188 341.644,539.855 340,550.5C 339.242,552.91 337.575,553.91 335,553.5C 331.94,553.775 329.94,552.442 329,549.5C 327.54,538.862 327.54,528.196 329,517.5C 330.802,516.211 331.969,514.544 332.5,512.5 Z"/></g>
<g><path style="opacity:0.637" fill="#252423" d="M 431.5,507.5 C 436.566,507.34 441.566,507.84 446.5,509C 448.286,509.785 449.786,510.951 451,512.5C 451.222,516.182 450.889,519.848 450,523.5C 448.087,525.187 445.92,525.687 443.5,525C 441.343,523.019 439.676,520.686 438.5,518C 432.476,516.366 428.643,518.533 427,524.5C 424.485,534.111 425.152,543.445 429,552.5C 431.33,554.032 433.33,553.698 435,551.5C 435.76,547.775 435.593,544.108 434.5,540.5C 436.021,536.379 439.021,534.379 443.5,534.5C 447.175,534.997 450.675,535.997 454,537.5C 453.153,540.803 452.653,544.303 452.5,548C 452.536,550.094 452.869,552.094 453.5,554C 452.362,561.487 448.196,563.987 441,561.5C 430.824,564.732 421.824,562.732 414,555.5C 405.433,540.365 406.933,526.198 418.5,513C 422.741,510.651 427.075,508.818 431.5,507.5 Z"/></g>
<g><path style="opacity:0.622" fill="#252422" d="M 223.5,508.5 C 228.511,508.334 233.511,508.501 238.5,509C 243.187,511.066 243.687,513.899 240,517.5C 239.5,529.162 239.333,540.829 239.5,552.5C 241.968,553.75 244.301,553.583 246.5,552C 247.981,549.238 249.647,546.571 251.5,544C 254.68,542.964 257.18,543.797 259,546.5C 259.425,550.869 259.092,555.203 258,559.5C 257.5,560.667 256.667,561.5 255.5,562C 244.5,562.667 233.5,562.667 222.5,562C 222,561.5 221.5,561 221,560.5C 221.862,555.439 222.695,550.272 223.5,545C 222.206,536.549 222.206,528.049 223.5,519.5C 222.205,517.19 220.871,514.857 219.5,512.5C 220.549,510.784 221.882,509.451 223.5,508.5 Z"/></g>
<g><path style="opacity:0.674" fill="#20201f" d="M 276.5,508.5 C 296.723,506.052 307.056,515.052 307.5,535.5C 305.368,560.064 292.701,568.231 269.5,560C 262.808,554.594 259.141,547.594 258.5,539C 258.261,528.377 261.928,519.377 269.5,512C 271.925,510.787 274.259,509.621 276.5,508.5 Z M 280.5,517.5 C 286.534,516.767 289.701,519.433 290,525.5C 290.667,532.833 290.667,540.167 290,547.5C 287.892,553.715 284.059,555.048 278.5,551.5C 277.208,549.333 276.375,547 276,544.5C 275.333,538.5 275.333,532.5 276,526.5C 276.472,522.89 277.972,519.89 280.5,517.5 Z"/></g>
<g><path style="opacity:0.64" fill="#232321" d="M 487.5,524.5 C 487.783,525.289 488.283,525.956 489,526.5C 489.197,531.086 489.697,535.586 490.5,540C 490.87,541.61 490.203,543.11 488.5,544.5C 490.021,544.88 491.687,545.046 493.5,545C 494.667,545.5 495.5,546.333 496,547.5C 496.772,551.89 496.606,556.223 495.5,560.5C 494.975,561.192 494.308,561.692 493.5,562C 482.167,562.667 470.833,562.667 459.5,562C 456.4,560.332 455.9,558.165 458,555.5C 458.936,547.361 459.436,539.195 459.5,531C 459.381,523.818 458.547,516.985 457,510.5C 458.067,509.809 459.234,509.309 460.5,509C 465.667,508.833 470.833,508.667 476,508.5C 482.245,508.399 488.411,508.899 494.5,510C 495,510.5 495.5,511 496,511.5C 496.667,515.167 496.667,518.833 496,522.5C 493.746,525.605 490.913,526.272 487.5,524.5 Z M 487.5,524.5 C 486.153,523.972 484.819,523.805 483.5,524C 481.658,526.543 479.491,528.71 477,530.5C 476.501,526.514 476.334,522.514 476.5,518.5C 482.303,516.97 485.97,518.97 487.5,524.5 Z M 475.5,539.5 C 476.873,539.343 478.207,539.51 479.5,540C 481.069,543.572 483.402,546.572 486.5,549C 483.884,551.994 480.551,553.494 476.5,553.5C 476.717,548.77 476.383,544.103 475.5,539.5 Z"/></g>
<g><path style="opacity:0.953" fill="#807765" d="M 355.5,511.5 C 349.729,510.887 344.396,511.554 339.5,513.5C 338.596,512.791 338.263,511.791 338.5,510.5C 344.358,510.178 350.025,510.511 355.5,511.5 Z"/></g>
<g><path style="opacity:1" fill="#fce9ca" d="M 341.5,559.5 C 341.167,559.5 340.833,559.5 340.5,559.5C 339.957,559.44 339.624,559.107 339.5,558.5C 341.038,556.757 342.038,554.757 342.5,552.5C 342.5,552.167 342.5,551.833 342.5,551.5C 344.13,549.974 344.963,547.974 345,545.5C 345.5,534.505 345.667,523.505 345.5,512.5C 347.167,512.5 348.833,512.5 350.5,512.5C 349.204,521.494 349.204,530.494 350.5,539.5C 349.99,544.226 349.157,548.892 348,553.5C 346.681,555.487 344.848,556.654 342.5,557C 341.748,557.671 341.414,558.504 341.5,559.5 Z"/></g>
<g><path style="opacity:1" fill="#e6d5c3" d="M 342.5,552.5 C 342.038,554.757 341.038,556.757 339.5,558.5C 339.624,559.107 339.957,559.44 340.5,559.5C 334.943,560.811 329.277,560.644 323.5,559C 320.333,557.167 317.833,554.667 316,551.5C 315.667,539.833 315.333,528.167 315,516.5C 313.117,515.347 312.284,513.681 312.5,511.5C 318.537,511.171 324.537,511.504 330.5,512.5C 328.018,514.159 326.518,516.492 326,519.5C 325.125,530.217 325.459,540.884 327,551.5C 331.728,557.813 336.895,558.146 342.5,552.5 Z"/></g>
<g><path style="opacity:0.658" fill="#242322" d="M 293.5,543.5 C 293.5,544.167 293.5,544.833 293.5,545.5C 292.446,549.431 290.446,552.931 287.5,556C 283.851,556.963 280.518,556.463 277.5,554.5C 277.167,553.5 276.5,552.833 275.5,552.5C 273.472,542.643 272.972,532.643 274,522.5C 275.377,520.246 276.877,518.08 278.5,516C 287.676,514.163 292.509,517.997 293,527.5C 293.499,532.823 293.666,538.156 293.5,543.5 Z M 280.5,517.5 C 277.972,519.89 276.472,522.89 276,526.5C 275.333,532.5 275.333,538.5 276,544.5C 276.375,547 277.208,549.333 278.5,551.5C 284.059,555.048 287.892,553.715 290,547.5C 290.667,540.167 290.667,532.833 290,525.5C 289.701,519.433 286.534,516.767 280.5,517.5 Z"/></g>
<g><path style="opacity:1" fill="#f3e1c7" d="M 460.5,556.5 C 461.222,556.082 461.722,555.416 462,554.5C 462.827,541.327 462.66,528.327 461.5,515.5C 460.34,514.735 459.34,513.735 458.5,512.5C 470.148,511.501 481.814,511.168 493.5,511.5C 493.5,515.167 493.5,518.833 493.5,522.5C 492.127,522.657 490.793,522.49 489.5,522C 485.955,515.923 480.622,513.756 473.5,515.5C 473.5,521.167 473.5,526.833 473.5,532.5C 475.857,532.663 478.19,532.497 480.5,532C 481.548,528.544 483.881,527.044 487.5,527.5C 487.5,532.5 487.5,537.5 487.5,542.5C 484.255,542.707 482.255,541.207 481.5,538C 478.854,537.503 476.187,537.336 473.5,537.5C 473.212,543.229 473.546,548.896 474.5,554.5C 477.446,555.655 480.446,555.821 483.5,555C 485.845,552.986 487.845,550.653 489.5,548C 490.793,547.51 492.127,547.343 493.5,547.5C 493.797,551.767 493.464,555.934 492.5,560C 481.833,560.667 471.167,560.667 460.5,560C 459.316,558.855 459.316,557.688 460.5,556.5 Z"/></g>
<g><path style="opacity:1" fill="#e4d4bf" d="M 303.5,543.5 C 303.666,538.156 303.499,532.823 303,527.5C 301.441,525.783 300.608,523.783 300.5,521.5C 299.315,522.771 297.315,523.771 294.5,524.5C 294.823,531.022 294.49,537.355 293.5,543.5C 293.666,538.156 293.499,532.823 293,527.5C 292.509,517.997 287.676,514.163 278.5,516C 276.877,518.08 275.377,520.246 274,522.5C 272.972,532.643 273.472,542.643 275.5,552.5C 274.069,552.119 273.236,551.119 273,549.5C 271.039,540.173 271.039,530.839 273,521.5C 273.707,519.919 274.54,518.419 275.5,517C 274.584,516.626 273.75,516.126 273,515.5C 269.745,517.375 266.911,519.708 264.5,522.5C 269.094,512.869 276.761,509.036 287.5,511C 296.51,512.341 302.01,517.508 304,526.5C 304.818,532.349 304.652,538.015 303.5,543.5 Z"/></g>
<g><path style="opacity:1" fill="#f2e1c9" d="M 428.5,510.5 C 434.898,510.243 441.231,510.743 447.5,512C 448.617,515.073 448.784,518.24 448,521.5C 446.612,522.554 445.112,522.72 443.5,522C 441.249,515.83 436.916,513.83 430.5,516C 428.714,516.785 427.214,517.951 426,519.5C 422.255,528.932 421.588,538.598 424,548.5C 425.467,551.266 427.3,553.766 429.5,556C 433.475,557.379 436.309,556.213 438,552.5C 438.291,547.712 438.458,543.045 438.5,538.5C 442.442,537.4 446.442,537.233 450.5,538C 451.784,539.297 451.617,540.464 450,541.5C 449.667,547.167 449.333,552.833 449,558.5C 446.736,560.983 444.403,560.983 442,558.5C 422.74,563.968 412.573,556.801 411.5,537C 411.075,523.968 416.742,515.134 428.5,510.5 Z"/></g>
<g><path style="opacity:1" fill="#ecddcb" d="M 355.5,511.5 C 355.321,513.606 354.321,515.272 352.5,516.5C 351.667,528.486 351.167,540.486 351,552.5C 348.499,555.848 345.332,558.182 341.5,559.5C 341.414,558.504 341.748,557.671 342.5,557C 344.848,556.654 346.681,555.487 348,553.5C 349.157,548.892 349.99,544.226 350.5,539.5C 349.204,530.494 349.204,521.494 350.5,512.5C 348.833,512.5 347.167,512.5 345.5,512.5C 345.667,523.505 345.5,534.505 345,545.5C 344.963,547.974 344.13,549.974 342.5,551.5C 343.772,539.519 343.772,527.519 342.5,515.5C 341.261,515.058 340.261,514.391 339.5,513.5C 344.396,511.554 349.729,510.887 355.5,511.5 Z"/></g>
<g><path style="opacity:1" fill="#fbe8cb" d="M 237.5,517.5 C 236.669,529.993 236.169,542.66 236,555.5C 234.445,557.515 232.611,557.848 230.5,556.5C 231.376,555.749 232.376,555.249 233.5,555C 230.833,554 230.833,553 233.5,552C 232.874,551.25 232.374,550.416 232,549.5C 230.763,551.104 229.597,552.771 228.5,554.5C 227.494,554.062 227.494,553.396 228.5,552.5C 227.688,541.213 227.188,529.879 227,518.5C 226.768,517.263 226.268,516.263 225.5,515.5C 223.468,514.952 222.468,513.619 222.5,511.5C 228.167,511.5 233.833,511.5 239.5,511.5C 239.396,513.703 238.73,515.703 237.5,517.5 Z"/></g>
<g><path style="opacity:0.953" fill="#787160" d="M 461.5,515.5 C 462.66,528.327 462.827,541.327 462,554.5C 461.722,555.416 461.222,556.082 460.5,556.5C 461.312,542.85 461.645,529.183 461.5,515.5 Z"/></g>
<g><path style="opacity:1" fill="#f8e6c8" d="M 275.5,552.5 C 276.5,552.833 277.167,553.5 277.5,554.5C 277.146,558.84 275.146,559.673 271.5,557C 266.944,553.428 263.944,548.928 262.5,543.5C 261.349,538.35 261.183,533.016 262,527.5C 262.757,525.685 263.59,524.019 264.5,522.5C 266.911,519.708 269.745,517.375 273,515.5C 273.75,516.126 274.584,516.626 275.5,517C 274.54,518.419 273.707,519.919 273,521.5C 271.039,530.839 271.039,540.173 273,549.5C 273.236,551.119 274.069,552.119 275.5,552.5 Z"/></g>
<g><path style="opacity:1" fill="#fce9cb" d="M 303.5,543.5 C 301.622,546.245 299.955,549.245 298.5,552.5C 296.194,555.23 293.861,555.564 291.5,553.5C 293.055,551.057 293.722,548.39 293.5,545.5C 293.5,544.833 293.5,544.167 293.5,543.5C 294.49,537.355 294.823,531.022 294.5,524.5C 297.315,523.771 299.315,522.771 300.5,521.5C 300.608,523.783 301.441,525.783 303,527.5C 303.499,532.823 303.666,538.156 303.5,543.5 Z"/></g>
<g><path style="opacity:1" fill="#f0dfc6" d="M 392.5,540.5 C 392.908,541.643 393.575,542.643 394.5,543.5C 395.822,534.342 395.822,525.342 394.5,516.5C 392.752,515.211 392.419,513.711 393.5,512C 396.817,511.502 400.15,511.335 403.5,511.5C 403.688,513.103 403.188,514.437 402,515.5C 401.667,529.833 401.333,544.167 401,558.5C 397.667,559.833 394.333,559.833 391,558.5C 384.68,547.866 378.347,537.199 372,526.5C 370.386,531.99 370.053,537.657 371,543.5C 371.333,547.5 371.667,551.5 372,555.5C 373.022,556.354 373.855,557.354 374.5,558.5C 370.167,559.833 365.833,559.833 361.5,558.5C 362.188,557.145 363.188,556.145 364.5,555.5C 365.66,542.34 365.827,529.006 365,515.5C 364.329,514.748 363.496,514.414 362.5,514.5C 361.522,514.189 360.855,513.522 360.5,512.5C 365.802,511.337 371.136,511.171 376.5,512C 381.93,521.467 387.263,530.967 392.5,540.5 Z"/></g>
<g><path style="opacity:0.953" fill="#797160" d="M 394.5,516.5 C 395.822,525.342 395.822,534.342 394.5,543.5C 393.575,542.643 392.908,541.643 392.5,540.5C 394.467,532.903 395.134,524.903 394.5,516.5 Z"/></g>
<g><path style="opacity:0.959" fill="#887f6c" d="M 362.5,514.5 C 363.496,514.414 364.329,514.748 365,515.5C 365.827,529.006 365.66,542.34 364.5,555.5C 364.667,542.496 364.5,529.496 364,516.5C 363.283,515.956 362.783,515.289 362.5,514.5 Z"/></g>
<g><path style="opacity:1" fill="#fce9c8" d="M 316.5,515.5 C 318.153,516.605 319.82,516.771 321.5,516C 322.863,517.945 323.697,520.112 324,522.5C 323.887,533.349 324.72,544.016 326.5,554.5C 323.963,556.529 321.463,556.196 319,553.5C 318.027,551.608 317.36,549.608 317,547.5C 316.5,536.839 316.333,526.172 316.5,515.5 Z"/></g>
<g><path style="opacity:1" fill="#e4d3c0" d="M 225.5,515.5 C 226.268,516.263 226.768,517.263 227,518.5C 227.188,529.879 227.688,541.213 228.5,552.5C 227.494,553.396 227.494,554.062 228.5,554.5C 229.597,552.771 230.763,551.104 232,549.5C 232.374,550.416 232.874,551.25 233.5,552C 230.833,553 230.833,554 233.5,555C 232.376,555.249 231.376,555.749 230.5,556.5C 232.611,557.848 234.445,557.515 236,555.5C 236.169,542.66 236.669,529.993 237.5,517.5C 237.5,530.167 237.5,542.833 237.5,555.5C 244.835,557.14 249.502,554.474 251.5,547.5C 253.045,546.548 254.712,546.215 256.5,546.5C 256.797,550.767 256.464,554.934 255.5,559C 244.485,559.832 233.485,559.666 222.5,558.5C 223.145,557.354 223.978,556.354 225,555.5C 225.5,542.171 225.667,528.837 225.5,515.5 Z"/></g>
<g><path style="opacity:1" fill="#eadaca" d="M 262.5,543.5 C 263.944,548.928 266.944,553.428 271.5,557C 275.146,559.673 277.146,558.84 277.5,554.5C 280.518,556.463 283.851,556.963 287.5,556C 290.446,552.931 292.446,549.431 293.5,545.5C 293.722,548.39 293.055,551.057 291.5,553.5C 293.861,555.564 296.194,555.23 298.5,552.5C 299.955,549.245 301.622,546.245 303.5,543.5C 301.549,555.607 294.382,561.273 282,560.5C 270.667,560.332 264.167,554.665 262.5,543.5 Z"/></g>
</svg>
