<?xml version="1.0" encoding="UTF-8"?>
<!DOCTYPE svg PUBLIC "-//W3C//DTD SVG 1.1//EN" "http://www.w3.org/Graphics/SVG/1.1/DTD/svg11.dtd">
<svg xmlns="http://www.w3.org/2000/svg" version="1.1" width="800px" height="800px" style="shape-rendering:geometricPrecision; text-rendering:geometricPrecision; image-rendering:optimizeQuality; fill-rule:evenodd; clip-rule:evenodd" xmlns:xlink="http://www.w3.org/1999/xlink">
<g><path style="opacity:0.912" fill="#fceac0" d="M 497.5,95.5 C 532.502,95.3333 567.502,95.5 602.5,96C 603.667,96.5 604.5,97.3333 605,98.5C 605.667,111.5 605.667,124.5 605,137.5C 604.097,138.701 602.931,139.535 601.5,140C 577.16,140.167 552.826,140.667 528.5,141.5C 521.593,157.392 514.593,173.225 507.5,189C 516.833,189.333 526.167,189.667 535.5,190C 538.128,191.569 539.795,193.902 540.5,197C 528.191,363.584 516.024,530.751 504,698.5C 503.215,700.286 502.049,701.786 500.5,703C 411.833,703.667 323.167,703.667 234.5,703C 232.741,701.992 231.574,700.492 231,698.5C 219.333,537.167 207.667,375.834 196,214.5C 195.333,207.167 195.333,199.833 196,192.5C 196.903,191.299 198.069,190.465 199.5,190C 284.833,189.667 370.167,189.333 455.5,189C 467.796,160.907 479.962,132.74 492,104.5C 493.357,101.102 495.19,98.1019 497.5,95.5 Z M 505.5,109.5 C 534.167,109.5 562.833,109.5 591.5,109.5C 591.5,114.833 591.5,120.167 591.5,125.5C 567.41,125.02 543.41,125.52 519.5,127C 509.507,147.156 500.173,167.656 491.5,188.5C 484.858,189.664 478.192,189.831 471.5,189C 483.52,162.768 494.853,136.268 505.5,109.5 Z M 210.5,204.5 C 215.167,204.5 219.833,204.5 224.5,204.5C 234.695,353.238 245.195,502.238 256,651.5C 256.833,653.667 258.333,655.167 260.5,656C 331.833,656.667 403.167,656.667 474.5,656C 476.667,655.167 478.167,653.667 479,651.5C 488.244,502.523 497.077,353.523 505.5,204.5C 511.833,204.5 518.167,204.5 524.5,204.5C 513.164,366.203 501.497,527.87 489.5,689.5C 407.833,689.5 326.167,689.5 244.5,689.5C 233.598,528.083 222.265,366.416 210.5,204.5 Z M 239.5,204.5 C 309.17,204.167 378.837,204.5 448.5,205.5C 437.033,233.098 425.033,260.432 412.5,287.5C 403.928,285.365 395.595,282.532 387.5,279C 374.445,271.806 361.112,265.139 347.5,259C 318.819,247.666 289.819,246.666 260.5,256C 254.919,258.024 249.585,260.524 244.5,263.5C 242.218,243.886 240.551,224.22 239.5,204.5 Z M 464.5,204.5 C 471.2,204.17 477.866,204.503 484.5,205.5C 472.333,233.167 460.167,260.833 448,288.5C 441.582,289.643 435.082,289.81 428.5,289C 440.917,261.001 452.917,232.834 464.5,204.5 Z M 488.5,231.5 C 489.097,231.735 489.43,232.235 489.5,233C 488.535,246.336 487.535,259.669 486.5,273C 480.738,277.969 474.238,281.802 467,284.5C 473.847,266.814 481.013,249.147 488.5,231.5 Z M 286.5,264.5 C 308.467,263.075 329.467,266.909 349.5,276C 360.343,281.922 371.343,287.589 382.5,293C 390.653,296.273 398.987,298.94 407.5,301C 361.337,407.483 315.171,513.983 269,620.5C 260.684,507.561 252.517,394.894 244.5,282.5C 244.529,280.971 245.196,279.804 246.5,279C 259.027,271.66 272.36,266.827 286.5,264.5 Z M 484.5,291.5 C 485.161,293.134 485.494,294.967 485.5,297C 478.748,411.112 471.915,525.278 465,639.5C 439.381,640.829 413.548,641.495 387.5,641.5C 361.833,641.333 336.167,641.167 310.5,641C 330.949,593.65 351.782,546.483 373,499.5C 378.836,506.083 386.17,509.083 395,508.5C 407.864,507.281 420.697,505.781 433.5,504C 453.943,496.957 461.776,482.791 457,461.5C 455.585,451.844 454.251,442.178 453,432.5C 444.956,413.561 430.79,406.394 410.5,411C 426.462,374.907 442.296,338.74 458,302.5C 465.333,300.54 472.5,298.04 479.5,295C 481.584,294.303 483.251,293.136 484.5,291.5 Z M 421.5,303.5 C 427.814,304.088 434.147,304.755 440.5,305.5C 392.108,417.284 343.442,528.95 294.5,640.5C 288.5,641.833 282.5,641.833 276.5,640.5C 325.426,528.377 373.76,416.044 421.5,303.5 Z M 293.5,319.5 C 308.591,321.751 323.591,324.585 338.5,328C 346.276,331.288 349.109,337.121 347,345.5C 344.548,358.212 341.881,370.878 339,383.5C 336.063,388.054 331.896,390.72 326.5,391.5C 312.872,388.474 299.206,385.641 285.5,383C 279.501,380.673 276.168,376.34 275.5,370C 278.66,355.538 281.826,341.038 285,326.5C 287.464,323.519 290.297,321.186 293.5,319.5 Z M 422.5,424.5 C 429.667,424.849 434.833,428.183 438,434.5C 439.914,447.48 441.748,460.48 443.5,473.5C 443.068,481.432 439.068,486.598 431.5,489C 419.52,490.664 407.52,492.164 395.5,493.5C 387.624,493.778 382.29,490.278 379.5,483C 387.363,464.775 395.363,446.608 403.5,428.5C 409.892,426.829 416.226,425.496 422.5,424.5 Z M 423.5,547.5 C 429.567,548.395 433.734,551.729 436,557.5C 437.927,571.323 439.76,585.157 441.5,599C 439.969,608.608 434.302,613.275 424.5,613C 412.962,614.22 401.462,615.72 390,617.5C 382.766,616.598 378.433,612.598 377,605.5C 375.304,592.46 373.47,579.46 371.5,566.5C 372.229,559.512 375.896,555.012 382.5,553C 396.344,551.396 410.011,549.562 423.5,547.5 Z"/></g>
<g><path style="opacity:0.907" fill="#fceac0" d="M 292.5,304.5 C 310.774,306.521 328.774,310.021 346.5,315C 358.773,321.956 363.94,332.456 362,346.5C 359.333,359.167 356.667,371.833 354,384.5C 348.21,401.486 336.376,408.32 318.5,405C 305.831,402.333 293.164,399.666 280.5,397C 265.605,390.713 259.438,379.547 262,363.5C 264.569,348.653 267.903,333.986 272,319.5C 276.903,311.653 283.736,306.653 292.5,304.5 Z M 293.5,319.5 C 290.297,321.186 287.464,323.519 285,326.5C 281.826,341.038 278.66,355.538 275.5,370C 276.168,376.34 279.501,380.673 285.5,383C 299.206,385.641 312.872,388.474 326.5,391.5C 331.896,390.72 336.063,388.054 339,383.5C 341.881,370.878 344.548,358.212 347,345.5C 349.109,337.121 346.276,331.288 338.5,328C 323.591,324.585 308.591,321.751 293.5,319.5 Z"/></g>
<g><path style="opacity:0.905" fill="#fceac0" d="M 414.5,533.5 C 431.297,530.812 443.131,537.146 450,552.5C 452.458,567.957 454.625,583.457 456.5,599C 454.947,613.885 446.947,623.218 432.5,627C 418.317,628.71 404.15,630.544 390,632.5C 376.471,631.244 367.471,624.244 363,611.5C 360.509,596.746 358.676,581.913 357.5,567C 357.46,554.379 363.127,545.379 374.5,540C 387.909,537.487 401.242,535.32 414.5,533.5 Z M 423.5,547.5 C 410.011,549.562 396.344,551.396 382.5,553C 375.896,555.012 372.229,559.512 371.5,566.5C 373.47,579.46 375.304,592.46 377,605.5C 378.433,612.598 382.766,616.598 390,617.5C 401.462,615.72 412.962,614.22 424.5,613C 434.302,613.275 439.969,608.608 441.5,599C 439.76,585.157 437.927,571.323 436,557.5C 433.734,551.729 429.567,548.395 423.5,547.5 Z"/></g>
</svg>
