<?xml version="1.0" encoding="UTF-8"?>
<!DOCTYPE svg PUBLIC "-//W3C//DTD SVG 1.1//EN" "http://www.w3.org/Graphics/SVG/1.1/DTD/svg11.dtd">
<svg xmlns="http://www.w3.org/2000/svg" version="1.1" width="800px" height="800px" style="shape-rendering:geometricPrecision; text-rendering:geometricPrecision; image-rendering:optimizeQuality; fill-rule:evenodd; clip-rule:evenodd" xmlns:xlink="http://www.w3.org/1999/xlink">
<g><path style="opacity:0.905" fill="#fceac0" d="M 376.5,82.5 C 392.17,82.3334 407.837,82.5001 423.5,83C 424,83.5 424.5,84 425,84.5C 426.479,107.409 426.979,130.409 426.5,153.5C 484.993,160.325 526.827,190.325 552,243.5C 558.517,259.901 562.35,276.901 563.5,294.5C 568.765,293.571 573.265,294.904 577,298.5C 577.667,312.167 577.667,325.833 577,339.5C 575.786,341.049 574.286,342.215 572.5,343C 569.183,343.498 565.85,343.665 562.5,343.5C 551.632,466.829 540.132,589.829 528,712.5C 527.215,714.286 526.049,715.786 524.5,717C 441.5,717.667 358.5,717.667 275.5,717C 273.951,715.786 272.785,714.286 272,712.5C 259.868,589.83 248.368,466.83 237.5,343.5C 234.15,343.665 230.817,343.498 227.5,343C 225.714,342.215 224.214,341.049 223,339.5C 222.333,325.833 222.333,312.167 223,298.5C 226.735,294.904 231.235,293.571 236.5,294.5C 241.689,233.917 271.689,190.75 326.5,165C 341.555,158.689 357.222,154.855 373.5,153.5C 373.333,131.164 373.5,108.831 374,86.5C 374.662,85.0161 375.496,83.6828 376.5,82.5 Z M 388.5,97.5 C 396.167,97.5 403.833,97.5 411.5,97.5C 411.667,116.17 411.5,134.836 411,153.5C 403.667,152.167 396.333,152.167 389,153.5C 388.5,134.836 388.333,116.17 388.5,97.5 Z M 371.5,168.5 C 390.503,168.333 409.503,168.5 428.5,169C 477.147,175.355 512.314,200.188 534,243.5C 509.445,232.513 487.945,236.846 469.5,256.5C 450.224,236.136 428.057,232.136 403,244.5C 382.81,222.232 359.31,218.065 332.5,232C 324.252,238.246 317.419,245.746 312,254.5C 293.908,246.779 276.574,248.112 260,258.5C 273.401,219.76 299.234,192.593 337.5,177C 348.674,172.982 360.007,170.148 371.5,168.5 Z M 352.5,239.5 C 364.738,237.809 375.738,240.642 385.5,248C 389.529,252.692 393.529,257.358 397.5,262C 399.5,262.667 401.5,262.667 403.5,262C 422.319,248.583 440.153,249.75 457,265.5C 459.71,269.753 462.543,273.92 465.5,278C 468.634,278.79 471.634,278.457 474.5,277C 484.796,256.354 501.129,249.021 523.5,255C 539.716,262.574 548.05,275.408 548.5,293.5C 449.833,294.833 351.167,294.833 252.5,293.5C 261.754,268.707 279.087,260.207 304.5,268C 307.833,270 311.167,272 314.5,274C 316.971,274.706 319.305,274.373 321.5,273C 324.429,265.884 327.929,259.05 332,252.5C 337.697,246.242 344.53,241.909 352.5,239.5 Z M 237.5,310.5 C 345.833,310.5 454.167,310.5 562.5,310.5C 562.5,316.167 562.5,321.833 562.5,327.5C 454.167,327.5 345.833,327.5 237.5,327.5C 237.5,321.833 237.5,316.167 237.5,310.5 Z M 252.5,343.5 C 350.833,343.5 449.167,343.5 547.5,343.5C 536.348,462.906 525.015,582.573 513.5,702.5C 437.833,702.5 362.167,702.5 286.5,702.5C 274.985,582.572 263.652,462.906 252.5,343.5 Z M 394.5,567.5 C 400.45,551.18 398.95,535.513 390,520.5C 384.506,513.513 379.506,506.18 375,498.5C 369.022,482.414 372.189,468.414 384.5,456.5C 398.731,462.237 407.897,472.57 412,487.5C 418.891,512.477 415.891,536.144 403,558.5C 400.666,562 397.832,565 394.5,567.5 Z M 359.5,464.5 C 360.043,464.56 360.376,464.893 360.5,465.5C 354.161,481.909 355.661,497.576 365,512.5C 370.159,518.817 374.826,525.484 379,532.5C 385.39,548.551 382.556,562.718 370.5,575C 369.833,575.167 369.167,575.333 368.5,575.5C 360.32,572.167 353.82,566.834 349,559.5C 335.229,531.881 335.229,504.548 349,477.5C 351.955,472.713 355.455,468.38 359.5,464.5 Z M 429.5,498.5 C 436.34,498.037 443.007,499.537 449.5,503C 443.089,503.088 436.922,504.254 431,506.5C 430.817,503.635 430.317,500.969 429.5,498.5 Z M 442.5,518.5 C 450.381,518.028 458.048,519.028 465.5,521.5C 465.87,537.263 459.87,550.097 447.5,560C 435.099,569.871 421.099,575.871 405.5,578C 415.455,569.284 422.288,558.451 426,545.5C 427.982,538.238 429.649,530.905 431,523.5C 434.723,521.324 438.556,519.657 442.5,518.5 Z"/></g>
<g><path style="opacity:0.922" fill="#fceac0" d="M 373.5,440.5 C 392.114,439.724 406.614,447.057 417,462.5C 420.839,468.678 424.006,475.178 426.5,482C 445.565,482.287 461.398,489.453 474,503.5C 484.108,520.268 483.775,536.934 473,553.5C 450.649,583.059 420.982,597.059 384,595.5C 352.717,591.552 333.383,574.219 326,543.5C 319.918,515.399 324.251,489.066 339,464.5C 347.723,452.24 359.223,444.24 373.5,440.5 Z M 394.5,567.5 C 397.832,565 400.666,562 403,558.5C 415.891,536.144 418.891,512.477 412,487.5C 407.897,472.57 398.731,462.237 384.5,456.5C 372.189,468.414 369.022,482.414 375,498.5C 379.506,506.18 384.506,513.513 390,520.5C 398.95,535.513 400.45,551.18 394.5,567.5 Z M 359.5,464.5 C 355.455,468.38 351.955,472.713 349,477.5C 335.229,504.548 335.229,531.881 349,559.5C 353.82,566.834 360.32,572.167 368.5,575.5C 369.167,575.333 369.833,575.167 370.5,575C 382.556,562.718 385.39,548.551 379,532.5C 374.826,525.484 370.159,518.817 365,512.5C 355.661,497.576 354.161,481.909 360.5,465.5C 360.376,464.893 360.043,464.56 359.5,464.5 Z M 429.5,498.5 C 430.317,500.969 430.817,503.635 431,506.5C 436.922,504.254 443.089,503.088 449.5,503C 443.007,499.537 436.34,498.037 429.5,498.5 Z M 442.5,518.5 C 438.556,519.657 434.723,521.324 431,523.5C 429.649,530.905 427.982,538.238 426,545.5C 422.288,558.451 415.455,569.284 405.5,578C 421.099,575.871 435.099,569.871 447.5,560C 459.87,550.097 465.87,537.263 465.5,521.5C 458.048,519.028 450.381,518.028 442.5,518.5 Z"/></g>
<g><path style="opacity:0.024" fill="#000000" d="M 285.5,553.5 C 287.124,555.151 288.457,557.151 289.5,559.5C 288.675,560.386 287.675,560.719 286.5,560.5C 286.326,558.139 285.993,555.806 285.5,553.5 Z"/></g>
</svg>
