<?xml version="1.0" encoding="UTF-8"?>
<!DOCTYPE svg PUBLIC "-//W3C//DTD SVG 1.1//EN" "http://www.w3.org/Graphics/SVG/1.1/DTD/svg11.dtd">
<svg xmlns="http://www.w3.org/2000/svg" version="1.1" width="800px" height="800px" style="shape-rendering:geometricPrecision; text-rendering:geometricPrecision; image-rendering:optimizeQuality; fill-rule:evenodd; clip-rule:evenodd" xmlns:xlink="http://www.w3.org/1999/xlink">
<g><path style="opacity:0.337" fill="#908f8d" d="M 398.5,109.5 C 398.167,110.167 397.833,110.833 397.5,111.5C 396.636,110.312 395.636,109.145 394.5,108C 396.352,107.227 397.686,107.727 398.5,109.5 Z"/></g>
<g><path style="opacity:0.998" fill="#fbe8c0" d="M 398.5,109.5 C 416.134,124.423 427.967,143.089 434,165.5C 437.389,187.951 432.056,207.951 418,225.5C 411.333,232.833 404.667,240.167 398,247.5C 388.511,259.463 383.678,273.13 383.5,288.5C 370.674,269.623 370.174,250.289 382,230.5C 392.82,215.196 401.82,198.863 409,181.5C 417.224,156.129 413.391,132.795 397.5,111.5C 397.833,110.833 398.167,110.167 398.5,109.5 Z"/></g>
<g><path style="opacity:0.063" fill="#b5b4b4" d="M 348.5,126.5 C 348.5,127.5 348.5,128.5 348.5,129.5C 346.443,127.957 346.443,126.957 348.5,126.5 Z"/></g>
<g><path style="opacity:0.31" fill="#454546" d="M 348.5,126.5 C 349.401,127.29 350.068,128.29 350.5,129.5C 349.833,129.5 349.167,129.5 348.5,129.5C 348.5,128.5 348.5,127.5 348.5,126.5 Z"/></g>
<g><path style="opacity:0.994" fill="#fbe8bf" d="M 348.5,129.5 C 349.167,129.5 349.833,129.5 350.5,129.5C 367.966,143.198 377.3,161.198 378.5,183.5C 378.554,188.899 378.054,194.233 377,199.5C 371.472,211.375 365.472,223.041 359,234.5C 349.858,257.318 348.691,280.318 355.5,303.5C 354.833,303.833 354.167,304.167 353.5,304.5C 333.497,278.126 328.664,249.126 339,217.5C 343.143,208.546 347.81,199.88 353,191.5C 360.965,170.146 359.465,149.48 348.5,129.5 Z"/></g>
<g><path style="opacity:0.349" fill="#838180" d="M 355.5,303.5 C 356.562,304.575 356.562,305.575 355.5,306.5C 354.478,306.145 353.811,305.478 353.5,304.5C 354.167,304.167 354.833,303.833 355.5,303.5 Z"/></g>
<g><path style="opacity:0.993" fill="#fce9c0" d="M 252.5,318.5 C 333.833,318.5 415.167,318.5 496.5,318.5C 496.173,323.214 496.507,327.88 497.5,332.5C 507.489,328.419 518.156,326.919 529.5,328C 548.39,332.222 560.224,344.056 565,363.5C 567.883,390.901 558.717,413.401 537.5,431C 519.757,444.001 500.09,451.668 478.5,454C 474.721,460.112 470.555,465.945 466,471.5C 456.319,481.014 446.819,490.681 437.5,500.5C 389.503,501.667 341.503,501.833 293.5,501C 279.231,487.736 266.065,473.569 254,458.5C 243.701,442.271 237.368,424.604 235,405.5C 234.5,376.835 234.333,348.169 234.5,319.5C 240.69,319.823 246.69,319.49 252.5,318.5 Z M 259.5,344.5 C 329.833,344.5 400.167,344.5 470.5,344.5C 470.5,360.167 470.5,375.833 470.5,391.5C 469.404,414.59 461.904,435.257 448,453.5C 440.5,461 433,468.5 425.5,476C 385.167,476.667 344.833,476.667 304.5,476C 296.024,467.856 287.858,459.356 280,450.5C 268.34,435.166 261.674,417.832 260,398.5C 259.5,380.503 259.333,362.503 259.5,344.5 Z M 516.5,353.5 C 531.925,351.922 539.925,358.922 540.5,374.5C 538.82,390.031 531.82,402.531 519.5,412C 510.588,418.538 500.921,422.705 490.5,424.5C 493.675,415.444 495.509,406.111 496,396.5C 496.167,384.486 496.667,372.486 497.5,360.5C 504.052,357.678 510.385,355.344 516.5,353.5 Z"/></g>
<g><path style="opacity:0.533" fill="#e8d7b3" d="M 470.5,391.5 C 470.5,375.833 470.5,360.167 470.5,344.5C 400.167,344.5 329.833,344.5 259.5,344.5C 329.429,343.5 400.096,343.167 471.5,343.5C 471.83,359.675 471.496,375.675 470.5,391.5 Z"/></g>
</svg>
