<?xml version="1.0" encoding="UTF-8"?>
<!DOCTYPE svg PUBLIC "-//W3C//DTD SVG 1.1//EN" "http://www.w3.org/Graphics/SVG/1.1/DTD/svg11.dtd">
<svg xmlns="http://www.w3.org/2000/svg" version="1.1" width="800px" height="800px" style="shape-rendering:geometricPrecision; text-rendering:geometricPrecision; image-rendering:optimizeQuality; fill-rule:evenodd; clip-rule:evenodd" xmlns:xlink="http://www.w3.org/1999/xlink">
<g><path style="opacity:0.836" fill="#fceac0" d="M 417.5,251.5 C 421.833,251.5 426.167,251.5 430.5,251.5C 430.66,253.199 430.494,254.866 430,256.5C 423.308,259.44 421.808,264.107 425.5,270.5C 428.423,275.349 431.589,280.016 435,284.5C 437.989,296.536 433.989,305.536 423,311.5C 421.739,311.241 420.739,310.574 420,309.5C 419.695,306.503 419.862,303.503 420.5,300.5C 420.406,298.077 419.906,295.744 419,293.5C 415.5,289.167 412,284.833 408.5,280.5C 400.931,267.349 403.931,257.682 417.5,251.5 Z M 415.5,260.5 C 416.522,270.039 420.355,278.373 427,285.5C 428.325,289.428 428.658,293.428 428,297.5C 426.864,293.757 425.53,290.09 424,286.5C 419.921,282.428 416.254,278.095 413,273.5C 411.842,268.693 412.676,264.36 415.5,260.5 Z"/></g>
<g><path style="opacity:0.836" fill="#fceac0" d="M 391.5,261.5 C 393.857,261.337 396.19,261.503 398.5,262C 400.787,263.427 401.12,265.261 399.5,267.5C 396.705,268.461 394.705,270.294 393.5,273C 396.362,279.224 399.862,285.058 404,290.5C 405.774,300.911 401.94,308.578 392.5,313.5C 390.728,312.73 389.728,311.397 389.5,309.5C 392.179,304.007 391.179,299.174 386.5,295C 386.833,294.667 387.167,294.333 387.5,294C 381.525,290.108 378.191,284.108 377.5,276C 377.92,267.733 382.586,262.899 391.5,261.5 Z M 394.5,291.5 C 390.817,287.975 387.65,283.975 385,279.5C 384.105,276.534 384.605,273.867 386.5,271.5C 387.321,278.321 390.321,284.488 395.5,290C 394.944,290.383 394.611,290.883 394.5,291.5 Z"/></g>
<g><path style="opacity:0.837" fill="#fceac0" d="M 366.5,315.5 C 399.18,315.205 431.847,315.705 464.5,317C 472.597,317.264 476.93,321.431 477.5,329.5C 487.105,327.964 494.271,331.297 499,339.5C 503.989,360.333 497.156,375.166 478.5,384C 474.277,385.944 469.944,387.611 465.5,389C 460.563,389.06 455.896,390.06 451.5,392C 461.201,392.901 470.534,395.234 479.5,399C 485.643,401.998 486.976,406.498 483.5,412.5C 476.299,417.416 468.299,419.916 459.5,420C 456.221,423.279 452.887,426.613 449.5,430C 446.226,431.202 442.893,432.202 439.5,433C 418.833,433.667 398.167,433.667 377.5,433C 369.702,432.188 363.702,428.521 359.5,422C 351.177,420.669 343.177,418.336 335.5,415C 331.43,411.29 330.43,406.79 332.5,401.5C 334.316,400.185 335.983,398.685 337.5,397C 344.939,393.712 352.606,391.379 360.5,390C 358.5,388.333 356.5,386.667 354.5,385C 354.833,384.667 355.167,384.333 355.5,384C 352.453,380.526 349.953,376.692 348,372.5C 347.416,368.569 346.083,364.569 344,360.5C 343.181,354.021 342.181,347.354 341,340.5C 340.333,334.833 340.333,329.167 341,323.5C 342.48,320.337 344.98,318.504 348.5,318C 354.647,317.162 360.647,316.329 366.5,315.5 Z M 401.5,322.5 C 423.168,322.86 444.835,323.36 466.5,324C 468.97,326.066 470.304,328.733 470.5,332C 467.816,351.505 460.649,369.339 449,385.5C 426.848,405.858 402.348,409.025 375.5,395C 365.22,387.267 357.72,377.433 353,365.5C 351.359,358.915 349.526,352.415 347.5,346C 348.333,340.974 348,335.974 346.5,331C 347.88,329.676 348.214,328.343 347.5,327C 348.328,326.085 349.328,325.419 350.5,325C 367.606,323.876 384.606,323.043 401.5,322.5 Z M 479.5,336.5 C 484.126,335.7 487.96,337.034 491,340.5C 495.267,347.313 495.434,354.146 491.5,361C 491.833,361.333 492.167,361.667 492.5,362C 484.574,373.547 473.741,380.714 460,383.5C 460.39,380.686 461.557,377.686 463.5,374.5C 476.805,373.693 485.138,366.859 488.5,354C 487.454,347.121 483.454,343.621 476.5,343.5C 476.854,341.459 476.854,339.626 476.5,338C 477.737,337.768 478.737,337.268 479.5,336.5 Z M 468.5,366.5 C 469.573,362.457 471.24,358.29 473.5,354C 472.655,352.442 473.321,351.442 475.5,351C 478.814,349.835 480.814,351.002 481.5,354.5C 479.736,361.263 475.403,365.263 468.5,366.5 Z M 366.5,396.5 C 391.724,413.972 417.391,414.805 443.5,399C 445.333,398.833 447.167,398.667 449,398.5C 456.277,399.444 463.444,400.944 470.5,403C 473.29,403.561 475.623,404.894 477.5,407C 473.777,409.243 469.777,410.91 465.5,412C 456.548,413.659 447.548,414.992 438.5,416C 411.822,416.697 385.155,416.363 358.5,415C 353.699,414.622 349.032,413.622 344.5,412C 338.044,408.485 338.044,405.151 344.5,402C 351.78,399.408 359.113,397.575 366.5,396.5 Z M 370.5,422.5 C 395.167,422.5 419.833,422.5 444.5,422.5C 443.653,423.966 442.32,424.8 440.5,425C 436.558,425.993 432.558,426.66 428.5,427C 417.65,427.248 406.816,427.748 396,428.5C 387.617,428.146 379.45,426.646 371.5,424C 370.944,423.617 370.611,423.117 370.5,422.5 Z"/></g>
<g><path style="opacity:0.767" fill="#fceac0" d="M 352.5,331.5 C 354.39,331.297 355.89,331.963 357,333.5C 357.624,338.495 358.791,343.328 360.5,348C 360.167,348.333 359.833,348.667 359.5,349C 362.688,354.893 365.688,360.893 368.5,367C 366.823,370.996 364.323,371.496 361,368.5C 359.644,364.298 357.477,360.131 354.5,356C 354.833,355.667 355.167,355.333 355.5,355C 351.108,347.368 350.108,339.535 352.5,331.5 Z"/></g>
<g><path style="opacity:0.741" fill="#fceac0" d="M 368.5,372.5 C 371.987,373.445 373.32,375.778 372.5,379.5C 366.37,379.804 365.037,377.471 368.5,372.5 Z"/></g>
</svg>
