<?xml version="1.0" encoding="UTF-8"?>
<!DOCTYPE svg PUBLIC "-//W3C//DTD SVG 1.1//EN" "http://www.w3.org/Graphics/SVG/1.1/DTD/svg11.dtd">
<svg xmlns="http://www.w3.org/2000/svg" version="1.1" width="800px" height="800px" style="shape-rendering:geometricPrecision; text-rendering:geometricPrecision; image-rendering:optimizeQuality; fill-rule:evenodd; clip-rule:evenodd" xmlns:xlink="http://www.w3.org/1999/xlink">
<g><path style="opacity:0.939" fill="#fceac0" d="M 410.5,122.5 C 409.549,123.919 409.216,125.585 409.5,127.5C 408.5,127.5 407.5,127.5 406.5,127.5C 406.5,129.833 406.5,132.167 406.5,134.5C 407.5,134.5 408.5,134.5 409.5,134.5C 409.655,138.629 410.488,142.629 412,146.5C 414.559,151.289 416.892,156.289 419,161.5C 419.667,162.833 420.333,162.833 421,161.5C 421.44,163.076 422.273,164.41 423.5,165.5C 424.711,166.72 424.711,167.887 423.5,169C 424.448,169.483 425.448,169.649 426.5,169.5C 427.762,172.126 429.096,174.793 430.5,177.5C 431.524,178.853 432.857,179.52 434.5,179.5C 434.202,183.171 435.702,185.837 439,187.5C 440.921,192.471 442.588,197.471 444,202.5C 445.487,201.259 446.32,201.759 446.5,204C 447.561,210.14 447.727,216.306 447,222.5C 446.755,224.663 445.755,226.33 444,227.5C 443.183,235.815 439.683,242.649 433.5,248C 433.957,248.414 434.291,248.914 434.5,249.5C 430.333,254.504 425.833,259.171 421,263.5C 420.667,263.167 420.333,262.833 420,262.5C 419.002,265.234 417.168,266.901 414.5,267.5C 414.5,268.5 414.5,269.5 414.5,270.5C 408.162,273.399 401.995,273.066 396,269.5C 395.333,264.5 395.333,259.5 396,254.5C 396.92,254.07 397.753,253.736 398.5,253.5C 396.72,249.427 397.387,245.927 400.5,243C 401.233,241.234 401.567,239.401 401.5,237.5C 400.178,237.67 399.011,237.337 398,236.5C 397.223,233.571 397.39,230.737 398.5,228C 395.579,224.417 393.912,220.25 393.5,215.5C 391.058,215.646 390.391,214.813 391.5,213C 387.633,210.454 384.8,206.954 383,202.5C 382.667,202.833 382.333,203.167 382,203.5C 381.517,202.552 381.351,201.552 381.5,200.5C 380.325,200.719 379.325,200.386 378.5,199.5C 377.154,196.196 375.487,193.196 373.5,190.5C 372.5,190.5 371.5,190.5 370.5,190.5C 370.649,189.448 370.483,188.448 370,187.5C 362.612,180.692 357.612,172.359 355,162.5C 354.667,162.833 354.333,163.167 354,163.5C 352.4,160.891 352.234,158.224 353.5,155.5C 353.57,153.334 352.904,153.001 351.5,154.5C 350.336,148.528 350.17,142.528 351,136.5C 351.645,135.354 352.478,134.354 353.5,133.5C 353.069,132.707 352.735,131.873 352.5,131C 354.777,124.951 357.777,119.284 361.5,114C 361.167,113.667 360.833,113.333 360.5,113C 361.5,112.667 362.5,112.333 363.5,112C 365.892,109.137 368.558,106.637 371.5,104.5C 372.086,104.709 372.586,105.043 373,105.5C 373.49,104.207 373.657,102.873 373.5,101.5C 379.67,99.4522 386.004,98.1189 392.5,97.5C 392.5,96.5 392.5,95.5 392.5,94.5C 404.186,94.1678 415.852,94.5011 427.5,95.5C 429.705,100.302 430.038,105.302 428.5,110.5C 427.575,111.641 426.741,111.641 426,110.5C 425.517,111.448 425.351,112.448 425.5,113.5C 422.017,113.691 418.684,114.357 415.5,115.5C 415.5,116.5 415.5,117.5 415.5,118.5C 414.167,118.5 412.833,118.5 411.5,118.5C 411.567,119.959 411.234,121.292 410.5,122.5 Z M 386.5,123.5 C 386.461,122.244 386.961,121.244 388,120.5C 388.585,121.998 388.085,122.998 386.5,123.5 Z M 386.5,123.5 C 385.548,129.075 385.214,134.741 385.5,140.5C 386.5,140.5 387.5,140.5 388.5,140.5C 388.223,150.517 391.557,159.017 398.5,166C 398.034,167.299 398.034,168.799 398.5,170.5C 399.675,170.281 400.675,170.614 401.5,171.5C 402.491,173.323 403.824,174.823 405.5,176C 404.315,178.778 405.315,180.278 408.5,180.5C 410.991,184.779 413.491,189.779 416,195.5C 416.333,195.167 416.667,194.833 417,194.5C 417.495,196.473 417.662,198.473 417.5,200.5C 421.015,201.032 422.015,202.866 420.5,206C 424.495,213.031 424.495,220.031 420.5,227C 421.7,228.703 421.367,230.203 419.5,231.5C 418.3,223.041 416.634,214.708 414.5,206.5C 413.5,206.5 412.5,206.5 411.5,206.5C 411.66,204.801 411.494,203.134 411,201.5C 410.667,201.833 410.333,202.167 410,202.5C 409.038,199.255 407.538,196.255 405.5,193.5C 404.914,193.709 404.414,194.043 404,194.5C 403.682,192.939 402.849,191.772 401.5,191C 401.833,190.667 402.167,190.333 402.5,190C 401.552,189.517 400.552,189.351 399.5,189.5C 394.337,182.312 388.67,175.312 382.5,168.5C 380.162,163.824 377.829,159.157 375.5,154.5C 374.167,148.167 374.167,141.833 375.5,135.5C 376.593,133.651 377.926,131.984 379.5,130.5C 379.291,129.914 378.957,129.414 378.5,129C 381,127.167 383.167,125 385,122.5C 385.383,123.056 385.883,123.389 386.5,123.5 Z"/></g>
<g><path style="opacity:0.004" fill="#fceac0" d="M 410.5,122.5 C 411.833,123.167 411.833,123.167 410.5,122.5 Z"/></g>
<g><path style="opacity:0.942" fill="#fdeac1" d="M 303.5,286.5 C 364.17,286.167 424.837,286.5 485.5,287.5C 486.025,288.192 486.692,288.692 487.5,289C 492.833,289.333 498.167,289.667 503.5,290C 506.679,291.571 510.013,292.738 513.5,293.5C 514.012,296.842 516.012,298.676 519.5,299C 519.043,299.414 518.709,299.914 518.5,300.5C 519.728,302.321 521.394,303.321 523.5,303.5C 523.5,305.5 523.5,307.5 523.5,309.5C 524.5,309.5 525.5,309.5 526.5,309.5C 527.799,313.37 528.466,317.37 528.5,321.5C 529.5,321.5 530.5,321.5 531.5,321.5C 532.853,335.61 534.353,348.943 536,361.5C 540.076,363.019 543.576,364.352 546.5,365.5C 546.5,366.5 546.5,367.5 546.5,368.5C 548.199,368.34 549.866,368.506 551.5,369C 551.167,369.333 550.833,369.667 550.5,370C 551.743,372.116 552.909,374.282 554,376.5C 555.099,388.347 554.266,400.014 551.5,411.5C 550.167,411.5 548.833,411.5 547.5,411.5C 547.5,412.5 547.5,413.5 547.5,414.5C 544.886,414.295 542.552,414.295 540.5,414.5C 541.087,416.273 541.42,418.106 541.5,420C 540.077,426.423 539.244,432.923 539,439.5C 538.29,440.973 537.124,441.64 535.5,441.5C 534.113,457.936 532.779,474.269 531.5,490.5C 530.5,490.5 529.5,490.5 528.5,490.5C 527.833,502.5 527.167,514.5 526.5,526.5C 525.5,526.5 524.5,526.5 523.5,526.5C 522.167,542.833 520.833,559.167 519.5,575.5C 518.5,575.5 517.5,575.5 516.5,575.5C 516.828,580.875 516.495,586.208 515.5,591.5C 514.914,591.709 514.414,592.043 514,592.5C 513.621,602.807 511.954,612.807 509,622.5C 507.835,635.819 507.001,649.152 506.5,662.5C 505.5,662.5 504.5,662.5 503.5,662.5C 503.443,671.731 501.943,680.731 499,689.5C 498.333,690.833 497.667,690.833 497,689.5C 495.999,693.265 494.166,696.598 491.5,699.5C 490.271,700.281 488.938,700.781 487.5,701C 487.833,701.333 488.167,701.667 488.5,702C 486.866,702.494 485.199,702.66 483.5,702.5C 483.5,703.5 483.5,704.5 483.5,705.5C 428.833,705.5 374.167,705.5 319.5,705.5C 319.5,704.5 319.5,703.5 319.5,702.5C 316.833,701.833 314.167,701.167 311.5,700.5C 311.649,699.448 311.483,698.448 311,697.5C 310.667,697.833 310.333,698.167 310,698.5C 309.121,696.021 307.621,694.021 305.5,692.5C 307.011,690.162 306.677,689.496 304.5,690.5C 303.52,687.914 303.187,685.247 303.5,682.5C 302.5,682.5 301.5,682.5 300.5,682.5C 299.13,665.725 297.63,649.058 296,632.5C 295.581,631.328 294.915,630.328 294,629.5C 292.688,618.196 291.855,606.862 291.5,595.5C 290.5,595.5 289.5,595.5 288.5,595.5C 288.131,582.808 287.298,570.142 286,557.5C 285.333,558.833 284.667,558.833 284,557.5C 283.667,550.833 283.333,544.167 283,537.5C 282.692,538.308 282.192,538.975 281.5,539.5C 279.206,520.991 277.54,502.324 276.5,483.5C 275.5,483.5 274.5,483.5 273.5,483.5C 272.76,471.839 272.093,460.172 271.5,448.5C 270.5,448.5 269.5,448.5 268.5,448.5C 267.992,436.818 267.159,425.152 266,413.5C 261.77,411.917 257.27,410.917 252.5,410.5C 249.416,408.298 247.416,405.298 246.5,401.5C 245.414,392.188 245.248,382.855 246,373.5C 246.761,370.569 248.594,368.903 251.5,368.5C 251.5,367.5 251.5,366.5 251.5,365.5C 256.365,363.688 261.365,362.355 266.5,361.5C 267.63,352.201 268.63,342.868 269.5,333.5C 270.086,333.709 270.586,334.043 271,334.5C 271.343,327.332 272.177,320.332 273.5,313.5C 274.5,313.5 275.5,313.5 276.5,313.5C 277.593,308.272 279.26,303.272 281.5,298.5C 284.5,298.167 286.167,296.5 286.5,293.5C 291.268,291.363 296.268,289.863 301.5,289C 302.756,288.583 303.423,287.75 303.5,286.5 Z M 315.5,306.5 C 369,307.831 422.5,307.831 476,306.5C 476.925,307.047 477.758,307.713 478.5,308.5C 483.835,308.967 488.835,310.3 493.5,312.5C 493.5,313.5 493.5,314.5 493.5,315.5C 494.822,315.67 495.989,315.337 497,314.5C 497.761,317.431 499.594,319.097 502.5,319.5C 502.5,321.167 502.5,322.833 502.5,324.5C 503.5,324.5 504.5,324.5 505.5,324.5C 506.258,327.487 507.091,330.487 508,333.5C 508.448,335.224 509.282,335.891 510.5,335.5C 508.704,339.164 509.704,341.664 513.5,343C 512.919,343.893 512.585,344.893 512.5,346C 514.389,349.946 515.389,354.113 515.5,358.5C 463.832,358.667 412.166,358.5 360.5,358C 352.097,356.862 343.597,356.362 335,356.5C 322.246,356.896 309.913,357.563 298,358.5C 294.167,358.333 290.333,358.167 286.5,358C 287.337,356.989 287.67,355.822 287.5,354.5C 288.5,354.5 289.5,354.5 290.5,354.5C 290.334,349.489 290.501,344.489 291,339.5C 292.685,333.998 293.851,328.331 294.5,322.5C 295.5,322.5 296.5,322.5 297.5,322.5C 298.607,317.273 300.273,313.273 302.5,310.5C 306.167,309.833 309.833,309.167 313.5,308.5C 314.243,307.818 314.909,307.151 315.5,306.5 Z M 268.5,382.5 C 270.167,382.5 271.833,382.5 273.5,382.5C 273.5,381.5 273.5,380.5 273.5,379.5C 356.167,379.5 438.833,379.5 521.5,379.5C 521.5,380.5 521.5,381.5 521.5,382.5C 525.226,382.177 528.893,382.511 532.5,383.5C 533.167,384.167 533.833,384.833 534.5,385.5C 534.646,387.806 534.979,390.139 535.5,392.5C 533.865,393.681 532.198,393.681 530.5,392.5C 529.614,393.325 529.281,394.325 529.5,395.5C 496.833,395.5 464.167,395.5 431.5,395.5C 431.719,394.325 431.386,393.325 430.5,392.5C 391.543,393.494 352.543,393.827 313.5,393.5C 313.5,392.5 313.5,391.5 313.5,390.5C 297.167,390.5 280.833,390.5 264.5,390.5C 264.343,389.127 264.51,387.793 265,386.5C 266.666,387.34 266.833,386.84 265.5,385C 267.119,384.764 268.119,383.931 268.5,382.5 Z M 520.5,414.5 C 520.5,417.5 520.5,420.5 520.5,423.5C 519.5,423.5 518.5,423.5 517.5,423.5C 517.814,433.698 516.981,443.698 515,453.5C 513.467,453.056 511.967,452.723 510.5,452.5C 509.289,453.274 509.289,454.107 510.5,455C 472.167,455.667 433.833,455.667 395.5,455C 395.043,454.586 394.709,454.086 394.5,453.5C 360.507,452.5 326.507,452.167 292.5,452.5C 291.016,445.958 290.182,439.291 290,432.5C 289.692,431.692 289.192,431.025 288.5,430.5C 287.732,425.507 287.065,420.507 286.5,415.5C 286.081,414.328 285.415,413.328 284.5,412.5C 301.49,411.334 318.49,411.167 335.5,412C 335.957,412.414 336.291,412.914 336.5,413.5C 385.677,414.086 434.844,415.086 484,416.5C 496.196,416.13 508.363,415.463 520.5,414.5 Z M 406.5,473.5 C 407.404,474.209 407.737,475.209 407.5,476.5C 440.729,477.117 473.896,476.45 507,474.5C 508.167,474.833 509.333,475.167 510.5,475.5C 508.108,492.083 506.275,508.75 505,525.5C 504.586,525.043 504.086,524.709 503.5,524.5C 502.059,535.471 501.059,546.471 500.5,557.5C 499.5,557.5 498.5,557.5 497.5,557.5C 497.666,563.176 497.499,568.843 497,574.5C 494.94,584.642 493.607,594.976 493,605.5C 491.513,606.155 490.347,607.155 489.5,608.5C 435.833,609.833 382.167,609.833 328.5,608.5C 323.198,607.671 317.864,607.171 312.5,607C 312.517,603.367 312.35,599.533 312,595.5C 311.085,594.672 310.419,593.672 310,592.5C 310.131,586.215 309.131,580.215 307,574.5C 304.936,556.538 303.436,538.538 302.5,520.5C 301.5,520.5 300.5,520.5 299.5,520.5C 299.072,508.811 298.239,497.144 297,485.5C 296.333,484.167 295.667,484.167 295,485.5C 294.501,481.848 294.335,478.182 294.5,474.5C 332.004,474.832 369.337,474.498 406.5,473.5 Z M 441.5,533.5 C 445.266,539.521 448.933,545.687 452.5,552C 449.964,552.339 447.464,552.839 445,553.5C 444.5,553.167 444,552.833 443.5,552.5C 445.057,549.727 444.557,547.393 442,545.5C 441.501,541.514 441.334,537.514 441.5,533.5 Z M 360.5,537.5 C 361.117,537.611 361.617,537.944 362,538.5C 362.792,542.804 363.958,546.971 365.5,551C 355.582,552.587 350.082,558.42 349,568.5C 348,569.5 347,570.5 346,571.5C 345.374,565.805 345.541,560.138 346.5,554.5C 350.603,555.231 354.103,554.231 357,551.5C 358.232,546.834 359.399,542.167 360.5,537.5 Z M 400.5,541.5 C 403.167,541.5 405.833,541.5 408.5,541.5C 408.445,545.182 407.445,548.515 405.5,551.5C 404.5,551.5 403.5,551.5 402.5,551.5C 402.193,548.72 401.193,546.22 399.5,544C 399.743,543.098 400.077,542.265 400.5,541.5 Z M 426.5,553.5 C 428.657,554.053 428.49,555.053 426,556.5C 424.205,555.281 424.372,554.281 426.5,553.5 Z M 372.5,555.5 C 373.077,554.227 373.743,554.227 374.5,555.5C 374.03,556.463 373.363,556.463 372.5,555.5 Z M 387.5,560.5 C 389.634,564.686 389.801,569.02 388,573.5C 387.501,569.179 387.334,564.846 387.5,560.5 Z M 362.5,561.5 C 364.715,562.924 365.715,565.091 365.5,568C 365.458,569.967 364.958,571.801 364,573.5C 362.576,569.703 362.076,565.703 362.5,561.5 Z M 435.5,561.5 C 437.196,561.685 438.529,562.519 439.5,564C 434.742,569.138 433.409,568.305 435.5,561.5 Z M 444.5,563.5 C 445.773,564.077 445.773,564.743 444.5,565.5C 443.537,565.03 443.537,564.363 444.5,563.5 Z M 314.5,629.5 C 318.311,628.355 322.311,628.188 326.5,629C 326.167,629.333 325.833,629.667 325.5,630C 337.514,630.167 349.514,630.667 361.5,631.5C 361.291,632.086 360.957,632.586 360.5,633C 395.838,633.833 431.171,633.667 466.5,632.5C 466.291,631.914 465.957,631.414 465.5,631C 472.826,630.5 480.159,630.334 487.5,630.5C 487.657,631.873 487.49,633.207 487,634.5C 486.667,634.167 486.333,633.833 486,633.5C 485.667,637.833 485.333,642.167 485,646.5C 484.586,646.957 484.086,647.291 483.5,647.5C 482.98,657.345 481.813,667.012 480,676.5C 479.333,677.833 478.667,677.833 478,676.5C 477.846,679.525 476.346,681.191 473.5,681.5C 473.5,682.5 473.5,683.5 473.5,684.5C 443.617,686.106 414.45,687.439 386,688.5C 376.5,688.333 367,688.167 357.5,688C 357.833,687.667 358.167,687.333 358.5,687C 351.103,686.536 343.77,685.702 336.5,684.5C 336.5,683.5 336.5,682.5 336.5,681.5C 333.336,681.442 330.336,680.776 327.5,679.5C 327.5,678.5 327.5,677.5 327.5,676.5C 326.5,676.5 325.5,676.5 324.5,676.5C 319.028,661.541 316.695,645.874 317.5,629.5C 316.5,629.5 315.5,629.5 314.5,629.5 Z"/></g>
<g><path style="opacity:0.078" fill="#333232" d="M 410.5,482.5 C 418.426,482.768 426.26,482.768 434,482.5C 434.483,483.448 434.649,484.448 434.5,485.5C 436.857,485.337 439.19,485.503 441.5,486C 441.167,486.333 440.833,486.667 440.5,487C 441.766,487.309 442.933,487.809 444,488.5C 444.333,488.167 444.667,487.833 445,487.5C 445.982,488.759 446.315,490.092 446,491.5C 441.039,490.068 436.205,488.234 431.5,486C 425.462,485.529 419.462,485.529 413.5,486C 411.937,485.241 410.937,484.074 410.5,482.5 Z"/></g>
<g><path style="opacity:0.007" fill="#323332" d="M 447.5,490.5 C 449.337,490.639 449.67,491.306 448.5,492.5C 447.702,492.043 447.369,491.376 447.5,490.5 Z"/></g>
<g><path style="opacity:0.672" fill="#272727" d="M 331.5,505.5 C 337.509,505.334 343.509,505.501 349.5,506C 351.124,507.117 352.124,508.617 352.5,510.5C 349.911,515.1 349.911,519.767 352.5,524.5C 354.637,519.292 356.47,513.958 358,508.5C 364.062,503.693 368.728,504.693 372,511.5C 372.709,516.729 374.042,521.729 376,526.5C 376.912,523.018 377.745,519.518 378.5,516C 378.166,513.825 377.166,511.992 375.5,510.5C 376.032,508.259 377.365,506.759 379.5,506C 383.833,505.333 388.167,505.333 392.5,506C 396.32,509.935 395.82,513.435 391,516.5C 387.214,528.486 383.047,540.319 378.5,552C 380.167,552.667 381.833,552.667 383.5,552C 382.483,550.951 382.316,549.784 383,548.5C 385.731,546.054 387.731,543.054 389,539.5C 392.47,529.423 396.137,519.423 400,509.5C 403.921,505.433 408.588,504.433 414,506.5C 418.302,519.034 422.302,531.7 426,544.5C 426.667,545.167 427.333,545.833 428,546.5C 429.146,541.168 429.646,535.668 429.5,530C 429.333,524.833 429.167,519.667 429,514.5C 424.534,511.928 424.367,509.094 428.5,506C 433.5,505.333 438.5,505.333 443.5,506C 447.377,511.585 450.877,517.418 454,523.5C 455.193,518.83 454.359,514.663 451.5,511C 451.99,509.018 452.99,507.351 454.5,506C 458.833,505.333 463.167,505.333 467.5,506C 471.452,508.927 471.452,511.761 467.5,514.5C 466.815,527.199 466.149,539.865 465.5,552.5C 467.402,554.063 468.402,556.063 468.5,558.5C 467.264,561.241 466.264,564.074 465.5,567C 465.258,569.348 466.092,571.182 468,572.5C 469.378,576.898 468.212,580.398 464.5,583C 458.833,583.667 453.167,583.667 447.5,583C 446.167,581 444.833,581 443.5,583C 435.239,585.409 428.739,583.242 424,576.5C 421.628,584.543 417.462,585.543 411.5,579.5C 406.833,584.833 402.167,584.833 397.5,579.5C 388.914,585.824 381.747,584.49 376,575.5C 370.114,584.527 362.781,585.86 354,579.5C 352.833,580.667 351.667,581.833 350.5,583C 345.167,583.667 339.833,583.667 334.5,583C 332.876,581.883 331.876,580.383 331.5,578.5C 332.591,571.864 332.757,565.198 332,558.5C 330.144,556.263 330.644,554.429 333.5,553C 336.833,552.667 340.167,552.333 343.5,552C 339.464,540.03 335.964,527.864 333,515.5C 329.052,512.608 328.552,509.275 331.5,505.5 Z M 441.5,533.5 C 441.334,537.514 441.501,541.514 442,545.5C 444.557,547.393 445.057,549.727 443.5,552.5C 444,552.833 444.5,553.167 445,553.5C 447.464,552.839 449.964,552.339 452.5,552C 448.933,545.687 445.266,539.521 441.5,533.5 Z M 360.5,537.5 C 359.399,542.167 358.232,546.834 357,551.5C 354.103,554.231 350.603,555.231 346.5,554.5C 345.541,560.138 345.374,565.805 346,571.5C 347,570.5 348,569.5 349,568.5C 350.082,558.42 355.582,552.587 365.5,551C 363.958,546.971 362.792,542.804 362,538.5C 361.617,537.944 361.117,537.611 360.5,537.5 Z M 400.5,541.5 C 400.077,542.265 399.743,543.098 399.5,544C 401.193,546.22 402.193,548.72 402.5,551.5C 403.5,551.5 404.5,551.5 405.5,551.5C 407.445,548.515 408.445,545.182 408.5,541.5C 405.833,541.5 403.167,541.5 400.5,541.5 Z M 426.5,553.5 C 424.372,554.281 424.205,555.281 426,556.5C 428.49,555.053 428.657,554.053 426.5,553.5 Z M 372.5,555.5 C 373.363,556.463 374.03,556.463 374.5,555.5C 373.743,554.227 373.077,554.227 372.5,555.5 Z M 387.5,560.5 C 387.334,564.846 387.501,569.179 388,573.5C 389.801,569.02 389.634,564.686 387.5,560.5 Z M 362.5,561.5 C 362.076,565.703 362.576,569.703 364,573.5C 364.958,571.801 365.458,569.967 365.5,568C 365.715,565.091 364.715,562.924 362.5,561.5 Z M 435.5,561.5 C 433.409,568.305 434.742,569.138 439.5,564C 438.529,562.519 437.196,561.685 435.5,561.5 Z M 444.5,563.5 C 443.537,564.363 443.537,565.03 444.5,565.5C 445.773,564.743 445.773,564.077 444.5,563.5 Z"/></g>
<g><path style="opacity:0.965" fill="#9c9c9c" d="M 466.5,508.5 C 462.434,508.307 458.434,508.64 454.5,509.5C 454.611,508.883 454.944,508.383 455.5,508C 459.358,507.19 463.024,507.357 466.5,508.5 Z"/></g>
<g><path style="opacity:1" fill="#f5f5f5" d="M 404.5,507.5 C 407.685,507.02 410.519,507.686 413,509.5C 416.207,521.199 419.54,532.866 423,544.5C 424.685,546.017 426.185,547.684 427.5,549.5C 427.291,550.086 426.957,550.586 426.5,551C 420.509,551.499 414.509,551.666 408.5,551.5C 409.425,549.01 410.425,546.51 411.5,544C 411.333,542.833 411.167,541.667 411,540.5C 409.13,539.257 406.964,538.59 404.5,538.5C 399.25,537.144 396.583,539.144 396.5,544.5C 397.977,546.639 398.977,548.972 399.5,551.5C 394.833,551.5 390.167,551.5 385.5,551.5C 391.815,536.909 398.148,522.242 404.5,507.5 Z M 400.5,541.5 C 400.077,542.265 399.743,543.098 399.5,544C 401.193,546.22 402.193,548.72 402.5,551.5C 403.5,551.5 404.5,551.5 405.5,551.5C 407.445,548.515 408.445,545.182 408.5,541.5C 405.833,541.5 403.167,541.5 400.5,541.5 Z"/></g>
<g><path style="opacity:1" fill="#f4f4f4" d="M 454.5,509.5 C 458.434,508.64 462.434,508.307 466.5,508.5C 467.824,510.558 467.324,512.225 465,513.5C 464.667,525.833 464.333,538.167 464,550.5C 460.875,551.787 457.709,551.787 454.5,550.5C 449.585,541.668 444.418,533.001 439,524.5C 438.333,531.833 438.333,539.167 439,546.5C 440.892,547.617 441.725,549.284 441.5,551.5C 437.486,551.666 433.486,551.499 429.5,551C 429.043,550.586 428.709,550.086 428.5,549.5C 429.766,548.276 430.933,546.943 432,545.5C 432.667,534.833 432.667,524.167 432,513.5C 429.013,512.724 428.18,511.057 429.5,508.5C 433.833,507.167 438.167,507.167 442.5,508.5C 447.333,516.833 452.167,525.167 457,533.5C 457.667,526.833 457.667,520.167 457,513.5C 455.294,512.692 454.461,511.359 454.5,509.5 Z"/></g>
<g><path style="opacity:1" fill="#f4f4f4" d="M 333.5,507.5 C 338.511,507.334 343.511,507.501 348.5,508C 349,508.5 349.5,509 350,509.5C 349.013,511.393 348.179,513.56 347.5,516C 348.555,522.276 350.055,528.443 352,534.5C 355.163,526.714 357.83,518.714 360,510.5C 361.933,507.615 364.433,506.948 367.5,508.5C 370.308,517.347 372.808,526.347 375,535.5C 378.169,528.988 380.336,522.155 381.5,515C 380.238,513.213 379.405,511.379 379,509.5C 383.401,508.533 387.901,508.2 392.5,508.5C 392.649,509.552 392.483,510.552 392,511.5C 390.287,512.878 388.953,514.545 388,516.5C 384.444,528.334 380.611,540 376.5,551.5C 373.552,551.777 370.719,551.444 368,550.5C 365.645,542.563 363.478,534.563 361.5,526.5C 358.556,534.666 356.222,542.999 354.5,551.5C 351.223,551.784 348.057,551.451 345,550.5C 341.991,538.771 338.991,527.104 336,515.5C 334.842,513.509 333.342,511.842 331.5,510.5C 332.193,509.482 332.859,508.482 333.5,507.5 Z"/></g>
<g><path style="opacity:0.757" fill="#343434" d="M 404.5,520.5 C 405.117,520.611 405.617,520.944 406,521.5C 406.945,525.494 407.778,529.494 408.5,533.5C 405.833,533.5 403.167,533.5 400.5,533.5C 401.546,529.076 402.879,524.743 404.5,520.5 Z"/></g>
<g><path style="opacity:1" fill="#f4f4f4" d="M 343.5,558.5 C 342.51,564.31 342.177,570.31 342.5,576.5C 344.099,576.768 345.432,576.434 346.5,575.5C 346.989,572.676 348.656,571.343 351.5,571.5C 351.5,574.167 351.5,576.833 351.5,579.5C 345.833,579.5 340.167,579.5 334.5,579.5C 335.553,572.536 335.72,565.536 335,558.5C 333.383,557.464 333.216,556.297 334.5,555C 337.5,554.333 340.5,554.333 343.5,555C 344.684,556.145 344.684,557.312 343.5,558.5 Z"/></g>
<g><path style="opacity:1" fill="#ececec" d="M 367.5,579.5 C 364.833,580.833 362.167,580.833 359.5,579.5C 356.909,578.746 355.076,577.079 354,574.5C 351.18,567.511 352.346,561.344 357.5,556C 370.191,552.438 376.025,557.272 375,570.5C 374.023,573.102 372.856,575.602 371.5,578C 370.255,578.791 368.922,579.291 367.5,579.5 Z M 362.5,561.5 C 362.076,565.703 362.576,569.703 364,573.5C 364.958,571.801 365.458,569.967 365.5,568C 365.715,565.091 364.715,562.924 362.5,561.5 Z"/></g>
<g><path style="opacity:1" fill="#eeeeee" d="M 408.5,567.5 C 408.44,566.957 408.107,566.624 407.5,566.5C 406.2,569.309 406.2,571.976 407.5,574.5C 407.421,575.93 407.754,577.264 408.5,578.5C 405.914,579.48 403.247,579.813 400.5,579.5C 401.953,575.384 402.62,571.051 402.5,566.5C 402.167,563.833 401.833,561.167 401.5,558.5C 400.28,557.289 399.113,557.289 398,558.5C 397.667,564.167 397.333,569.833 397,575.5C 395.982,577.928 394.148,579.262 391.5,579.5C 388.833,579.5 386.167,579.5 383.5,579.5C 381.248,579.084 379.748,577.751 379,575.5C 378.667,569.833 378.333,564.167 378,558.5C 376.383,557.464 376.216,556.297 377.5,555C 379,554.833 380.5,554.667 382,554.5C 390.749,554.56 399.583,554.727 408.5,555C 411,558.833 413.5,562.667 416,566.5C 416.752,563.106 416.585,559.773 415.5,556.5C 417.044,554.554 419.044,554.054 421.5,555C 421.589,563.016 421.589,571.183 421.5,579.5C 419.076,579.808 416.743,579.474 414.5,578.5C 412.221,574.939 410.221,571.273 408.5,567.5 Z M 387.5,560.5 C 387.334,564.846 387.501,569.179 388,573.5C 389.801,569.02 389.634,564.686 387.5,560.5 Z"/></g>
<g><path style="opacity:1" fill="#f2f2f1" d="M 442.5,579.5 C 439.167,579.833 435.833,580.167 432.5,580.5C 426.454,578.273 423.788,573.773 424.5,567C 425.846,555.733 432.012,551.9 443,555.5C 443.758,557.769 443.591,559.936 442.5,562C 441.833,562.667 441.167,562.667 440.5,562C 438.665,558.082 436.165,557.582 433,560.5C 431.637,564.761 431.304,569.095 432,573.5C 433.099,576.039 434.766,576.705 437,575.5C 437.107,572.869 437.273,570.369 437.5,568C 439.833,567.333 442.167,567.333 444.5,568C 444.957,568.414 445.291,568.914 445.5,569.5C 444.756,572.443 444.256,575.443 444,578.5C 443.617,579.056 443.117,579.389 442.5,579.5 Z"/></g>
<g><path style="opacity:1" fill="#f3f3f3" d="M 460.5,559.5 C 459.081,558.549 457.415,558.216 455.5,558.5C 455.192,560.924 455.526,563.257 456.5,565.5C 457.107,565.376 457.44,565.043 457.5,564.5C 458.684,562.59 460.184,562.257 462,563.5C 462.736,566.592 462.569,569.592 461.5,572.5C 462.833,572.5 464.167,572.5 465.5,572.5C 465.802,575.059 465.468,577.393 464.5,579.5C 459.167,579.5 453.833,579.5 448.5,579.5C 448.778,571.38 448.444,563.047 447.5,554.5C 453.176,554.334 458.843,554.501 464.5,555C 466.053,557.837 465.72,560.337 463.5,562.5C 462.145,561.812 461.145,560.812 460.5,559.5 Z"/></g>
<g><path style="opacity:0.671" fill="#1f1f1f" d="M 387.5,556.5 C 388.721,557.028 389.887,557.695 391,558.5C 391.667,564.167 391.667,569.833 391,575.5C 389.062,576.86 387.396,576.527 386,574.5C 385.333,569.167 385.333,563.833 386,558.5C 386.717,557.956 387.217,557.289 387.5,556.5 Z M 387.5,560.5 C 387.334,564.846 387.501,569.179 388,573.5C 389.801,569.02 389.634,564.686 387.5,560.5 Z"/></g>
<g><path style="opacity:0.692" fill="#222222" d="M 361.5,558.5 C 363.722,558.178 365.556,558.845 367,560.5C 367.667,564.833 367.667,569.167 367,573.5C 365.522,576.993 363.522,577.326 361,574.5C 360.267,569.115 360.433,563.782 361.5,558.5 Z M 362.5,561.5 C 362.076,565.703 362.576,569.703 364,573.5C 364.958,571.801 365.458,569.967 365.5,568C 365.715,565.091 364.715,562.924 362.5,561.5 Z"/></g>
<g><path style="opacity:0.937" fill="#5b5b5b" d="M 343.5,558.5 C 343.5,564.167 343.5,569.833 343.5,575.5C 344.5,575.5 345.5,575.5 346.5,575.5C 345.432,576.434 344.099,576.768 342.5,576.5C 342.177,570.31 342.51,564.31 343.5,558.5 Z"/></g>
<g><path style="opacity:0.951" fill="#767676" d="M 460.5,559.5 C 459.167,559.5 457.833,559.5 456.5,559.5C 456.216,561.415 456.549,563.081 457.5,564.5C 457.44,565.043 457.107,565.376 456.5,565.5C 455.526,563.257 455.192,560.924 455.5,558.5C 457.415,558.216 459.081,558.549 460.5,559.5 Z"/></g>
<g><path style="opacity:0.945" fill="#6f6f6f" d="M 408.5,567.5 C 407.532,569.607 407.198,571.941 407.5,574.5C 406.2,571.976 406.2,569.309 407.5,566.5C 408.107,566.624 408.44,566.957 408.5,567.5 Z"/></g>
<g><path style="opacity:0.859" fill="#313131" d="M 457.5,569.5 C 458.236,571.229 459.57,572.229 461.5,572.5C 460.902,575.821 459.235,576.821 456.5,575.5C 456.205,573.265 456.539,571.265 457.5,569.5 Z"/></g>
<g><path style="opacity:0.953" fill="#787878" d="M 457.5,569.5 C 456.539,571.265 456.205,573.265 456.5,575.5C 455.203,573.307 455.203,570.973 456.5,568.5C 457.107,568.624 457.44,568.957 457.5,569.5 Z"/></g>
<g><path style="opacity:0.961" fill="#7d7d7d" d="M 359.5,579.5 C 362.167,580.833 364.833,580.833 367.5,579.5C 366.688,580.993 365.355,581.66 363.5,581.5C 361.645,581.66 360.312,580.993 359.5,579.5 Z"/></g>
<g><path style="opacity:0.961" fill="#959595" d="M 383.5,579.5 C 386.167,579.5 388.833,579.5 391.5,579.5C 388.91,582.059 386.243,582.059 383.5,579.5 Z"/></g>
<g><path style="opacity:0.941" fill="#6a6a6a" d="M 442.5,579.5 C 442.631,580.376 442.298,581.043 441.5,581.5C 438.418,581.525 435.418,581.192 432.5,580.5C 435.833,580.167 439.167,579.833 442.5,579.5 Z"/></g>
<g><path style="opacity:0.941" fill="#636363" d="M 448.5,579.5 C 453.833,579.5 459.167,579.5 464.5,579.5C 462.257,580.812 459.59,581.478 456.5,581.5C 453.41,581.478 450.743,580.812 448.5,579.5 Z"/></g>
<g><path style="opacity:0.022" fill="#313131" d="M 403.5,607.5 C 398.216,608.186 392.882,608.186 387.5,607.5C 387.389,606.883 387.056,606.383 386.5,606C 382.789,605.825 379.122,605.325 375.5,604.5C 373.851,603.012 371.851,602.012 369.5,601.5C 368.001,600.096 368.334,599.43 370.5,599.5C 373.279,600.389 375.945,601.556 378.5,603C 387.17,604.215 395.504,605.715 403.5,607.5 Z"/></g>
<g><path style="opacity:0.032" fill="#333232" d="M 417.5,600.5 C 418.376,600.369 419.043,600.702 419.5,601.5C 417.149,602.012 415.149,603.012 413.5,604.5C 411.5,605.833 409.5,605.833 407.5,604.5C 410.688,602.554 414.021,601.221 417.5,600.5 Z"/></g>
</svg>
