<?xml version="1.0" encoding="UTF-8"?>
<!DOCTYPE svg PUBLIC "-//W3C//DTD SVG 1.1//EN" "http://www.w3.org/Graphics/SVG/1.1/DTD/svg11.dtd">
<svg xmlns="http://www.w3.org/2000/svg" version="1.1" width="800px" height="800px" style="shape-rendering:geometricPrecision; text-rendering:geometricPrecision; image-rendering:optimizeQuality; fill-rule:evenodd; clip-rule:evenodd" xmlns:xlink="http://www.w3.org/1999/xlink">
<g><path style="opacity:0.901" fill="#fceac0" d="M 455.5,202.5 C 463.875,201.301 471.541,202.968 478.5,207.5C 491.367,218.338 502.367,230.004 511.5,242.5C 513.947,249.325 512.114,254.658 506,258.5C 505.51,259.793 505.343,261.127 505.5,262.5C 504.448,262.351 503.448,262.517 502.5,263C 500.43,268.235 496.763,269.735 491.5,267.5C 484.542,260.041 477.375,252.708 470,245.5C 466.935,255.086 464.102,265.42 461.5,276.5C 474.517,276.168 487.517,276.501 500.5,277.5C 501.937,279.021 502.604,280.855 502.5,283C 493.544,339.153 484.71,395.319 476,451.5C 475.667,451.167 475.333,450.833 475,450.5C 473.214,470.631 470.548,490.631 467,510.5C 464.711,517.57 460.211,522.737 453.5,526C 412.5,526.667 371.5,526.667 330.5,526C 325.607,524.105 322.441,520.605 321,515.5C 312.819,470.259 305.653,424.759 299.5,379C 296.671,353.502 293.837,328.002 291,302.5C 290.5,293.84 290.334,285.173 290.5,276.5C 336.707,275.95 382.54,276.617 428,278.5C 432.513,259.448 437.18,240.448 442,221.5C 444.56,213.687 449.06,207.354 455.5,202.5 Z M 440.5,277.5 C 444.285,260.499 448.119,243.499 452,226.5C 453.953,222.308 456.453,218.474 459.5,215C 462.865,214.686 466.031,214.519 469,214.5C 477.457,222.711 486.123,231.044 495,239.5C 497.057,242.462 499.224,245.295 501.5,248C 499.395,250.235 497.229,252.402 495,254.5C 494.5,253.5 494,252.5 493.5,251.5C 486.117,244.448 478.784,237.448 471.5,230.5C 466.32,228.506 462.82,230.172 461,235.5C 457.044,250.536 453.044,264.869 449,278.5C 446.281,277.556 443.448,277.223 440.5,277.5 Z M 300.5,286.5 C 342.494,287.222 384.494,287.722 426.5,288C 425.113,290.045 423.946,292.212 423,294.5C 420.07,306.75 417.403,319.084 415,331.5C 413.647,332.704 411.981,333.371 410,333.5C 396.182,331.121 382.348,328.788 368.5,326.5C 354.498,325.188 340.498,325.188 326.5,326.5C 321.682,327.158 317.182,328.491 313,330.5C 311.396,329.351 309.73,329.351 308,330.5C 307.05,329.978 306.216,329.311 305.5,328.5C 303.834,320.528 303.501,312.528 304.5,304.5C 306.198,311.934 308.031,319.267 310,326.5C 313.107,327.349 316.107,327.683 319,327.5C 319.667,323.167 319.667,318.833 319,314.5C 317.531,311.037 316.697,307.37 316.5,303.5C 320.857,304.576 325.19,304.576 329.5,303.5C 329.817,300.428 329.484,297.428 328.5,294.5C 321.078,291.728 313.745,291.895 306.5,295C 304.709,297.56 303.543,300.393 303,303.5C 302.879,297.681 302.046,292.014 300.5,286.5 Z M 436.5,287.5 C 440.182,287.335 443.848,287.501 447.5,288C 442.859,303.599 439.026,319.432 436,335.5C 435.107,336.081 434.107,336.415 433,336.5C 430.681,335.291 428.181,334.458 425.5,334C 426.624,333.161 427.291,331.994 427.5,330.5C 429.267,318.435 432.1,306.769 436,295.5C 436.497,292.854 436.664,290.187 436.5,287.5 Z M 457.5,287.5 C 468.167,287.5 478.833,287.5 489.5,287.5C 487.912,294.307 487.079,301.974 487,310.5C 485.983,315.952 484.483,321.286 482.5,326.5C 480.709,327.924 478.875,329.258 477,330.5C 476.667,330.167 476.333,329.833 476,329.5C 466.898,333.159 457.398,334.826 447.5,334.5C 449.666,326.18 451.832,317.847 454,309.5C 455.709,302.246 456.876,294.912 457.5,287.5 Z M 335.5,337.5 C 363.056,337.842 390.222,340.842 417,346.5C 437.202,348.696 457.036,347.196 476.5,342C 477.891,340.98 479.391,340.147 481,339.5C 478.347,356.721 476.013,374.054 474,391.5C 473.195,394.835 472.028,398.001 470.5,401C 471.52,404.762 471.52,408.596 470.5,412.5C 465.065,441.4 460.898,469.734 458,497.5C 456.318,498.865 456.151,500.365 457.5,502C 455.391,506.383 452.891,510.549 450,514.5C 449.667,514.167 449.333,513.833 449,513.5C 447.175,514.103 445.341,514.77 443.5,515.5C 409.833,516.833 376.167,516.833 342.5,515.5C 338.188,515.016 334.855,513.016 332.5,509.5C 331.673,505.541 331.173,501.541 331,497.5C 330.667,497.833 330.333,498.167 330,498.5C 329.814,496.1 329.314,493.766 328.5,491.5C 325.649,469.946 322.149,449.28 318,429.5C 315.272,407.165 312.605,384.832 310,362.5C 309.667,362.833 309.333,363.167 309,363.5C 308.334,356.507 307.834,349.507 307.5,342.5C 310.073,341.507 312.74,340.674 315.5,340C 322.319,339.188 328.985,338.354 335.5,337.5 Z M 356.5,368.5 C 360.555,368.176 364.555,368.509 368.5,369.5C 365.37,374.13 361.704,378.297 357.5,382C 355.475,383.677 353.141,384.677 350.5,385C 345.467,385.829 340.467,385.662 335.5,384.5C 339.54,378.628 344.707,373.962 351,370.5C 351.414,370.957 351.914,371.291 352.5,371.5C 353.799,370.306 355.132,369.306 356.5,368.5 Z M 421.5,368.5 C 423.857,368.337 426.19,368.503 428.5,369C 429.138,370.707 429.138,372.54 428.5,374.5C 426.123,374.216 423.956,374.216 422,374.5C 420.388,372.544 420.222,370.544 421.5,368.5 Z M 380.5,373.5 C 383.517,374.858 385.517,377.191 386.5,380.5C 387.325,381.386 388.325,381.719 389.5,381.5C 390.756,385.087 391.256,388.754 391,392.5C 389.241,396.639 387.241,399.973 385,402.5C 381.955,405.323 379.121,408.323 376.5,411.5C 373.975,407.314 371.475,402.647 369,397.5C 368.187,395.564 367.687,393.564 367.5,391.5C 366.448,391.649 365.448,391.483 364.5,391C 370.444,385.563 375.778,379.73 380.5,373.5 Z M 340.5,395.5 C 345.628,395.112 350.628,395.612 355.5,397C 359.92,402.965 363.587,409.299 366.5,416C 350.443,418.785 339.777,412.619 334.5,397.5C 336.631,396.831 338.631,396.165 340.5,395.5 Z M 444.5,408.5 C 450.706,410.221 451.039,412.887 445.5,416.5C 444.016,414.926 442.349,413.593 440.5,412.5C 441.549,410.784 442.882,409.451 444.5,408.5 Z M 401.5,450.5 C 408.002,450.555 414.502,450.555 421,450.5C 423.748,452.023 426.415,453.689 429,455.5C 429.333,455.167 429.667,454.833 430,454.5C 431.395,456.994 432.895,458.661 434.5,459.5C 432.704,460.141 431.204,461.141 430,462.5C 425.55,461.629 421.216,462.296 417,464.5C 415.049,463.715 413.215,462.715 411.5,461.5C 410.914,461.709 410.414,462.043 410,462.5C 406.012,459.84 402.345,456.84 399,453.5C 398.346,454.696 397.846,454.696 397.5,453.5C 399.184,452.85 400.517,451.85 401.5,450.5 Z M 388.5,461.5 C 395.092,465.806 401.759,470.139 408.5,474.5C 406.79,481.043 405.623,487.71 405,494.5C 404.667,494.167 404.333,493.833 404,493.5C 403.667,494.833 403.333,496.167 403,497.5C 402.02,496.019 400.853,494.685 399.5,493.5C 398.914,493.709 398.414,494.043 398,494.5C 394.986,491.324 391.486,488.824 387.5,487C 385.15,484.162 383.483,480.995 382.5,477.5C 384.153,472.557 385.653,467.557 387,462.5C 388.107,463.712 388.607,463.379 388.5,461.5 Z M 344.5,463.5 C 350.359,462.074 352.359,464.074 350.5,469.5C 344.153,471.82 342.153,469.82 344.5,463.5 Z M 432.5,471.5 C 434.833,471.5 437.167,471.5 439.5,471.5C 439.631,476.978 438.798,482.311 437,487.5C 432.752,492.131 427.752,495.797 422,498.5C 420,497.167 418,497.167 416,498.5C 415.88,490.937 417.213,483.604 420,476.5C 424.351,474.891 428.517,473.224 432.5,471.5 Z"/></g>
<g><path style="opacity:0.788" fill="#fceac0" d="M 332.5,294.5 C 340.993,293.471 343.327,296.637 339.5,304C 330.718,305.396 328.384,302.229 332.5,294.5 Z"/></g>
<g><path style="opacity:0.9" fill="#fceac0" d="M 362.5,355.5 C 367.929,355.286 373.095,356.286 378,358.5C 378.414,358.043 378.914,357.709 379.5,357.5C 383.656,360.897 387.989,363.897 392.5,366.5C 393.795,370.148 396.295,373.815 400,377.5C 403.889,384.271 404.389,391.271 401.5,398.5C 398.113,404.559 394.279,410.225 390,415.5C 387.037,417.124 384.37,419.79 382,423.5C 381.667,423.167 381.333,422.833 381,422.5C 379.21,425.105 376.71,426.605 373.5,427C 368.485,427.725 363.485,428.559 358.5,429.5C 351.837,428.267 345.17,427.101 338.5,426C 328.195,417.025 322.528,405.025 321.5,390C 322.02,385.97 323.187,382.136 325,378.5C 327.589,376.312 329.422,373.646 330.5,370.5C 334.756,367.762 338.923,364.762 343,361.5C 343.333,361.833 343.667,362.167 344,362.5C 349.055,358.582 354.888,356.749 361.5,357C 362.056,356.617 362.389,356.117 362.5,355.5 Z M 356.5,368.5 C 355.132,369.306 353.799,370.306 352.5,371.5C 351.914,371.291 351.414,370.957 351,370.5C 344.707,373.962 339.54,378.628 335.5,384.5C 340.467,385.662 345.467,385.829 350.5,385C 353.141,384.677 355.475,383.677 357.5,382C 361.704,378.297 365.37,374.13 368.5,369.5C 364.555,368.509 360.555,368.176 356.5,368.5 Z M 380.5,373.5 C 375.778,379.73 370.444,385.563 364.5,391C 365.448,391.483 366.448,391.649 367.5,391.5C 367.687,393.564 368.187,395.564 369,397.5C 371.475,402.647 373.975,407.314 376.5,411.5C 379.121,408.323 381.955,405.323 385,402.5C 387.241,399.973 389.241,396.639 391,392.5C 391.256,388.754 390.756,385.087 389.5,381.5C 388.325,381.719 387.325,381.386 386.5,380.5C 385.517,377.191 383.517,374.858 380.5,373.5 Z M 340.5,395.5 C 338.631,396.165 336.631,396.831 334.5,397.5C 339.777,412.619 350.443,418.785 366.5,416C 363.587,409.299 359.92,402.965 355.5,397C 350.628,395.612 345.628,395.112 340.5,395.5 Z"/></g>
<g><path style="opacity:0.887" fill="#fceac0" d="M 416.5,357.5 C 422.031,357.578 427.531,357.578 433,357.5C 439.876,362.507 442.043,369.173 439.5,377.5C 431.582,388.155 422.582,389.155 412.5,380.5C 407.567,371.578 408.901,363.911 416.5,357.5 Z M 421.5,368.5 C 420.222,370.544 420.388,372.544 422,374.5C 423.956,374.216 426.123,374.216 428.5,374.5C 429.138,372.54 429.138,370.707 428.5,369C 426.19,368.503 423.857,368.337 421.5,368.5 Z"/></g>
<g><path style="opacity:0.876" fill="#fceac0" d="M 439.5,397.5 C 454.862,395.697 461.696,402.364 460,417.5C 452.964,428.34 444.13,430.007 433.5,422.5C 429.521,417.817 428.521,412.484 430.5,406.5C 433.133,403.086 436.133,400.086 439.5,397.5 Z M 444.5,408.5 C 442.882,409.451 441.549,410.784 440.5,412.5C 442.349,413.593 444.016,414.926 445.5,416.5C 451.039,412.887 450.706,410.221 444.5,408.5 Z"/></g>
<g><path style="opacity:0.891" fill="#fceac0" d="M 406.5,438.5 C 417.812,438.764 428.479,441.431 438.5,446.5C 447.393,452.454 451.726,461.288 451.5,473C 451.384,481.106 449.884,488.939 447,496.5C 442.667,502.155 437.001,505.822 430,507.5C 423.846,508.964 417.68,510.298 411.5,511.5C 406.864,511.387 402.53,510.221 398.5,508C 393.639,504.645 388.639,501.478 383.5,498.5C 370.568,488.143 367.901,475.476 375.5,460.5C 379.019,452.424 384.519,446.091 392,441.5C 392.333,441.833 392.667,442.167 393,442.5C 397.417,440.526 401.917,439.192 406.5,438.5 Z M 401.5,450.5 C 400.517,451.85 399.184,452.85 397.5,453.5C 397.846,454.696 398.346,454.696 399,453.5C 402.345,456.84 406.012,459.84 410,462.5C 410.414,462.043 410.914,461.709 411.5,461.5C 413.215,462.715 415.049,463.715 417,464.5C 421.216,462.296 425.55,461.629 430,462.5C 431.204,461.141 432.704,460.141 434.5,459.5C 432.895,458.661 431.395,456.994 430,454.5C 429.667,454.833 429.333,455.167 429,455.5C 426.415,453.689 423.748,452.023 421,450.5C 414.502,450.555 408.002,450.555 401.5,450.5 Z M 388.5,461.5 C 388.607,463.379 388.107,463.712 387,462.5C 385.653,467.557 384.153,472.557 382.5,477.5C 383.483,480.995 385.15,484.162 387.5,487C 391.486,488.824 394.986,491.324 398,494.5C 398.414,494.043 398.914,493.709 399.5,493.5C 400.853,494.685 402.02,496.019 403,497.5C 403.333,496.167 403.667,494.833 404,493.5C 404.333,493.833 404.667,494.167 405,494.5C 405.623,487.71 406.79,481.043 408.5,474.5C 401.759,470.139 395.092,465.806 388.5,461.5 Z M 432.5,471.5 C 428.517,473.224 424.351,474.891 420,476.5C 417.213,483.604 415.88,490.937 416,498.5C 418,497.167 420,497.167 422,498.5C 427.752,495.797 432.752,492.131 437,487.5C 438.798,482.311 439.631,476.978 439.5,471.5C 437.167,471.5 434.833,471.5 432.5,471.5 Z"/></g>
<g><path style="opacity:0.88" fill="#fceac0" d="M 342.5,452.5 C 346.514,452.334 350.514,452.501 354.5,453C 355.916,455.265 357.916,456.431 360.5,456.5C 366.76,470.311 362.594,478.978 348,482.5C 334.691,480.731 329.858,473.397 333.5,460.5C 335.167,457.5 337.5,455.167 340.5,453.5C 341.944,454.981 342.611,454.648 342.5,452.5 Z M 344.5,463.5 C 342.153,469.82 344.153,471.82 350.5,469.5C 352.359,464.074 350.359,462.074 344.5,463.5 Z"/></g>
</svg>
