<?xml version="1.0" encoding="UTF-8"?>
<!DOCTYPE svg PUBLIC "-//W3C//DTD SVG 1.1//EN" "http://www.w3.org/Graphics/SVG/1.1/DTD/svg11.dtd">
<svg xmlns="http://www.w3.org/2000/svg" version="1.1" width="800px" height="800px" style="shape-rendering:geometricPrecision; text-rendering:geometricPrecision; image-rendering:optimizeQuality; fill-rule:evenodd; clip-rule:evenodd" xmlns:xlink="http://www.w3.org/1999/xlink">
<g><path style="opacity:1" fill="#7c6638" d="M 451.5,224.5 C 455.183,226.25 459.183,226.917 463.5,226.5C 457.833,227.167 452.167,227.833 446.5,228.5C 439.891,227.577 433.224,227.244 426.5,227.5C 420.833,227.5 415.167,227.5 409.5,227.5C 406.833,227.5 404.167,227.5 401.5,227.5C 406.934,226.044 412.6,225.21 418.5,225C 429.495,224.5 440.495,224.333 451.5,224.5 Z"/></g>
<g><path style="opacity:0.843" fill="#846c48" d="M 400.5,227.5 C 396.714,229.176 392.714,230.842 388.5,232.5C 386.958,233.301 385.292,233.634 383.5,233.5C 388.667,230.332 394.334,228.332 400.5,227.5 Z"/></g>
<g><path style="opacity:0.249" fill="#655637" d="M 451.5,224.5 C 461.134,225.392 470.801,225.725 480.5,225.5C 480.5,233.5 480.5,241.5 480.5,249.5C 479.833,249.5 479.167,249.5 478.5,249.5C 478.666,242.825 478.5,236.158 478,229.5C 477.308,228.975 476.808,228.308 476.5,227.5C 472.217,226.508 467.884,226.174 463.5,226.5C 459.183,226.917 455.183,226.25 451.5,224.5 Z"/></g>
<g><path style="opacity:1" fill="#b18b4b" d="M 400.5,227.5 C 400.833,227.5 401.167,227.5 401.5,227.5C 404.167,227.5 406.833,227.5 409.5,227.5C 408.067,229.518 408.401,231.185 410.5,232.5C 407.5,232.5 404.5,232.5 401.5,232.5C 401.67,233.822 401.337,234.989 400.5,236C 416.943,251.719 433.276,267.552 449.5,283.5C 450.262,284.628 450.929,285.795 451.5,287C 448.854,287.497 446.187,287.664 443.5,287.5C 429.17,275.054 415.504,261.72 402.5,247.5C 399.585,246.383 397.585,244.383 396.5,241.5C 395.3,240.469 393.966,239.635 392.5,239C 393.833,238.333 394.833,237.333 395.5,236C 393.5,235.667 391.5,235.333 389.5,235C 388.748,234.329 388.414,233.496 388.5,232.5C 392.714,230.842 396.714,229.176 400.5,227.5 Z"/></g>
<g><path style="opacity:1" fill="#a68243" d="M 410.5,232.5 C 415.833,232.5 421.167,232.5 426.5,232.5C 426.5,233.5 426.5,234.5 426.5,235.5C 419.492,235.334 412.492,235.5 405.5,236C 406.766,236.309 407.933,236.809 409,237.5C 411.498,236.221 413.998,236.221 416.5,237.5C 419.019,239.945 421.352,242.612 423.5,245.5C 424.72,246.711 425.887,246.711 427,245.5C 427.645,246.646 428.478,247.646 429.5,248.5C 429.291,249.086 428.957,249.586 428.5,250C 432.137,253.824 436.137,256.99 440.5,259.5C 440.977,260.478 441.643,261.311 442.5,262C 440.699,262.317 440.366,262.984 441.5,264C 444.731,265.269 447.064,267.435 448.5,270.5C 449.72,271.711 450.887,271.711 452,270.5C 452.645,271.646 453.478,272.646 454.5,273.5C 454.291,274.086 453.957,274.586 453.5,275C 456.356,277.022 458.689,279.522 460.5,282.5C 463.703,282.982 466.369,284.315 468.5,286.5C 469.679,287.577 472.346,287.91 476.5,287.5C 476.5,288.167 476.5,288.833 476.5,289.5C 462.464,289.219 448.464,289.552 434.5,290.5C 435.234,289.292 435.567,287.959 435.5,286.5C 437.143,286.48 438.476,287.147 439.5,288.5C 440.736,287.754 442.07,287.421 443.5,287.5C 446.187,287.664 448.854,287.497 451.5,287C 450.929,285.795 450.262,284.628 449.5,283.5C 433.276,267.552 416.943,251.719 400.5,236C 401.337,234.989 401.67,233.822 401.5,232.5C 404.5,232.5 407.5,232.5 410.5,232.5 Z"/></g>
<g><path style="opacity:1" fill="#8d6d34" d="M 426.5,227.5 C 433.224,227.244 439.891,227.577 446.5,228.5C 446.297,230.044 445.63,231.378 444.5,232.5C 450.84,237.841 457.173,243.174 463.5,248.5C 462.975,249.192 462.308,249.692 461.5,250C 463.059,250.98 464.726,251.813 466.5,252.5C 469.522,256.491 472.855,260.158 476.5,263.5C 476.702,265.989 476.202,268.323 475,270.5C 474.586,270.043 474.086,269.709 473.5,269.5C 467.39,263.225 461.056,257.058 454.5,251C 453.642,248.658 451.642,246.825 448.5,245.5C 445.885,242.382 443.051,239.382 440,236.5C 439.667,236.833 439.333,237.167 439,237.5C 438.51,236.207 438.343,234.873 438.5,233.5C 436.571,233.769 434.905,233.269 433.5,232C 434.5,231.667 435.5,231.333 436.5,231C 432.891,230.299 429.558,229.132 426.5,227.5 Z"/></g>
<g><path style="opacity:1" fill="#83642d" d="M 463.5,226.5 C 467.884,226.174 472.217,226.508 476.5,227.5C 476.808,228.308 477.308,228.975 478,229.5C 478.5,236.158 478.666,242.825 478.5,249.5C 478.5,253.833 478.5,258.167 478.5,262.5C 477.508,262.328 476.842,262.662 476.5,263.5C 472.855,260.158 469.522,256.491 466.5,252.5C 464.726,251.813 463.059,250.98 461.5,250C 462.308,249.692 462.975,249.192 463.5,248.5C 457.173,243.174 450.84,237.841 444.5,232.5C 445.63,231.378 446.297,230.044 446.5,228.5C 452.167,227.833 457.833,227.167 463.5,226.5 Z"/></g>
<g><path style="opacity:1" fill="#b79253" d="M 388.5,232.5 C 388.414,233.496 388.748,234.329 389.5,235C 391.5,235.333 393.5,235.667 395.5,236C 394.833,237.333 393.833,238.333 392.5,239C 393.966,239.635 395.3,240.469 396.5,241.5C 397.585,244.383 399.585,246.383 402.5,247.5C 415.504,261.72 429.17,275.054 443.5,287.5C 442.07,287.421 440.736,287.754 439.5,288.5C 438.476,287.147 437.143,286.48 435.5,286.5C 435.567,287.959 435.234,289.292 434.5,290.5C 433.292,289.766 431.959,289.433 430.5,289.5C 428.952,289.179 428.285,288.179 428.5,286.5C 426.799,286.034 425.299,286.034 424,286.5C 422.872,284.655 422.372,282.655 422.5,280.5C 420.712,280.785 419.045,280.452 417.5,279.5C 414.833,276.167 412.167,272.833 409.5,269.5C 407.955,268.548 406.288,268.215 404.5,268.5C 404.907,263.966 402.907,261.299 398.5,260.5C 397.691,258.929 397.357,257.262 397.5,255.5C 393.612,256.011 391.279,254.345 390.5,250.5C 389.311,249.571 387.978,249.238 386.5,249.5C 386.141,247.234 386.808,245.401 388.5,244C 386.193,243.691 384.026,242.858 382,241.5C 381.535,240.069 380.701,238.903 379.5,238C 380.252,237.329 380.586,236.496 380.5,235.5C 380.973,234.094 381.973,233.427 383.5,233.5C 385.292,233.634 386.958,233.301 388.5,232.5 Z"/></g>
<g><path style="opacity:1" fill="#977639" d="M 409.5,227.5 C 415.167,227.5 420.833,227.5 426.5,227.5C 429.558,229.132 432.891,230.299 436.5,231C 435.5,231.333 434.5,231.667 433.5,232C 434.905,233.269 436.571,233.769 438.5,233.5C 438.343,234.873 438.51,236.207 439,237.5C 439.333,237.167 439.667,236.833 440,236.5C 443.051,239.382 445.885,242.382 448.5,245.5C 451.642,246.825 453.642,248.658 454.5,251C 461.056,257.058 467.39,263.225 473.5,269.5C 474.086,269.709 474.586,270.043 475,270.5C 476.202,268.323 476.702,265.989 476.5,263.5C 476.842,262.662 477.508,262.328 478.5,262.5C 479.088,271.103 478.422,279.436 476.5,287.5C 472.346,287.91 469.679,287.577 468.5,286.5C 470.288,286.785 471.955,286.452 473.5,285.5C 465.088,277.755 457.421,270.088 450.5,262.5C 442.877,256.269 435.71,248.935 429,240.5C 426.023,241.457 423.523,240.624 421.5,238C 419.866,237.506 418.199,237.34 416.5,237.5C 413.998,236.221 411.498,236.221 409,237.5C 407.933,236.809 406.766,236.309 405.5,236C 412.492,235.5 419.492,235.334 426.5,235.5C 426.5,234.5 426.5,233.5 426.5,232.5C 421.167,232.5 415.833,232.5 410.5,232.5C 408.401,231.185 408.067,229.518 409.5,227.5 Z"/></g>
<g><path style="opacity:1" fill="#9f7c3c" d="M 416.5,237.5 C 418.199,237.34 419.866,237.506 421.5,238C 423.523,240.624 426.023,241.457 429,240.5C 435.71,248.935 442.877,256.269 450.5,262.5C 457.421,270.088 465.088,277.755 473.5,285.5C 471.955,286.452 470.288,286.785 468.5,286.5C 466.369,284.315 463.703,282.982 460.5,282.5C 458.689,279.522 456.356,277.022 453.5,275C 453.957,274.586 454.291,274.086 454.5,273.5C 453.478,272.646 452.645,271.646 452,270.5C 450.887,271.711 449.72,271.711 448.5,270.5C 447.064,267.435 444.731,265.269 441.5,264C 440.366,262.984 440.699,262.317 442.5,262C 441.643,261.311 440.977,260.478 440.5,259.5C 436.137,256.99 432.137,253.824 428.5,250C 428.957,249.586 429.291,249.086 429.5,248.5C 428.478,247.646 427.645,246.646 427,245.5C 425.887,246.711 424.72,246.711 423.5,245.5C 421.352,242.612 419.019,239.945 416.5,237.5 Z"/></g>
<g><path style="opacity:1" fill="#bf9b61" d="M 375.5,241.5 C 375.987,242.473 376.487,243.473 377,244.5C 377.667,243.167 378.333,243.167 379,244.5C 378.552,248.799 380.386,251.299 384.5,252C 383.934,254.361 384.934,256.194 387.5,257.5C 388.429,258.689 388.762,260.022 388.5,261.5C 391.462,261.955 394.129,263.121 396.5,265C 396.589,267.478 398.089,269.312 401,270.5C 401.49,271.793 401.657,273.127 401.5,274.5C 404.407,274.575 407.073,275.409 409.5,277C 408.934,279.361 409.934,281.194 412.5,282.5C 413.429,283.689 413.762,285.022 413.5,286.5C 416.462,286.955 419.129,288.121 421.5,290C 422.116,292.179 423.283,294.012 425,295.5C 426.049,293.893 427.549,293.227 429.5,293.5C 428.85,295.435 428.517,297.435 428.5,299.5C 428.167,299.5 427.833,299.5 427.5,299.5C 426.691,301.292 426.191,303.292 426,305.5C 424.878,303.376 423.378,301.543 421.5,300C 422.167,299.667 422.833,299.333 423.5,299C 419.793,294.871 415.793,291.871 411.5,290C 410.066,286.798 407.899,283.632 405,280.5C 401.685,279.397 398.851,277.564 396.5,275C 397.28,273.927 397.113,272.76 396,271.5C 393.232,268.052 390.065,265.885 386.5,265C 385.077,261.658 382.743,258.491 379.5,255.5C 376.42,253.013 374.92,254.013 375,258.5C 374.498,255.487 373.998,252.487 373.5,249.5C 371.901,249.768 370.568,249.434 369.5,248.5C 370.833,245.507 372.833,243.173 375.5,241.5 Z"/></g>
<g><path style="opacity:1" fill="#bc975a" d="M 380.5,235.5 C 380.586,236.496 380.252,237.329 379.5,238C 380.701,238.903 381.535,240.069 382,241.5C 384.026,242.858 386.193,243.691 388.5,244C 386.808,245.401 386.141,247.234 386.5,249.5C 387.978,249.238 389.311,249.571 390.5,250.5C 391.279,254.345 393.612,256.011 397.5,255.5C 397.357,257.262 397.691,258.929 398.5,260.5C 402.907,261.299 404.907,263.966 404.5,268.5C 406.288,268.215 407.955,268.548 409.5,269.5C 412.167,272.833 414.833,276.167 417.5,279.5C 419.045,280.452 420.712,280.785 422.5,280.5C 422.372,282.655 422.872,284.655 424,286.5C 425.299,286.034 426.799,286.034 428.5,286.5C 428.285,288.179 428.952,289.179 430.5,289.5C 430.567,290.959 430.234,292.292 429.5,293.5C 427.549,293.227 426.049,293.893 425,295.5C 423.283,294.012 422.116,292.179 421.5,290C 419.129,288.121 416.462,286.955 413.5,286.5C 413.762,285.022 413.429,283.689 412.5,282.5C 409.934,281.194 408.934,279.361 409.5,277C 407.073,275.409 404.407,274.575 401.5,274.5C 401.657,273.127 401.49,271.793 401,270.5C 398.089,269.312 396.589,267.478 396.5,265C 394.129,263.121 391.462,261.955 388.5,261.5C 388.762,260.022 388.429,258.689 387.5,257.5C 384.934,256.194 383.934,254.361 384.5,252C 380.386,251.299 378.552,248.799 379,244.5C 378.333,243.167 377.667,243.167 377,244.5C 376.487,243.473 375.987,242.473 375.5,241.5C 376.308,239.78 377.308,238.113 378.5,236.5C 378.842,235.662 379.508,235.328 380.5,235.5 Z"/></g>
<g><path style="opacity:1" fill="#a38d68" d="M 378.5,236.5 C 377.308,238.113 376.308,239.78 375.5,241.5C 372.833,243.173 370.833,245.507 369.5,248.5C 367.526,250.309 365.86,252.309 364.5,254.5C 363.9,255.9 362.9,256.9 361.5,257.5C 364.604,248.398 370.271,241.398 378.5,236.5 Z"/></g>
<g><path style="opacity:1" fill="#c9a672" d="M 364.5,254.5 C 364.466,257.199 365.133,259.699 366.5,262C 368.752,261.95 370.418,260.784 371.5,258.5C 374.427,260.816 374.093,262.316 370.5,263C 372.099,264.066 373.099,265.566 373.5,267.5C 377.597,268.024 379.597,270.358 379.5,274.5C 382.93,274.786 385.264,276.62 386.5,280C 389.913,281.269 392.079,283.769 393,287.5C 394.073,286.72 395.24,286.887 396.5,288C 397.26,289.441 397.926,290.941 398.5,292.5C 402.597,293.024 404.597,295.358 404.5,299.5C 407.93,299.786 410.264,301.62 411.5,305C 414.923,306.307 417.09,308.807 418,312.5C 419.073,311.72 420.24,311.887 421.5,313C 422.26,314.441 422.926,315.941 423.5,317.5C 424.325,318.386 425.325,318.719 426.5,318.5C 426.205,316.265 426.539,314.265 427.5,312.5C 427.5,316.5 427.5,320.5 427.5,324.5C 426.778,324.082 426.278,323.416 426,322.5C 424.927,323.28 423.76,323.113 422.5,322C 418.444,317.657 414.444,313.323 410.5,309C 409.552,308.517 408.552,308.351 407.5,308.5C 405.849,305.228 403.683,302.228 401,299.5C 398.92,297.877 396.754,296.377 394.5,295C 394.833,294.667 395.167,294.333 395.5,294C 394.023,291.852 392.023,290.518 389.5,290C 388.201,286.527 385.867,284.36 382.5,283.5C 382.719,282.325 382.386,281.325 381.5,280.5C 376.988,275.488 372.321,270.655 367.5,266C 366.207,265.51 364.873,265.343 363.5,265.5C 363.946,262.99 363.28,260.99 361.5,259.5C 361.5,258.833 361.5,258.167 361.5,257.5C 362.9,256.9 363.9,255.9 364.5,254.5 Z"/></g>
<g><path style="opacity:1" fill="#806c56" d="M 361.5,257.5 C 361.5,258.167 361.5,258.833 361.5,259.5C 361.5,260.167 361.5,260.833 361.5,261.5C 360.313,263.072 359.313,264.739 358.5,266.5C 358.528,263.084 359.528,260.084 361.5,257.5 Z"/></g>
<g><path style="opacity:1" fill="#ceac77" d="M 361.5,259.5 C 363.28,260.99 363.946,262.99 363.5,265.5C 364.873,265.343 366.207,265.51 367.5,266C 372.321,270.655 376.988,275.488 381.5,280.5C 382.386,281.325 382.719,282.325 382.5,283.5C 385.867,284.36 388.201,286.527 389.5,290C 392.023,290.518 394.023,291.852 395.5,294C 395.167,294.333 394.833,294.667 394.5,295C 396.754,296.377 398.92,297.877 401,299.5C 403.683,302.228 405.849,305.228 407.5,308.5C 408.552,308.351 409.552,308.517 410.5,309C 414.444,313.323 418.444,317.657 422.5,322C 423.76,323.113 424.927,323.28 426,322.5C 426.278,323.416 426.778,324.082 427.5,324.5C 427.5,328.5 427.5,332.5 427.5,336.5C 425.176,335.413 423.342,333.747 422,331.5C 421.667,331.833 421.333,332.167 421,332.5C 420.667,331.5 420.333,330.5 420,329.5C 418,328.833 416.667,327.5 416,325.5C 415.667,325.833 415.333,326.167 415,326.5C 411.69,323.18 408.69,319.513 406,315.5C 403.01,315.041 400.844,313.041 399.5,309.5C 398.252,308.96 397.085,308.293 396,307.5C 394.885,304.775 393.218,302.442 391,300.5C 390.333,301.833 389.667,301.833 389,300.5C 388.517,299.552 388.351,298.552 388.5,297.5C 384.618,296.789 382.118,294.456 381,290.5C 378.01,290.041 375.844,288.041 374.5,284.5C 372.483,283.826 370.817,282.659 369.5,281C 369.833,280.667 370.167,280.333 370.5,280C 368.167,279 366.5,277.333 365.5,275C 363.19,274.503 360.857,274.337 358.5,274.5C 360.878,270.567 361.878,266.234 361.5,261.5C 361.5,260.833 361.5,260.167 361.5,259.5 Z"/></g>
<g><path style="opacity:1" fill="#d2b280" d="M 358.5,274.5 C 360.857,274.337 363.19,274.503 365.5,275C 366.5,277.333 368.167,279 370.5,280C 370.167,280.333 369.833,280.667 369.5,281C 370.817,282.659 372.483,283.826 374.5,284.5C 375.844,288.041 378.01,290.041 381,290.5C 382.118,294.456 384.618,296.789 388.5,297.5C 388.351,298.552 388.517,299.552 389,300.5C 389.667,301.833 390.333,301.833 391,300.5C 393.218,302.442 394.885,304.775 396,307.5C 397.085,308.293 398.252,308.96 399.5,309.5C 400.844,313.041 403.01,315.041 406,315.5C 408.69,319.513 411.69,323.18 415,326.5C 415.333,326.167 415.667,325.833 416,325.5C 416.667,327.5 418,328.833 420,329.5C 420.333,330.5 420.667,331.5 421,332.5C 421.333,332.167 421.667,331.833 422,331.5C 423.342,333.747 425.176,335.413 427.5,336.5C 427.97,337.693 428.97,338.36 430.5,338.5C 433.14,339.095 435.807,339.428 438.5,339.5C 434.702,340.483 430.702,340.817 426.5,340.5C 426.5,341.5 426.5,342.5 426.5,343.5C 430.904,341.872 434.57,342.872 437.5,346.5C 436.144,348.538 434.477,348.872 432.5,347.5C 432.53,346.503 432.03,345.836 431,345.5C 428.476,344.896 425.976,344.229 423.5,343.5C 420.34,339.851 417.673,335.851 415.5,331.5C 414.369,330.396 413.535,330.729 413,332.5C 411.167,331.333 409.667,329.833 408.5,328C 408.833,327.667 409.167,327.333 409.5,327C 408.5,326.5 407.5,326 406.5,325.5C 405.795,323.328 404.795,321.328 403.5,319.5C 401.902,319.39 400.235,319.057 398.5,318.5C 397.502,315.747 395.669,313.747 393,312.5C 392.869,309.629 391.703,307.295 389.5,305.5C 388.808,306.025 388.308,306.692 388,307.5C 386.926,306.382 385.76,305.382 384.5,304.5C 383.359,303.575 383.359,302.741 384.5,302C 383.5,301.5 382.5,301 381.5,300.5C 380.896,297.737 379.562,295.403 377.5,293.5C 374.822,294.502 372.489,293.835 370.5,291.5C 368.573,288.222 366.74,284.889 365,281.5C 364,281.5 363,281.5 362,281.5C 361.506,283.134 361.34,284.801 361.5,286.5C 360.167,286.5 358.833,286.5 357.5,286.5C 357.833,282.5 358.167,278.5 358.5,274.5 Z"/></g>
<g><path style="opacity:1" fill="#c5a16b" d="M 369.5,248.5 C 370.568,249.434 371.901,249.768 373.5,249.5C 373.998,252.487 374.498,255.487 375,258.5C 374.92,254.013 376.42,253.013 379.5,255.5C 382.743,258.491 385.077,261.658 386.5,265C 390.065,265.885 393.232,268.052 396,271.5C 397.113,272.76 397.28,273.927 396.5,275C 398.851,277.564 401.685,279.397 405,280.5C 407.899,283.632 410.066,286.798 411.5,290C 415.793,291.871 419.793,294.871 423.5,299C 422.833,299.333 422.167,299.667 421.5,300C 423.378,301.543 424.878,303.376 426,305.5C 426.191,303.292 426.691,301.292 427.5,299.5C 427.5,303.833 427.5,308.167 427.5,312.5C 426.539,314.265 426.205,316.265 426.5,318.5C 425.325,318.719 424.325,318.386 423.5,317.5C 422.926,315.941 422.26,314.441 421.5,313C 420.24,311.887 419.073,311.72 418,312.5C 417.09,308.807 414.923,306.307 411.5,305C 410.264,301.62 407.93,299.786 404.5,299.5C 404.597,295.358 402.597,293.024 398.5,292.5C 397.926,290.941 397.26,289.441 396.5,288C 395.24,286.887 394.073,286.72 393,287.5C 392.079,283.769 389.913,281.269 386.5,280C 385.264,276.62 382.93,274.786 379.5,274.5C 379.597,270.358 377.597,268.024 373.5,267.5C 373.099,265.566 372.099,264.066 370.5,263C 374.093,262.316 374.427,260.816 371.5,258.5C 370.418,260.784 368.752,261.95 366.5,262C 365.133,259.699 364.466,257.199 364.5,254.5C 365.86,252.309 367.526,250.309 369.5,248.5 Z"/></g>
<g><path style="opacity:1" fill="#857049" d="M 478.5,249.5 C 479.167,249.5 479.833,249.5 480.5,249.5C 480.5,262.833 480.5,276.167 480.5,289.5C 479.167,289.5 477.833,289.5 476.5,289.5C 476.5,288.833 476.5,288.167 476.5,287.5C 478.422,279.436 479.088,271.103 478.5,262.5C 478.5,258.167 478.5,253.833 478.5,249.5 Z"/></g>
<g><path style="opacity:1" fill="#ab967c" d="M 361.5,261.5 C 361.878,266.234 360.878,270.567 358.5,274.5C 358.167,278.5 357.833,282.5 357.5,286.5C 356.531,294.748 356.198,303.082 356.5,311.5C 356.5,317.833 356.5,324.167 356.5,330.5C 355.833,330.5 355.167,330.5 354.5,330.5C 354.333,315.496 354.5,300.496 355,285.5C 355.122,278.843 356.288,272.509 358.5,266.5C 359.313,264.739 360.313,263.072 361.5,261.5 Z"/></g>
<g><path style="opacity:1" fill="#d9ba8c" d="M 357.5,286.5 C 358.833,286.5 360.167,286.5 361.5,286.5C 362.302,287.952 362.802,289.618 363,291.5C 364.049,290.483 365.216,290.316 366.5,291C 369.481,294.4 372.314,297.9 375,301.5C 379.948,304.448 383.948,308.448 387,313.5C 388.171,314.893 389.671,315.727 391.5,316C 398.963,323.5 406.129,331.333 413,339.5C 414.067,340.191 415.234,340.691 416.5,341C 423.963,348.5 431.129,356.333 438,364.5C 439.067,365.191 440.234,365.691 441.5,366C 450.109,374.278 458.443,382.945 466.5,392C 466.095,392.945 465.428,393.612 464.5,394C 467.393,395.149 470.393,395.649 473.5,395.5C 474.167,395.5 474.833,395.5 475.5,395.5C 469.537,396.676 463.537,396.176 457.5,394C 459.664,393.086 461.664,391.919 463.5,390.5C 459.599,389.177 455.599,388.177 451.5,387.5C 452.025,386.808 452.692,386.308 453.5,386C 452.726,383.56 451.06,382.227 448.5,382C 440.711,374.434 433.377,366.434 426.5,358C 421.702,355.72 417.702,351.887 414.5,346.5C 408.539,343.265 404.372,338.932 402,333.5C 397.018,331.035 392.851,327.035 389.5,321.5C 384.027,318.272 379.693,313.938 376.5,308.5C 371.824,305.673 367.658,301.673 364,296.5C 363.505,298.473 363.338,300.473 363.5,302.5C 362.883,302.611 362.383,302.944 362,303.5C 361.667,301.833 361.333,300.167 361,298.5C 358.293,302.508 357.459,306.841 358.5,311.5C 358.5,311.833 358.5,312.167 358.5,312.5C 357.833,312.167 357.167,311.833 356.5,311.5C 356.198,303.082 356.531,294.748 357.5,286.5 Z"/></g>
<g><path style="opacity:1" fill="#d4b586" d="M 432.5,347.5 C 431.503,347.47 430.836,347.97 430.5,349C 431.444,350.477 432.777,351.477 434.5,352C 433.359,352.741 433.359,353.575 434.5,354.5C 435.934,355.23 437.1,356.23 438,357.5C 438.667,356.833 439.333,356.167 440,355.5C 442.338,360.182 445.172,364.516 448.5,368.5C 450.235,369.057 451.902,369.39 453.5,369.5C 454.631,372.255 456.298,374.589 458.5,376.5C 459.429,377.689 459.762,379.022 459.5,380.5C 461.124,380.36 462.29,381.027 463,382.5C 465.482,381.731 467.315,382.731 468.5,385.5C 468.023,386.478 467.357,387.311 466.5,388C 469.525,388.133 472.192,389.133 474.5,391C 469.939,392.274 469.606,393.774 473.5,395.5C 470.393,395.649 467.393,395.149 464.5,394C 465.428,393.612 466.095,392.945 466.5,392C 458.443,382.945 450.109,374.278 441.5,366C 440.234,365.691 439.067,365.191 438,364.5C 431.129,356.333 423.963,348.5 416.5,341C 415.234,340.691 414.067,340.191 413,339.5C 406.129,331.333 398.963,323.5 391.5,316C 389.671,315.727 388.171,314.893 387,313.5C 383.948,308.448 379.948,304.448 375,301.5C 372.314,297.9 369.481,294.4 366.5,291C 365.216,290.316 364.049,290.483 363,291.5C 362.802,289.618 362.302,287.952 361.5,286.5C 361.34,284.801 361.506,283.134 362,281.5C 363,281.5 364,281.5 365,281.5C 366.74,284.889 368.573,288.222 370.5,291.5C 372.489,293.835 374.822,294.502 377.5,293.5C 379.562,295.403 380.896,297.737 381.5,300.5C 382.5,301 383.5,301.5 384.5,302C 383.359,302.741 383.359,303.575 384.5,304.5C 385.76,305.382 386.926,306.382 388,307.5C 388.308,306.692 388.808,306.025 389.5,305.5C 391.703,307.295 392.869,309.629 393,312.5C 395.669,313.747 397.502,315.747 398.5,318.5C 400.235,319.057 401.902,319.39 403.5,319.5C 404.795,321.328 405.795,323.328 406.5,325.5C 407.5,326 408.5,326.5 409.5,327C 409.167,327.333 408.833,327.667 408.5,328C 409.667,329.833 411.167,331.333 413,332.5C 413.535,330.729 414.369,330.396 415.5,331.5C 417.673,335.851 420.34,339.851 423.5,343.5C 425.976,344.229 428.476,344.896 431,345.5C 432.03,345.836 432.53,346.503 432.5,347.5 Z"/></g>
<g><path style="opacity:1" fill="#8a724d" d="M 430.5,289.5 C 431.959,289.433 433.292,289.766 434.5,290.5C 431.744,293.018 429.744,296.018 428.5,299.5C 428.517,297.435 428.85,295.435 429.5,293.5C 430.234,292.292 430.567,290.959 430.5,289.5 Z"/></g>
<g><path style="opacity:1" fill="#dcbd92" d="M 475.5,395.5 C 475.205,393.265 475.539,391.265 476.5,389.5C 476.5,392.833 476.5,396.167 476.5,399.5C 474.833,399.5 473.167,399.5 471.5,399.5C 464.873,398.196 458.206,397.196 451.5,396.5C 452.536,391.376 450.536,388.21 445.5,387C 445.957,386.586 446.291,386.086 446.5,385.5C 440.489,380.156 434.823,374.489 429.5,368.5C 428.232,367.572 426.899,367.405 425.5,368C 426.602,370.391 425.936,370.891 423.5,369.5C 422.571,368.311 422.238,366.978 422.5,365.5C 420.217,365.392 418.217,364.559 416.5,363C 421.079,363.069 422.079,361.569 419.5,358.5C 413.573,354.02 408.24,348.853 403.5,343C 400.714,340.742 400.048,341.242 401.5,344.5C 400.609,345.59 399.609,345.59 398.5,344.5C 397.571,343.311 397.238,341.978 397.5,340.5C 395.217,340.392 393.217,339.559 391.5,338C 396.079,338.069 397.079,336.569 394.5,333.5C 387.286,327.409 380.286,321.076 373.5,314.5C 370.814,309.827 367.481,305.827 363.5,302.5C 363.338,300.473 363.505,298.473 364,296.5C 367.658,301.673 371.824,305.673 376.5,308.5C 379.693,313.938 384.027,318.272 389.5,321.5C 392.851,327.035 397.018,331.035 402,333.5C 404.372,338.932 408.539,343.265 414.5,346.5C 417.702,351.887 421.702,355.72 426.5,358C 433.377,366.434 440.711,374.434 448.5,382C 451.06,382.227 452.726,383.56 453.5,386C 452.692,386.308 452.025,386.808 451.5,387.5C 455.599,388.177 459.599,389.177 463.5,390.5C 461.664,391.919 459.664,393.086 457.5,394C 463.537,396.176 469.537,396.676 475.5,395.5 Z"/></g>
<g><path style="opacity:1" fill="#e1c399" d="M 363.5,302.5 C 367.481,305.827 370.814,309.827 373.5,314.5C 380.286,321.076 387.286,327.409 394.5,333.5C 397.079,336.569 396.079,338.069 391.5,338C 393.217,339.559 395.217,340.392 397.5,340.5C 397.238,341.978 397.571,343.311 398.5,344.5C 399.609,345.59 400.609,345.59 401.5,344.5C 400.048,341.242 400.714,340.742 403.5,343C 408.24,348.853 413.573,354.02 419.5,358.5C 422.079,361.569 421.079,363.069 416.5,363C 418.217,364.559 420.217,365.392 422.5,365.5C 422.238,366.978 422.571,368.311 423.5,369.5C 425.936,370.891 426.602,370.391 425.5,368C 426.899,367.405 428.232,367.572 429.5,368.5C 434.823,374.489 440.489,380.156 446.5,385.5C 446.291,386.086 445.957,386.586 445.5,387C 450.536,388.21 452.536,391.376 451.5,396.5C 447.227,395.535 442.894,394.869 438.5,394.5C 438.5,392.5 438.5,390.5 438.5,388.5C 435.198,387.361 433.032,385.027 432,381.5C 426.899,378.522 422.732,374.522 419.5,369.5C 407.208,358.043 395.042,346.376 383,334.5C 379.408,331.071 375.908,327.404 372.5,323.5C 371.675,322.614 370.675,322.281 369.5,322.5C 368.801,320.005 367.801,317.672 366.5,315.5C 365.5,315.5 364.5,315.5 363.5,315.5C 363.66,317.199 363.494,318.866 363,320.5C 362.817,317.635 362.317,314.969 361.5,312.5C 360.791,311.596 359.791,311.263 358.5,311.5C 357.459,306.841 358.293,302.508 361,298.5C 361.333,300.167 361.667,301.833 362,303.5C 362.383,302.944 362.883,302.611 363.5,302.5 Z"/></g>
<g><path style="opacity:1" fill="#e7cba4" d="M 361.5,312.5 C 362.317,314.969 362.817,317.635 363,320.5C 363.494,318.866 363.66,317.199 363.5,315.5C 364.5,315.5 365.5,315.5 366.5,315.5C 367.801,317.672 368.801,320.005 369.5,322.5C 370.675,322.281 371.675,322.614 372.5,323.5C 375.908,327.404 379.408,331.071 383,334.5C 395.042,346.376 407.208,358.043 419.5,369.5C 422.732,374.522 426.899,378.522 432,381.5C 433.032,385.027 435.198,387.361 438.5,388.5C 438.5,390.5 438.5,392.5 438.5,394.5C 442.894,394.869 447.227,395.535 451.5,396.5C 458.206,397.196 464.873,398.196 471.5,399.5C 458.167,399.5 444.833,399.5 431.5,399.5C 431.5,399.167 431.5,398.833 431.5,398.5C 431.5,398.167 431.5,397.833 431.5,397.5C 433.308,397.509 434.975,397.009 436.5,396C 435.351,394.256 434.017,394.089 432.5,395.5C 431.289,394.726 431.289,393.893 432.5,393C 430.423,392.808 428.423,392.308 426.5,391.5C 427.855,390.325 427.688,389.325 426,388.5C 425.309,390.891 424.309,390.891 423,388.5C 422.51,387.207 422.343,385.873 422.5,384.5C 421.448,384.649 420.448,384.483 419.5,384C 413.726,377.181 407.559,370.681 401,364.5C 400.517,363.552 400.351,362.552 400.5,361.5C 394.978,359.485 390.812,355.818 388,350.5C 383.307,347.504 379.307,343.838 376,339.5C 375.517,338.552 375.351,337.552 375.5,336.5C 371.154,335.608 367.821,333.274 365.5,329.5C 364.675,328.614 363.675,328.281 362.5,328.5C 361.725,323.203 361.392,317.87 361.5,312.5 Z"/></g>
<g><path style="opacity:1" fill="#f1d5b0" d="M 356.5,311.5 C 357.167,311.833 357.833,312.167 358.5,312.5C 358.505,320.555 359.171,328.555 360.5,336.5C 361.167,335.5 361.833,334.5 362.5,333.5C 363.833,334.5 365.167,335.5 366.5,336.5C 376.683,346.849 386.683,357.349 396.5,368C 401.559,370.612 405.392,374.445 408,379.5C 413.507,383.007 418.007,387.507 421.5,393C 424.206,393.601 426.206,395.101 427.5,397.5C 428.865,396.193 430.198,396.193 431.5,397.5C 431.5,397.833 431.5,398.167 431.5,398.5C 430.5,398.5 429.5,398.5 428.5,398.5C 426.824,399.183 426.157,400.517 426.5,402.5C 425.883,402.611 425.383,402.944 425,403.5C 423.47,401.774 422.47,399.774 422,397.5C 419.457,395.658 417.29,393.491 415.5,391C 413.324,390.837 411.491,390.004 410,388.5C 410.495,385.438 408.995,383.438 405.5,382.5C 404.772,380.807 403.772,379.307 402.5,378C 399.32,378.166 397.486,376.333 397,372.5C 394.457,370.658 392.29,368.491 390.5,366C 386.333,365.833 384.167,363.667 384,359.5C 380.833,358.333 378.667,356.167 377.5,353C 373.936,353.444 372.102,351.611 372,347.5C 369.167,346 367,343.833 365.5,341C 362.47,339.716 359.47,338.549 356.5,337.5C 356.5,335.167 356.5,332.833 356.5,330.5C 356.5,324.167 356.5,317.833 356.5,311.5 Z"/></g>
<g><path style="opacity:0.102" fill="#524636" d="M 354.5,336.5 C 355.043,336.56 355.376,336.893 355.5,337.5C 343.852,338.499 332.186,338.832 320.5,338.5C 320.5,342.167 320.5,345.833 320.5,349.5C 320.5,357.833 320.5,366.167 320.5,374.5C 320.5,383.167 320.5,391.833 320.5,400.5C 319.503,379.673 319.169,358.673 319.5,337.5C 331.345,337.828 343.012,337.495 354.5,336.5 Z"/></g>
<g><path style="opacity:1" fill="#baa27c" d="M 427.5,299.5 C 427.833,299.5 428.167,299.5 428.5,299.5C 429.241,312.388 429.241,325.055 428.5,337.5C 446.167,337.5 463.833,337.5 481.5,337.5C 481.795,339.735 481.461,341.735 480.5,343.5C 481.084,340.715 480.084,339.048 477.5,338.5C 464.499,338.8 451.499,339.133 438.5,339.5C 435.807,339.428 433.14,339.095 430.5,338.5C 428.97,338.36 427.97,337.693 427.5,336.5C 427.5,332.5 427.5,328.5 427.5,324.5C 427.5,320.5 427.5,316.5 427.5,312.5C 427.5,308.167 427.5,303.833 427.5,299.5 Z"/></g>
<g><path style="opacity:1" fill="#f7ddbe" d="M 426.5,402.5 C 426.157,400.517 426.824,399.183 428.5,398.5C 428.5,411.5 428.5,424.5 428.5,437.5C 428.167,437.5 427.833,437.5 427.5,437.5C 427.5,437.167 427.5,436.833 427.5,436.5C 427.717,431.77 427.383,427.103 426.5,422.5C 427.467,418.149 425.8,415.815 421.5,415.5C 421.5,414.5 421.5,413.5 421.5,412.5C 420.5,412.5 419.5,412.5 418.5,412.5C 418.657,411.127 418.49,409.793 418,408.5C 411.667,406.167 407.333,401.833 405,395.5C 401.399,393.951 398.233,391.784 395.5,389C 395.833,388.667 396.167,388.333 396.5,388C 395.552,387.517 394.552,387.351 393.5,387.5C 393.579,386.07 393.246,384.736 392.5,383.5C 386.295,380.795 381.962,376.295 379.5,370C 373.358,367.69 369.024,363.524 366.5,357.5C 362.181,355.158 358.181,352.491 354.5,349.5C 354.5,348.5 354.5,347.5 354.5,346.5C 356.731,345.376 359.064,344.876 361.5,345C 364.585,347.796 367.252,350.796 369.5,354C 371.376,355.863 373.543,357.363 376,358.5C 376.483,359.448 376.649,360.448 376.5,361.5C 379.388,361.22 380.888,362.553 381,365.5C 382.739,367.741 384.906,369.408 387.5,370.5C 391.128,375.773 395.628,380.107 401,383.5C 401.483,384.448 401.649,385.448 401.5,386.5C 404.388,386.22 405.888,387.553 406,390.5C 407.637,392.81 409.804,394.31 412.5,395C 414.833,398 417.167,401 419.5,404C 421.285,406.226 423.618,407.392 426.5,407.5C 426.5,405.833 426.5,404.167 426.5,402.5 Z"/></g>
<g><path style="opacity:0.824" fill="#796851" d="M 481.5,337.5 C 482.499,342.005 482.499,346.672 481.5,351.5C 480.527,349.052 480.194,346.385 480.5,343.5C 481.461,341.735 481.795,339.735 481.5,337.5 Z"/></g>
<g><path style="opacity:1" fill="#dcbe93" d="M 325.5,340.5 C 325.5,341.167 325.833,341.5 326.5,341.5C 326.5,342.5 326.5,343.5 326.5,344.5C 325.612,347.054 325.279,349.721 325.5,352.5C 326.552,352.351 327.552,352.517 328.5,353C 334.291,359.491 340.457,365.658 347,371.5C 347.483,372.448 347.649,373.448 347.5,374.5C 349.76,375.139 351.76,376.306 353.5,378C 359.291,384.491 365.457,390.658 372,396.5C 372.483,397.448 372.649,398.448 372.5,399.5C 374.76,400.139 376.76,401.306 378.5,403C 386.497,410.791 393.83,418.458 400.5,426C 408.959,433.958 417.292,442.125 425.5,450.5C 426.309,452.071 426.643,453.738 426.5,455.5C 423.354,454.69 421.687,452.69 421.5,449.5C 420.5,449.5 419.5,449.5 418.5,449.5C 418.719,448.325 418.386,447.325 417.5,446.5C 410.614,440.018 403.781,433.684 397,427.5C 396.517,426.552 396.351,425.552 396.5,424.5C 395.5,424.5 394.5,424.5 393.5,424.5C 393.719,423.325 393.386,422.325 392.5,421.5C 385.72,415.041 378.887,408.708 372,402.5C 371.517,401.552 371.351,400.552 371.5,399.5C 370.5,399.5 369.5,399.5 368.5,399.5C 368.719,398.325 368.386,397.325 367.5,396.5C 360.762,390.05 353.928,383.717 347,377.5C 346.517,376.552 346.351,375.552 346.5,374.5C 345.127,374.657 343.793,374.49 342.5,374C 342.957,373.586 343.291,373.086 343.5,372.5C 337.93,368.719 333.263,364.053 329.5,358.5C 328.252,357.96 327.085,357.293 326,356.5C 325.667,356.833 325.333,357.167 325,357.5C 324.53,355.226 323.53,353.226 322,351.5C 321.501,355.152 321.335,358.818 321.5,362.5C 321.5,364.5 321.5,366.5 321.5,368.5C 321.795,370.735 321.461,372.735 320.5,374.5C 320.5,366.167 320.5,357.833 320.5,349.5C 321.477,346.713 321.81,343.713 321.5,340.5C 322.833,340.5 324.167,340.5 325.5,340.5 Z"/></g>
<g><path style="opacity:1" fill="#e9cca5" d="M 328.5,348.5 C 333.248,348.275 337.915,348.775 342.5,350C 345.86,353.026 348.86,356.359 351.5,360C 352.9,361.438 354.567,362.271 356.5,362.5C 356.281,363.675 356.614,364.675 357.5,365.5C 361.026,367.526 363.693,370.359 365.5,374C 366.793,374.49 368.127,374.657 369.5,374.5C 369.238,375.978 369.571,377.311 370.5,378.5C 375.43,383.319 380.43,388.152 385.5,393C 386.448,393.483 387.448,393.649 388.5,393.5C 388.082,397.251 389.749,399.418 393.5,400C 394.851,403.195 397.185,405.028 400.5,405.5C 400.399,409.575 402.399,412.075 406.5,413C 407.851,416.195 410.185,418.028 413.5,418.5C 413.446,421.951 415.113,424.117 418.5,425C 421.068,428.389 423.735,431.556 426.5,434.5C 426.328,435.492 426.662,436.158 427.5,436.5C 427.5,436.833 427.5,437.167 427.5,437.5C 427.5,439.167 427.5,440.833 427.5,442.5C 426.886,439.812 425.22,437.979 422.5,437C 422.833,436.667 423.167,436.333 423.5,436C 419.802,432.962 416.136,429.962 412.5,427C 409.455,421.955 405.455,417.955 400.5,415C 400.833,414.667 401.167,414.333 401.5,414C 396.914,410.02 392.247,406.02 387.5,402C 384.675,398.506 381.841,395.006 379,391.5C 374.153,386.123 368.653,381.289 362.5,377C 354.19,367.357 345.19,358.357 335.5,350C 333.866,349.506 332.199,349.34 330.5,349.5C 329.127,349.657 327.793,349.49 326.5,349C 327.094,348.536 327.761,348.369 328.5,348.5 Z"/></g>
<g><path style="opacity:1" fill="#d2b180" d="M 437.5,346.5 C 438.29,347.609 438.79,348.942 439,350.5C 439.667,351.833 440.333,351.833 441,350.5C 443.218,352.442 444.885,354.775 446,357.5C 446.333,357.167 446.667,356.833 447,356.5C 449.316,360.11 451.982,363.444 455,366.5C 455.333,366.167 455.667,365.833 456,365.5C 459.008,369.173 462.008,372.84 465,376.5C 470.006,374.399 473.006,376.399 474,382.5C 474.667,379.833 475.333,379.833 476,382.5C 477.225,377.915 477.725,373.248 477.5,368.5C 477.232,366.901 477.566,365.568 478.5,364.5C 478.182,369.032 478.515,373.366 479.5,377.5C 479.5,378.167 479.5,378.833 479.5,379.5C 477.69,382.372 476.69,385.705 476.5,389.5C 475.539,391.265 475.205,393.265 475.5,395.5C 474.833,395.5 474.167,395.5 473.5,395.5C 469.606,393.774 469.939,392.274 474.5,391C 472.192,389.133 469.525,388.133 466.5,388C 467.357,387.311 468.023,386.478 468.5,385.5C 467.315,382.731 465.482,381.731 463,382.5C 462.29,381.027 461.124,380.36 459.5,380.5C 459.762,379.022 459.429,377.689 458.5,376.5C 456.298,374.589 454.631,372.255 453.5,369.5C 451.902,369.39 450.235,369.057 448.5,368.5C 445.172,364.516 442.338,360.182 440,355.5C 439.333,356.167 438.667,356.833 438,357.5C 437.1,356.23 435.934,355.23 434.5,354.5C 433.359,353.575 433.359,352.741 434.5,352C 432.777,351.477 431.444,350.477 430.5,349C 430.836,347.97 431.503,347.47 432.5,347.5C 434.477,348.872 436.144,348.538 437.5,346.5 Z"/></g>
<g><path style="opacity:1" fill="#c4a069" d="M 477.5,338.5 C 480.084,339.048 481.084,340.715 480.5,343.5C 480.194,346.385 480.527,349.052 481.5,351.5C 481.5,352.167 481.5,352.833 481.5,353.5C 480.883,353.611 480.383,353.944 480,354.5C 479.545,357.854 479.045,361.187 478.5,364.5C 477.566,365.568 477.232,366.901 477.5,368.5C 476.153,367.829 474.986,367.829 474,368.5C 473.545,365.243 471.879,362.909 469,361.5C 468.667,361.833 468.333,362.167 468,362.5C 467.511,358.172 465.178,355.506 461,354.5C 459.991,352.975 459.491,351.308 459.5,349.5C 457.5,349.5 455.5,349.5 453.5,349.5C 453.421,348.07 453.754,346.736 454.5,345.5C 451.942,343.283 448.942,342.117 445.5,342C 456.504,341.298 467.171,340.132 477.5,338.5 Z"/></g>
<g><path style="opacity:1" fill="#ccaa76" d="M 477.5,338.5 C 467.171,340.132 456.504,341.298 445.5,342C 448.942,342.117 451.942,343.283 454.5,345.5C 453.754,346.736 453.421,348.07 453.5,349.5C 455.5,349.5 457.5,349.5 459.5,349.5C 459.491,351.308 459.991,352.975 461,354.5C 465.178,355.506 467.511,358.172 468,362.5C 468.333,362.167 468.667,361.833 469,361.5C 471.879,362.909 473.545,365.243 474,368.5C 474.986,367.829 476.153,367.829 477.5,368.5C 477.725,373.248 477.225,377.915 476,382.5C 475.333,379.833 474.667,379.833 474,382.5C 473.006,376.399 470.006,374.399 465,376.5C 462.008,372.84 459.008,369.173 456,365.5C 455.667,365.833 455.333,366.167 455,366.5C 451.982,363.444 449.316,360.11 447,356.5C 446.667,356.833 446.333,357.167 446,357.5C 444.885,354.775 443.218,352.442 441,350.5C 440.333,351.833 439.667,351.833 439,350.5C 438.79,348.942 438.29,347.609 437.5,346.5C 434.57,342.872 430.904,341.872 426.5,343.5C 426.5,342.5 426.5,341.5 426.5,340.5C 430.702,340.817 434.702,340.483 438.5,339.5C 451.499,339.133 464.499,338.8 477.5,338.5 Z"/></g>
<g><path style="opacity:1" fill="#d8ba8c" d="M 426.5,455.5 C 426.5,457.5 426.5,459.5 426.5,461.5C 419.146,453.629 411.479,445.962 403.5,438.5C 402.675,437.614 401.675,437.281 400.5,437.5C 393.527,427.861 385.194,419.527 375.5,412.5C 368.527,402.861 360.194,394.527 350.5,387.5C 350.719,386.325 350.386,385.325 349.5,384.5C 342.167,377.167 334.833,369.833 327.5,362.5C 325.674,362.08 323.674,362.08 321.5,362.5C 321.335,358.818 321.501,355.152 322,351.5C 323.53,353.226 324.53,355.226 325,357.5C 325.333,357.167 325.667,356.833 326,356.5C 327.085,357.293 328.252,357.96 329.5,358.5C 333.263,364.053 337.93,368.719 343.5,372.5C 343.291,373.086 342.957,373.586 342.5,374C 343.793,374.49 345.127,374.657 346.5,374.5C 346.351,375.552 346.517,376.552 347,377.5C 353.928,383.717 360.762,390.05 367.5,396.5C 368.386,397.325 368.719,398.325 368.5,399.5C 369.5,399.5 370.5,399.5 371.5,399.5C 371.351,400.552 371.517,401.552 372,402.5C 378.887,408.708 385.72,415.041 392.5,421.5C 393.386,422.325 393.719,423.325 393.5,424.5C 394.5,424.5 395.5,424.5 396.5,424.5C 396.351,425.552 396.517,426.552 397,427.5C 403.781,433.684 410.614,440.018 417.5,446.5C 418.386,447.325 418.719,448.325 418.5,449.5C 419.5,449.5 420.5,449.5 421.5,449.5C 421.687,452.69 423.354,454.69 426.5,455.5 Z"/></g>
<g><path style="opacity:1" fill="#edd0ab" d="M 358.5,311.5 C 359.791,311.263 360.791,311.596 361.5,312.5C 361.392,317.87 361.725,323.203 362.5,328.5C 363.675,328.281 364.675,328.614 365.5,329.5C 367.821,333.274 371.154,335.608 375.5,336.5C 375.351,337.552 375.517,338.552 376,339.5C 379.307,343.838 383.307,347.504 388,350.5C 390.812,355.818 394.978,359.485 400.5,361.5C 400.351,362.552 400.517,363.552 401,364.5C 407.559,370.681 413.726,377.181 419.5,384C 420.448,384.483 421.448,384.649 422.5,384.5C 422.343,385.873 422.51,387.207 423,388.5C 424.309,390.891 425.309,390.891 426,388.5C 427.688,389.325 427.855,390.325 426.5,391.5C 428.423,392.308 430.423,392.808 432.5,393C 431.289,393.893 431.289,394.726 432.5,395.5C 434.017,394.089 435.351,394.256 436.5,396C 434.975,397.009 433.308,397.509 431.5,397.5C 430.198,396.193 428.865,396.193 427.5,397.5C 426.206,395.101 424.206,393.601 421.5,393C 418.007,387.507 413.507,383.007 408,379.5C 405.392,374.445 401.559,370.612 396.5,368C 386.683,357.349 376.683,346.849 366.5,336.5C 365.167,335.5 363.833,334.5 362.5,333.5C 361.833,334.5 361.167,335.5 360.5,336.5C 359.171,328.555 358.505,320.555 358.5,312.5C 358.5,312.167 358.5,311.833 358.5,311.5 Z"/></g>
<g><path style="opacity:0.929" fill="#847155" d="M 481.5,353.5 C 480.533,361.469 479.866,369.469 479.5,377.5C 478.515,373.366 478.182,369.032 478.5,364.5C 479.045,361.187 479.545,357.854 480,354.5C 480.383,353.944 480.883,353.611 481.5,353.5 Z"/></g>
<g><path style="opacity:1" fill="#edd0ab" d="M 326.5,341.5 C 331.179,341.334 335.845,341.501 340.5,342C 341.167,342.667 341.833,343.333 342.5,344C 341.359,344.741 341.359,345.575 342.5,346.5C 346.009,347.738 349.343,349.904 352.5,353C 354.394,354.079 354.727,355.413 353.5,357C 360.165,362.587 366.165,368.754 371.5,375.5C 372.736,376.246 374.07,376.579 375.5,376.5C 375.36,378.124 376.027,379.29 377.5,380C 376.663,381.011 376.33,382.178 376.5,383.5C 377.873,383.343 379.207,383.51 380.5,384C 382.714,386.712 385.38,388.879 388.5,390.5C 391.494,393.502 394.16,396.835 396.5,400.5C 397.736,401.246 399.07,401.579 400.5,401.5C 400.36,403.124 401.027,404.29 402.5,405C 401.167,406.84 401.334,407.34 403,406.5C 408.882,411.665 414.548,416.998 420,422.5C 420.333,423.833 420.667,425.167 421,426.5C 421.333,426.167 421.667,425.833 422,425.5C 425.625,427.416 427.125,430.416 426.5,434.5C 423.735,431.556 421.068,428.389 418.5,425C 415.113,424.117 413.446,421.951 413.5,418.5C 410.185,418.028 407.851,416.195 406.5,413C 402.399,412.075 400.399,409.575 400.5,405.5C 397.185,405.028 394.851,403.195 393.5,400C 389.749,399.418 388.082,397.251 388.5,393.5C 387.448,393.649 386.448,393.483 385.5,393C 380.43,388.152 375.43,383.319 370.5,378.5C 369.571,377.311 369.238,375.978 369.5,374.5C 368.127,374.657 366.793,374.49 365.5,374C 363.693,370.359 361.026,367.526 357.5,365.5C 356.614,364.675 356.281,363.675 356.5,362.5C 354.567,362.271 352.9,361.438 351.5,360C 348.86,356.359 345.86,353.026 342.5,350C 337.915,348.775 333.248,348.275 328.5,348.5C 331.689,347.834 335.023,347.167 338.5,346.5C 334.524,345.614 330.524,344.948 326.5,344.5C 326.5,343.5 326.5,342.5 326.5,341.5 Z"/></g>
<g><path style="opacity:1" fill="#f4d9b8" d="M 354.5,330.5 C 355.167,330.5 355.833,330.5 356.5,330.5C 356.5,332.833 356.5,335.167 356.5,337.5C 359.47,338.549 362.47,339.716 365.5,341C 367,343.833 369.167,346 372,347.5C 372.102,351.611 373.936,353.444 377.5,353C 378.667,356.167 380.833,358.333 384,359.5C 384.167,363.667 386.333,365.833 390.5,366C 392.29,368.491 394.457,370.658 397,372.5C 397.486,376.333 399.32,378.166 402.5,378C 403.772,379.307 404.772,380.807 405.5,382.5C 408.995,383.438 410.495,385.438 410,388.5C 411.491,390.004 413.324,390.837 415.5,391C 417.29,393.491 419.457,395.658 422,397.5C 422.47,399.774 423.47,401.774 425,403.5C 425.383,402.944 425.883,402.611 426.5,402.5C 426.5,404.167 426.5,405.833 426.5,407.5C 423.618,407.392 421.285,406.226 419.5,404C 417.167,401 414.833,398 412.5,395C 409.804,394.31 407.637,392.81 406,390.5C 405.888,387.553 404.388,386.22 401.5,386.5C 401.649,385.448 401.483,384.448 401,383.5C 395.628,380.107 391.128,375.773 387.5,370.5C 384.906,369.408 382.739,367.741 381,365.5C 380.888,362.553 379.388,361.22 376.5,361.5C 376.649,360.448 376.483,359.448 376,358.5C 373.543,357.363 371.376,355.863 369.5,354C 367.252,350.796 364.585,347.796 361.5,345C 359.064,344.876 356.731,345.376 354.5,346.5C 354.5,347.5 354.5,348.5 354.5,349.5C 353.5,349.5 352.5,349.5 351.5,349.5C 350.365,347.787 348.698,347.12 346.5,347.5C 346.736,345.027 348.069,343.36 350.5,342.5C 346.468,341.775 342.468,340.942 338.5,340C 333.98,339.186 329.646,339.353 325.5,340.5C 324.167,340.5 322.833,340.5 321.5,340.5C 321.81,343.713 321.477,346.713 320.5,349.5C 320.5,345.833 320.5,342.167 320.5,338.5C 332.186,338.832 343.852,338.499 355.5,337.5C 355.376,336.893 355.043,336.56 354.5,336.5C 354.5,334.5 354.5,332.5 354.5,330.5 Z"/></g>
<g><path style="opacity:1" fill="#cfaf7e" d="M 358.5,399.5 C 357.761,399.369 357.094,399.536 356.5,400C 358.777,403.949 359.111,408.116 357.5,412.5C 357.167,412.5 356.833,412.5 356.5,412.5C 356.82,409.102 356.487,405.768 355.5,402.5C 352.579,401.593 349.579,401.26 346.5,401.5C 344.393,400.532 342.059,400.198 339.5,400.5C 341.631,399.686 343.964,399.186 346.5,399C 341.051,392.948 335.385,388.281 329.5,385C 325.477,382.415 324.477,378.915 326.5,374.5C 325.167,374.5 323.833,374.5 322.5,374.5C 321.701,383.142 321.368,391.809 321.5,400.5C 321.167,400.5 320.833,400.5 320.5,400.5C 320.5,391.833 320.5,383.167 320.5,374.5C 321.461,372.735 321.795,370.735 321.5,368.5C 322.268,369.263 322.768,370.263 323,371.5C 323.317,369.699 323.984,369.366 325,370.5C 325.333,369.167 325.667,367.833 326,366.5C 337.011,377.344 347.844,388.344 358.5,399.5 Z"/></g>
<g><path style="opacity:1" fill="#f6d9b8" d="M 351.5,349.5 C 352.5,349.5 353.5,349.5 354.5,349.5C 358.181,352.491 362.181,355.158 366.5,357.5C 369.024,363.524 373.358,367.69 379.5,370C 381.962,376.295 386.295,380.795 392.5,383.5C 393.246,384.736 393.579,386.07 393.5,387.5C 394.552,387.351 395.552,387.517 396.5,388C 396.167,388.333 395.833,388.667 395.5,389C 398.233,391.784 401.399,393.951 405,395.5C 407.333,401.833 411.667,406.167 418,408.5C 418.49,409.793 418.657,411.127 418.5,412.5C 419.5,412.5 420.5,412.5 421.5,412.5C 421.5,413.5 421.5,414.5 421.5,415.5C 425.8,415.815 427.467,418.149 426.5,422.5C 425.078,422.291 423.745,421.791 422.5,421C 420.5,417.667 417.833,415 414.5,413C 415.451,412.282 415.617,411.449 415,410.5C 413.184,409.671 411.351,408.837 409.5,408C 407.5,404.667 404.833,402 401.5,400C 402.28,398.927 402.113,397.76 401,396.5C 399.927,397.28 398.76,397.113 397.5,396C 395.5,392.667 392.833,390 389.5,388C 390.451,387.282 390.617,386.449 390,385.5C 388.184,384.671 386.351,383.837 384.5,383C 382.5,379.667 379.833,377 376.5,375C 377.28,373.927 377.113,372.76 376,371.5C 374.927,372.28 373.76,372.113 372.5,371C 370.167,368 367.5,365.333 364.5,363C 365.451,362.282 365.617,361.449 365,360.5C 363.184,359.671 361.351,358.837 359.5,358C 357.305,354.641 354.638,351.807 351.5,349.5 Z"/></g>
<g><path style="opacity:1" fill="#f2d5b2" d="M 351.5,349.5 C 354.638,351.807 357.305,354.641 359.5,358C 361.351,358.837 363.184,359.671 365,360.5C 365.617,361.449 365.451,362.282 364.5,363C 367.5,365.333 370.167,368 372.5,371C 373.76,372.113 374.927,372.28 376,371.5C 377.113,372.76 377.28,373.927 376.5,375C 379.833,377 382.5,379.667 384.5,383C 386.351,383.837 388.184,384.671 390,385.5C 390.617,386.449 390.451,387.282 389.5,388C 392.833,390 395.5,392.667 397.5,396C 398.76,397.113 399.927,397.28 401,396.5C 402.113,397.76 402.28,398.927 401.5,400C 404.833,402 407.5,404.667 409.5,408C 411.351,408.837 413.184,409.671 415,410.5C 415.617,411.449 415.451,412.282 414.5,413C 417.833,415 420.5,417.667 422.5,421C 423.745,421.791 425.078,422.291 426.5,422.5C 427.383,427.103 427.717,431.77 427.5,436.5C 426.662,436.158 426.328,435.492 426.5,434.5C 427.125,430.416 425.625,427.416 422,425.5C 421.667,425.833 421.333,426.167 421,426.5C 420.667,425.167 420.333,423.833 420,422.5C 414.548,416.998 408.882,411.665 403,406.5C 401.334,407.34 401.167,406.84 402.5,405C 401.027,404.29 400.36,403.124 400.5,401.5C 399.07,401.579 397.736,401.246 396.5,400.5C 394.16,396.835 391.494,393.502 388.5,390.5C 385.38,388.879 382.714,386.712 380.5,384C 379.207,383.51 377.873,383.343 376.5,383.5C 376.33,382.178 376.663,381.011 377.5,380C 376.027,379.29 375.36,378.124 375.5,376.5C 374.07,376.579 372.736,376.246 371.5,375.5C 366.165,368.754 360.165,362.587 353.5,357C 354.727,355.413 354.394,354.079 352.5,353C 349.343,349.904 346.009,347.738 342.5,346.5C 341.359,345.575 341.359,344.741 342.5,344C 341.833,343.333 341.167,342.667 340.5,342C 335.845,341.501 331.179,341.334 326.5,341.5C 325.833,341.5 325.5,341.167 325.5,340.5C 329.646,339.353 333.98,339.186 338.5,340C 342.468,340.942 346.468,341.775 350.5,342.5C 348.069,343.36 346.736,345.027 346.5,347.5C 348.698,347.12 350.365,347.787 351.5,349.5 Z"/></g>
<g><path style="opacity:1" fill="#c8a56f" d="M 339.5,400.5 C 333.734,399.196 328.067,399.196 322.5,400.5C 322.167,400.5 321.833,400.5 321.5,400.5C 321.368,391.809 321.701,383.142 322.5,374.5C 323.833,374.5 325.167,374.5 326.5,374.5C 324.477,378.915 325.477,382.415 329.5,385C 335.385,388.281 341.051,392.948 346.5,399C 343.964,399.186 341.631,399.686 339.5,400.5 Z"/></g>
<g><path style="opacity:0.188" fill="#71604e" d="M 479.5,379.5 C 478.757,386.325 477.757,392.991 476.5,399.5C 476.5,396.167 476.5,392.833 476.5,389.5C 476.69,385.705 477.69,382.372 479.5,379.5 Z"/></g>
<g><path style="opacity:1" fill="#e3c69e" d="M 330.5,349.5 C 332.199,349.34 333.866,349.506 335.5,350C 345.19,358.357 354.19,367.357 362.5,377C 368.653,381.289 374.153,386.123 379,391.5C 381.841,395.006 384.675,398.506 387.5,402C 392.247,406.02 396.914,410.02 401.5,414C 401.167,414.333 400.833,414.667 400.5,415C 405.455,417.955 409.455,421.955 412.5,427C 416.136,429.962 419.802,432.962 423.5,436C 423.167,436.333 422.833,436.667 422.5,437C 425.22,437.979 426.886,439.812 427.5,442.5C 427.662,444.527 427.495,446.527 427,448.5C 425.893,444.726 423.393,442.226 419.5,441C 400.935,422.529 382.935,404.196 365.5,386C 364.1,384.562 362.433,383.729 360.5,383.5C 358.753,380.822 357.087,377.988 355.5,375C 355.957,374.586 356.291,374.086 356.5,373.5C 350.183,369.764 344.349,365.431 339,360.5C 338.333,357.167 336.333,355.167 333,354.5C 332.634,352.548 331.801,350.882 330.5,349.5 Z"/></g>
<g><path style="opacity:1" fill="#9c8a69" d="M 322.5,400.5 C 328.067,399.196 333.734,399.196 339.5,400.5C 342.059,400.198 344.393,400.532 346.5,401.5C 344.833,401.5 343.167,401.5 341.5,401.5C 335.162,401.233 328.829,400.9 322.5,400.5 Z"/></g>
<g><path style="opacity:1" fill="#dfc298" d="M 326.5,344.5 C 330.524,344.948 334.524,345.614 338.5,346.5C 335.023,347.167 331.689,347.834 328.5,348.5C 327.761,348.369 327.094,348.536 326.5,349C 327.793,349.49 329.127,349.657 330.5,349.5C 331.801,350.882 332.634,352.548 333,354.5C 336.333,355.167 338.333,357.167 339,360.5C 344.349,365.431 350.183,369.764 356.5,373.5C 356.291,374.086 355.957,374.586 355.5,375C 357.087,377.988 358.753,380.822 360.5,383.5C 362.433,383.729 364.1,384.562 365.5,386C 382.935,404.196 400.935,422.529 419.5,441C 423.393,442.226 425.893,444.726 427,448.5C 427.495,446.527 427.662,444.527 427.5,442.5C 427.5,440.833 427.5,439.167 427.5,437.5C 427.833,437.5 428.167,437.5 428.5,437.5C 428.5,445.833 428.5,454.167 428.5,462.5C 428.167,462.5 427.833,462.5 427.5,462.5C 427.5,461.833 427.167,461.5 426.5,461.5C 426.5,459.5 426.5,457.5 426.5,455.5C 426.643,453.738 426.309,452.071 425.5,450.5C 417.292,442.125 408.959,433.958 400.5,426C 393.83,418.458 386.497,410.791 378.5,403C 376.76,401.306 374.76,400.139 372.5,399.5C 372.649,398.448 372.483,397.448 372,396.5C 365.457,390.658 359.291,384.491 353.5,378C 351.76,376.306 349.76,375.139 347.5,374.5C 347.649,373.448 347.483,372.448 347,371.5C 340.457,365.658 334.291,359.491 328.5,353C 327.552,352.517 326.552,352.351 325.5,352.5C 325.279,349.721 325.612,347.054 326.5,344.5 Z"/></g>
<g><path style="opacity:1" fill="#d1b17f" d="M 358.5,399.5 C 380.305,420.804 401.971,442.304 423.5,464C 423.167,464.333 422.833,464.667 422.5,465C 423.931,465.465 425.097,466.299 426,467.5C 426.383,466.944 426.883,466.611 427.5,466.5C 427.806,469.385 427.473,472.052 426.5,474.5C 426.439,471.95 425.106,470.45 422.5,470C 422.833,469.667 423.167,469.333 423.5,469C 416.725,466.225 411.891,461.391 409,454.5C 405.93,452.553 403.43,450.053 401.5,447C 398.553,445.719 396.219,443.719 394.5,441C 393.062,440.781 391.729,440.281 390.5,439.5C 386.446,431.725 380.779,425.391 373.5,420.5C 370.117,416.956 366.951,413.289 364,409.5C 362.865,409.727 361.698,410.06 360.5,410.5C 360.863,411.183 361.196,411.85 361.5,412.5C 360.167,412.5 358.833,412.5 357.5,412.5C 359.111,408.116 358.777,403.949 356.5,400C 357.094,399.536 357.761,399.369 358.5,399.5 Z"/></g>
<g><path style="opacity:0.428" fill="#6e5e42" d="M 341.5,401.5 C 343.167,401.5 344.833,401.5 346.5,401.5C 349.579,401.26 352.579,401.593 355.5,402.5C 356.487,405.768 356.82,409.102 356.5,412.5C 356.5,424.833 356.5,437.167 356.5,449.5C 356.167,449.5 355.833,449.5 355.5,449.5C 355.5,434.167 355.5,418.833 355.5,403.5C 350.662,403.089 345.995,402.422 341.5,401.5 Z"/></g>
<g><path style="opacity:1" fill="#c09c62" d="M 427.5,511.5 C 426.596,510.791 426.263,509.791 426.5,508.5C 426.5,506.167 426.5,503.833 426.5,501.5C 425.448,501.649 424.448,501.483 423.5,501C 416.842,494.042 410.176,487.042 403.5,480C 402.552,479.517 401.552,479.351 400.5,479.5C 398.186,475.594 395.353,471.927 392,468.5C 389.669,466.091 386.836,464.091 383.5,462.5C 383.271,460.567 382.438,458.9 381,457.5C 380.667,457.833 380.333,458.167 380,458.5C 379.888,455.553 378.388,454.22 375.5,454.5C 374.901,451.832 373.234,449.998 370.5,449C 370.833,448.667 371.167,448.333 371.5,448C 368.544,445.221 365.711,442.387 363,439.5C 361.187,440.609 360.354,439.942 360.5,437.5C 361.166,433.316 361.833,428.982 362.5,424.5C 363.298,426.078 363.798,427.744 364,429.5C 367.712,432.048 370.545,435.382 372.5,439.5C 374.5,440.833 376.5,442.167 378.5,443.5C 394.182,459.348 409.682,475.348 425,491.5C 425.333,490.833 425.667,490.167 426,489.5C 427.3,496.771 427.8,504.104 427.5,511.5 Z"/></g>
<g><path style="opacity:1" fill="#c7a46f" d="M 356.5,412.5 C 356.833,412.5 357.167,412.5 357.5,412.5C 358.833,412.5 360.167,412.5 361.5,412.5C 364.336,416.852 367.836,420.852 372,424.5C 372.483,425.448 372.649,426.448 372.5,427.5C 376.35,427.701 377.35,429.534 375.5,433C 383.708,436.841 390.875,442.341 397,449.5C 397.483,450.448 397.649,451.448 397.5,452.5C 398.552,452.351 399.552,452.517 400.5,453C 408.766,461.388 416.933,469.888 425,478.5C 426.188,477.437 426.688,476.103 426.5,474.5C 427.473,472.052 427.806,469.385 427.5,466.5C 427.5,465.167 427.5,463.833 427.5,462.5C 427.833,462.5 428.167,462.5 428.5,462.5C 428.5,466.5 428.5,470.5 428.5,474.5C 428.5,487.167 428.5,499.833 428.5,512.5C 428.167,512.5 427.833,512.5 427.5,512.5C 427.5,512.167 427.5,511.833 427.5,511.5C 427.8,504.104 427.3,496.771 426,489.5C 425.667,490.167 425.333,490.833 425,491.5C 409.682,475.348 394.182,459.348 378.5,443.5C 376.5,442.167 374.5,440.833 372.5,439.5C 370.545,435.382 367.712,432.048 364,429.5C 363.798,427.744 363.298,426.078 362.5,424.5C 361.833,428.982 361.166,433.316 360.5,437.5C 359.833,436.167 359.167,436.167 358.5,437.5C 357.517,441.298 357.183,445.298 357.5,449.5C 357.167,449.5 356.833,449.5 356.5,449.5C 356.5,437.167 356.5,424.833 356.5,412.5 Z"/></g>
<g><path style="opacity:1" fill="#d5b586" d="M 426.5,461.5 C 427.167,461.5 427.5,461.833 427.5,462.5C 427.5,463.833 427.5,465.167 427.5,466.5C 426.883,466.611 426.383,466.944 426,467.5C 425.097,466.299 423.931,465.465 422.5,465C 422.833,464.667 423.167,464.333 423.5,464C 401.971,442.304 380.305,420.804 358.5,399.5C 347.844,388.344 337.011,377.344 326,366.5C 325.667,367.833 325.333,369.167 325,370.5C 323.984,369.366 323.317,369.699 323,371.5C 322.768,370.263 322.268,369.263 321.5,368.5C 321.5,366.5 321.5,364.5 321.5,362.5C 323.674,362.08 325.674,362.08 327.5,362.5C 334.833,369.833 342.167,377.167 349.5,384.5C 350.386,385.325 350.719,386.325 350.5,387.5C 360.194,394.527 368.527,402.861 375.5,412.5C 385.194,419.527 393.527,427.861 400.5,437.5C 401.675,437.281 402.675,437.614 403.5,438.5C 411.479,445.962 419.146,453.629 426.5,461.5 Z"/></g>
<g><path style="opacity:1" fill="#b89253" d="M 426.5,508.5 C 426.263,509.791 426.596,510.791 427.5,511.5C 427.5,511.833 427.5,512.167 427.5,512.5C 427.5,515.833 427.5,519.167 427.5,522.5C 424.414,517.908 420.747,513.742 416.5,510C 415.552,509.517 414.552,509.351 413.5,509.5C 413.649,508.448 413.483,507.448 413,506.5C 405.651,499.43 398.484,492.264 391.5,485C 390.552,484.517 389.552,484.351 388.5,484.5C 386.108,478.938 382.108,474.772 376.5,472C 376.833,471.667 377.167,471.333 377.5,471C 371.861,465.473 367.027,460.639 363,456.5C 360.897,458.88 359.73,458.213 359.5,454.5C 360.046,452.865 360.38,451.199 360.5,449.5C 362.044,449.297 363.378,448.63 364.5,447.5C 375.511,459.535 386.845,471.368 398.5,483C 399.449,483.617 400.282,483.451 401,482.5C 407.245,491.45 414.745,499.283 423.5,506C 422.167,506.667 422.167,507.333 423.5,508C 424.448,508.483 425.448,508.649 426.5,508.5 Z"/></g>
<g><path style="opacity:1" fill="#cead79" d="M 426.5,474.5 C 426.688,476.103 426.188,477.437 425,478.5C 416.933,469.888 408.766,461.388 400.5,453C 399.552,452.517 398.552,452.351 397.5,452.5C 397.649,451.448 397.483,450.448 397,449.5C 390.875,442.341 383.708,436.841 375.5,433C 377.35,429.534 376.35,427.701 372.5,427.5C 372.649,426.448 372.483,425.448 372,424.5C 367.836,420.852 364.336,416.852 361.5,412.5C 361.196,411.85 360.863,411.183 360.5,410.5C 361.698,410.06 362.865,409.727 364,409.5C 366.951,413.289 370.117,416.956 373.5,420.5C 380.779,425.391 386.446,431.725 390.5,439.5C 391.729,440.281 393.062,440.781 394.5,441C 396.219,443.719 398.553,445.719 401.5,447C 403.43,450.053 405.93,452.553 409,454.5C 411.891,461.391 416.725,466.225 423.5,469C 423.167,469.333 422.833,469.667 422.5,470C 425.106,470.45 426.439,471.95 426.5,474.5 Z"/></g>
<g><path style="opacity:1" fill="#b28c4a" d="M 358.5,437.5 C 358.335,441.182 358.501,444.848 359,448.5C 359.383,449.056 359.883,449.389 360.5,449.5C 360.38,451.199 360.046,452.865 359.5,454.5C 359.73,458.213 360.897,458.88 363,456.5C 367.027,460.639 371.861,465.473 377.5,471C 377.167,471.333 376.833,471.667 376.5,472C 382.108,474.772 386.108,478.938 388.5,484.5C 389.552,484.351 390.552,484.517 391.5,485C 398.484,492.264 405.651,499.43 413,506.5C 413.483,507.448 413.649,508.448 413.5,509.5C 414.552,509.351 415.552,509.517 416.5,510C 420.747,513.742 424.414,517.908 427.5,522.5C 427.5,525.833 427.5,529.167 427.5,532.5C 426.374,528.59 423.708,526.59 419.5,526.5C 419.5,525.167 419.5,523.833 419.5,522.5C 418.448,522.649 417.448,522.483 416.5,522C 413.443,517.95 410.11,514.283 406.5,511C 404.589,509.504 402.589,508.171 400.5,507C 400.957,506.586 401.291,506.086 401.5,505.5C 399.148,504.015 396.814,502.682 394.5,501.5C 394.5,500.167 394.5,498.833 394.5,497.5C 393.448,497.649 392.448,497.483 391.5,497C 388.443,492.95 385.11,489.283 381.5,486C 380.026,484.684 378.359,483.684 376.5,483C 374.119,480.28 372.119,477.28 370.5,474C 367.898,473.117 365.731,471.617 364,469.5C 363.506,471.134 363.34,472.801 363.5,474.5C 362.351,474.209 361.684,473.376 361.5,472C 362.747,468.828 362.747,465.661 361.5,462.5C 360.5,462.5 359.5,462.5 358.5,462.5C 357.2,461.72 356.867,457.387 357.5,449.5C 357.183,445.298 357.517,441.298 358.5,437.5 Z"/></g>
<g><path style="opacity:0.471" fill="#978874" d="M 428.5,398.5 C 429.5,398.5 430.5,398.5 431.5,398.5C 431.5,398.833 431.5,399.167 431.5,399.5C 429.509,424.144 428.843,449.144 429.5,474.5C 429.167,474.5 428.833,474.5 428.5,474.5C 428.5,470.5 428.5,466.5 428.5,462.5C 428.5,454.167 428.5,445.833 428.5,437.5C 428.5,424.5 428.5,411.5 428.5,398.5 Z"/></g>
<g><path style="opacity:1" fill="#ab8546" d="M 427.5,532.5 C 427.665,536.182 427.499,539.848 427,543.5C 426.505,541.527 426.338,539.527 426.5,537.5C 419.06,536.215 414.727,531.881 413.5,524.5C 406.618,523.286 402.285,519.286 400.5,512.5C 393.518,510.856 389.518,506.523 388.5,499.5C 381.411,498.46 377.077,494.46 375.5,487.5C 368.518,485.856 364.518,481.523 363.5,474.5C 363.34,472.801 363.506,471.134 364,469.5C 365.731,471.617 367.898,473.117 370.5,474C 372.119,477.28 374.119,480.28 376.5,483C 378.359,483.684 380.026,484.684 381.5,486C 385.11,489.283 388.443,492.95 391.5,497C 392.448,497.483 393.448,497.649 394.5,497.5C 394.5,498.833 394.5,500.167 394.5,501.5C 396.814,502.682 399.148,504.015 401.5,505.5C 401.291,506.086 400.957,506.586 400.5,507C 402.589,508.171 404.589,509.504 406.5,511C 410.11,514.283 413.443,517.95 416.5,522C 417.448,522.483 418.448,522.649 419.5,522.5C 419.5,523.833 419.5,525.167 419.5,526.5C 423.708,526.59 426.374,528.59 427.5,532.5 Z"/></g>
<g><path style="opacity:1" fill="#bc975a" d="M 360.5,437.5 C 360.354,439.942 361.187,440.609 363,439.5C 365.711,442.387 368.544,445.221 371.5,448C 371.167,448.333 370.833,448.667 370.5,449C 373.234,449.998 374.901,451.832 375.5,454.5C 378.388,454.22 379.888,455.553 380,458.5C 380.333,458.167 380.667,457.833 381,457.5C 382.438,458.9 383.271,460.567 383.5,462.5C 386.836,464.091 389.669,466.091 392,468.5C 395.353,471.927 398.186,475.594 400.5,479.5C 401.552,479.351 402.552,479.517 403.5,480C 410.176,487.042 416.842,494.042 423.5,501C 424.448,501.483 425.448,501.649 426.5,501.5C 426.5,503.833 426.5,506.167 426.5,508.5C 425.448,508.649 424.448,508.483 423.5,508C 422.167,507.333 422.167,506.667 423.5,506C 414.745,499.283 407.245,491.45 401,482.5C 400.282,483.451 399.449,483.617 398.5,483C 386.845,471.368 375.511,459.535 364.5,447.5C 363.378,448.63 362.044,449.297 360.5,449.5C 359.883,449.389 359.383,449.056 359,448.5C 358.501,444.848 358.335,441.182 358.5,437.5C 359.167,436.167 359.833,436.167 360.5,437.5 Z"/></g>
<g><path style="opacity:1" fill="#a48143" d="M 356.5,449.5 C 356.833,449.5 357.167,449.5 357.5,449.5C 356.867,457.387 357.2,461.72 358.5,462.5C 359.5,462.5 360.5,462.5 361.5,462.5C 362.747,465.661 362.747,468.828 361.5,472C 361.684,473.376 362.351,474.209 363.5,474.5C 364.518,481.523 368.518,485.856 375.5,487.5C 377.077,494.46 381.411,498.46 388.5,499.5C 389.518,506.523 393.518,510.856 400.5,512.5C 402.285,519.286 406.618,523.286 413.5,524.5C 414.727,531.881 419.06,536.215 426.5,537.5C 426.338,539.527 426.505,541.527 427,543.5C 427.499,539.848 427.665,536.182 427.5,532.5C 427.5,529.167 427.5,525.833 427.5,522.5C 427.5,519.167 427.5,515.833 427.5,512.5C 427.833,512.5 428.167,512.5 428.5,512.5C 428.83,533.007 428.497,553.34 427.5,573.5C 427.5,571.167 427.5,568.833 427.5,566.5C 427.804,560.423 427.304,554.423 426,548.5C 423.851,547.348 422.018,545.848 420.5,544C 420.833,543.667 421.167,543.333 421.5,543C 416.706,540.036 412.372,536.536 408.5,532.5C 407.289,531.726 407.289,530.893 408.5,530C 406.041,528.71 403.708,527.21 401.5,525.5C 399.741,523.118 397.741,520.952 395.5,519C 395.833,518.667 396.167,518.333 396.5,518C 391.348,514.673 386.681,510.84 382.5,506.5C 382.709,505.914 383.043,505.414 383.5,505C 378.411,501.755 373.745,498.088 369.5,494C 370.167,493.667 370.833,493.333 371.5,493C 366.864,491.368 364.031,488.202 363,483.5C 361.961,484.244 361.461,485.244 361.5,486.5C 360.167,486.5 358.833,486.5 357.5,486.5C 357.5,490.833 357.5,495.167 357.5,499.5C 357.167,499.5 356.833,499.5 356.5,499.5C 356.5,482.833 356.5,466.167 356.5,449.5 Z"/></g>
<g><path style="opacity:0.353" fill="#5e4d2b" d="M 355.5,449.5 C 355.833,449.5 356.167,449.5 356.5,449.5C 356.5,466.167 356.5,482.833 356.5,499.5C 356.5,524.167 356.5,548.833 356.5,573.5C 379.833,573.5 403.167,573.5 426.5,573.5C 426.833,573.5 427.167,573.5 427.5,573.5C 428.497,553.34 428.83,533.007 428.5,512.5C 428.5,499.833 428.5,487.167 428.5,474.5C 428.833,474.5 429.167,474.5 429.5,474.5C 429.5,507.833 429.5,541.167 429.5,574.5C 404.833,574.5 380.167,574.5 355.5,574.5C 355.5,532.833 355.5,491.167 355.5,449.5 Z"/></g>
<g><path style="opacity:1" fill="#8b6d33" d="M 361.5,518.5 C 362.268,519.263 362.768,520.263 363,521.5C 363.333,520.5 363.667,519.5 364,518.5C 364.819,523.282 367.652,525.282 372.5,524.5C 372.491,526.308 372.991,527.975 374,529.5C 375.016,528.366 375.683,528.699 376,530.5C 376.333,532.5 376.667,534.5 377,536.5C 377.333,535.5 377.667,534.5 378,533.5C 379.066,536.563 381.233,538.063 384.5,538C 385.861,539.584 386.528,541.418 386.5,543.5C 389.656,543.529 391.322,545.196 391.5,548.5C 393.396,549.466 395.396,549.799 397.5,549.5C 397.491,551.308 397.991,552.975 399,554.5C 399.595,553.101 399.428,551.768 398.5,550.5C 398.833,550.167 399.167,549.833 399.5,549.5C 400.912,553.717 401.579,558.05 401.5,562.5C 399.901,562.232 398.568,562.566 397.5,563.5C 396.417,563.461 395.417,563.127 394.5,562.5C 393.167,560.5 391.833,558.5 390.5,556.5C 389.311,555.571 387.978,555.238 386.5,555.5C 386.148,551.818 384.148,549.484 380.5,548.5C 380.162,544.829 378.162,542.829 374.5,542.5C 373.05,541.15 372.383,539.484 372.5,537.5C 371.448,537.649 370.448,537.483 369.5,537C 367.954,534.743 366.288,532.576 364.5,530.5C 363.508,534.783 363.174,539.116 363.5,543.5C 363.665,546.518 363.498,549.518 363,552.5C 362.768,551.263 362.268,550.263 361.5,549.5C 361.5,539.167 361.5,528.833 361.5,518.5 Z"/></g>
<g><path style="opacity:1" fill="#9f7d3d" d="M 427.5,566.5 C 426.598,563.003 425.931,559.337 425.5,555.5C 424.325,555.719 423.325,555.386 422.5,554.5C 421.042,550.946 418.376,549.113 414.5,549C 413.594,547.301 413.261,545.467 413.5,543.5C 412.167,543.5 410.833,543.5 409.5,543.5C 409.617,541.516 408.95,539.85 407.5,538.5C 402.637,537.974 400.303,535.307 400.5,530.5C 399.325,530.719 398.325,530.386 397.5,529.5C 395.793,526.297 393.127,524.463 389.5,524C 388.594,522.301 388.261,520.467 388.5,518.5C 387.167,518.5 385.833,518.5 384.5,518.5C 384.617,516.516 383.95,514.85 382.5,513.5C 377.637,512.974 375.303,510.307 375.5,505.5C 374.325,505.719 373.325,505.386 372.5,504.5C 370.793,501.297 368.127,499.463 364.5,499C 363.751,497.266 363.251,495.433 363,493.5C 362.79,495.058 362.29,496.391 361.5,497.5C 361.5,493.833 361.5,490.167 361.5,486.5C 361.461,485.244 361.961,484.244 363,483.5C 364.031,488.202 366.864,491.368 371.5,493C 370.833,493.333 370.167,493.667 369.5,494C 373.745,498.088 378.411,501.755 383.5,505C 383.043,505.414 382.709,505.914 382.5,506.5C 386.681,510.84 391.348,514.673 396.5,518C 396.167,518.333 395.833,518.667 395.5,519C 397.741,520.952 399.741,523.118 401.5,525.5C 403.708,527.21 406.041,528.71 408.5,530C 407.289,530.893 407.289,531.726 408.5,532.5C 412.372,536.536 416.706,540.036 421.5,543C 421.167,543.333 420.833,543.667 420.5,544C 422.018,545.848 423.851,547.348 426,548.5C 427.304,554.423 427.804,560.423 427.5,566.5 Z"/></g>
<g><path style="opacity:1" fill="#927236" d="M 361.5,486.5 C 361.5,490.167 361.5,493.833 361.5,497.5C 361.546,502.353 362.546,507.02 364.5,511.5C 367.084,512.393 369.751,512.726 372.5,512.5C 374.078,516.007 375.412,519.674 376.5,523.5C 384.402,524.068 388.735,528.401 389.5,536.5C 392.084,537.393 394.751,537.726 397.5,537.5C 399.078,541.007 400.412,544.674 401.5,548.5C 409.615,548.95 413.615,553.284 413.5,561.5C 415.854,561.838 418.187,562.338 420.5,563C 419.062,563.219 417.729,563.719 416.5,564.5C 416.667,564.833 416.833,565.167 417,565.5C 419.996,566.29 422.829,567.456 425.5,569C 426.252,569.671 426.586,570.504 426.5,571.5C 421.167,571.5 415.833,571.5 410.5,571.5C 407.213,570.839 403.88,570.339 400.5,570C 401.167,569 401.833,568 402.5,567C 400.569,566.098 398.903,564.931 397.5,563.5C 398.568,562.566 399.901,562.232 401.5,562.5C 401.579,558.05 400.912,553.717 399.5,549.5C 399.167,549.833 398.833,550.167 398.5,550.5C 399.428,551.768 399.595,553.101 399,554.5C 397.991,552.975 397.491,551.308 397.5,549.5C 395.396,549.799 393.396,549.466 391.5,548.5C 391.322,545.196 389.656,543.529 386.5,543.5C 386.528,541.418 385.861,539.584 384.5,538C 381.233,538.063 379.066,536.563 378,533.5C 377.667,534.5 377.333,535.5 377,536.5C 376.667,534.5 376.333,532.5 376,530.5C 375.683,528.699 375.016,528.366 374,529.5C 372.991,527.975 372.491,526.308 372.5,524.5C 367.652,525.282 364.819,523.282 364,518.5C 363.667,519.5 363.333,520.5 363,521.5C 362.768,520.263 362.268,519.263 361.5,518.5C 361.84,514.869 361.006,511.536 359,508.5C 358.667,514.167 358.333,519.833 358,525.5C 357.5,516.84 357.334,508.173 357.5,499.5C 357.5,495.167 357.5,490.833 357.5,486.5C 358.833,486.5 360.167,486.5 361.5,486.5 Z"/></g>
<g><path style="opacity:1" fill="#997739" d="M 427.5,566.5 C 427.5,568.833 427.5,571.167 427.5,573.5C 427.167,573.5 426.833,573.5 426.5,573.5C 426.5,572.833 426.5,572.167 426.5,571.5C 426.586,570.504 426.252,569.671 425.5,569C 422.829,567.456 419.996,566.29 417,565.5C 416.833,565.167 416.667,564.833 416.5,564.5C 417.729,563.719 419.062,563.219 420.5,563C 418.187,562.338 415.854,561.838 413.5,561.5C 413.615,553.284 409.615,548.95 401.5,548.5C 400.412,544.674 399.078,541.007 397.5,537.5C 394.751,537.726 392.084,537.393 389.5,536.5C 388.735,528.401 384.402,524.068 376.5,523.5C 375.412,519.674 374.078,516.007 372.5,512.5C 369.751,512.726 367.084,512.393 364.5,511.5C 362.546,507.02 361.546,502.353 361.5,497.5C 362.29,496.391 362.79,495.058 363,493.5C 363.251,495.433 363.751,497.266 364.5,499C 368.127,499.463 370.793,501.297 372.5,504.5C 373.325,505.386 374.325,505.719 375.5,505.5C 375.303,510.307 377.637,512.974 382.5,513.5C 383.95,514.85 384.617,516.516 384.5,518.5C 385.833,518.5 387.167,518.5 388.5,518.5C 388.261,520.467 388.594,522.301 389.5,524C 393.127,524.463 395.793,526.297 397.5,529.5C 398.325,530.386 399.325,530.719 400.5,530.5C 400.303,535.307 402.637,537.974 407.5,538.5C 408.95,539.85 409.617,541.516 409.5,543.5C 410.833,543.5 412.167,543.5 413.5,543.5C 413.261,545.467 413.594,547.301 414.5,549C 418.376,549.113 421.042,550.946 422.5,554.5C 423.325,555.386 424.325,555.719 425.5,555.5C 425.931,559.337 426.598,563.003 427.5,566.5 Z"/></g>
<g><path style="opacity:1" fill="#866730" d="M 397.5,563.5 C 398.903,564.931 400.569,566.098 402.5,567C 401.833,568 401.167,569 400.5,570C 403.88,570.339 407.213,570.839 410.5,571.5C 401.349,571.891 392.016,571.891 382.5,571.5C 384.369,570.835 386.369,570.169 388.5,569.5C 381.959,568.204 381.959,567.538 388.5,567.5C 388.62,564.795 387.62,564.128 385.5,565.5C 382.548,564.932 379.881,563.766 377.5,562C 378.308,561.692 378.975,561.192 379.5,560.5C 376.912,557.364 374.579,554.031 372.5,550.5C 370.5,549.833 368.5,549.167 366.5,548.5C 365.725,546.604 364.725,544.937 363.5,543.5C 363.174,539.116 363.508,534.783 364.5,530.5C 366.288,532.576 367.954,534.743 369.5,537C 370.448,537.483 371.448,537.649 372.5,537.5C 372.383,539.484 373.05,541.15 374.5,542.5C 378.162,542.829 380.162,544.829 380.5,548.5C 384.148,549.484 386.148,551.818 386.5,555.5C 387.978,555.238 389.311,555.571 390.5,556.5C 391.833,558.5 393.167,560.5 394.5,562.5C 395.417,563.127 396.417,563.461 397.5,563.5 Z"/></g>
<g><path style="opacity:1" fill="#806432" d="M 356.5,499.5 C 356.833,499.5 357.167,499.5 357.5,499.5C 357.334,508.173 357.5,516.84 358,525.5C 358.333,519.833 358.667,514.167 359,508.5C 361.006,511.536 361.84,514.869 361.5,518.5C 361.5,528.833 361.5,539.167 361.5,549.5C 361.334,556.508 361.5,563.508 362,570.5C 368.594,571.091 375.427,571.424 382.5,571.5C 392.016,571.891 401.349,571.891 410.5,571.5C 415.833,571.5 421.167,571.5 426.5,571.5C 426.5,572.167 426.5,572.833 426.5,573.5C 403.167,573.5 379.833,573.5 356.5,573.5C 356.5,548.833 356.5,524.167 356.5,499.5 Z"/></g>
<g><path style="opacity:1" fill="#7d5f29" d="M 363.5,543.5 C 364.725,544.937 365.725,546.604 366.5,548.5C 368.5,549.167 370.5,549.833 372.5,550.5C 374.579,554.031 376.912,557.364 379.5,560.5C 378.975,561.192 378.308,561.692 377.5,562C 379.881,563.766 382.548,564.932 385.5,565.5C 387.62,564.128 388.62,564.795 388.5,567.5C 381.959,567.538 381.959,568.204 388.5,569.5C 386.369,570.169 384.369,570.835 382.5,571.5C 375.427,571.424 368.594,571.091 362,570.5C 361.5,563.508 361.334,556.508 361.5,549.5C 362.268,550.263 362.768,551.263 363,552.5C 363.498,549.518 363.665,546.518 363.5,543.5 Z"/></g>
</svg>
