<?xml version="1.0" encoding="UTF-8"?>
<!DOCTYPE svg PUBLIC "-//W3C//DTD SVG 1.1//EN" "http://www.w3.org/Graphics/SVG/1.1/DTD/svg11.dtd">
<svg xmlns="http://www.w3.org/2000/svg" version="1.1" width="512px" height="512px" style="shape-rendering:geometricPrecision; text-rendering:geometricPrecision; image-rendering:optimizeQuality; fill-rule:evenodd; clip-rule:evenodd" xmlns:xlink="http://www.w3.org/1999/xlink">
<g><path style="opacity:1" fill="#fceac9" d="M 209.5,-0.5 C 228.167,-0.5 246.833,-0.5 265.5,-0.5C 266.626,6.08589 266.792,12.7526 266,19.5C 263.871,24.7959 260.038,28.1293 254.5,29.5C 253.52,32.0865 253.187,34.7531 253.5,37.5C 276.169,37.3334 298.836,37.5 321.5,38C 325.138,49.7323 321.138,58.0657 309.5,63C 291.902,64.459 274.236,64.959 256.5,64.5C 256.334,70.1764 256.501,75.8431 257,81.5C 261.68,81.8374 265.013,84.1707 267,88.5C 267.667,93.8333 267.667,99.1667 267,104.5C 265.692,106.641 264.192,108.641 262.5,110.5C 265.491,115.473 267.491,120.806 268.5,126.5C 291.019,126.306 312.352,131.139 332.5,141C 348.218,150.051 359.718,162.884 367,179.5C 371.737,194.292 367.571,205.792 354.5,214C 356.792,217.416 358.959,220.916 361,224.5C 361.52,226.289 361.187,227.956 360,229.5C 355.916,232.126 351.75,234.626 347.5,237C 345.433,237.536 343.599,237.036 342,235.5C 336.578,238.461 331.078,241.294 325.5,244C 328.197,247.271 327.864,250.271 324.5,253C 321.167,255 317.833,257 314.5,259C 311.975,259.896 309.808,259.396 308,257.5C 302.415,261.377 296.582,264.877 290.5,268C 286.265,281.3 277.932,291.133 265.5,297.5C 269.825,303.983 273.491,310.816 276.5,318C 276.341,322.136 274.508,325.303 271,327.5C 270.864,335.562 270.197,343.562 269,351.5C 267.692,353.641 266.192,355.641 264.5,357.5C 268.195,366.57 274.029,373.903 282,379.5C 295.903,371.298 310.736,365.465 326.5,362C 339.563,360.466 351.063,363.966 361,372.5C 363.112,371.392 364.946,369.892 366.5,368C 368.5,367.333 370.5,367.333 372.5,368C 375.833,371.667 379.167,375.333 382.5,379C 384.769,378.626 387.102,378.626 389.5,379C 393.889,383.202 397.223,388.036 399.5,393.5C 399.61,395.374 398.944,396.874 397.5,398C 413.664,418.816 428.997,440.149 443.5,462C 443.333,462.833 443.167,463.667 443,464.5C 439.167,467.667 435.333,470.833 431.5,474C 430.167,474.667 428.833,474.667 427.5,474C 409.833,455.667 392.167,437.333 374.5,419C 371.902,419.422 369.236,419.422 366.5,419C 362.335,414.849 359.001,410.183 356.5,405C 356.439,403.289 357.106,401.956 358.5,401C 354.339,396.338 350.673,391.338 347.5,386C 348.943,383.257 350.943,380.923 353.5,379C 344.323,371.564 333.989,369.231 322.5,372C 310.776,375.196 299.776,380.029 289.5,386.5C 298.153,393.161 307.153,399.327 316.5,405C 339.409,424.133 344.909,447.299 333,474.5C 326.371,484.724 317.204,491.391 305.5,494.5C 307.433,498.796 309.433,503.13 311.5,507.5C 311.248,509.073 310.582,510.406 309.5,511.5C 261.167,511.5 212.833,511.5 164.5,511.5C 163.489,509.598 163.322,507.598 164,505.5C 165.833,502.333 167.667,499.167 169.5,496C 141.726,484.953 130.893,464.787 137,435.5C 142.112,420.726 151.279,409.226 164.5,401C 127.908,372.086 99.0743,336.919 78,295.5C 55.3423,239.798 70.509,197.964 123.5,170C 150.011,157.107 177.344,146.274 205.5,137.5C 205.497,127.842 207.831,118.842 212.5,110.5C 210.808,108.641 209.308,106.641 208,104.5C 207.333,98.8333 207.333,93.1667 208,87.5C 210.257,84.0787 213.424,82.0787 217.5,81.5C 218.495,75.8722 218.829,70.2055 218.5,64.5C 201.83,64.6666 185.163,64.4999 168.5,64C 154.841,59.9914 149.841,51.3248 153.5,38C 176.164,37.5 198.831,37.3334 221.5,37.5C 221.813,34.7531 221.48,32.0865 220.5,29.5C 210.877,25.9448 206.544,18.9448 207.5,8.5C 207.346,5.26279 208.013,2.26279 209.5,-0.5 Z M 216.5,7.5 C 230.5,7.5 244.5,7.5 258.5,7.5C 259.013,11.79 258.013,15.6233 255.5,19C 249.437,20.1258 243.271,20.6258 237,20.5C 231.5,20.3333 226,20.1667 220.5,20C 216.961,16.6132 215.628,12.4466 216.5,7.5 Z M 229.5,29.5 C 234.5,29.5 239.5,29.5 244.5,29.5C 244.5,32.1667 244.5,34.8333 244.5,37.5C 239.5,37.5 234.5,37.5 229.5,37.5C 229.5,34.8333 229.5,32.1667 229.5,29.5 Z M 160.5,47.5 C 211.335,46.1688 262.335,46.1688 313.5,47.5C 311.968,51.1986 309.301,53.6986 305.5,55C 260.167,55.6667 214.833,55.6667 169.5,55C 165.7,53.3584 162.7,50.8584 160.5,47.5 Z M 227.5,64.5 C 234.167,64.5 240.833,64.5 247.5,64.5C 247.5,70.1667 247.5,75.8333 247.5,81.5C 240.833,81.5 234.167,81.5 227.5,81.5C 227.5,75.8333 227.5,70.1667 227.5,64.5 Z M 216.5,90.5 C 230.171,90.3334 243.837,90.5001 257.5,91C 258.456,94.3936 258.789,97.8936 258.5,101.5C 244.496,101.667 230.496,101.5 216.5,101C 215.283,97.5343 215.283,94.0343 216.5,90.5 Z M 224.5,110.5 C 250.514,104.02 262.014,114.02 259,140.5C 253.325,164.215 249.492,188.215 247.5,212.5C 240.382,213.105 233.548,212.438 227,210.5C 226.146,201.484 225.146,192.484 224,183.5C 221.032,166.997 218.199,150.497 215.5,134C 214.758,124.664 217.758,116.831 224.5,110.5 Z M 268.5,136.5 C 294.739,134.806 318.406,141.639 339.5,157C 349.808,165.959 356.808,176.959 360.5,190C 359.688,197.362 356.021,202.362 349.5,205C 347.542,202.252 345.709,199.418 344,196.5C 342.667,195.833 341.333,195.167 340,194.5C 335.37,196.968 330.87,199.634 326.5,202.5C 325.692,204.423 325.192,206.423 325,208.5C 320.304,212.028 315.471,215.362 310.5,218.5C 308.408,215.848 305.742,215.014 302.5,216C 299.167,218 295.833,220 292.5,222C 290.262,224.104 289.262,226.438 289.5,229C 285.633,231.698 281.633,234.198 277.5,236.5C 274.23,234.737 274.063,232.404 277,229.5C 279.237,222.155 277.07,216.655 270.5,213C 265.845,212.501 261.179,212.334 256.5,212.5C 258.822,186.894 262.822,161.56 268.5,136.5 Z M 206.5,146.5 C 209.598,154.451 211.765,162.784 213,171.5C 215.245,185.125 217.078,198.792 218.5,212.5C 206.352,209.226 199.018,213.559 196.5,225.5C 197.015,228.743 198.348,231.576 200.5,234C 199.421,234.956 198.255,235.789 197,236.5C 193.584,234.208 190.084,232.041 186.5,230C 185.614,227.488 184.28,224.821 182.5,222C 179.167,220 175.833,218 172.5,216C 170.5,215.333 168.5,215.333 166.5,216C 160.208,226.083 154.041,236.25 148,246.5C 147.333,247.833 147.333,249.167 148,250.5C 152.98,255.409 158.814,258.242 165.5,259C 166,258.5 166.5,258 167,257.5C 171.916,261.043 177.083,264.21 182.5,267C 186.872,277.047 193.205,285.714 201.5,293C 204.014,294.757 206.681,296.257 209.5,297.5C 205.351,304.297 201.685,311.297 198.5,318.5C 198.87,322.375 200.704,325.375 204,327.5C 204.333,334.5 204.667,341.5 205,348.5C 205.7,352.066 207.533,354.9 210.5,357C 201.693,373.641 189.026,386.474 172.5,395.5C 135.873,367.204 107.04,332.538 86,291.5C 65.601,243.698 77.7677,206.864 122.5,181C 149.604,167.029 177.604,155.529 206.5,146.5 Z M 336.5,206.5 C 337.822,206.33 338.989,206.663 340,207.5C 343.333,212.833 346.667,218.167 350,223.5C 350.27,224.932 349.604,225.932 348,226.5C 343.833,220.333 339.667,214.167 335.5,208C 336.056,207.617 336.389,207.117 336.5,206.5 Z M 328.5,216.5 C 330.017,216.511 331.184,217.177 332,218.5C 333.517,221.343 335.017,224.177 336.5,227C 331.78,230.782 326.613,233.949 321,236.5C 319.167,233.5 317.333,230.5 315.5,227.5C 319.679,223.588 324.012,219.921 328.5,216.5 Z M 208.5,220.5 C 227.503,220.333 246.503,220.5 265.5,221C 270.723,224.165 270.39,226.831 264.5,229C 246.167,229.667 227.833,229.667 209.5,229C 204.847,226.565 204.513,223.732 208.5,220.5 Z M 170.5,226.5 C 171.922,226.709 173.255,227.209 174.5,228C 170.292,234.918 165.958,241.751 161.5,248.5C 160.328,248.081 159.328,247.415 158.5,246.5C 162.925,240.078 166.925,233.411 170.5,226.5 Z M 302.5,226.5 C 304.074,226.937 305.241,227.937 306,229.5C 309.123,235.582 312.623,241.415 316.5,247C 314.015,249.21 312.182,248.71 311,245.5C 307.877,239.418 304.377,233.585 300.5,228C 301.416,227.722 302.082,227.222 302.5,226.5 Z M 179.5,236.5 C 183.308,238.573 186.974,240.906 190.5,243.5C 187.664,247.835 185.497,252.501 184,257.5C 179.916,254.874 175.75,252.374 171.5,250C 174.304,245.555 176.971,241.055 179.5,236.5 Z M 294.5,236.5 C 297.713,240.234 300.38,244.401 302.5,249C 298.974,252.337 294.974,255.17 290.5,257.5C 289.172,252.68 287.172,248.18 284.5,244C 287.692,241.245 291.025,238.745 294.5,236.5 Z M 210.5,237.5 C 228.927,237.026 247.26,237.526 265.5,239C 286.133,253.727 286.8,269.393 267.5,286C 265.043,287.562 262.376,288.562 259.5,289C 244.833,289.667 230.167,289.667 215.5,289C 202.64,284.476 195.307,275.476 193.5,262C 193.357,257.781 194.524,253.948 197,250.5C 200.736,245.262 205.236,240.929 210.5,237.5 Z M 220.5,297.5 C 231.838,297.333 243.172,297.5 254.5,298C 258.584,304.837 262.918,311.504 267.5,318C 264.686,320.496 261.353,321.83 257.5,322C 244.167,322.667 230.833,322.667 217.5,322C 214.768,321.587 212.101,320.92 209.5,320C 208.483,318.951 208.316,317.784 209,316.5C 212.845,310.139 216.678,303.806 220.5,297.5 Z M 213.5,330.5 C 229.5,331.833 245.5,331.833 261.5,330.5C 261.666,336.176 261.499,341.843 261,347.5C 260.167,348.333 259.333,349.167 258.5,350C 244.5,350.667 230.5,350.667 216.5,350C 215.667,349.167 214.833,348.333 214,347.5C 213.501,341.843 213.334,336.176 213.5,330.5 Z M 218.5,359.5 C 230.838,359.333 243.171,359.5 255.5,360C 259.563,369.729 265.563,378.062 273.5,385C 263.669,390.414 254.002,396.081 244.5,402C 222.971,413.497 201.638,413.164 180.5,401C 195.285,392.549 207.118,381.049 216,366.5C 217.136,364.257 217.97,361.924 218.5,359.5 Z M 367.5,378.5 C 370.703,380.025 373.37,382.358 375.5,385.5C 372.585,388.959 369.252,391.959 365.5,394.5C 363.35,391.849 361.017,389.349 358.5,387C 362,384.666 365,381.832 367.5,378.5 Z M 385.5,389.5 C 387.446,390.254 388.279,391.588 388,393.5C 382.281,399.255 376.115,404.089 369.5,408C 367.993,407.163 367.493,405.996 368,404.5C 374.184,399.837 380.018,394.837 385.5,389.5 Z M 279.5,391.5 C 289.776,398.313 300.11,405.146 310.5,412C 326.678,424.841 332.845,441.341 329,461.5C 323.092,475.738 312.592,484.571 297.5,488C 257.167,488.667 216.833,488.667 176.5,488C 150.475,480.105 140.308,462.938 146,436.5C 151.42,423.641 160.087,413.641 172,406.5C 195.538,421.115 220.038,422.948 245.5,412C 257.063,405.392 268.396,398.559 279.5,391.5 Z M 388.5,404.5 C 389.822,404.33 390.989,404.663 392,405.5C 405.622,423.911 419.122,442.411 432.5,461C 431.667,461.833 430.833,462.667 430,463.5C 413.5,446.333 397,429.167 380.5,412C 383.666,410 386.332,407.5 388.5,404.5 Z M 179.5,497.5 C 218.168,497.333 256.835,497.5 295.5,498C 296.872,499.242 297.872,500.742 298.5,502.5C 257.833,503.833 217.167,503.833 176.5,502.5C 177.26,500.64 178.26,498.973 179.5,497.5 Z"/></g>
</svg>
