<?xml version="1.0" encoding="UTF-8"?>
<!DOCTYPE svg PUBLIC "-//W3C//DTD SVG 1.1//EN" "http://www.w3.org/Graphics/SVG/1.1/DTD/svg11.dtd">
<svg xmlns="http://www.w3.org/2000/svg" version="1.1" width="512px" height="512px" style="shape-rendering:geometricPrecision; text-rendering:geometricPrecision; image-rendering:optimizeQuality; fill-rule:evenodd; clip-rule:evenodd" xmlns:xlink="http://www.w3.org/1999/xlink">
<g><path style="opacity:0.823" fill="#fceac0" d="M 93.5,43.5 C 104.143,42.7473 108.977,47.7473 108,58.5C 105.952,60.787 103.785,60.9536 101.5,59C 100.563,56.2935 99.2299,53.7935 97.5,51.5C 95.3977,57.1565 92.731,62.4899 89.5,67.5C 84.5,69.6667 79.5,71.8333 74.5,74C 79.9161,76.1389 85.2495,78.4722 90.5,81C 92.8718,86.2432 95.3718,91.4099 98,96.5C 99.8929,90.4678 102.726,84.9678 106.5,80C 111.167,78 115.833,76 120.5,74C 117.619,72.6422 114.786,71.1422 112,69.5C 110.865,66.0989 112.032,64.0989 115.5,63.5C 126.327,64.1262 130.16,69.4595 127,79.5C 121.918,82.7903 116.418,85.1237 110.5,86.5C 108.776,91.503 106.942,96.503 105,101.5C 99.6426,105.787 94.6426,105.453 90,100.5C 88.3333,96.1667 86.6667,91.8333 85,87.5C 80.2411,85.2046 75.4077,83.0379 70.5,81C 66.2717,75.7157 66.605,70.7157 71.5,66C 76.0972,64.3577 80.5972,62.5244 85,60.5C 86.808,54.2173 89.6413,48.5506 93.5,43.5 Z"/></g>
<g><path style="opacity:1" fill="#fceac9" d="M 220.5,43.5 C 236.503,43.3334 252.503,43.5001 268.5,44C 273.436,47.9576 273.769,52.2909 269.5,57C 263.843,57.4994 258.176,57.6661 252.5,57.5C 252.5,64.1667 252.5,70.8333 252.5,77.5C 264.505,77.3335 276.505,77.5001 288.5,78C 289.931,78.4652 291.097,79.2986 292,80.5C 295.559,98.7157 289.059,111.716 272.5,119.5C 276.662,134.256 276.328,148.922 271.5,163.5C 275.409,167.647 278.576,172.314 281,177.5C 301.833,162.667 322.667,147.833 343.5,133C 349.715,131.441 354.048,133.607 356.5,139.5C 375.259,127.93 394.592,126.763 414.5,136C 429.901,146.774 438.734,161.608 441,180.5C 443.807,212.089 433.974,238.922 411.5,261C 392.539,276.823 370.873,282.157 346.5,277C 322.177,272.419 298.177,266.586 274.5,259.5C 273.679,262.554 273.679,265.554 274.5,268.5C 296.809,279.657 309.642,297.657 313,322.5C 313.241,329.896 313.407,337.23 313.5,344.5C 324.451,342.243 335.451,340.243 346.5,338.5C 346.052,333.959 346.719,329.626 348.5,325.5C 349.025,324.808 349.692,324.308 350.5,324C 382.567,325.262 414.567,327.595 446.5,331C 447.333,331.833 448.167,332.667 449,333.5C 449.667,340.833 449.667,348.167 449,355.5C 448.097,356.701 446.931,357.535 445.5,358C 415.162,360.475 384.828,362.975 354.5,365.5C 347.888,364.304 345.221,360.304 346.5,353.5C 333.09,355.679 319.756,358.179 306.5,361C 301.948,369.754 295.948,377.421 288.5,384C 295.939,384.07 303.272,384.737 310.5,386C 314.875,391.121 314.209,395.455 308.5,399C 298.839,399.5 289.172,399.666 279.5,399.5C 279.335,402.85 279.502,406.183 280,409.5C 291.066,419.897 301.399,430.897 311,442.5C 311.5,450.827 311.666,459.16 311.5,467.5C 266.833,467.5 222.167,467.5 177.5,467.5C 177.086,458.418 177.586,449.418 179,440.5C 189.279,430.221 199.613,419.887 210,409.5C 210.498,406.183 210.665,402.85 210.5,399.5C 200.494,399.666 190.494,399.5 180.5,399C 175.309,395.262 174.642,390.929 178.5,386C 186.089,384.769 193.756,384.103 201.5,384C 196.833,380.667 192.833,376.667 189.5,372C 161.781,373.056 134.448,370.389 107.5,364C 71.1809,354.195 59.6809,331.695 73,296.5C 93.4251,259.682 124.258,236.515 165.5,227C 182.517,224.786 199.35,225.619 216,229.5C 217.363,226.41 218.53,223.244 219.5,220C 202.989,201.388 202.322,182.221 217.5,162.5C 213.246,148.345 212.913,134.179 216.5,120C 211.439,116.622 206.605,112.789 202,108.5C 196.908,100.165 195.241,91.1648 197,81.5C 198.167,80.3333 199.333,79.1667 200.5,78C 212.829,77.5001 225.162,77.3335 237.5,77.5C 237.5,70.8333 237.5,64.1667 237.5,57.5C 231.439,57.7904 225.439,57.4571 219.5,56.5C 215.682,51.9164 216.016,47.583 220.5,43.5 Z M 211.5,92.5 C 233.836,92.3334 256.169,92.5 278.5,93C 277.505,96.6543 275.505,99.6543 272.5,102C 267.676,103.898 262.676,105.231 257.5,106C 255.833,107.823 254.833,109.99 254.5,112.5C 261.884,128.958 262.384,145.624 256,162.5C 255.333,164.833 255.333,167.167 256,169.5C 268.122,178.801 270.789,190.134 264,203.5C 260.306,207.194 256.64,210.86 253,214.5C 252.333,216.5 252.333,218.5 253,220.5C 257.04,226.233 259.04,232.566 259,239.5C 250.029,236.466 240.862,234.132 231.5,232.5C 231.925,228.393 233.425,224.726 236,221.5C 236.667,218.833 236.667,216.167 236,213.5C 221.422,204.11 218.088,191.777 226,176.5C 229.793,173.71 232.626,170.21 234.5,166C 226.523,148.15 226.523,130.317 234.5,112.5C 234.444,109.889 233.444,107.722 231.5,106C 226.324,105.231 221.324,103.898 216.5,102C 213.641,99.4475 211.974,96.2808 211.5,92.5 Z M 383.5,144.5 C 398.769,143.052 410.603,148.718 419,161.5C 429.594,181.107 430.26,201.107 421,221.5C 405.129,257.517 377.962,270.684 339.5,261C 318.061,255.807 296.727,250.307 275.5,244.5C 274.986,235.946 272.986,227.78 269.5,220C 274.543,215.413 278.21,209.913 280.5,203.5C 308.825,191.005 337.158,178.505 365.5,166C 369.336,161.124 369.002,156.457 364.5,152C 370.604,148.583 376.937,146.083 383.5,144.5 Z M 343.5,150.5 C 346.241,151.439 348.241,153.273 349.5,156C 339.073,161.466 328.406,166.133 317.5,170C 326.414,163.723 335.08,157.223 343.5,150.5 Z M 171.5,240.5 C 185.947,240.032 200.281,241.032 214.5,243.5C 213.836,251.528 214.502,259.528 216.5,267.5C 184.65,284.87 171.817,311.537 178,347.5C 178.578,350.903 179.745,354.07 181.5,357C 159.244,357.827 137.244,355.827 115.5,351C 105.302,348.484 96.1358,343.984 88,337.5C 82.3661,330.331 80.6995,322.331 83,313.5C 87.4077,299.426 94.7411,287.093 105,276.5C 123.571,257.799 145.738,245.799 171.5,240.5 Z M 228.5,246.5 C 239.256,249.084 249.922,252.084 260.5,255.5C 259.982,258.316 259.149,260.982 258,263.5C 249.198,260.864 240.365,260.864 231.5,263.5C 229.318,258.077 228.318,252.411 228.5,246.5 Z M 237.5,276.5 C 269.537,275.721 289.704,290.721 298,321.5C 298.865,330.264 298.365,338.93 296.5,347.5C 266.623,351.651 236.623,354.651 206.5,356.5C 203.248,356.479 200.081,356.146 197,355.5C 184.787,327.185 190.954,303.685 215.5,285C 222.461,280.852 229.795,278.019 237.5,276.5 Z M 361.5,338.5 C 385.158,340.358 408.824,342.192 432.5,344C 408.888,346.521 385.221,348.355 361.5,349.5C 361.5,345.833 361.5,342.167 361.5,338.5 Z M 281.5,363.5 C 283.288,363.215 284.955,363.548 286.5,364.5C 267.997,384.79 245.997,389.623 220.5,379C 216.89,377.056 213.557,374.723 210.5,372C 234.282,369.822 257.949,366.989 281.5,363.5 Z M 224.5,399.5 C 237.833,399.5 251.167,399.5 264.5,399.5C 264.5,401.5 264.5,403.5 264.5,405.5C 251.167,405.5 237.833,405.5 224.5,405.5C 224.5,403.5 224.5,401.5 224.5,399.5 Z M 220.5,419.5 C 236.503,419.333 252.503,419.5 268.5,420C 278.304,428.803 287.804,437.97 297,447.5C 297.442,450.74 295.942,452.573 292.5,453C 259.439,453.979 226.439,453.645 193.5,452C 192.24,450.186 192.24,448.353 193.5,446.5C 202.854,437.812 211.854,428.812 220.5,419.5 Z"/></g>
<g><path style="opacity:0.843" fill="#fceac0" d="M 131.5,87.5 C 133.655,87.372 135.655,87.872 137.5,89C 139.779,92.6564 141.779,96.4898 143.5,100.5C 146.5,101.667 149.5,102.833 152.5,104C 154.504,106.841 155.004,110.007 154,113.5C 150.863,115.986 147.363,117.819 143.5,119C 142.004,122.149 140.504,125.316 139,128.5C 136.159,130.504 132.993,131.004 129.5,130C 127.014,126.863 125.181,123.363 124,119.5C 120.851,118.004 117.684,116.504 114.5,115C 110.607,111.412 110.607,107.746 114.5,104C 117.994,102.783 121.327,101.283 124.5,99.5C 125.74,94.6797 128.074,90.6797 131.5,87.5 Z M 132.5,99.5 C 134.365,101.513 136.032,103.846 137.5,106.5C 139.833,107.667 142.167,108.833 144.5,110C 138.811,110.858 135.144,114.025 133.5,119.5C 131.945,114.445 128.612,111.278 123.5,110C 125.833,108.5 128.167,107 130.5,105.5C 131.747,103.677 132.414,101.677 132.5,99.5 Z"/></g>
<g><path style="opacity:1" fill="#fceac9" d="M 236.5,282.5 C 240.514,282.334 244.514,282.501 248.5,283C 253.381,287.466 253.381,291.799 248.5,296C 224.663,297.837 211.829,310.671 210,334.5C 207.091,337.394 203.591,338.227 199.5,337C 198.299,336.097 197.465,334.931 197,333.5C 196.383,311.563 205.883,295.73 225.5,286C 229.254,284.691 232.921,283.525 236.5,282.5 Z"/></g>
</svg>
