<?xml version="1.0" encoding="UTF-8"?>
<!DOCTYPE svg PUBLIC "-//W3C//DTD SVG 1.1//EN" "http://www.w3.org/Graphics/SVG/1.1/DTD/svg11.dtd">
<svg xmlns="http://www.w3.org/2000/svg" version="1.1" width="3333px" height="3333px" style="shape-rendering:geometricPrecision; text-rendering:geometricPrecision; image-rendering:optimizeQuality; fill-rule:evenodd; clip-rule:evenodd" xmlns:xlink="http://www.w3.org/1999/xlink">
<g><path style="opacity:0.997" fill="#000000" d="M 1015.5,363.5 C 1449.17,363.333 1882.83,363.5 2316.5,364C 2499.55,373.3 2654.72,443.134 2782,573.5C 2892.59,692.071 2954.25,832.738 2967,995.5C 2968.66,1435.82 2968.99,1876.16 2968,2316.5C 2956.59,2520.49 2873.09,2687.66 2717.5,2818C 2606.29,2906.72 2479.29,2956.39 2336.5,2967C 1896.18,2968.66 1455.84,2968.99 1015.5,2968C 811.511,2956.59 644.345,2873.09 514,2717.5C 420.869,2600.5 370.869,2466.83 364,2316.5C 363.333,1882.83 363.333,1449.17 364,1015.5C 375.411,811.511 458.911,644.345 614.5,514C 731.699,420.976 865.366,370.809 1015.5,363.5 Z"/></g>
<g><path style="opacity:1" fill="#fce9c0" d="M 2135.5,2863.5 C 2135.5,2586.17 2135.5,2308.83 2135.5,2031.5C 2240.33,2031.83 2345,2031.5 2449.5,2030.5C 2477.85,2027.31 2494.35,2011.65 2499,1983.5C 2499.67,1841.17 2499.67,1698.83 2499,1556.5C 2496.14,1535.63 2484.97,1521.13 2465.5,1513C 2461.28,1511.53 2456.94,1510.53 2452.5,1510C 2346.5,1509.5 2240.5,1509.33 2134.5,1509.5C 2134.33,1455.17 2134.5,1400.83 2135,1346.5C 2139.84,1321.66 2154.67,1306.83 2179.5,1302C 2271.17,1301.67 2362.83,1301.33 2454.5,1301C 2480.24,1295.92 2495.08,1280.42 2499,1254.5C 2499.67,1112.17 2499.67,969.833 2499,827.5C 2494.97,801.133 2479.8,785.633 2453.5,781C 2289.83,780.333 2126.17,780.333 1962.5,781C 1835.44,790.084 1737.27,847.584 1668,953.5C 1633.84,1010 1615.84,1071.34 1614,1137.5C 1613.5,1261.5 1613.33,1385.5 1613.5,1509.5C 1525.17,1509.33 1436.83,1509.5 1348.5,1510C 1322.57,1513.93 1307.07,1528.76 1302,1554.5C 1301.33,1698.5 1301.33,1842.5 1302,1986.5C 1307.05,2009.89 1321.22,2024.39 1344.5,2030C 1434.17,2030.5 1523.83,2030.67 1613.5,2030.5C 1613.5,2308.17 1613.5,2585.83 1613.5,2863.5C 1412.5,2863.67 1211.5,2863.5 1010.5,2863C 849.745,2851.82 715.912,2786.65 609,2667.5C 523.77,2568.29 477.103,2452.96 469,2321.5C 468.333,1884.5 468.333,1447.5 469,1010.5C 480.297,846.074 547.797,710.241 671.5,603C 769.472,521.556 882.472,476.889 1010.5,469C 1229,468.833 1447.5,468.667 1666,468.5C 1884.5,468.667 2103,468.833 2321.5,469C 2488.93,480.679 2626.43,550.179 2734,677.5C 2812.31,774.363 2855.31,885.363 2863,1010.5C 2863.67,1447.5 2863.67,1884.5 2863,2321.5C 2851.32,2488.93 2781.82,2626.43 2654.5,2734C 2557.65,2812.31 2446.65,2855.31 2321.5,2863C 2259.5,2863.5 2197.5,2863.67 2135.5,2863.5 Z"/></g>
<g><path style="opacity:1" fill="#fce9c0" d="M 2394.5,1614.5 C 2394.5,1718.17 2394.5,1821.83 2394.5,1925.5C 2289.33,1925.17 2184.33,1925.5 2079.5,1926.5C 2052.58,1929.92 2036.42,1944.92 2031,1971.5C 2030.5,2268.83 2030.33,2566.17 2030.5,2863.5C 1926.5,2863.5 1822.5,2863.5 1718.5,2863.5C 1718.67,2567.5 1718.5,2271.5 1718,1975.5C 1714.38,1946.71 1698.21,1930.38 1669.5,1926.5C 1582,1925.5 1494.33,1925.17 1406.5,1925.5C 1406.5,1821.83 1406.5,1718.17 1406.5,1614.5C 1494.67,1614.83 1582.67,1614.5 1670.5,1613.5C 1698.66,1609.17 1714.49,1592.84 1718,1564.5C 1718.33,1416.5 1718.67,1268.5 1719,1120.5C 1730.01,1032.92 1772.84,966.088 1847.5,920C 1884.88,898.237 1925.22,886.57 1968.5,885C 2110.5,884.333 2252.5,884.333 2394.5,885C 2395.5,989.096 2395.83,1093.26 2395.5,1197.5C 2320.83,1197.33 2246.17,1197.5 2171.5,1198C 2113.5,1205.69 2071.34,1235.52 2045,1287.5C 2036.89,1304.6 2032.22,1322.6 2031,1341.5C 2030.83,1379.33 2030.67,1417.17 2030.5,1455C 2030.35,1494.54 2030.85,1534.04 2032,1573.5C 2038.02,1594.85 2051.86,1608.02 2073.5,1613C 2180.67,1613.17 2287.67,1613.67 2394.5,1614.5 Z"/></g>
<g><path style="opacity:0.812" fill="#d8c8a5" d="M 1670.5,1613.5 C 1582.67,1614.5 1494.67,1614.83 1406.5,1614.5C 1406.5,1718.17 1406.5,1821.83 1406.5,1925.5C 1494.33,1925.17 1582,1925.5 1669.5,1926.5C 1581.5,1926.5 1493.5,1926.5 1405.5,1926.5C 1405.5,1822.17 1405.5,1717.83 1405.5,1613.5C 1493.83,1613.5 1582.17,1613.5 1670.5,1613.5 Z"/></g>
<g><path style="opacity:0.812" fill="#d2c2a0" d="M 2394.5,1614.5 C 2395.5,1718.33 2395.83,1822.33 2395.5,1926.5C 2290.17,1926.5 2184.83,1926.5 2079.5,1926.5C 2184.33,1925.5 2289.33,1925.17 2394.5,1925.5C 2394.5,1821.83 2394.5,1718.17 2394.5,1614.5 Z"/></g>
<g><path style="opacity:0.812" fill="#e8d7b1" d="M 2449.5,2030.5 C 2345,2031.5 2240.33,2031.83 2135.5,2031.5C 2135.5,2308.83 2135.5,2586.17 2135.5,2863.5C 2134.5,2586 2134.17,2308.33 2134.5,2030.5C 2239.5,2030.5 2344.5,2030.5 2449.5,2030.5 Z"/></g>
</svg>
