<?xml version="1.0" encoding="UTF-8"?>
<!DOCTYPE svg PUBLIC "-//W3C//DTD SVG 1.1//EN" "http://www.w3.org/Graphics/SVG/1.1/DTD/svg11.dtd">
<svg xmlns="http://www.w3.org/2000/svg" version="1.1" width="3333px" height="3333px" style="shape-rendering:geometricPrecision; text-rendering:geometricPrecision; image-rendering:optimizeQuality; fill-rule:evenodd; clip-rule:evenodd" xmlns:xlink="http://www.w3.org/1999/xlink">
<g><path style="opacity:0.999" fill="#0a0a08" d="M 1299.5,-0.5 C 1543.83,-0.5 1788.17,-0.5 2032.5,-0.5C 2145.74,0.629943 2259.08,4.12994 2372.5,10C 2476.45,14.3261 2578.45,30.6595 2678.5,59C 2888.45,120.651 3052.95,242.818 3172,425.5C 3229.36,520.553 3269.7,622.553 3293,731.5C 3305.68,791.928 3314.35,852.928 3319,914.5C 3326.9,1043.21 3331.4,1171.88 3332.5,1300.5C 3332.5,1544.17 3332.5,1787.83 3332.5,2031.5C 3331.4,2160.12 3326.9,2288.79 3319,2417.5C 3311.52,2531.56 3288.19,2642.23 3249,2749.5C 3202.61,2874.51 3130.77,2982.34 3033.5,3073C 2948.85,3152.51 2851.51,3212.18 2741.5,3252C 2647.63,3285.84 2550.96,3307.18 2451.5,3316C 2387.94,3321.49 2324.27,3325.15 2260.5,3327C 2184.36,3329.67 2108.36,3331.5 2032.5,3332.5C 1788.17,3332.5 1543.83,3332.5 1299.5,3332.5C 1171.21,3331.38 1042.88,3326.88 914.5,3319C 800.439,3311.52 689.772,3288.19 582.5,3249C 457.491,3202.61 349.658,3130.77 259,3033.5C 179.486,2948.85 119.82,2851.51 80,2741.5C 46.1583,2647.63 24.825,2550.96 16,2451.5C 10.5054,2387.94 6.83873,2324.28 5,2260.5C 2.32447,2184.36 0.491142,2108.36 -0.5,2032.5C -0.5,1788.17 -0.5,1543.83 -0.5,1299.5C 0.621095,1171.21 5.1211,1042.88 13,914.5C 20.4784,800.439 43.8118,689.772 83,582.5C 129.394,457.491 201.227,349.658 298.5,259C 383.155,179.486 480.488,119.82 590.5,80C 684.372,46.1583 781.038,24.825 880.5,16C 944.062,10.5719 1007.73,6.90522 1071.5,5C 1147.64,2.33453 1223.64,0.501193 1299.5,-0.5 Z"/></g>
<g><path style="opacity:1" fill="#fce9c0" d="M 1447.5,299.5 C 1650.17,299.263 1852.84,299.763 2055.5,301C 2165.59,301.822 2275.59,305.489 2385.5,312C 2461.1,316.711 2535.1,330.044 2607.5,352C 2687.3,376.213 2757.97,415.88 2819.5,471C 2859.5,507.303 2893.67,548.136 2922,593.5C 2963.17,665.877 2990.84,743.21 3005,825.5C 3012.05,865.576 3017.05,905.909 3020,946.5C 3029.06,1113.7 3033.06,1281.04 3032,1448.5C 3032.74,1650.84 3032.4,1853.17 3031,2055.5C 3030.18,2165.59 3026.51,2275.59 3020,2385.5C 3015.29,2461.1 3001.96,2535.1 2980,2607.5C 2957.23,2683.41 2920.23,2751.08 2869,2810.5C 2842.33,2840.17 2813.5,2867.34 2782.5,2892C 2725.57,2933.8 2662.9,2964.46 2594.5,2984C 2525.17,3003.62 2454.5,3015.62 2382.5,3020C 2217.3,3029.06 2051.96,3033.06 1886.5,3032C 1682.83,3032.74 1479.16,3032.41 1275.5,3031C 1176.1,3030.22 1076.77,3027.22 977.5,3022C 893.524,3018.6 811.191,3005.27 730.5,2982C 596.59,2941.67 491.423,2863.17 415,2746.5C 381.04,2689.97 356.04,2629.64 340,2565.5C 324.273,2500.41 314.606,2434.41 311,2367.5C 302.714,2207.28 299.047,2046.94 300,1886.5C 299.257,1682.83 299.59,1479.16 301,1275.5C 301.779,1176.1 304.779,1076.77 310,977.5C 313.396,893.524 326.73,811.191 350,730.5C 368.71,668.086 396.71,610.419 434,557.5C 483.367,491.781 543.534,438.614 614.5,398C 702.321,353.458 795.321,326.458 893.5,317C 911.143,315.086 928.81,313.42 946.5,312C 1015.13,308.261 1083.8,305.261 1152.5,303C 1250.99,301.317 1349.33,300.15 1447.5,299.5 Z"/></g>
<g><path style="opacity:1" fill="#0a0a08" d="M 2540.5,576.5 C 2621.58,574.283 2684.08,606.95 2728,674.5C 2764.28,741.656 2764.62,808.989 2729,876.5C 2692.23,936.197 2638.73,969.364 2568.5,976C 2486.19,978.104 2423.69,944.27 2381,874.5C 2346.72,808.322 2347.06,742.322 2382,676.5C 2418.5,617.49 2471.33,584.157 2540.5,576.5 Z"/></g>
<g><path style="opacity:1" fill="#0a0a08" d="M 1629.5,810.5 C 1872.79,804.506 2082.79,884.006 2259.5,1049C 2416.22,1202.98 2503.05,1390.14 2520,1610.5C 2531.74,1847.29 2460.74,2054.96 2307,2233.5C 2171.51,2383.86 2003.35,2476.36 1802.5,2511C 1552.81,2546.92 1328.81,2487.92 1130.5,2334C 962.196,2195.66 859.029,2018.5 821,1802.5C 785.082,1552.8 844.082,1328.8 998,1130.5C 1122.35,978.348 1280.52,878.848 1472.5,832C 1524.41,820.655 1576.74,813.489 1629.5,810.5 Z"/></g>
<g><path style="opacity:1" fill="#fce9c0" d="M 1637.5,1110.5 C 1793.63,1105.58 1929.3,1155.08 2044.5,1259C 2166.3,1376.17 2225.13,1519.67 2221,1689.5C 2212.07,1846.17 2149.91,1977 2034.5,2082C 1903.21,2194.09 1751.54,2238.43 1579.5,2215C 1429.1,2188.59 1308.26,2114.76 1217,1993.5C 1129.05,1869.03 1095.72,1731.03 1117,1579.5C 1143.41,1429.1 1217.24,1308.26 1338.5,1217C 1427.74,1152.73 1527.41,1117.23 1637.5,1110.5 Z"/></g>
</svg>
